<svg viewBox="0 0 128 270" fill="none" xmlns="http://www.w3.org/2000/svg">
    <g clip-path="url(#clip0_195_1641)">
        <path d="M98.0523 148.78C99.2398 148.006 107.767 142.172 107.101 134.714C107.098 134.674 107.088 134.637 107.075 134.6C106.782 133.821 103.387 125.075 97.4109 122.265C95.7538 121.487 93.796 121.716 92.3179 122.799C84.3384 128.652 46.6682 125.866 36.3815 120.788C36.1153 120.658 19.6235 119.447 14.4827 132.796C14.4759 132.809 14.4724 132.823 14.4689 132.836C14.3996 133.087 13.7265 135.622 14.5352 136.338C14.6943 136.477 14.7052 136.722 14.5932 136.899C13.154 139.147 6.20683 150.904 4.309 171.088C4.28653 171.336 4.46828 171.553 4.71553 171.565C7.72594 171.719 24.9188 172.695 27.961 175.071C28.2198 175.275 28.5149 175.177 28.6149 174.862C29.4777 172.085 32.5826 162.173 34.2637 157.746C34.3735 157.455 36.0678 154.071 36.0648 154.38C36.0188 158.078 34.8016 170.838 36.4404 171.441C36.5969 171.5 36.7025 171.645 36.7109 171.813C36.7867 173.3 37.0373 179.153 36.4825 181.202C35.8445 183.559 29.3618 226.27 30.7331 228.939C31.9733 231.354 36.7987 235.647 37.7036 236.441C37.7964 236.522 37.9197 236.56 38.0435 236.545L58.2521 234.036C58.4294 234.014 58.5744 233.888 58.6195 233.718C59.3612 231.009 65.2114 209.682 66.4233 205.378C66.4787 205.18 66.6672 205.048 66.8709 205.063L68.1437 205.153C68.3675 205.168 68.5429 205.351 68.5474 205.58C68.6017 209.269 68.9316 228.28 69.8563 229.786C70.7481 231.238 74.0013 234.961 74.8179 235.886C74.9304 236.014 75.1104 236.063 75.2747 236.014L98.6979 228.814C98.842 228.769 98.9535 228.656 98.9917 228.508C99.4848 226.61 102.614 213.178 100.704 184.079C100.704 184.079 100.697 183.461 99.2186 182.839C99.0987 182.788 99.0197 182.67 99.0276 182.539C99.0276 182.539 99.1329 171.715 99.133 171.702L97.9328 149.034C97.9271 148.933 97.9715 148.836 98.059 148.78L98.0523 148.78Z" fill="#F5E8CE"/>
        <path d="M68.9332 129.479C68.9332 129.479 83.9965 176.871 69.8891 205.109" stroke="#C3B2AF" stroke-width="3" stroke-miterlimit="10"/>
        <path d="M14.1131 137.79C14.4251 137.33 14.4509 136.746 14.2453 136.227C13.7593 134.987 14.3934 132.694 14.4054 133.514C14.4054 133.514 31.9264 139.93 36.1735 153.163C36.2189 153.307 36.4194 153.316 36.4776 153.176C37.893 149.595 38.4421 145.723 38.075 141.883L36.401 125.998C36.401 125.998 36.381 125.991 36.3743 125.987C36.3743 125.987 35.9618 120.626 36.9811 120.995C45.842 124.196 77.3856 128.961 91.5672 122.993C91.5907 122.983 91.6108 122.97 91.6278 122.95C91.7664 122.79 91.9184 122.627 92.0905 122.454C93.0558 121.504 94.4664 121.179 95.7629 121.567C100.789 123.079 106.642 129.963 107.362 135.012C107.519 136.433 107.291 137.827 106.824 139.159C106.807 139.209 106.813 139.259 106.843 139.3C109.085 142.49 115.207 152.277 118.116 167.634C118.132 167.711 118.088 167.788 118.018 167.817L104.464 173.187C101.836 174.229 99.0596 172.366 98.7762 169.547L97.1383 147.197L97.1518 147.184C95.9221 139.912 92.8178 131.541 91.3399 127.804C91.3007 127.71 91.1907 127.675 91.1032 127.731C85.447 131.523 69.0062 139.15 39.2975 127.201C39.1544 127.142 39.0191 127.299 39.1014 127.43C40.362 129.456 41.0345 132.494 41.0345 132.494C43.0637 141.757 42.0237 150.044 41.0834 154.62C40.1993 158.901 40.2865 163.339 41.4422 167.556C43.8733 176.414 48.8416 177.355 50.6899 177.383C50.8637 177.385 51.0343 177.376 51.2049 177.364C51.3086 177.355 51.3913 177.443 51.377 177.544L50.3407 185.103C50.3298 185.193 50.3892 185.274 50.4794 185.285C61.6723 186.549 82.1821 187.775 96.2026 182.219C97.465 181.654 98.3372 178.937 98.7751 177.213C98.8204 177.029 99.0908 177.065 99.0923 177.256L99.0668 182.284C98.9498 182.968 100.618 182.947 100.966 183.95C102.331 184.84 101.616 224.04 99.0872 228.643C98.9987 228.804 98.7589 228.721 98.7873 228.543C99.2829 225.363 101.725 207.96 99.6657 185.663C99.6567 185.559 99.5537 185.491 99.4565 185.523C97.9807 186.029 88.3585 189.275 84.0221 189.351C83.9954 189.35 83.9719 189.357 83.9517 189.37C83.6493 189.532 81.2508 190.73 75.6442 190.8C69.8804 190.875 67.175 190.291 66.9582 190.242C66.9482 190.242 66.9381 190.242 66.9281 190.242C66.4067 190.237 53.1306 190.057 47.8711 188.808C42.5048 187.534 39.5367 190.593 38.5712 193.624C37.6609 196.482 33.3424 228.054 32.8492 231.675C32.8312 231.809 32.6636 231.861 32.571 231.759L30.3746 229.361C30.3449 229.327 30.3285 229.287 30.3323 229.243C30.4189 227.898 31.8653 206.354 36.3066 182.435C37.4553 176.721 36.6537 172.192 36.6537 172.192C34.1185 171.288 35.2923 157.151 35.4088 155.834C35.3817 155.87 35.3579 155.91 35.3407 155.954C34.732 157.703 30.6327 169.491 29.5282 173.408C28.5102 177.033 27.0608 174.481 26.6676 173.669C26.5987 173.527 26.5902 173.369 26.6385 173.222C27.255 171.358 31.5604 158.313 32.7145 153.421C33.9732 148.076 25.0991 140.747 20.0534 138.472C18.5358 137.786 16.7487 138.329 15.8625 139.744C13.2345 143.921 7.35572 154.785 5.91109 170.305C5.88495 170.587 5.69181 170.853 5.41061 170.894C5.26666 170.916 5.1421 171.006 5.08063 171.139C2.46606 176.686 6.67231 148.751 14.1231 137.794L14.1131 137.79Z" fill="#C3B2AF"/>
        <path d="M88.652 196.907C88.8234 196.808 88.9883 197.042 88.8367 197.168C84.611 200.637 74.7903 209.161 74.5864 213.637C74.345 218.864 74.7834 233.25 74.8571 235.638C74.8625 235.772 74.7079 235.851 74.5984 235.769L69.5085 231.863C69.4753 231.839 69.4522 231.802 69.4459 231.762C69.2355 230.367 68.5302 208.369 68.54 205.647C68.541 205.543 68.4448 205.468 68.3443 205.49C68.0159 205.564 67.3231 205.655 66.6308 205.343C66.5376 205.302 66.4303 205.341 66.4059 205.441C65.7644 207.815 59.2382 231.971 58.2356 235.382C58.1976 235.506 58.0402 235.534 57.9576 235.436C57.4951 234.871 57.162 234.408 57.0532 234.253C57.0268 234.216 57.0172 234.172 57.0276 234.128C57.3387 232.732 62.4299 210.051 65.6673 204.39C65.6945 204.344 65.7416 204.314 65.7951 204.311C66.8353 204.257 77.1615 203.549 88.652 196.907Z" fill="#C3B2AF"/>
        <path d="M68.4734 205.616C68.4675 205.539 68.515 205.469 68.5887 205.449C69.8188 205.115 79.3601 203.657 84.8822 199.905C84.8822 199.905 75.9824 206.209 68.7308 206.991C68.6405 207 68.5576 206.932 68.5518 206.838L68.4735 205.612L68.4734 205.616Z" fill="#928583"/>
        <path d="M106.937 139.193C107.227 139.639 107.78 140.531 108.169 141.42C108.185 141.458 108.188 141.501 108.175 141.538C107.931 142.22 105.536 148.564 100.268 151.205C100.205 151.238 100.17 151.305 100.183 151.375C100.462 152.915 103.366 169.165 102.767 172.371C102.787 174.09 101.465 173.527 100.396 172.798C99.4927 172.182 98.9107 171.196 98.7842 170.104C98.2203 165.188 97.6365 150.978 97.466 149.946C97.1725 148.157 105.682 141.812 106.656 139.214C106.701 139.094 106.868 139.078 106.937 139.186L106.937 139.193Z" fill="#928583"/>
        <path d="M104.453 164.299C105.457 163.58 108.094 161.887 111.999 160.757C112.177 160.705 112.288 160.948 112.133 161.047C110.519 162.082 106.938 164.232 104.574 164.585C104.407 164.61 104.315 164.395 104.453 164.295L104.453 164.299Z" fill="#928583"/>
        <path d="M97.3766 149.854C97.3766 149.854 102.457 135.444 95.1414 121.551C95.1414 121.551 91.8103 117.592 87.8504 120.54C87.8504 120.54 96.8239 135.876 97.3766 149.854Z" fill="#172D57"/>
        <path d="M39.706 225.78C39.778 231.433 44.1476 233.442 47.8321 234.069C52.1817 234.35 58.1627 231.535 58.0907 225.882C58.0186 220.229 54.2767 214.517 48.9208 214.585C43.5682 214.654 39.6306 220.127 39.7026 225.78L39.706 225.78Z" fill="#112241"/>
        <path d="M40.6498 225.319C40.7143 230.372 44.6213 232.168 47.9153 232.727C51.804 232.977 57.1502 230.461 57.0857 225.409C57.0212 220.357 53.6745 215.253 48.8903 215.313C44.1061 215.374 40.5853 220.267 40.6498 225.319Z" fill="#3C5FA4"/>
        <path d="M83.4962 225.555C83.5682 231.208 87.2658 233.227 92.6184 233.159C97.971 233.09 100.268 229.987 100.196 224.334C100.124 218.682 98.3978 213.952 93.0452 214.021C87.6926 214.09 83.4241 219.902 83.4962 225.555Z" fill="#112241"/>
        <path d="M84.4969 225.769C84.563 231.009 87.891 232.881 92.7119 232.821C97.5296 232.76 99.5967 229.884 99.5307 224.644C99.4646 219.403 97.9094 215.018 93.0917 215.082C88.2741 215.143 84.4342 220.529 84.5003 225.769L84.4969 225.769Z" fill="#3C5FA4"/>
        <path d="M26.1368 122.045C26.1368 122.045 26.7985 119.312 31.5444 119.07C32.8822 119.002 34.184 119.538 35.1072 120.517C39.2465 124.898 50.1102 139.04 36.4767 155.334C36.4767 155.334 42.327 142.582 33.6327 127.072C32.2231 124.557 29.8206 122.735 27.0014 122.167C26.4576 122.058 26.1368 122.041 26.1368 122.041L26.1368 122.045Z" fill="#3C5FA4"/>
        <path d="M32.9171 119.19C33.7944 119.387 34.6025 119.821 35.2618 120.428C36.3253 121.405 37.9779 123.345 39.8908 127.045C39.8908 127.045 34.7251 122.336 34.296 128.307C34.296 128.307 31.9434 122.729 26.1368 122.045C25.9611 121.888 28.0172 118.089 32.9171 119.19Z" fill="#172D57"/>
        <path d="M37.8941 138.837C41.3139 148.104 43.1317 138.559 43.1317 138.559C43.7755 148.323 36.4767 155.334 36.4767 155.334C39.0463 146.853 37.8941 138.837 37.8941 138.837Z" fill="#172D57"/>
        <path d="M31.0137 173.285C31.0143 173.228 30.988 173.174 30.9382 173.146C30.0074 172.607 20.9423 167.726 3.88233 168.899C3.88233 168.899 2.87935 168.913 1.57267 171.28C0.228569 173.714 2.67963 186.009 3.53545 186.003C3.64241 186.004 3.72175 186.096 3.68735 186.196C3.05719 188.09 -0.966443 201.03 4.38014 208.107C4.40655 208.141 6.76148 211.074 10.7231 211.378C10.7532 211.378 10.7831 211.395 10.8063 211.419C11.1403 211.795 14.1449 214.955 19.4529 213.966C19.483 213.96 19.5131 213.967 19.5364 213.977C20.0987 214.248 26.4855 217.136 24.7674 207.849C22.5295 201.819 23.5372 200.282 27.0697 205.19C28.6896 206.024 29.6725 206.014 31.0889 205.417C35.1236 203.721 30.6177 193.722 26.9382 188.463C26.8954 188.399 26.9029 188.318 26.9569 188.262C27.5308 187.68 30.5337 184.141 31.0137 173.288L31.0137 173.285Z" fill="#3C5FA4"/>
        <path d="M1.62933 183.669C1.17408 180.64 -0.795041 168.286 4.551 168.889C3.86281 170.906 1.29253 177.742 3.99209 184.766C4.04423 184.904 4.19048 184.989 4.33775 184.971C6.05826 184.736 16.3059 183.52 24.8367 186.627C25.0199 186.692 25.2147 186.6 25.2734 186.41C25.7572 184.786 27.7998 177.207 27.926 171.795C30.2799 172.771 29.6011 172.11 31.2864 173.093C31.2778 174.657 30.8072 184.554 26.8658 188.348C26.8658 188.348 34.2986 198.151 32.4536 203.963C32.3398 204.318 32.1394 204.645 31.8629 204.894C31.8393 204.914 31.8123 204.937 31.7854 204.96C32.8698 203.786 33.285 199.94 23.73 187.338C19.9333 186.227 12.8975 184.759 3.76989 185.959C3.45176 186.016 2.83991 186.027 2.10838 184.939C1.85135 184.557 1.69849 184.119 1.62937 183.666L1.62933 183.669Z" fill="#172D57"/>
        <path d="M31.782 204.96C31.6131 205.143 31.4281 205.262 31.2602 205.338C31.4653 205.212 31.6371 205.083 31.782 204.96Z" fill="#172D57"/>
        <path d="M26.9925 205.222C25.373 204.354 24.1841 202.856 23.5994 201.108C23.1901 199.882 22.8035 198.395 22.9657 197.52C22.9657 197.52 25.0637 204.878 30.7541 205.477C30.7541 205.477 30.9815 205.469 31.2602 205.341C30.3825 205.876 28.9412 206.272 26.9925 205.222Z" fill="#172D57"/>
        <path d="M22.4419 214.603C20.3695 214.925 19.4998 213.953 19.4998 213.953L18.6462 214.079C14.0116 211.473 13.8519 200.738 14.6178 198.295C15.276 215.513 23.6106 214.39 22.4419 214.603Z" fill="#172D57"/>
        <path d="M12.8536 212.986C11.2296 212.232 10.7733 211.381 10.7733 211.381L9.9619 211.283C7.40784 205.109 7.93125 198.381 7.93125 198.381C8.05046 207.777 12.8536 212.986 12.8536 212.986Z" fill="#172D57"/>
        <path d="M99.5081 223.868C99.5081 223.868 93.8972 228.845 84.4969 225.773C84.2732 226.428 84.2085 230.684 88.4436 232.43C90.2115 233.159 92.1937 233.171 94.0113 232.578C99.5815 230.759 99.7503 229.553 99.5081 223.868Z" fill="#172D57"/>
        <path d="M56.6281 222.276C56.6281 222.276 49.1178 231.447 40.9883 222.476C40.923 221.972 37.3538 230.815 47.912 232.727C57.716 234.501 57.7455 224.935 56.6248 222.276L56.6281 222.276Z" fill="#172D57"/>
        <path d="M99.8396 227.936C99.8396 227.936 101.584 228.346 101.939 230.02C102.293 231.695 100.598 241.382 100.18 242.093C99.7618 242.804 98.4314 243.493 98.4314 243.493C98.4314 243.493 117.215 248.623 114.376 262.085C114.376 262.085 109.106 268.193 86.6612 264.453C86.6612 264.453 71.5858 261.961 68.2255 260.663C68.2255 260.663 68.7681 250.585 68.3555 244.549C68.3555 244.549 67.3389 243.556 67.3185 241.878C67.298 240.199 66.8479 231.143 67.1652 229.796C67.4825 228.45 69.0883 228.667 69.0883 228.667C69.0883 228.667 67.2197 234.157 81.2445 232.971C95.2693 231.785 100.477 232.151 99.8329 227.939L99.8396 227.936Z" fill="#3C5FA4"/>
        <path d="M101.53 244.587C101.53 244.587 80.7489 246.459 83.0737 263.834C76.9043 262.992 72.8585 262.057 68.2322 260.659C68.4447 256.691 68.6886 247.073 68.356 244.496C68.2192 244.474 67.5673 244.129 67.3219 241.871C67.0702 239.566 66.8621 231.75 67.1686 229.79C67.3896 228.379 68.4607 228.238 69.042 228.271C69.2425 228.283 69.3879 228.455 69.3926 228.657C69.4343 229.865 71.0493 230.858 73.2031 231.446C81.8514 233.809 100.736 233.755 99.8948 227.413C99.8948 227.413 101.585 228.285 101.935 230.017C102.286 231.749 102.441 243.381 98.4281 243.489L101.526 244.587L101.53 244.587Z" fill="#172D57"/>
        <path d="M69.1502 228.144C70.3424 235.144 99.9706 233.029 99.8233 227.553C103.716 234.243 70.2908 236.667 69.1502 228.144Z" fill="#112241"/>
        <path d="M98.4314 243.489C98.4314 243.489 90.1487 249.246 68.3589 244.546C68.3589 244.546 88.4668 248.259 98.4314 243.489Z" fill="#112241"/>
        <path d="M59.6266 230.871C59.6266 230.871 61.5935 231.776 60.9487 233.797C60.3039 235.818 59.0688 243.892 58.076 244.574C57.0832 245.255 56.4146 245.266 56.4146 245.266C56.4146 245.266 54.5959 260.057 54.9677 263.074C55.3395 266.092 26.3484 273.51 21.8658 262.491C21.8658 262.491 22.3948 251.406 27.6419 243.284C27.6419 243.284 26.2977 242.63 25.612 241.298C24.9263 239.965 26.7892 228.528 26.7892 228.528C26.7892 228.528 28.4748 227.077 30.2993 227.145C30.2993 227.145 27.4919 231.203 42.2262 233.028C56.9571 234.853 59.7031 232.288 59.6334 230.868L59.6266 230.871Z" fill="#3C5FA4"/>
        <path d="M59.6266 230.871C60.0393 231.063 61.5084 231.933 60.9487 233.797C61.0336 234.687 59.1923 243.564 58.076 244.574C58.076 244.574 57.4181 245.198 56.4146 245.266C56.4146 245.266 54.8865 256.307 54.9677 263.074C54.9677 263.074 54.3715 250.479 40.3429 247.59C26.3177 244.701 21.8625 262.491 21.8625 262.491C21.8625 262.491 22.3438 250.811 27.1372 243.961C27.3711 243.624 27.2886 243.17 26.9499 242.942C26.5148 242.652 25.9715 242.147 25.6053 241.297C24.9123 239.683 26.7825 228.528 26.7825 228.528C26.7825 228.528 28.0258 226.835 30.3294 226.8C30.433 226.801 30.492 226.926 30.421 227.006C29.8127 227.684 28.4068 229.943 34.8698 231.53C34.8698 231.53 32.8272 230.855 32.1619 231.201C32.1619 231.201 30.5993 239.95 31.302 242.625C31.302 242.625 37.2642 245.523 49.8274 244.759C53.2993 244.547 56.3561 242.338 57.6379 239.092C58.1109 237.895 58.4345 236.589 58.4205 235.273C58.4115 234.477 58.1282 233.709 57.6395 233.084L57.4777 232.881C57.4777 232.881 59.697 232.573 59.6233 230.874L59.6266 230.871Z" fill="#172D57"/>
        <path d="M43.8094 233.503C43.2026 233.336 26.2868 231.376 30.4108 227.019C30.4514 226.976 30.5279 227.013 30.5072 227.074C30.1937 228.03 30.0546 231.342 42.2194 233.034C42.2147 232.83 58.4873 235.629 59.6266 230.874C59.6266 230.874 60.5564 235.978 43.8094 233.506L43.8094 233.503Z" fill="#112241"/>
        <path d="M56.4145 245.269C56.4145 245.269 41.8437 249.326 27.6385 243.287C27.6385 243.287 39.8173 247.672 56.4145 245.269Z" fill="#112241"/>
        <path d="M117.735 165.24C117.735 165.24 120.702 165.715 121.054 167.051C121.405 168.387 122.538 178.78 122.22 180.126C121.903 181.472 121.245 182.154 120.583 182.832C120.583 182.832 127.75 194.488 122.196 204.628C116.642 214.767 109.249 211.843 110.222 209.479C110.222 209.479 105.582 212.559 103.19 208.561C103.19 208.561 102.175 208.109 101.921 207.764C101.667 207.419 102.174 198.962 100.955 186.162C100.955 186.162 101.443 184.71 100.154 184.245C98.8651 183.779 100.198 171.152 100.198 171.152C100.198 171.152 104.358 174.105 118.007 166.817L117.735 165.237L117.735 165.24Z" fill="#3C5FA4"/>
        <path d="M100.355 184.25C100.337 182.944 100.898 175.465 101.468 171.526C101.475 171.466 103.209 172.265 107.345 171.198C107.345 171.198 107.151 182.839 108.304 184.26L114.395 184.266C113.443 185.492 105.07 183.393 104.869 197.814C104.838 199.961 104.08 202.012 105.61 203.51C106.626 204.503 109.99 206.14 115.206 195.669C116.571 201.079 115.305 204.42 110.372 209.83C107.524 211.218 104.763 211.896 103.194 208.568C103.194 208.568 102.274 208.942 101.249 207.109L100.158 184.251L100.355 184.253L100.355 184.25Z" fill="#172D57"/>
        <path d="M100.186 171.021C100.186 171.021 101.196 171.678 102.199 171.664C102.694 174.358 102.583 180.569 101.018 184.099C103.362 184.403 106.632 184.348 107.965 184.435C111.603 184.326 116.106 183.92 120.583 182.832C120.583 182.832 113.887 185.556 104.985 184.916C104.69 184.947 101.868 191.974 101.246 207.103L100.16 184.382C99.9037 184.225 99.6883 184.035 99.5301 183.802C99.5301 183.802 98.8787 176.536 100.186 171.014L100.186 171.021Z" fill="#112241"/>
        <path d="M115.206 195.669C115.899 197.673 115.626 202.376 113.644 204.417C109.338 207.493 110.203 210.305 110.203 210.305C109.68 208.769 110.334 207.144 112.157 205.064C116.312 202.285 115.203 195.669 115.203 195.669L115.206 195.669Z" fill="#112241"/>
        <path d="M103.328 208.831L103.394 208.959C103.394 208.959 103.361 208.926 103.328 208.831Z" fill="#112241"/>
        <path d="M103.328 208.831L103.194 208.568L102.939 208.65C103.502 205.352 105.375 203.256 105.375 203.256C103.087 207.124 103.195 208.457 103.328 208.835L103.328 208.831Z" fill="#112241"/>
        <path d="M99.0604 170.577C99.0604 170.577 100.789 170.862 100.796 171.533C100.803 172.205 101.584 177.435 100.978 182.393C100.978 182.393 101.678 184.984 84.9957 187.548C68.3134 190.111 40.2026 187.787 34.8056 183.827C34.8056 183.827 32.7962 183.516 34.3248 172.085C34.3248 172.085 34.3856 171.669 35.6891 171.692C35.6891 171.692 42.0756 177.021 66.1439 177.047C66.1439 177.047 100.576 176.942 99.0571 170.573L99.0604 170.577Z" fill="#3C5FA4"/>
        <path d="M70.9853 176.949L66.1473 177.047C66.1473 177.047 64.1374 177.128 64.8742 182.488C65.611 187.849 64.4721 188.083 66.8872 188.613C66.8872 188.613 75.0562 188.706 79.8585 188.156C84.6609 187.605 83.724 186.666 83.8002 182.609C83.8765 178.552 83.2519 176.773 81.5412 176.347C81.5412 176.347 78.8295 176.754 70.982 176.949L70.9853 176.949Z" fill="#172D57"/>
        <path d="M46.1565 175.385C46.1565 175.385 45.3946 175.354 45.0637 175.694C44.7328 176.033 44.0829 186.139 44.4811 186.791C41.4797 186.389 35.7757 184.783 34.809 183.824C32.4052 182.475 34.3282 172.082 34.3282 172.082C34.3282 172.082 34.9779 171.269 35.9465 171.352C35.9465 171.352 37.1989 173.187 46.1598 175.382L46.1565 175.385Z" fill="#172D57"/>
        <path d="M99.0938 170.58C99.481 170.634 100.158 170.792 100.702 171.257C100.702 171.257 102.769 178.692 100.942 182.943C100.942 182.943 99.0759 184.449 96.3716 185.131C96.3716 185.131 97.3862 176.699 95.7657 173.867C95.7657 173.867 99.338 172.617 98.8808 170.827C98.8453 170.689 98.9503 170.555 99.0905 170.577L99.0938 170.58Z" fill="#172D57"/>
        <path d="M68.8088 190.266L80.3486 189.722C82.3254 189.629 83.853 187.945 83.7604 185.96L83.439 179.067C83.3465 177.082 81.6689 175.548 79.692 175.641L68.1523 176.185C66.1754 176.278 64.6479 177.962 64.7404 179.947L65.0618 186.84C65.1544 188.825 66.832 190.359 68.8088 190.266Z" fill="#413B47"/>
        <path d="M70.0213 190.187L79.6811 189.732C81.658 189.639 83.1855 187.954 83.093 185.97L82.8377 180.495C82.7452 178.51 81.0676 176.976 79.0907 177.069L69.4309 177.524C67.454 177.617 65.9264 179.302 66.019 181.287L66.2743 186.761C66.3668 188.746 68.0444 190.28 70.0213 190.187Z" fill="#79717F"/>
        <path d="M76.8465 177.167L69.4187 177.518C67.4421 177.61 65.9148 179.296 66.0058 181.281L66.1466 184.33C66.1466 184.33 66.8175 178.933 76.8432 177.167L76.8465 177.167Z" fill="#9A959F"/>
        <path d="M86.8581 108.464C86.8581 108.464 94.2269 109.714 96.2874 114.05C98.3479 118.387 97.2521 121.414 94.8353 123.461C92.4185 125.512 67.6108 142.399 31.1888 121.261C31.1888 121.261 23.839 115.984 28.3977 109.215C28.3977 109.215 37.6505 103.391 46.0019 102.948C54.3533 102.506 68.7431 103.663 86.8547 108.468L86.8581 108.464Z" fill="#79717F"/>
        <path d="M29.0675 110.46C36.341 103.989 51.686 101.443 66.4407 104.946C78.5038 107.141 93.9508 108.892 95.6499 114.977C96.7676 118.982 79.678 124.579 66.6894 124.745C53.7008 124.911 27.7655 114.408 29.0675 110.456L29.0675 110.46Z" fill="#9A959F"/>
        <path d="M64.2256 107.227C75.3096 111.45 89.6653 109.921 91.0672 114.939C91.9878 118.241 77.1206 121.497 66.4121 121.634C55.7036 121.772 33.7811 114.218 34.8524 110.962C36.3405 106.446 55.8427 104.037 64.2223 107.23L64.2256 107.227Z" fill="#413B47"/>
        <path d="M86.2124 108.857C90.5641 109.272 93.326 110.917 93.326 110.917C103.329 118.392 94.7593 123.716 92.678 124.961C93.0536 121.051 89.9854 119.967 89.9854 119.967C103.555 112.628 86.2124 108.854 86.2124 108.854L86.2124 108.857Z" fill="#413B47"/>
        <path d="M28.401 109.211C28.401 109.211 32.7139 106.061 39.5423 105.131C39.5423 105.131 21.5858 109.471 34.5905 115.555C34.5905 115.555 29.1175 117.009 31.1921 121.261C31.1921 121.261 23.8316 116.407 28.401 109.215L28.401 109.211Z" fill="#413B47"/>
        <path d="M66.0946 121.282C99.1386 121.603 126.188 94.9675 126.51 61.7891C126.833 28.6107 100.307 1.45376 67.2633 1.13236C34.2193 0.810951 7.1703 27.4468 6.84758 60.6252C6.52487 93.8036 33.0507 120.961 66.0946 121.282Z" fill="white"/>
        <path d="M103.96 77.1974C103.96 77.1974 113.575 78.1468 109.982 89.4399C108.176 94.2825 105.538 96.7272 100.478 97.3291C95.4179 97.931 103.957 77.2007 103.957 77.2007L103.96 77.1974Z" fill="#F89269"/>
        <path d="M75.351 113.716L75.8716 121.025C75.8716 121.025 66.8217 122.481 57.7337 120.989C57.7337 120.989 57.8397 116.613 57.0704 110.823L75.351 113.716Z" fill="#F89269"/>
        <path d="M98.3684 54.4098C98.3684 54.4098 103.801 64.344 100.905 88.4823C100.905 88.4823 108.696 114.091 69.2407 115.398C57.5058 115.55 44.9281 111.96 36.783 100.818C36.783 100.818 27.9488 104.498 21.6263 96.3708C19.1997 93.2492 18.1927 89.205 19.1727 85.368C20.0624 81.8826 22.5313 78.5938 29.0615 80.8323L35.2398 41.924L74.0601 32.3228L98.3717 54.4132L98.3684 54.4098Z" fill="#FABA83"/>
        <path d="M100.377 60.669C101.467 61.6227 71.3172 54.5024 65.5951 48.5663L72.2316 56.7165C72.2316 56.7165 69.645 63.176 54.5644 51.5872C54.5644 51.5872 55.3764 52.649 55.1212 53.4555C54.866 54.2619 48.7393 54.8769 40.9169 48.0141L35.2398 41.9273L74.0601 32.3262L98.3717 54.4165" fill="#F89269"/>
        <path d="M88.2424 88.37C92.5878 88.314 96.061 84.3726 96 79.5665C95.939 74.7605 92.3668 70.9097 88.0214 70.9657C83.676 71.0217 80.2028 74.9631 80.2639 79.7692C80.3249 84.5753 83.897 88.426 88.2424 88.37Z" fill="white"/>
        <path d="M95.9731 78.3146C95.9731 78.3146 95.6079 70.4973 88.004 70.383C80.4001 70.2688 80.2481 79.3666 80.2481 79.3666C80.2481 79.3666 81.7454 71.1478 88.0173 71.4236C94.2891 71.6995 95.9731 78.3146 95.9731 78.3146Z" fill="#3F200E"/>
        <path d="M82.9201 79.6074C84.244 79.5901 85.3076 78.4962 85.2905 77.1669C85.2805 76.4753 84.9823 75.8582 84.5151 75.4274C85.2213 74.9979 86.016 74.7472 86.8618 74.7386C89.8073 74.7002 92.2299 77.5465 92.2756 81.0981C92.3213 84.6497 89.9697 87.5536 87.0243 87.5921C84.0789 87.6306 81.6563 84.7842 81.6106 81.2327C81.6036 80.5781 81.6766 79.9478 81.8194 79.3517C82.1521 79.5194 82.5255 79.6137 82.9234 79.6075L82.9201 79.6074Z" fill="#2E1E0E"/>
        <path d="M53.5757 89.0813C58.0669 89.0235 61.6563 84.9197 61.5927 79.9153C61.5292 74.9109 57.8368 70.901 53.3456 70.9588C48.8543 71.0167 45.265 75.1204 45.3285 80.1248C45.392 85.1292 49.0844 89.1392 53.5757 89.0813Z" fill="white"/>
        <path d="M61.5723 78.611C61.5723 78.611 61.1935 70.4713 53.3323 70.3512C45.471 70.2311 45.3154 79.7049 45.3154 79.7049C45.3154 79.7049 46.8628 71.1475 53.3452 71.4321C59.8275 71.7167 61.5689 78.611 61.5689 78.611L61.5723 78.611Z" fill="#3F200E"/>
        <path d="M49.6756 79.9352C51.0463 79.9184 52.1438 78.7811 52.1238 77.3947C52.1141 76.6763 51.8062 76.0323 51.3225 75.5812C52.0523 75.1318 52.8738 74.8746 53.7464 74.863C56.7921 74.8254 59.2971 77.7901 59.3448 81.4826C59.3924 85.1752 56.9594 88.2059 53.9137 88.2434C50.868 88.2809 48.363 85.3163 48.3153 81.6237C48.3052 80.9423 48.3818 80.2851 48.5316 79.6657C48.8742 79.8402 49.2644 79.938 49.6756 79.9319L49.6756 79.9352Z" fill="#2E1E0E"/>
        <path d="M95.02 65.2924C93.9756 64.4062 89.8469 61.3452 83.8429 62.3978C83.6119 62.4392 83.3752 62.3731 83.2062 62.2137C82.6166 61.6575 81.5674 60.2443 84.0851 58.8121C86.4414 57.4723 89.3662 57.4974 91.6893 58.8928C94.9396 60.8477 97.043 64.5502 95.8718 65.3611C95.6126 65.5398 95.2621 65.4928 95.0201 65.289L95.02 65.2924Z" fill="#632610"/>
        <path d="M45.0808 66.015C47.0803 64.5911 51.9613 61.7957 58.2455 62.8705C58.7961 62.9665 59.3473 62.663 59.5732 62.1215C60.0763 60.9214 60.2868 58.866 56.4507 58.0264C53.9822 57.4855 51.3957 57.7457 49.092 58.8275C45.5457 60.4948 44.0073 63.3194 43.8018 65.2003C43.7211 65.9346 44.4985 66.4255 45.0775 66.0149L45.0808 66.015Z" fill="#632610"/>
        <path d="M72.0702 86.7183C71.863 86.7096 71.8258 86.4138 72.0236 86.352C74.1529 85.6779 78.8679 84.8242 78.5271 90.6477C78.1864 96.4712 72.4904 95.0665 70.3056 94.233C69.9692 94.1055 69.9368 92.9741 70.2886 92.8936C71.9068 92.52 75.7419 92.4298 76.0183 90.4823C76.4489 87.4557 73.8578 86.8062 72.0702 86.7183Z" fill="#F89269"/>
        <path d="M34.9545 89.1263C34.9545 89.1263 30.5267 79.0072 23.1859 80.3724C23.1859 80.3724 7.7207 44.751 27.0984 37.2733C27.0984 37.2733 16.4382 37.945 16.4082 35.5347C16.4082 35.5347 21.8633 29.0394 28.6445 35.3785C28.6445 35.3785 26.1328 24.1637 35.6582 18.1509C40.1665 16.2178 36.8531 28.3125 36.8531 28.3125C36.8531 28.3125 56.2224 6.23418 89.1984 19.7592C89.7445 19.9827 90.2802 20.2396 90.8057 20.5099C93.633 21.9639 104.29 27.1089 112.308 26.5459C118.439 26.1994 109.768 36.4864 104.959 36.0134C104.959 36.0134 117.014 44.5386 116.216 54.429C116.159 55.1333 115.898 55.8155 115.432 56.348C114.624 57.2698 113.069 57.9361 110.531 54.9577C110.531 54.9577 109.816 76.8885 101.141 86.6117C101.141 86.6117 103.414 69.0762 99.0546 58.1018C99.0546 58.1018 75.3127 54.0714 69.0877 46.9187C69.0877 46.9187 72.088 52.2376 73.2098 56.5079C73.2098 56.5079 76.2572 65.5731 54.1745 48.717C54.1745 48.717 55.5206 50.8883 55.6783 52.2022C55.6783 52.2022 56.1725 59.1347 42.4218 47.2601C42.4218 47.2601 41.7901 60.6596 35.9991 66.6248C33.106 69.8759 37.6758 93.919 34.9511 89.133L34.9545 89.1263Z" fill="#392610"/>
        <path d="M27.0984 37.2767C14.5299 42.7127 18.2303 57.8393 19.4488 61.7916C19.5655 62.1653 20.0766 62.2072 20.2471 61.8564C21.4201 59.4848 22.6098 55.7472 22.6098 55.7472C22.7081 63.5116 25.4279 67.7605 32.0644 65.2674C42.8944 57.0958 40.3007 41.5939 40.3007 41.5939C50.8682 54.5821 55.3553 51.0411 55.3553 51.0411C54.2792 48.9463 51.337 42.4665 51.2454 42.2609C66.6576 58.9313 72.2063 54.8602 72.4657 54.3055C71.4503 50.4357 65.5586 42.0074 64.4605 40.4628C70.1686 48.1744 96.2592 55.0841 100.755 55.8192C106.747 55.6258 108.212 54.9217 108.963 50.8946C110.432 40.6985 95.1186 31.7926 95.1186 31.7926C109.595 37.7669 118.789 26.6693 112.308 26.5526C104.29 27.1157 93.6329 21.9672 90.8023 20.5166C90.2767 20.2463 89.741 19.9894 89.195 19.7659C56.219 6.24086 36.8497 28.3192 36.8497 28.3192C36.8497 28.3192 39.7294 17.5058 35.2179 19.4355C25.8135 25.3756 28.9475 35.8514 29.0217 36.1173C22.2439 29.7815 16.4047 35.5448 16.4047 35.5448C16.4347 37.9583 27.095 37.2833 27.095 37.2833L27.0984 37.2767ZM67.9935 37.755C67.9935 37.755 92.5702 40.8437 86.0432 31.0599C86.0432 31.0599 104.23 41.8499 99.915 45.2516C95.5998 48.65 67.9935 37.755 67.9935 37.755ZM27.3213 48.721C27.3213 48.721 32.0532 50.264 36.9521 43.9075C36.9521 43.9075 36.1835 57.977 30.4765 58.0524C24.7695 58.1278 27.3213 48.721 27.3213 48.721Z" fill="#632610"/>
        <path d="M116.181 52.1127C116.181 52.1127 113.888 60.7332 107.5 40.7304C107.5 40.7304 106.982 38.7484 105.331 36.2822C105.331 36.2822 115.004 43.2637 116.181 52.1093L116.181 52.1127Z" fill="#632610"/>
        <path d="M67.9935 37.755C67.9935 37.755 95.5998 48.65 99.915 45.2516C104.23 41.8499 86.0432 31.0599 86.0432 31.0599C92.5668 40.8436 67.9935 37.755 67.9935 37.755Z" fill="#A76244"/>
        <path d="M30.4798 58.0524C36.1868 57.9804 36.9554 43.9076 36.9554 43.9076C32.0565 50.264 27.3247 48.721 27.3247 48.721C27.3247 48.721 24.7762 58.1245 30.4798 58.0524Z" fill="#A76244"/>
        <path d="M96.3751 27.0152C103.313 36.8097 105.902 48.3542 103.95 57.2533C107.45 52.4507 109.578 46.366 109.643 39.7208C109.795 24.0477 98.4441 11.2298 84.2918 11.0921C81.6044 11.066 79.0095 11.5006 76.5679 12.326C83.5015 13.9878 90.7726 19.0999 96.3785 27.0119L96.3751 27.0152Z" fill="#F2F2F2"/>
        <path d="M63.2159 56.0347C63.0642 55.8218 62.9226 55.6023 62.7743 55.386C64.0346 57.4457 65.5308 59.3097 67.2231 60.9372C65.8169 59.4501 64.4756 57.8125 63.2159 56.0347Z" fill="#F2F2F2"/>
        <mask id="mask0_195_1641" style="mask-type:alpha" maskUnits="userSpaceOnUse" x="4" y="120" width="113" height="115">
            <path d="M116.304 167.037C113.838 153.997 109.024 145.037 106.328 140.798C105.973 140.07 105.552 139.388 105.309 139.019C105.283 138.979 105.244 138.962 105.201 138.955C105.658 137.653 105.875 136.286 105.724 134.896C105.016 129.921 99.256 123.139 94.3097 121.649C93.0337 121.266 91.6489 121.587 90.6957 122.523C90.5263 122.69 90.3766 122.854 90.2402 123.012C90.2236 123.031 90.2037 123.044 90.1806 123.054C76.2213 128.934 45.1829 124.24 36.4631 121.086C36.4008 121.063 36.3449 121.062 36.2953 121.085C36.1512 121.02 36.0104 120.953 35.8762 120.889C35.6142 120.761 19.3848 119.568 14.3256 132.72C14.3189 132.733 14.3155 132.746 14.3121 132.76C14.2951 132.819 14.2438 133.01 14.1887 133.271C14.0423 133.438 13.7037 135.108 14.0921 136.101C14.2333 136.459 14.2592 136.847 14.1603 137.203C13.9497 137.545 13.6888 137.992 13.3808 138.545C11.529 141.559 9.89742 145.604 8.54383 149.821C7.67961 152.428 6.84144 155.4 6.11491 158.733C4.33882 166.477 3.76618 172.59 4.82844 170.93C7.88957 171.089 22.6847 171.954 26.9119 173.976C27.5261 174.755 28.4295 175.221 29.1281 172.734C30.2117 168.875 34.246 157.26 34.8483 155.537C34.8619 155.494 34.8886 155.454 34.9153 155.418C34.8007 156.717 33.6454 170.645 36.1402 171.535C36.1402 171.535 36.1963 171.847 36.2534 172.41C36.3365 174.682 36.4151 178.781 35.9748 180.42C35.8417 180.915 35.4442 183.222 34.9182 186.567C33.3905 195.498 32.2824 203.9 31.5051 210.758C30.8052 216.423 30.2721 221.517 30.1568 224.579C30.0144 226.37 29.9378 227.48 29.922 227.751C29.9216 227.794 29.9343 227.834 29.9636 227.867L32.125 230.23C32.2064 230.316 32.335 230.285 32.3787 230.186C34.2241 232.224 36.5789 234.321 37.179 234.849C37.2704 234.929 37.3917 234.967 37.5136 234.952L56.1984 232.63C56.2015 232.65 56.2112 232.67 56.2242 232.686C56.3346 232.84 56.6591 233.296 57.1142 233.852C57.1955 233.952 57.3537 233.924 57.3878 233.799C58.3744 230.442 64.7971 206.637 65.4285 204.299C65.4557 204.203 65.5614 204.161 65.6498 204.202C66.3311 204.509 67.0129 204.42 67.336 204.347C67.392 204.334 67.4445 204.355 67.4803 204.388C67.4669 204.415 67.4601 204.441 67.4631 204.471L67.5402 205.679C67.5402 205.679 67.5401 205.685 67.5401 205.689C67.5532 206.367 67.5742 207.25 67.6004 208.282C67.666 211.338 67.7736 215.503 67.9378 219.251C68.1253 224.66 68.324 229.6 68.4165 230.232C68.4227 230.272 68.4454 230.308 68.4781 230.332L73.487 234.18C73.5294 234.214 73.5755 234.214 73.6183 234.205C73.6444 234.235 73.6769 234.272 73.6997 234.298C73.8103 234.425 73.9875 234.473 74.1491 234.425L97.1997 227.331C97.2624 227.311 97.3187 227.276 97.3685 227.23C97.4372 227.263 97.5295 227.251 97.5763 227.166C100.061 222.626 100.769 184.007 99.4258 183.13C99.0834 182.142 97.4383 182.165 97.5568 181.488L97.5819 176.535C97.5819 176.535 97.5789 176.512 97.5757 176.498C97.602 173.8 97.6286 171.065 97.6286 171.059L97.6065 170.632C97.8835 171.237 98.3159 171.76 98.8714 172.142C99.5544 172.609 100.34 173.003 100.806 172.76C101.473 172.859 102.178 172.796 102.871 172.522L116.21 167.231C116.279 167.202 116.323 167.127 116.307 167.05L116.304 167.037Z" fill="#928583"/>
        </mask>
        <g mask="url(#mask0_195_1641)">
</g>
    </g>
    <defs>
        <clipPath id="clip0_195_1641">
            <rect width="125" height="268" fill="white" transform="translate(2.60681) rotate(0.557277)"/>
        </clipPath>
    </defs>
</svg>