<svg width="612" height="495" viewBox="0 0 612 495" fill="none" xmlns="http://www.w3.org/2000/svg">
<circle cx="235.418" cy="376.428" r="350.5" transform="rotate(4.28615 235.418 376.428)" fill="url(#paint0_radial_225_1612)"/>
<g filter="url(#filter0_i_225_1612)">
<path d="M324.743 101.129C298.737 86.8502 271.802 126.448 241.786 124.198C211.771 121.949 166.431 119.448 168.68 89.4327C170.93 59.4174 218.027 38.4782 248.042 40.7278C278.058 42.9774 327.321 66.7256 324.743 101.129Z" fill="url(#paint1_linear_225_1612)"/>
<path d="M324.743 101.129C298.737 86.8502 271.802 126.448 241.786 124.198C211.771 121.949 166.431 119.448 168.68 89.4327C170.93 59.4174 218.027 38.4782 248.042 40.7278C278.058 42.9774 327.321 66.7256 324.743 101.129Z" fill="url(#paint2_linear_225_1612)"/>
</g>
<path d="M76.569 102.275C69.2474 113.173 59.8641 129.465 45.8896 140.222C31.9151 150.979 11.0489 167.481 3.90948 158.206C-3.22993 148.931 12.0609 125.187 26.0354 114.43C40.0099 103.673 38.4622 99.4184 76.569 102.275Z" fill="white"/>
<path d="M76.569 102.275C69.2474 113.173 59.8641 129.465 45.8896 140.222C31.9151 150.979 11.0489 167.481 3.90948 158.206C-3.22993 148.931 12.0609 125.187 26.0354 114.43C40.0099 103.673 38.4622 99.4184 76.569 102.275Z" fill="#D7E9F5"/>
<g filter="url(#filter1_i_225_1612)">
<path d="M64.2973 197.591C73.3097 218.207 29.9436 270.067 1.1066 273.089C-27.7304 276.111 -31.7896 271.007 -45.0166 248.261C-47.751 222.17 -20.0789 198.39 5.78382 186.128C34.3133 172.601 52.1089 169.71 64.2973 197.591Z" fill="url(#paint3_linear_225_1612)"/>
</g>
<g filter="url(#filter2_i_225_1612)">
<path d="M391.573 372.767C401.918 389.412 377.157 439.696 355.48 445.977C333.803 452.258 329.836 448.37 315.896 430.423C309.472 408.252 326.814 384.203 344.673 370.325C364.374 355.017 377.581 350.255 391.573 372.767Z" fill="url(#paint4_linear_225_1612)"/>
</g>
<g filter="url(#filter3_dii_225_1612)">
<path d="M423.698 153.724C442.606 148.156 487.609 168.36 489.212 183.168C490.815 197.975 486.063 200.301 465.075 208.145C441.482 210.699 421.148 197.4 411.111 184.537C400.04 170.347 398.127 161.254 423.698 153.724Z" fill="url(#paint5_linear_225_1612)"/>
</g>
<g filter="url(#filter4_ddi_225_1612)">
<path d="M520.113 417.023C525.11 439.494 483.344 487.236 459.263 486.52C435.181 485.804 432.44 479.997 424.226 454.77C425.038 427.486 450.596 406.629 473.314 397.415C498.375 387.252 513.356 386.635 520.113 417.023Z" fill="url(#paint6_linear_225_1612)"/>
</g>
<g filter="url(#filter5_i_225_1612)">
<path d="M91.1733 344.158C90.5609 381.353 72.8064 396.663 47.1617 405.242C23.823 395.256 4.49352 384.736 5.18495 342.742C14.8258 303.896 18.1414 284.748 49.1372 285.258C80.133 285.768 82.8166 305.015 91.1733 344.158Z" fill="url(#paint7_linear_225_1612)"/>
</g>
<g filter="url(#filter6_ii_225_1612)">
<path d="M147.452 494.816C151.008 518.242 139.219 530.082 120.728 538.687C101.976 535.349 86.2029 531.172 82.1878 504.724C85.2894 479.128 85.7306 466.692 109.256 463.12C132.781 459.549 136.894 471.294 147.452 494.816Z" fill="url(#paint8_linear_225_1612)"/>
</g>
<g filter="url(#filter7_di_225_1612)">
<path d="M398.601 515.307C402.159 535.63 403.141 526.177 396.425 544.332C372.356 551.948 369.958 548.168 360.537 530.866C356.398 512.289 353.627 503.543 369.506 494.896C385.384 486.25 396.256 501.915 398.601 515.307Z" fill="url(#paint9_linear_225_1612)"/>
</g>
<g filter="url(#filter8_i_225_1612)">
<path d="M527.749 252.628C549.772 282.608 541.754 307.855 521.942 333.576C493.09 342.859 467.826 348.762 442.961 314.913C428.745 276.964 420.336 259.318 450.899 236.866C481.462 214.414 495.786 227.715 527.749 252.628Z" fill="url(#paint10_linear_225_1612)"/>
</g>
<g filter="url(#filter9_dd_225_1612)">
<path d="M20.2572 424.125C52.3082 451.402 37.7505 478.39 24.3623 497.119C3.86241 508.993 -1.95853 513.069 -40.2905 483.622C-52.4558 453.063 -58.7774 448.141 -35.0133 419.982C-11.2492 391.823 -11.7937 396.847 20.2572 424.125Z" fill="url(#paint11_linear_225_1612)"/>
</g>
<path d="M378.129 305.173C349.074 313.6 338.848 292.855 333.066 276.394C334.209 258.407 334.115 252.997 366.974 241.555C390.022 247.037 395.48 245.178 402.717 272.212C409.955 299.247 407.184 296.746 378.129 305.173Z" fill="url(#paint12_linear_225_1612)"/>
<g filter="url(#filter10_d_225_1612)">
<path d="M304.222 295.203C278.435 302.207 269.459 285.308 264.404 271.888C265.492 257.194 265.431 252.776 294.602 243.293C315.006 247.674 319.851 246.133 326.152 268.181C332.453 290.23 330.009 288.199 304.222 295.203Z" fill="#DFF2F8"/>
</g>
<g filter="url(#filter11_d_225_1612)">
<path d="M286.977 361.951C270.986 355.959 272.967 343.507 275.605 334.402C281.9 326.935 283.593 324.543 302.292 330.485C311.072 340.545 314.165 341.55 308.799 355.752C303.433 369.954 302.968 367.942 286.977 361.951Z" fill="#DFF2F8"/>
</g>
<path d="M366.157 226.519C343.485 232.001 335.735 219.294 331.399 209.188C332.461 198.074 332.439 194.735 358.098 187.354C375.964 190.516 380.226 189.316 385.592 205.935C390.958 222.553 388.828 221.037 366.157 226.519Z" fill="url(#paint13_linear_225_1612)"/>
<path d="M286.457 185.943C276.885 172.477 297.14 163.76 313.306 158.037C331.272 155.604 336.658 154.648 349.389 169.556C344.859 182.279 346.932 184.762 320.291 193.004C293.649 201.247 296.028 199.408 286.457 185.943Z" fill="url(#paint14_linear_225_1612)"/>
<defs>
<filter id="filter0_i_225_1612" x="168.6" y="36.5625" width="160.24" height="87.7285" filterUnits="userSpaceOnUse" color-interpolation-filters="sRGB">
<feFlood flood-opacity="0" result="BackgroundImageFix"/>
<feBlend mode="normal" in="SourceGraphic" in2="BackgroundImageFix" result="shape"/>
<feColorMatrix in="SourceAlpha" type="matrix" values="0 0 0 0 0 0 0 0 0 0 0 0 0 0 0 0 0 0 127 0" result="hardAlpha"/>
<feOffset dx="7" dy="-10"/>
<feGaussianBlur stdDeviation="2"/>
<feComposite in2="hardAlpha" operator="arithmetic" k2="-1" k3="1"/>
<feColorMatrix type="matrix" values="0 0 0 0 0.647059 0 0 0 0 0.815686 0 0 0 0 0.917647 0 0 0 1 0"/>
<feBlend mode="normal" in2="shape" result="effect1_innerShadow_225_1612"/>
</filter>
<filter id="filter1_i_225_1612" x="-64.204" y="175.162" width="129.711" height="98.7172" filterUnits="userSpaceOnUse" color-interpolation-filters="sRGB">
<feFlood flood-opacity="0" result="BackgroundImageFix"/>
<feBlend mode="normal" in="SourceGraphic" in2="BackgroundImageFix" result="shape"/>
<feColorMatrix in="SourceAlpha" type="matrix" values="0 0 0 0 0 0 0 0 0 0 0 0 0 0 0 0 0 0 127 0" result="hardAlpha"/>
<feOffset dx="-25" dy="-1"/>
<feGaussianBlur stdDeviation="9.5"/>
<feComposite in2="hardAlpha" operator="arithmetic" k2="-1" k3="1"/>
<feColorMatrix type="matrix" values="0 0 0 0 0.647059 0 0 0 0 0.815686 0 0 0 0 0.917647 0 0 0 1 0"/>
<feBlend mode="normal" in2="shape" result="effect1_innerShadow_225_1612"/>
</filter>
<filter id="filter2_i_225_1612" x="314.53" y="350.35" width="86.4694" height="98.4315" filterUnits="userSpaceOnUse" color-interpolation-filters="sRGB">
<feFlood flood-opacity="0" result="BackgroundImageFix"/>
<feBlend mode="normal" in="SourceGraphic" in2="BackgroundImageFix" result="shape"/>
<feColorMatrix in="SourceAlpha" type="matrix" values="0 0 0 0 0 0 0 0 0 0 0 0 0 0 0 0 0 0 127 0" result="hardAlpha"/>
<feOffset dx="15" dy="-12"/>
<feGaussianBlur stdDeviation="3.5"/>
<feComposite in2="hardAlpha" operator="arithmetic" k2="-1" k3="1"/>
<feColorMatrix type="matrix" values="0 0 0 0 0.647059 0 0 0 0 0.815686 0 0 0 0 0.917647 0 0 0 1 0"/>
<feBlend mode="normal" in2="shape" result="effect1_innerShadow_225_1612"/>
</filter>
<filter id="filter3_dii_225_1612" x="395.365" y="149.778" width="102.133" height="74.6848" filterUnits="userSpaceOnUse" color-interpolation-filters="sRGB">
<feFlood flood-opacity="0" result="BackgroundImageFix"/>
<feColorMatrix in="SourceAlpha" type="matrix" values="0 0 0 0 0 0 0 0 0 0 0 0 0 0 0 0 0 0 127 0" result="hardAlpha"/>
<feOffset dx="4" dy="12"/>
<feGaussianBlur stdDeviation="2"/>
<feComposite in2="hardAlpha" operator="out"/>
<feColorMatrix type="matrix" values="0 0 0 0 0.647059 0 0 0 0 0.815686 0 0 0 0 0.917647 0 0 0 1 0"/>
<feBlend mode="normal" in2="BackgroundImageFix" result="effect1_dropShadow_225_1612"/>
<feBlend mode="normal" in="SourceGraphic" in2="effect1_dropShadow_225_1612" result="shape"/>
<feColorMatrix in="SourceAlpha" type="matrix" values="0 0 0 0 0 0 0 0 0 0 0 0 0 0 0 0 0 0 127 0" result="hardAlpha"/>
<feOffset dx="-8" dy="-3"/>
<feGaussianBlur stdDeviation="8.5"/>
<feComposite in2="hardAlpha" operator="arithmetic" k2="-1" k3="1"/>
<feColorMatrix type="matrix" values="0 0 0 0 0.87451 0 0 0 0 0.94902 0 0 0 0 0.972549 0 0 0 1 0"/>
<feBlend mode="normal" in2="shape" result="effect2_innerShadow_225_1612"/>
<feColorMatrix in="SourceAlpha" type="matrix" values="0 0 0 0 0 0 0 0 0 0 0 0 0 0 0 0 0 0 127 0" result="hardAlpha"/>
<feOffset dx="8" dy="-5"/>
<feGaussianBlur stdDeviation="1.5"/>
<feComposite in2="hardAlpha" operator="arithmetic" k2="-1" k3="1"/>
<feColorMatrix type="matrix" values="0 0 0 0 0.647059 0 0 0 0 0.815686 0 0 0 0 0.917647 0 0 0 1 0"/>
<feBlend mode="normal" in2="effect2_innerShadow_225_1612" result="effect3_innerShadow_225_1612"/>
</filter>
<filter id="filter4_ddi_225_1612" x="407.226" y="385.14" width="120.298" height="119.388" filterUnits="userSpaceOnUse" color-interpolation-filters="sRGB">
<feFlood flood-opacity="0" result="BackgroundImageFix"/>
<feColorMatrix in="SourceAlpha" type="matrix" values="0 0 0 0 0 0 0 0 0 0 0 0 0 0 0 0 0 0 127 0" result="hardAlpha"/>
<feOffset dx="-13" dy="-2"/>
<feGaussianBlur stdDeviation="2"/>
<feComposite in2="hardAlpha" operator="out"/>
<feColorMatrix type="matrix" values="0 0 0 0 0.666667 0 0 0 0 0.827451 0 0 0 0 0.921569 0 0 0 1 0"/>
<feBlend mode="normal" in2="BackgroundImageFix" result="effect1_dropShadow_225_1612"/>
<feColorMatrix in="SourceAlpha" type="matrix" values="0 0 0 0 0 0 0 0 0 0 0 0 0 0 0 0 0 0 127 0" result="hardAlpha"/>
<feOffset dx="3" dy="14"/>
<feGaussianBlur stdDeviation="2"/>
<feComposite in2="hardAlpha" operator="out"/>
<feColorMatrix type="matrix" values="0 0 0 0 0.647059 0 0 0 0 0.815686 0 0 0 0 0.917647 0 0 0 1 0"/>
<feBlend mode="normal" in2="effect1_dropShadow_225_1612" result="effect2_dropShadow_225_1612"/>
<feBlend mode="normal" in="SourceGraphic" in2="effect2_dropShadow_225_1612" result="shape"/>
<feColorMatrix in="SourceAlpha" type="matrix" values="0 0 0 0 0 0 0 0 0 0 0 0 0 0 0 0 0 0 127 0" result="hardAlpha"/>
<feOffset dx="-8" dy="14"/>
<feGaussianBlur stdDeviation="2"/>
<feComposite in2="hardAlpha" operator="arithmetic" k2="-1" k3="1"/>
<feColorMatrix type="matrix" values="0 0 0 0 0.831373 0 0 0 0 0.933333 0 0 0 0 0.976471 0 0 0 1 0"/>
<feBlend mode="normal" in2="shape" result="effect3_innerShadow_225_1612"/>
</filter>
<filter id="filter5_i_225_1612" x="-0.833008" y="279.248" width="92.0063" height="125.994" filterUnits="userSpaceOnUse" color-interpolation-filters="sRGB">
<feFlood flood-opacity="0" result="BackgroundImageFix"/>
<feBlend mode="normal" in="SourceGraphic" in2="BackgroundImageFix" result="shape"/>
<feColorMatrix in="SourceAlpha" type="matrix" values="0 0 0 0 0 0 0 0 0 0 0 0 0 0 0 0 0 0 127 0" result="hardAlpha"/>
<feOffset dx="-17" dy="-8"/>
<feGaussianBlur stdDeviation="3"/>
<feComposite in2="hardAlpha" operator="arithmetic" k2="-1" k3="1"/>
<feColorMatrix type="matrix" values="0 0 0 0 0.647059 0 0 0 0 0.815686 0 0 0 0 0.917647 0 0 0 0.46 0"/>
<feBlend mode="normal" in2="shape" result="effect1_innerShadow_225_1612"/>
</filter>
<filter id="filter6_ii_225_1612" x="78.1877" y="458.49" width="72.8962" height="85.1971" filterUnits="userSpaceOnUse" color-interpolation-filters="sRGB">
<feFlood flood-opacity="0" result="BackgroundImageFix"/>
<feBlend mode="normal" in="SourceGraphic" in2="BackgroundImageFix" result="shape"/>
<feColorMatrix in="SourceAlpha" type="matrix" values="0 0 0 0 0 0 0 0 0 0 0 0 0 0 0 0 0 0 127 0" result="hardAlpha"/>
<feOffset dx="-9" dy="-8"/>
<feGaussianBlur stdDeviation="2"/>
<feComposite in2="hardAlpha" operator="arithmetic" k2="-1" k3="1"/>
<feColorMatrix type="matrix" values="0 0 0 0 0.647059 0 0 0 0 0.815686 0 0 0 0 0.917647 0 0 0 1 0"/>
<feBlend mode="normal" in2="shape" result="effect1_innerShadow_225_1612"/>
<feColorMatrix in="SourceAlpha" type="matrix" values="0 0 0 0 0 0 0 0 0 0 0 0 0 0 0 0 0 0 127 0" result="hardAlpha"/>
<feOffset dx="3" dy="5"/>
<feGaussianBlur stdDeviation="13"/>
<feComposite in2="hardAlpha" operator="arithmetic" k2="-1" k3="1"/>
<feColorMatrix type="matrix" values="0 0 0 0 0.87451 0 0 0 0 0.94902 0 0 0 0 0.972549 0 0 0 1 0"/>
<feBlend mode="normal" in2="effect1_innerShadow_225_1612" result="effect2_innerShadow_225_1612"/>
</filter>
<filter id="filter7_di_225_1612" x="347.326" y="492.413" width="54.053" height="70.6606" filterUnits="userSpaceOnUse" color-interpolation-filters="sRGB">
<feFlood flood-opacity="0" result="BackgroundImageFix"/>
<feColorMatrix in="SourceAlpha" type="matrix" values="0 0 0 0 0 0 0 0 0 0 0 0 0 0 0 0 0 0 127 0" result="hardAlpha"/>
<feOffset dx="-6" dy="11"/>
<feGaussianBlur stdDeviation="2"/>
<feComposite in2="hardAlpha" operator="out"/>
<feColorMatrix type="matrix" values="0 0 0 0 0.647059 0 0 0 0 0.815686 0 0 0 0 0.917647 0 0 0 1 0"/>
<feBlend mode="normal" in2="BackgroundImageFix" result="effect1_dropShadow_225_1612"/>
<feBlend mode="normal" in="SourceGraphic" in2="effect1_dropShadow_225_1612" result="shape"/>
<feColorMatrix in="SourceAlpha" type="matrix" values="0 0 0 0 0 0 0 0 0 0 0 0 0 0 0 0 0 0 127 0" result="hardAlpha"/>
<feOffset dx="-4" dy="8"/>
<feGaussianBlur stdDeviation="2"/>
<feComposite in2="hardAlpha" operator="arithmetic" k2="-1" k3="1"/>
<feColorMatrix type="matrix" values="0 0 0 0 0.87451 0 0 0 0 0.94902 0 0 0 0 0.972549 0 0 0 1 0"/>
<feBlend mode="normal" in2="shape" result="effect2_innerShadow_225_1612"/>
</filter>
<filter id="filter8_i_225_1612" x="427.137" y="215.392" width="113.815" height="125.397" filterUnits="userSpaceOnUse" color-interpolation-filters="sRGB">
<feFlood flood-opacity="0" result="BackgroundImageFix"/>
<feBlend mode="normal" in="SourceGraphic" in2="BackgroundImageFix" result="shape"/>
<feColorMatrix in="SourceAlpha" type="matrix" values="0 0 0 0 0 0 0 0 0 0 0 0 0 0 0 0 0 0 127 0" result="hardAlpha"/>
<feOffset dx="-3" dy="-21"/>
<feGaussianBlur stdDeviation="5"/>
<feComposite in2="hardAlpha" operator="arithmetic" k2="-1" k3="1"/>
<feColorMatrix type="matrix" values="0 0 0 0 0.647059 0 0 0 0 0.815686 0 0 0 0 0.917647 0 0 0 1 0"/>
<feBlend mode="normal" in2="shape" result="effect1_innerShadow_225_1612"/>
</filter>
<filter id="filter9_dd_225_1612" x="-56.1283" y="389.123" width="112.695" height="137.949" filterUnits="userSpaceOnUse" color-interpolation-filters="sRGB">
<feFlood flood-opacity="0" result="BackgroundImageFix"/>
<feColorMatrix in="SourceAlpha" type="matrix" values="0 0 0 0 0 0 0 0 0 0 0 0 0 0 0 0 0 0 127 0" result="hardAlpha"/>
<feOffset dx="13" dy="-8"/>
<feGaussianBlur stdDeviation="2"/>
<feComposite in2="hardAlpha" operator="out"/>
<feColorMatrix type="matrix" values="0 0 0 0 0.647059 0 0 0 0 0.815686 0 0 0 0 0.917647 0 0 0 1 0"/>
<feBlend mode="normal" in2="BackgroundImageFix" result="effect1_dropShadow_225_1612"/>
<feColorMatrix in="SourceAlpha" type="matrix" values="0 0 0 0 0 0 0 0 0 0 0 0 0 0 0 0 0 0 127 0" result="hardAlpha"/>
<feOffset dx="-1" dy="17"/>
<feGaussianBlur stdDeviation="2"/>
<feComposite in2="hardAlpha" operator="out"/>
<feColorMatrix type="matrix" values="0 0 0 0 0.647059 0 0 0 0 0.815686 0 0 0 0 0.917647 0 0 0 1 0"/>
<feBlend mode="normal" in2="effect1_dropShadow_225_1612" result="effect2_dropShadow_225_1612"/>
<feBlend mode="normal" in="SourceGraphic" in2="effect2_dropShadow_225_1612" result="shape"/>
</filter>
<filter id="filter10_d_225_1612" x="237.404" y="241.293" width="91.6678" height="65.549" filterUnits="userSpaceOnUse" color-interpolation-filters="sRGB">
<feFlood flood-opacity="0" result="BackgroundImageFix"/>
<feColorMatrix in="SourceAlpha" type="matrix" values="0 0 0 0 0 0 0 0 0 0 0 0 0 0 0 0 0 0 127 0" result="hardAlpha"/>
<feOffset dx="-21" dy="4"/>
<feGaussianBlur stdDeviation="3"/>
<feComposite in2="hardAlpha" operator="out"/>
<feColorMatrix type="matrix" values="0 0 0 0 0.647059 0 0 0 0 0.815686 0 0 0 0 0.917647 0 0 0 1 0"/>
<feBlend mode="normal" in2="BackgroundImageFix" result="effect1_dropShadow_225_1612"/>
<feBlend mode="normal" in="SourceGraphic" in2="effect1_dropShadow_225_1612" result="shape"/>
</filter>
<filter id="filter11_d_225_1612" x="259.818" y="327.142" width="63.6296" height="70.365" filterUnits="userSpaceOnUse" color-interpolation-filters="sRGB">
<feFlood flood-opacity="0" result="BackgroundImageFix"/>
<feColorMatrix in="SourceAlpha" type="matrix" values="0 0 0 0 0 0 0 0 0 0 0 0 0 0 0 0 0 0 127 0" result="hardAlpha"/>
<feOffset dx="-1" dy="18"/>
<feGaussianBlur stdDeviation="6.5"/>
<feComposite in2="hardAlpha" operator="out"/>
<feColorMatrix type="matrix" values="0 0 0 0 0.647059 0 0 0 0 0.815686 0 0 0 0 0.917647 0 0 0 1 0"/>
<feBlend mode="normal" in2="BackgroundImageFix" result="effect1_dropShadow_225_1612"/>
<feBlend mode="normal" in="SourceGraphic" in2="effect1_dropShadow_225_1612" result="shape"/>
</filter>
<radialGradient id="paint0_radial_225_1612" cx="0" cy="0" r="1" gradientUnits="userSpaceOnUse" gradientTransform="translate(206.918 395.928) rotate(118.544) scale(310.775)">
<stop offset="0.67073" stop-color="#DFF2F8"/>
<stop offset="1" stop-color="#A5C1E5"/>
</radialGradient>
<linearGradient id="paint1_linear_225_1612" x1="250.785" y1="40.9333" x2="244.528" y2="124.407" gradientUnits="userSpaceOnUse">
<stop stop-color="#C8ECFC"/>
<stop offset="1" stop-color="#DFF2F8"/>
</linearGradient>
<linearGradient id="paint2_linear_225_1612" x1="250.785" y1="40.9333" x2="244.528" y2="124.407" gradientUnits="userSpaceOnUse">
<stop stop-color="#C8ECFC"/>
<stop offset="1" stop-color="#DFF2F8"/>
</linearGradient>
<linearGradient id="paint3_linear_225_1612" x1="5.40498" y1="179.405" x2="15.07" y2="271.626" gradientUnits="userSpaceOnUse">
<stop offset="0.0967923" stop-color="#DFF2F8"/>
<stop offset="0.798728" stop-color="#C4E9FB"/>
</linearGradient>
<linearGradient id="paint4_linear_225_1612" x1="343.268" y1="364.572" x2="365.976" y2="442.936" gradientUnits="userSpaceOnUse">
<stop offset="0.0967923" stop-color="#DFF2F8"/>
<stop offset="0.798728" stop-color="#C4E9FB"/>
</linearGradient>
<linearGradient id="paint5_linear_225_1612" x1="405.045" y1="185.026" x2="488.436" y2="175.998" gradientUnits="userSpaceOnUse">
<stop offset="0.0967923" stop-color="#DFF2F8"/>
<stop offset="0.798728" stop-color="#C4E9FB"/>
</linearGradient>
<linearGradient id="paint6_linear_225_1612" x1="473.791" y1="390.429" x2="470.923" y2="486.867" gradientUnits="userSpaceOnUse">
<stop offset="0.0967923" stop-color="#DFF2F8"/>
<stop offset="0.798728" stop-color="#C4E9FB"/>
</linearGradient>
<linearGradient id="paint7_linear_225_1612" x1="49.1372" y1="285.258" x2="47.1617" y2="405.242" gradientUnits="userSpaceOnUse">
<stop offset="0.0967923" stop-color="#DFF2F8"/>
<stop offset="0.798728" stop-color="#C4E9FB"/>
</linearGradient>
<linearGradient id="paint8_linear_225_1612" x1="109.256" y1="463.12" x2="120.728" y2="538.687" gradientUnits="userSpaceOnUse">
<stop offset="0.0967923" stop-color="#DFF2F8"/>
<stop offset="0.798728" stop-color="#C4E9FB"/>
</linearGradient>
<linearGradient id="paint9_linear_225_1612" x1="366.276" y1="496.655" x2="393.196" y2="546.09" gradientUnits="userSpaceOnUse">
<stop offset="0.0967923" stop-color="#DFF2F8"/>
<stop offset="0.798728" stop-color="#C4E9FB"/>
</linearGradient>
<linearGradient id="paint10_linear_225_1612" x1="450.899" y1="236.866" x2="521.942" y2="333.576" gradientUnits="userSpaceOnUse">
<stop offset="0.0967923" stop-color="#DFF2F8"/>
<stop offset="0.798728" stop-color="#C4E9FB"/>
</linearGradient>
<linearGradient id="paint11_linear_225_1612" x1="-37.0682" y1="417.38" x2="24.3297" y2="497.144" gradientUnits="userSpaceOnUse">
<stop offset="0.0967923" stop-color="#DFF2F8"/>
<stop offset="0.798728" stop-color="#C4E9FB"/>
</linearGradient>
<linearGradient id="paint12_linear_225_1612" x1="405.088" y1="272.039" x2="333.065" y2="276.363" gradientUnits="userSpaceOnUse">
<stop offset="0.0967923" stop-color="#DFF2F8"/>
<stop offset="0.798728" stop-color="#C4E9FB"/>
</linearGradient>
<linearGradient id="paint13_linear_225_1612" x1="387.436" y1="205.804" x2="331.397" y2="209.169" gradientUnits="userSpaceOnUse">
<stop offset="0.0967923" stop-color="#DFF2F8"/>
<stop offset="0.798728" stop-color="#C4E9FB"/>
</linearGradient>
<linearGradient id="paint14_linear_225_1612" x1="320.56" y1="194.189" x2="313.337" y2="158.031" gradientUnits="userSpaceOnUse">
<stop offset="0.0967923" stop-color="#DFF2F8"/>
<stop offset="0.798728" stop-color="#C4E9FB"/>
</linearGradient>
</defs>
</svg>
