<svg viewBox="0 0 83 75" fill="none" xmlns="http://www.w3.org/2000/svg">
    <g filter="url(#filter0_d_615_615)">
        <path d="M15.0569 74.5401H67.3411L82.3947 58.1418V16.3984L67.3411 0H15.0569L0 16.3984V58.1418L15.0569 74.5401Z" fill="url(#paint0_linear_615_615)" fill-opacity="0.8" shape-rendering="crispEdges"/>
        <path d="M67.1211 0.5L81.8945 16.5918V57.9473L67.1211 74.04H15.2764L0.5 57.9473V16.5918L15.2764 0.5H67.1211Z" stroke="url(#paint1_linear_615_615)" shape-rendering="crispEdges"/>
    </g>
    <g filter="url(#filter1_f_615_615)">
        <path d="M19.3644 66.2627H62.8483L75.3681 53.2509V20.1285L62.8483 7.1167H19.3644L6.8418 20.1285V53.2509L19.3644 66.2627Z" fill="#0F3653" fill-opacity="0.25"/>
        <path d="M62.6357 7.6167L74.8682 20.3296V53.0483L62.6357 65.7622H19.5771L7.3418 53.0483V20.3296L19.5771 7.6167H62.6357Z" stroke="url(#paint2_linear_615_615)"/>
    </g>
    <g filter="url(#filter2_d_615_615)">
        <path d="M25.0428 22.7078C21.0227 26.7276 20.6251 26.2075 26.0428 31.2078C32.5434 37.2075 32.4182 37.2075 27.543 41.7078C21.0433 47.7075 21.2841 47.4802 25.0428 51.7078C29.0435 56.2075 29.0435 56.2075 35.043 50.2078C41.0425 44.208 40.0435 45.2083 45.043 50.2078C51.5427 56.7075 51.0435 57.7075 56.043 52.7078C60.543 48.2075 60.0427 48.7075 54.043 42.7078C48.543 37.2078 48.543 37.2075 54.543 31.7078C60.2771 26.4518 60.543 26.708 56.043 22.2078C51.5431 17.7076 51.543 17.7077 46.0433 23.7074L46.043 23.7078C40.543 29.7078 40.543 29.7078 34.043 23.2078L34.043 23.2078C29.2864 18.4512 30.0435 17.7075 25.0428 22.7078Z" stroke="#17C0B8" shape-rendering="crispEdges"/>
    </g>
    <g filter="url(#filter3_f_615_615)">
        <path d="M25.0428 22.7077C21.0227 26.7275 20.6251 26.2075 26.0428 31.2077C32.5434 37.2075 32.4182 37.2075 27.543 41.7077C21.0433 47.7074 21.2841 47.4801 25.0428 51.7077C29.0435 56.2075 29.586 54.9154 35.043 50.2077C40.5 45.5 40 45.1647 45.043 50.2077C51.5 56.6647 51.7246 56.754 56.043 52.7077C60 49 60 49 54.043 42.7077C48.6997 37.0637 48.8087 36.9638 54.5294 31.7201L54.543 31.7077C60.2771 26.4517 60.335 26.5 56.043 22.2077C51.751 17.9153 51.543 17.7077 46.043 23.7077C40.543 29.7077 40.543 29.7077 34.043 23.2078L34.043 23.2077C29.2864 18.4511 30.0435 17.7075 25.0428 22.7077Z" stroke="#17C0B8"/>
    </g>
    <defs>
        <filter id="filter0_d_615_615" x="0" y="0" width="82.3945" height="74.54" filterUnits="userSpaceOnUse" color-interpolation-filters="sRGB">
            <feFlood flood-opacity="0" result="BackgroundImageFix"/>
            <feColorMatrix in="SourceAlpha" type="matrix" values="0 0 0 0 0 0 0 0 0 0 0 0 0 0 0 0 0 0 127 0" result="hardAlpha"/>
            <feOffset/>
            <feComposite in2="hardAlpha" operator="out"/>
            <feColorMatrix type="matrix" values="0 0 0 0 0.742308 0 0 0 0 0.957051 0 0 0 0 1 0 0 0 0.63 0"/>
            <feBlend mode="normal" in2="BackgroundImageFix" result="effect1_dropShadow_615_615"/>
            <feBlend mode="normal" in="SourceGraphic" in2="effect1_dropShadow_615_615" result="shape"/>
        </filter>
        <filter id="filter1_f_615_615" x="4.8418" y="5.1167" width="72.5264" height="63.146" filterUnits="userSpaceOnUse" color-interpolation-filters="sRGB">
            <feFlood flood-opacity="0" result="BackgroundImageFix"/>
            <feBlend mode="normal" in="SourceGraphic" in2="BackgroundImageFix" result="shape"/>
            <feGaussianBlur stdDeviation="1" result="effect1_foregroundBlur_615_615"/>
        </filter>
        <filter id="filter2_d_615_615" x="17.5" y="14.5" width="46.1597" height="45.8701" filterUnits="userSpaceOnUse" color-interpolation-filters="sRGB">
            <feFlood flood-opacity="0" result="BackgroundImageFix"/>
            <feColorMatrix in="SourceAlpha" type="matrix" values="0 0 0 0 0 0 0 0 0 0 0 0 0 0 0 0 0 0 127 0" result="hardAlpha"/>
            <feOffset/>
            <feGaussianBlur stdDeviation="2"/>
            <feComposite in2="hardAlpha" operator="out"/>
            <feColorMatrix type="matrix" values="0 0 0 0 0.0901961 0 0 0 0 0.752941 0 0 0 0 0.721569 0 0 0 0.28 0"/>
            <feBlend mode="normal" in2="BackgroundImageFix" result="effect1_dropShadow_615_615"/>
            <feBlend mode="normal" in="SourceGraphic" in2="effect1_dropShadow_615_615" result="shape"/>
        </filter>
        <filter id="filter3_f_615_615" x="17.5" y="14.5828" width="46.0757" height="45.3743" filterUnits="userSpaceOnUse" color-interpolation-filters="sRGB">
            <feFlood flood-opacity="0" result="BackgroundImageFix"/>
            <feBlend mode="normal" in="SourceGraphic" in2="BackgroundImageFix" result="shape"/>
            <feGaussianBlur stdDeviation="2" result="effect1_foregroundBlur_615_615"/>
        </filter>
        <linearGradient id="paint0_linear_615_615" x1="41.6053" y1="-2.83577" x2="41.6053" y2="84.6679" gradientUnits="userSpaceOnUse">
            <stop offset="0.0576923" stop-color="#6BA0A2"/>
            <stop offset="0.211538" stop-color="#19638D"/>
            <stop offset="0.370192" stop-color="#07649B"/>
            <stop offset="0.557692" stop-color="#1A3B6D"/>
            <stop offset="0.759615" stop-color="#19638D"/>
            <stop offset="0.961538" stop-color="#6BA0A2"/>
        </linearGradient>
        <linearGradient id="paint1_linear_615_615" x1="41.1974" y1="0" x2="41.1974" y2="74.5401" gradientUnits="userSpaceOnUse">
            <stop offset="0.4375" stop-color="#85C1FF"/>
        </linearGradient>
        <linearGradient id="paint2_linear_615_615" x1="41.105" y1="7.1167" x2="41.105" y2="66.2627" gradientUnits="userSpaceOnUse">
            <stop stop-color="#17C0B8"/>
            <stop offset="1" stop-color="#0B84CB"/>
        </linearGradient>
    </defs>
</svg>