<svg viewBox="0 0 97 98" fill="none" xmlns="http://www.w3.org/2000/svg">
    <g clip-path="url(#clip0_168_2207)">
        <path d="M43.8807 0.73991C6.30725 4.30295 -13.918 49.0711 10.9711 79.6396C22.473 93.8194 41.6801 100.834 60.6113 95.956C70.7535 93.3396 79.5228 87.5348 85.7697 79.9814C113.05 47.1712 87.3528 -3.40821 43.8807 0.73991Z" fill="url(#paint0_radial_168_2207)"/>
        <path d="M56.3732 14.7651C68.8979 18.2589 77.8985 28.2463 80.7254 40.0754C86.9658 66.1592 62.2228 88.8084 37.3511 81.0046C21.4776 76.2278 11.2343 60.6922 12.9715 44.3172C15.1575 23.168 35.8453 9.03892 56.3732 14.7651Z" fill="url(#paint1_radial_168_2207)"/>
        <g opacity="0.75">
            <path d="M47.5711 71.2762C44.6168 69.4903 40.3203 68.8432 39.9157 70.6679C39.5111 72.4926 42.3305 75.3332 45.7536 74.9256C49.183 74.5244 49.5877 72.4926 47.5711 71.2762Z" fill="#056DB1"/>
            <path d="M57.2046 81.1244C54.5393 81.9203 51.7392 82.3991 48.8428 82.5091C49.5043 78.2838 53.4925 79.6168 55.6247 80.1991C56.2477 80.3739 56.7679 80.7168 57.2046 81.1244Z" fill="#056DB1"/>
            <path d="M28.8438 71.0754C30.1475 71.6513 31.0595 68.843 29.2484 66.4101C27.4373 63.9772 26.6281 60.9295 24.4125 60.3213C22.1968 59.7131 20.9894 67.6266 28.8438 71.0754Z" fill="#056DB1"/>
            <path d="M19.9811 61.1306C19.2682 61.26 18.9728 62.7547 20.5848 62.9553C22.1968 63.1623 22.1968 60.7294 19.9811 61.1306Z" fill="#056DB1"/>
            <path d="M37.9056 52.8157C36.4863 52.6863 35.0863 53.424 35.2853 55.0481C35.4844 56.6722 37.7001 55.0481 38.7084 55.0481C39.7167 55.0481 40.1213 53.0163 37.9056 52.8157Z" fill="#056DB1"/>
        </g>
        <path d="M13.7011 53.9622C19.4376 56.9456 25.5007 51.1638 29.5083 52.8255C34.1992 54.7652 30.8469 61.6188 32.8266 70.3827C33.8186 74.7686 33.2333 77.4522 32.4048 79.034C22.4037 74.1359 15.5565 64.6789 13.7011 53.9622Z" fill="url(#paint2_linear_168_2207)"/>
        <path d="M14.4459 38.8343C17.9967 25.9328 28.3646 16.786 40.5394 14.2466C41.9059 18.7975 37.1723 20.5723 31.6493 22.2613C24.8025 24.3532 29.8057 27.4341 27.1721 33.2259C24.5322 39.0159 28.1128 40.4377 24.9688 45.0328C22.726 48.315 17.1871 43.0636 14.2036 39.7873C14.277 39.4721 14.3584 39.1523 14.4459 38.8343Z" fill="url(#paint3_linear_168_2207)"/>
        <path d="M48.1693 37.3974C52.0008 37.2778 52.7418 42.0435 57.4735 42.3093C62.2053 42.5751 68.0993 35.5912 62.0303 34.1064C55.9613 32.6216 54.1916 32.974 50.5908 28.599C46.9901 24.2239 41.1558 24.9129 38.2568 29.3683C35.364 33.8254 35.3129 37.8129 48.1693 37.3974Z" fill="url(#paint4_linear_168_2207)"/>
        <path d="M36.7615 50.0077C38.783 49.927 39.5194 49.0917 39.2603 47.7571C39.0011 46.4225 36.6208 45.9667 35.9412 43.8836C35.2617 41.8006 32.9387 38.8362 31.089 42.5301C29.2331 46.2223 32.1135 50.1883 36.7615 50.0077Z" fill="url(#paint5_linear_168_2207)"/>
        <path opacity="0.5" d="M40.7519 62.0718C41.8159 59.562 43.4689 62.8297 47.1349 64.6916C50.801 66.5536 51.7074 69.3377 49.5313 70.416C47.3552 71.4943 44.7055 72.0175 42.7481 70.001C40.7985 67.98 39.5616 64.8955 40.7519 62.0718Z" fill="#005041"/>
        <path d="M40.5794 78.6553C45.4317 80.0088 48.5122 77.9205 53.4053 77.6001C56.3223 77.4134 58.1297 79.0791 59.117 80.4557C52.6526 82.8288 45.4207 83.269 38.2847 81.2784C38.0372 81.2093 37.7958 81.142 37.5578 81.0622C37.6053 79.558 38.1719 77.9837 40.5794 78.6553Z" fill="url(#paint6_linear_168_2207)"/>
        <path opacity="0.45" d="M46.1244 82.7321C36.9817 82.48 28.3486 78.5235 22.1543 71.9339C20.7128 70.3965 19.4049 68.719 18.2482 66.9165C16.7448 64.5623 15.5061 61.9892 14.5923 59.22C14.4464 58.7846 14.3129 58.3456 14.1838 57.8986C10.5769 45.4137 14.3097 32.5237 22.8351 23.9202C25.2185 21.512 27.9794 19.4377 31.061 17.8015C33.0813 16.7318 35.2411 15.8435 37.5246 15.1749C41.499 14.0112 45.5113 13.604 49.4101 13.8697C39.3767 20.8678 27.5092 33.6349 30.4757 53.8892C31.0549 57.8404 32.0129 61.4115 33.2546 64.6436C36.3139 72.5686 41.0739 78.4336 46.1244 82.7321Z" fill="url(#paint7_linear_168_2207)"/>
        <path d="M81.2497 42.3981C81.2497 42.3981 76.3752 24.4099 53.9614 18.4893C40.526 14.937 31.2009 18.1399 25.8896 21.2717C42.8509 7.32109 68.7905 12.8599 78.411 33.2681C80.646 37.9981 81.0891 41.7381 81.2497 42.3981Z" fill="url(#paint8_linear_168_2207)"/>
        <path d="M46.5 13.5C51.1619 13.5 55.7782 14.3924 60.0853 16.1262C64.3923 17.86 68.3058 20.4012 71.6023 23.6048C74.8988 26.8085 77.5137 30.6117 79.2977 34.7974C81.0818 38.9832 82 43.4694 82 48C82 52.5306 81.0818 57.0169 79.2977 61.2026C77.5137 65.3883 74.8988 69.1916 71.6023 72.3952C68.3058 75.5988 64.3923 78.1401 60.0853 79.8739C55.7782 81.6077 51.1619 82.5 46.5 82.5L46.5 48V13.5Z" fill="#883B40"/>
        <path d="M46.5 18.5C50.5053 18.5 54.4714 19.2631 58.1718 20.7456C61.8723 22.2281 65.2346 24.401 68.0668 27.1404C70.8989 29.8797 73.1456 33.1318 74.6783 36.7109C76.2111 40.29 77 44.126 77 48C77 51.874 76.2111 55.7101 74.6783 59.2892C73.1456 62.8683 70.8989 66.1203 68.0667 68.8597C65.2346 71.599 61.8723 73.772 58.1718 75.2545C54.4714 76.737 50.5053 77.5 46.5 77.5L46.5 69.7203C49.449 69.7203 52.3692 69.1585 55.0938 68.067C57.8183 66.9754 60.2939 65.3755 62.3792 63.3586C64.4645 61.3417 66.1186 58.9473 67.2472 56.312C68.3757 53.6768 68.9566 50.8524 68.9566 48C68.9566 45.1477 68.3757 42.3232 67.2472 39.688C66.1186 37.0528 64.4645 34.6584 62.3792 32.6414C60.2939 30.6245 57.8183 29.0246 55.0938 27.9331C52.3692 26.8415 49.449 26.2797 46.5 26.2797V18.5Z" fill="#E55833"/>
        <path d="M46.5 25.5C49.5861 25.5 52.6419 26.082 55.4931 27.2127C58.3442 28.3434 60.9348 30.0008 63.117 32.0901C65.2992 34.1794 67.0302 36.6598 68.2112 39.3896C69.3922 42.1195 70 45.0453 70 48C70 50.9547 69.3922 53.8806 68.2112 56.6104C67.0302 59.3402 65.2992 61.8206 63.117 63.9099C60.9348 65.9992 58.3442 67.6566 55.4931 68.7873C52.6419 69.918 49.5861 70.5 46.5 70.5L46.5 62.3946C48.4743 62.3946 50.4293 62.0223 52.2534 61.2989C54.0775 60.5755 55.7348 59.5152 57.1309 58.1785C58.527 56.8419 59.6344 55.255 60.39 53.5086C61.1455 51.7621 61.5344 49.8903 61.5344 48C61.5344 46.1097 61.1455 44.2379 60.39 42.4914C59.6344 40.745 58.527 39.1581 57.1309 37.8215C55.7348 36.4848 54.0775 35.4245 52.2534 34.7011C50.4294 33.9777 48.4743 33.6054 46.5 33.6054V25.5Z" fill="#F68730"/>
        <path d="M46.5 33.5C48.6668 33.5 50.8124 33.8751 52.8143 34.6037C54.8162 35.3324 56.6351 36.4005 58.1673 37.747C59.6994 39.0934 60.9148 40.6919 61.744 42.4511C62.5732 44.2103 63 46.0958 63 48C63 49.9042 62.5732 51.7897 61.744 53.5489C60.9148 55.3081 59.6994 56.9066 58.1673 58.2531C56.6351 59.5995 54.8161 60.6676 52.8143 61.3963C50.8124 62.1249 48.6668 62.5 46.5 62.5L46.5 54.8021C47.5165 54.8021 48.523 54.6262 49.4621 54.2843C50.4012 53.9425 51.2545 53.4415 51.9733 52.8098C52.692 52.1782 53.2622 51.4283 53.6512 50.6031C54.0401 49.7778 54.2404 48.8933 54.2404 48C54.2404 47.1067 54.0401 46.2222 53.6512 45.3969C53.2622 44.5717 52.692 43.8218 51.9733 43.1902C51.2545 42.5585 50.4012 42.0575 49.4621 41.7157C48.523 41.3738 47.5165 41.1979 46.5 41.1979V33.5Z" fill="#FFE065"/>
        <path d="M46.5 40.5C47.6162 40.5 48.7215 40.694 49.7528 41.0709C50.7841 41.4478 51.7211 42.0002 52.5104 42.6967C53.2997 43.3931 53.9258 44.2199 54.353 45.1298C54.7801 46.0398 55 47.0151 55 48C55 48.9849 54.7801 49.9602 54.353 50.8701C53.9258 51.78 53.2997 52.6068 52.5104 53.3033C51.7211 53.9997 50.7841 54.5522 49.7528 54.9291C48.7215 55.306 47.6162 55.5 46.5 55.5L46.5 48V40.5Z" fill="#FFFDEE"/>
        <path d="M46.5 82.4999C43.45 82.4999 40.5249 78.8651 38.3683 72.3951C36.2116 65.9251 35 57.1499 35 47.9999C35 38.8499 36.2116 30.0747 38.3683 23.6047C40.5249 17.1347 43.45 13.4999 46.5 13.4999V47.9999L46.5 82.4999Z" fill="#201A61"/>
        <g filter="url(#filter0_d_168_2207)">
            <path d="M46.5 62.4999C45.6464 62.4999 44.8012 62.1249 44.0126 61.3962C43.2239 60.6675 42.5074 59.5994 41.9038 58.253C41.3002 56.9065 40.8214 55.308 40.4948 53.5488C40.1681 51.7896 40 49.9041 40 47.9999C40 46.0957 40.1681 44.2102 40.4948 42.451C40.8214 40.6918 41.3002 39.0933 41.9038 37.7469C42.5074 36.4004 43.2239 35.3323 44.0126 34.6037C44.8012 33.875 45.6464 33.4999 46.5 33.4999L46.5 41.1978C46.0996 41.1978 45.7031 41.3737 45.3331 41.7156C44.9632 42.0574 44.627 42.5584 44.3439 43.1901C44.0607 43.8217 43.8361 44.5716 43.6829 45.3968C43.5296 46.2221 43.4508 47.1066 43.4508 47.9999C43.4508 48.8932 43.5296 49.7777 43.6829 50.603C43.8361 51.4282 44.0607 52.1781 44.3439 52.8097C44.627 53.4414 44.9632 53.9424 45.3331 54.2843C45.7031 54.6261 46.0996 54.802 46.5 54.802V62.4999Z" fill="#F58331"/>
        </g>
        <path d="M46.5 55.4999C46.0404 55.4999 45.5852 55.3059 45.1606 54.929C44.736 54.5521 44.3501 53.9996 44.0251 53.3032C43.7001 52.6068 43.4423 51.78 43.2664 50.87C43.0905 49.9601 43 48.9848 43 47.9999C43 47.015 43.0905 46.0397 43.2664 45.1298C43.4423 44.2198 43.7001 43.393 44.0251 42.6966C44.3501 42.0002 44.736 41.4477 45.1606 41.0708C45.5852 40.6939 46.0404 40.4999 46.5 40.4999L46.5 47.9999V55.4999Z" fill="#FFDE64"/>
    </g>
    <defs>
        <filter id="filter0_d_168_2207" x="31" y="24.4999" width="24.5" height="47" filterUnits="userSpaceOnUse" color-interpolation-filters="sRGB">
            <feFlood flood-opacity="0" result="BackgroundImageFix"/>
            <feColorMatrix in="SourceAlpha" type="matrix" values="0 0 0 0 0 0 0 0 0 0 0 0 0 0 0 0 0 0 127 0" result="hardAlpha"/>
            <feMorphology radius="1" operator="dilate" in="SourceAlpha" result="effect1_dropShadow_168_2207"/>
            <feOffset/>
            <feGaussianBlur stdDeviation="4"/>
            <feComposite in2="hardAlpha" operator="out"/>
            <feColorMatrix type="matrix" values="0 0 0 0 0.921569 0 0 0 0 0.47451 0 0 0 0 0.152941 0 0 0 1 0"/>
            <feBlend mode="normal" in2="BackgroundImageFix" result="effect1_dropShadow_168_2207"/>
            <feBlend mode="normal" in="SourceGraphic" in2="effect1_dropShadow_168_2207" result="shape"/>
        </filter>
        <radialGradient id="paint0_radial_168_2207" cx="0" cy="0" r="1" gradientUnits="userSpaceOnUse" gradientTransform="translate(48.4981 49.0018) scale(41.8419 41.8744)">
            <stop stop-color="#90DD6F"/>
            <stop offset="1" stop-color="#B8FFA9" stop-opacity="0"/>
        </radialGradient>
        <radialGradient id="paint1_radial_168_2207" cx="0" cy="0" r="1" gradientUnits="userSpaceOnUse" gradientTransform="translate(42.0008 60.5371) rotate(-164.414) scale(41.8306 41.8235)">
            <stop stop-color="#3B307B"/>
            <stop offset="1" stop-color="#201A61"/>
        </radialGradient>
        <linearGradient id="paint2_linear_168_2207" x1="17.1714" y1="97.9819" x2="36.1493" y2="0.306597" gradientUnits="userSpaceOnUse">
            <stop stop-color="#DAC1AE"/>
            <stop offset="1" stop-color="#005041" stop-opacity="0"/>
        </linearGradient>
        <linearGradient id="paint3_linear_168_2207" x1="14.1668" y1="97.3981" x2="33.1447" y2="-0.27708" gradientUnits="userSpaceOnUse">
            <stop stop-color="#DAC1AE"/>
            <stop offset="1" stop-color="#005041" stop-opacity="0"/>
        </linearGradient>
        <linearGradient id="paint4_linear_168_2207" x1="37.7958" y1="101.989" x2="56.7738" y2="4.31341" gradientUnits="userSpaceOnUse">
            <stop stop-color="#DAC1AE"/>
            <stop offset="1" stop-color="#005041" stop-opacity="0"/>
        </linearGradient>
        <linearGradient id="paint5_linear_168_2207" x1="24.7383" y1="99.4522" x2="43.7162" y2="1.77656" gradientUnits="userSpaceOnUse">
            <stop stop-color="#DAC1AE"/>
            <stop offset="1" stop-color="#005041" stop-opacity="0"/>
        </linearGradient>
        <linearGradient id="paint6_linear_168_2207" x1="44" y1="103.195" x2="62.9779" y2="5.51919" gradientUnits="userSpaceOnUse">
            <stop stop-color="#DAC1AE"/>
            <stop offset="1" stop-color="#005041"/>
        </linearGradient>
        <linearGradient id="paint7_linear_168_2207" x1="2.94919" y1="48.0521" x2="49.5677" y2="55.0648" gradientUnits="userSpaceOnUse">
            <stop stop-color="#201A61"/>
            <stop offset="1" stop-color="#3B307B"/>
        </linearGradient>
        <linearGradient id="paint8_linear_168_2207" x1="72.3323" y1="-5.44517" x2="50.5264" y2="37.2342" gradientUnits="userSpaceOnUse">
            <stop stop-color="#E2FFB5"/>
            <stop offset="1" stop-color="#FFFFB3" stop-opacity="0"/>
        </linearGradient>
        <clipPath id="clip0_168_2207">
            <rect width="97" height="97" fill="white" transform="translate(0 0.5)"/>
        </clipPath>
    </defs>
</svg>