<svg viewBox="0 0 89 84" fill="none" xmlns="http://www.w3.org/2000/svg">
    <g filter="url(#filter0_d_246_1568)">
        <path d="M56.5933 44.9334C54.9417 43.6963 52.7717 44.2445 51.5645 46.0445C48.1576 51.1334 42.8251 54.4148 36.8186 54.4148C30.8121 54.4148 25.4797 51.1334 22.0728 46.0445C20.873 44.2445 18.6955 43.7037 17.0439 44.9334C8.06016 51.6371 1.72042 62.7334 0.387295 75.5111C0.113264 78.1704 1.89079 80.5185 4.20895 80.5185H69.4209C71.7391 80.5185 73.524 78.1704 73.2426 75.5111C71.9169 62.7408 65.5697 51.6371 56.5859 44.9334H56.5933Z" fill="url(#paint0_linear_246_1568)"/>
        <path d="M36.8187 48.4519C46.3206 48.4519 54.0235 40.257 54.0235 30.1482C54.0235 20.0393 46.3206 11.8445 36.8187 11.8445C27.3168 11.8445 19.614 20.0393 19.614 30.1482C19.614 40.257 27.3168 48.4519 36.8187 48.4519Z" fill="url(#paint1_linear_246_1568)"/>
    </g>
    <defs>
        <filter id="filter0_d_246_1568" x="0.359375" y="0.844482" width="87.9124" height="82.674" filterUnits="userSpaceOnUse" color-interpolation-filters="sRGB">
            <feFlood flood-opacity="0" result="BackgroundImageFix"/>
            <feColorMatrix in="SourceAlpha" type="matrix" values="0 0 0 0 0 0 0 0 0 0 0 0 0 0 0 0 0 0 127 0" result="hardAlpha"/>
            <feOffset dx="8" dy="-4"/>
            <feGaussianBlur stdDeviation="3.5"/>
            <feComposite in2="hardAlpha" operator="out"/>
            <feColorMatrix type="matrix" values="0 0 0 0 0 0 0 0 0 0 0 0 0 0 0 0 0 0 0.25 0"/>
            <feBlend mode="normal" in2="BackgroundImageFix" result="effect1_dropShadow_246_1568"/>
            <feBlend mode="normal" in="SourceGraphic" in2="effect1_dropShadow_246_1568" result="shape"/>
        </filter>
        <linearGradient id="paint0_linear_246_1568" x1="47.0001" y1="60.185" x2="16.2015" y2="94.7377" gradientUnits="userSpaceOnUse">
            <stop stop-color="#DDF1F1"/>
            <stop offset="0.563147" stop-color="#336A87"/>
        </linearGradient>
        <linearGradient id="paint1_linear_246_1568" x1="41.6251" y1="27.9191" x2="15.8751" y2="41.4202" gradientUnits="userSpaceOnUse">
            <stop stop-color="#DDF1F1"/>
            <stop offset="0.563147" stop-color="#336A87"/>
        </linearGradient>
    </defs>
</svg>