<svg viewBox="0 0 906 231" fill="none" xmlns="http://www.w3.org/2000/svg">
    <path fill-rule="evenodd" clip-rule="evenodd" d="M247.308 45.2454C245.612 43.5519 244.661 41.2558 244.661 38.8609V9.51822C244.661 4.97348 240.972 1.28906 236.421 1.28906H209.657C205.107 1.28906 201.418 4.97348 201.418 9.51822V36.2538C201.418 40.7975 205.107 44.4829 209.657 44.4829H239.019C241.417 44.4829 243.715 45.4333 245.411 47.1268L245.418 47.1346C247.113 48.8271 248.065 51.1232 248.065 53.5181V222.619C248.065 227.164 251.754 230.848 256.304 230.848H283.069C287.62 230.848 291.307 227.164 291.307 222.619V56.1194C291.307 51.5737 287.62 47.8893 283.069 47.8893H253.7C251.302 47.8893 249.003 46.9389 247.308 45.2454Z" fill="white"/>
    <path fill-rule="evenodd" clip-rule="evenodd" d="M46.2153 140.348L46.2492 140.314C47.9437 138.63 50.2366 137.684 52.6255 137.684H125.272C129.801 137.684 133.472 134.016 133.472 129.492V100.071C133.472 97.6963 134.42 95.4196 136.106 93.7435L136.138 93.7125C137.832 92.0287 140.125 91.0831 142.516 91.0831H171.919C176.448 91.0831 180.121 87.4152 180.121 82.8908V56.0816C180.121 51.5582 176.448 47.8893 171.919 47.8893H142.512C140.114 47.8893 137.816 46.9379 136.121 45.2454C134.426 43.5519 133.472 41.2558 133.472 38.8609V9.4814C133.472 4.95701 129.801 1.28906 125.272 1.28906H8.6773C4.07308 1.28906 0.339844 5.01708 0.339844 9.618V36.154C0.339844 40.7539 4.07308 44.4829 8.6773 44.4829H127.828C130.228 44.4829 132.53 45.4353 134.227 47.1307C135.924 48.8261 136.879 51.1251 136.879 53.523V85.4775C136.879 87.8647 135.926 90.154 134.232 91.8388L134.21 91.8611C132.516 93.5449 130.223 94.4905 127.834 94.4905H55.188C50.6594 94.4905 46.9873 98.1584 46.9873 102.683V132.081C46.9873 134.462 46.0397 136.746 44.355 138.43L44.3249 138.458C42.6392 140.142 40.354 141.089 37.9699 141.089H8.54151C4.01197 141.089 0.339844 144.757 0.339844 149.281V176.09C0.339844 180.615 4.011 184.282 8.54151 184.282H38C40.3831 184.282 42.6702 185.227 44.355 186.912H44.3559C46.0407 188.595 46.9873 190.878 46.9873 193.259V222.655C46.9873 227.179 50.6594 230.846 55.188 230.847L171.782 230.848C176.388 230.848 180.121 227.119 180.121 222.519V195.983C180.121 191.383 176.388 187.654 171.782 187.654L52.6245 187.652C50.2346 187.652 47.9417 186.708 46.2473 185.024L46.2153 184.993C44.5305 183.319 43.5829 181.042 43.5829 178.668V146.673C43.5829 144.298 44.5305 142.023 46.2153 140.348Z" fill="white"/>
    <path fill-rule="evenodd" clip-rule="evenodd" d="M274.112 127.254L274.005 127.147C273.845 126.988 273.755 126.771 273.755 126.546V123.421C273.755 122.952 273.374 122.57 272.904 122.57H265.246C265.021 122.57 264.804 122.481 264.645 122.321L264.588 122.265C264.428 122.106 264.339 121.889 264.339 121.663V113.991C264.339 113.52 263.958 113.141 263.488 113.141H260.659C260.19 113.141 259.809 113.52 259.809 113.991V136.339C259.809 136.808 260.19 137.189 260.659 137.189H263.488C263.958 137.189 264.339 136.808 264.339 136.339V122.411L264.446 122.519C264.606 122.678 264.695 122.895 264.695 123.119V126.246C264.695 126.715 265.076 127.096 265.547 127.096H273.204C273.43 127.096 273.647 127.186 273.807 127.344L273.863 127.401C274.022 127.56 274.112 127.777 274.112 128.001V136.339C274.112 136.808 274.493 137.189 274.963 137.189H277.791C278.26 137.189 278.643 136.808 278.643 136.339V113.991C278.643 113.52 278.26 113.141 277.791 113.141H274.963C274.493 113.141 274.112 113.52 274.112 113.991V127.254Z" fill="#0F0F14"/>
    <path fill-rule="evenodd" clip-rule="evenodd" d="M273.856 103.78L273.813 103.823C273.649 103.986 273.427 104.078 273.195 104.078H269.226H265.255C265.024 104.078 264.801 103.986 264.637 103.823L264.594 103.78C264.43 103.616 264.338 103.394 264.338 103.163V89.9956C264.338 89.764 264.43 89.5431 264.594 89.3794L264.638 89.3358C264.802 89.1721 265.025 89.08 265.256 89.08H273.194C273.426 89.08 273.647 89.1721 273.811 89.3358L273.855 89.3794C274.019 89.5431 274.112 89.764 274.112 89.9956V93.089C274.112 93.5715 274.502 93.961 274.985 93.961H277.768C278.25 93.961 278.642 93.5715 278.642 93.089V90.3095C278.642 89.828 278.25 89.4366 277.768 89.4366H274.672C274.44 89.4366 274.217 89.3455 274.054 89.1818L274.011 89.1391C273.847 88.9754 273.755 88.7526 273.755 88.522V85.4276C273.755 84.9461 273.364 84.5547 272.881 84.5547H265.569C265.086 84.5547 264.695 84.9461 264.695 85.4276V88.521C264.695 88.7526 264.603 88.9744 264.439 89.1382L264.396 89.1818C264.232 89.3455 264.01 89.4366 263.779 89.4366H260.682C260.199 89.4366 259.809 89.828 259.809 90.3095V102.849C259.809 103.33 260.199 103.721 260.682 103.721H263.778C264.01 103.721 264.231 103.813 264.395 103.977L264.439 104.02C264.603 104.184 264.695 104.406 264.695 104.637V107.731C264.695 108.212 265.086 108.604 265.569 108.604H270.551H272.881C273.364 108.604 273.755 108.212 273.755 107.73V104.637C273.755 104.406 273.847 104.184 274.011 104.02L274.051 103.98C274.215 103.817 274.437 103.725 274.669 103.725H277.768C278.251 103.725 278.643 103.334 278.643 102.853V100.072C278.643 99.5908 278.251 99.1994 277.768 99.1994H274.985C274.503 99.1994 274.112 99.5908 274.112 100.072V103.162C274.112 103.394 274.02 103.616 273.856 103.78Z" fill="#0F0F14"/>
    <path fill-rule="evenodd" clip-rule="evenodd" d="M273.812 146.483L273.856 146.527C274.02 146.691 274.113 146.912 274.113 147.145V160.31C274.113 160.543 274.02 160.765 273.856 160.928L273.814 160.97C273.65 161.134 273.428 161.226 273.195 161.227H265.256C265.024 161.227 264.802 161.135 264.638 160.971L264.595 160.927C264.431 160.764 264.339 160.543 264.339 160.31V147.145C264.339 146.912 264.431 146.691 264.595 146.527L264.639 146.483C264.803 146.32 265.025 146.228 265.257 146.228H273.194C273.427 146.228 273.648 146.32 273.812 146.483ZM273.755 145.669V142.576C273.755 142.094 273.365 141.703 272.882 141.703H265.569C265.087 141.703 264.696 142.094 264.696 142.576V145.669C264.696 145.9 264.604 146.123 264.44 146.287L264.397 146.329C264.233 146.493 264.011 146.584 263.779 146.584H260.682C260.2 146.584 259.809 146.975 259.809 147.458V159.997C259.809 160.479 260.2 160.87 260.682 160.87H263.778C264.011 160.87 264.232 160.961 264.396 161.125L264.44 161.169C264.604 161.332 264.696 161.554 264.696 161.786V164.878C264.696 165.36 265.087 165.751 265.569 165.751H272.882C273.365 165.751 273.755 165.36 273.755 164.878V161.786C273.755 161.554 273.848 161.332 274.012 161.169L274.052 161.128C274.216 160.964 274.438 160.873 274.67 160.873H277.769C278.251 160.873 278.642 160.482 278.642 160V147.458C278.642 146.975 278.251 146.584 277.769 146.584H274.673C274.44 146.584 274.218 146.493 274.054 146.329L274.012 146.287C273.848 146.123 273.755 145.901 273.755 145.669Z" fill="#0F0F14"/>
    <path fill-rule="evenodd" clip-rule="evenodd" d="M273.812 175.07L273.856 175.114C274.02 175.278 274.113 175.498 274.113 175.731V188.897C274.113 189.129 274.02 189.351 273.856 189.514L273.814 189.557C273.65 189.721 273.428 189.813 273.195 189.813H265.256C265.024 189.813 264.802 189.721 264.638 189.557L264.595 189.513C264.431 189.351 264.339 189.129 264.339 188.896V175.731C264.339 175.498 264.431 175.278 264.595 175.114L264.639 175.07C264.803 174.906 265.025 174.813 265.257 174.813H273.194C273.427 174.813 273.648 174.906 273.812 175.07ZM273.755 174.256V171.162C273.755 170.68 273.365 170.289 272.882 170.289H265.569C265.087 170.289 264.696 170.68 264.696 171.162V174.255C264.696 174.487 264.604 174.709 264.44 174.873L264.397 174.916C264.233 175.08 264.011 175.171 263.779 175.171H260.682C260.2 175.171 259.809 175.562 259.809 176.044V188.583C259.809 189.065 260.2 189.456 260.682 189.456H263.778C264.011 189.456 264.232 189.547 264.396 189.711L264.44 189.755C264.604 189.918 264.696 190.141 264.696 190.372V193.464C264.696 193.947 265.087 194.338 265.569 194.338L272.882 194.337C273.365 194.337 273.755 193.947 273.755 193.464V190.372C273.755 190.14 273.848 189.918 274.012 189.755L274.052 189.715C274.216 189.551 274.438 189.46 274.67 189.46H277.769C278.251 189.46 278.642 189.069 278.642 188.586V176.044C278.642 175.562 278.251 175.171 277.769 175.171H274.673C274.44 175.171 274.218 175.08 274.054 174.916L274.012 174.874C273.848 174.71 273.755 174.487 273.755 174.256Z" fill="#0F0F14"/>
    <path fill-rule="evenodd" clip-rule="evenodd" d="M264.695 56.8641V59.9576C264.695 60.1901 264.603 60.411 264.439 60.5747L264.396 60.6173C264.232 60.7811 264.01 60.8741 263.779 60.8741H260.682C260.199 60.8741 259.809 61.2635 259.809 61.746V64.5256C259.809 65.0071 260.199 65.3985 260.682 65.3985H263.779C264.01 65.3985 264.232 65.4895 264.396 65.6533L264.439 65.6969C264.603 65.8606 264.695 66.0825 264.695 66.314V69.4074C264.695 69.8889 265.086 70.2803 265.569 70.2803H273.195C273.427 70.2803 273.648 70.3714 273.812 70.5352L273.856 70.5787C274.02 70.7425 274.112 70.9643 274.112 71.1959V74.5994C274.112 74.8309 274.02 75.0518 273.856 75.2155L273.812 75.2591C273.649 75.4228 273.427 75.5149 273.195 75.5149H260.682C260.199 75.5149 259.809 75.9053 259.809 76.3868V79.1673C259.809 79.6488 260.199 80.0393 260.682 80.0393H272.881C273.364 80.0393 273.755 79.6488 273.755 79.1673V76.0739C273.755 75.8424 273.848 75.6205 274.011 75.4568L274.051 75.417C274.215 75.2533 274.437 75.1622 274.669 75.1622H277.769C278.252 75.1622 278.643 74.7708 278.643 74.2884V71.5088C278.643 71.0273 278.252 70.6369 277.769 70.6369H274.672C274.441 70.6369 274.218 70.5448 274.054 70.3811L274.011 70.3375C273.848 70.1738 273.755 69.9529 273.755 69.7213V66.6279C273.755 66.1454 273.364 65.755 272.881 65.755H265.256C265.024 65.755 264.802 65.663 264.638 65.4992L264.594 65.4556C264.431 65.2919 264.339 65.071 264.339 64.8385V61.4331C264.339 61.2015 264.431 60.9797 264.594 60.8159L264.638 60.7714C264.802 60.6086 265.025 60.5166 265.256 60.5166H277.769C278.252 60.5166 278.643 60.1252 278.643 59.6437V56.8641C278.643 56.3826 278.252 55.9922 277.769 55.9922H265.569C265.086 55.9922 264.695 56.3826 264.695 56.8641Z" fill="#0F0F14"/>
    <path fill-rule="evenodd" clip-rule="evenodd" d="M264.638 218.119L264.594 218.076C264.43 217.912 264.338 217.691 264.338 217.459V199.724C264.338 199.243 263.947 198.852 263.464 198.852H260.682C260.199 198.852 259.809 199.243 259.809 199.724V217.146C259.809 217.627 260.199 218.019 260.682 218.019H263.778C264.01 218.019 264.232 218.11 264.396 218.273L264.439 218.317C264.603 218.481 264.695 218.703 264.695 218.934V222.028C264.695 222.509 265.086 222.901 265.568 222.901H277.768C278.25 222.901 278.642 222.509 278.642 222.028V219.248C278.642 218.766 278.25 218.375 277.768 218.375H265.256C265.023 218.375 264.802 218.283 264.638 218.119Z" fill="#0F0F14"/>
    <path d="M376.242 1.10487C381.69 1.10487 386.393 1.69596 390.351 2.87814C394.36 4.00892 397.65 5.67939 400.219 7.88955C402.841 10.0483 404.768 12.7468 406.002 15.9849C407.235 19.1717 407.852 22.8467 407.852 27.01C407.852 31.7901 407.107 35.9535 405.616 39.5C404.126 42.9951 402.018 45.8992 399.294 48.2122C396.622 50.5251 393.383 52.247 389.58 53.3778C385.776 54.5085 381.562 55.0739 376.936 55.0739H357.969V1.10487H376.242ZM377.321 43.5091C383.438 43.5091 387.909 42.0957 390.736 39.2687C393.563 36.4418 394.977 32.6639 394.977 27.9352C394.977 25.4166 394.643 23.2065 393.974 21.3047C393.358 19.403 392.33 17.8096 390.891 16.5246C389.503 15.2396 387.678 14.2887 385.417 13.672C383.155 13.0038 380.405 12.6697 377.167 12.6697H370.305V43.5091H377.321Z" fill="white"/>
    <path d="M429.108 55.0739H416.772V1.10487H429.108V55.0739Z" fill="white"/>
    <path d="M488.489 48.2122H488.412L488.489 48.2892C487.872 49.2144 486.896 50.1396 485.559 51.0648C484.223 51.9386 482.629 52.7353 480.779 53.4549C478.98 54.1744 477.027 54.7655 474.92 55.2281C472.812 55.6907 470.705 55.9477 468.598 55.9991C464.074 55.9991 459.937 55.3823 456.185 54.1487C452.433 52.9152 449.194 51.1162 446.47 48.7518C443.797 46.3361 441.716 43.4063 440.225 39.9626C438.735 36.4675 437.989 32.484 437.989 28.0123C437.989 23.849 438.709 20.0711 440.148 16.6788C441.639 13.2865 443.72 10.3824 446.393 7.96665C449.066 5.49949 452.253 3.59773 455.953 2.26135C459.705 0.873574 463.843 0.179688 468.366 0.179688C472.478 0.179688 476.025 0.616579 479.006 1.49036C481.987 2.36415 484.403 3.34073 486.253 4.42011V20.3795C485.379 19.2488 484.351 18.1694 483.169 17.1414C481.987 16.1134 480.625 15.2139 479.083 14.4429C477.592 13.6206 475.948 12.9781 474.149 12.5155C472.35 12.0015 470.422 11.7445 468.366 11.7445C465.745 11.7445 463.381 12.1557 461.273 12.9781C459.217 13.7491 457.444 14.8541 455.953 16.2933C454.514 17.7325 453.409 19.4544 452.638 21.4589C451.867 23.4635 451.482 25.6736 451.482 28.0894C451.482 30.351 451.841 32.4583 452.561 34.4115C453.281 36.3647 454.36 38.0865 455.799 39.5771C457.238 41.0677 459.012 42.2499 461.119 43.1236C463.278 43.9974 465.771 44.4343 468.598 44.4343C470.242 44.4343 471.733 44.3058 473.069 44.0488C474.406 43.7918 475.665 43.3806 476.847 42.8152V36.1077H466.978V24.5429H488.489V48.2122Z" fill="white"/>
    <path d="M512.004 55.0739H499.668V1.10487H512.004V55.0739Z" fill="white"/>
    <path d="M565.526 12.6697H548.487V55.0739H536.151V12.6697H519.806V1.10487H565.526V12.6697Z" fill="white"/>
    <path d="M619.232 55.0739H606.202L601.962 44.0488H578.832L574.515 55.0739H562.179L583.767 1.10487H597.413L619.232 55.0739ZM597.49 32.484L590.474 14.3658L583.381 32.484H597.49Z" fill="white"/>
    <path d="M638.645 43.5091H665.86V55.0739H626.309V1.10487H638.645V43.5091Z" fill="white"/>
    <path d="M393.049 118.148H370.305V128.556H396.75V140.121H357.969V86.1518H395.902V97.7166H370.305V106.583H393.049V118.148Z" fill="white"/>
    <path d="M419.772 105.041V140.121H407.436V86.1518H421.622L445.985 121.386V86.1518H458.321V140.121H444.058L419.772 105.041Z" fill="white"/>
    <path d="M517.702 133.259H517.625L517.702 133.336C517.085 134.261 516.109 135.187 514.772 136.112C513.436 136.986 511.843 137.782 509.992 138.502C508.193 139.221 506.24 139.813 504.133 140.275C502.025 140.738 499.918 140.995 497.811 141.046C493.288 141.046 489.15 140.429 485.398 139.196C481.646 137.962 478.408 136.163 475.683 133.799C473.011 131.383 470.929 128.453 469.438 125.01C467.948 121.514 467.203 117.531 467.203 113.059C467.203 108.896 467.922 105.118 469.361 101.726C470.852 98.3334 472.934 95.4294 475.606 93.0136C478.279 90.5465 481.466 88.6447 485.167 87.3083C488.919 85.9205 493.056 85.2267 497.579 85.2267C501.691 85.2267 505.238 85.6635 508.219 86.5373C511.2 87.4111 513.616 88.3877 515.466 89.4671V105.427C514.593 104.296 513.565 103.216 512.382 102.188C511.2 101.16 509.838 100.261 508.296 99.4899C506.806 98.6675 505.161 98.025 503.362 97.5624C501.563 97.0485 499.635 96.7915 497.579 96.7915C494.958 96.7915 492.594 97.2026 490.486 98.025C488.43 98.796 486.657 99.9011 485.167 101.34C483.727 102.779 482.622 104.501 481.851 106.506C481.08 108.51 480.695 110.721 480.695 113.136C480.695 115.398 481.055 117.505 481.774 119.458C482.494 121.412 483.573 123.134 485.012 124.624C486.451 126.115 488.225 127.297 490.332 128.171C492.491 129.044 494.984 129.481 497.811 129.481C499.455 129.481 500.946 129.353 502.282 129.096C503.619 128.839 504.878 128.428 506.06 127.862V121.155H496.192V109.59H517.702V133.259Z" fill="white"/>
    <path d="M541.217 140.121H528.881V86.1518H541.217V140.121Z" fill="white"/>
    <path d="M566.289 105.041V140.121H553.954V86.1518H568.14L592.503 121.386V86.1518H604.839V140.121H590.575L566.289 105.041Z" fill="white"/>
    <path d="M652.655 118.148H629.911V128.556H656.356V140.121H617.575V86.1518H655.508V97.7166H629.911V106.583H652.655V118.148Z" fill="white"/>
    <path d="M702.122 118.148H679.377V128.556H705.822V140.121H667.042V86.1518H704.974V97.7166H679.377V106.583H702.122V118.148Z" fill="white"/>
    <path d="M738.096 124.855C737.325 124.958 736.528 125.01 735.706 125.01C734.935 125.01 734.112 125.01 733.239 125.01H728.844V140.121H716.508V86.1518H733.239C737.967 86.1518 741.951 86.563 745.189 87.3854C748.478 88.2078 751.126 89.4414 753.13 91.0862C755.186 92.6795 756.651 94.6584 757.525 97.0228C758.45 99.3871 758.913 102.086 758.913 105.118C758.913 112.982 755.854 118.533 749.738 121.771L761.457 140.121H747.116L738.096 124.855ZM728.844 97.7166V113.445H734.781C738.687 113.445 741.565 112.777 743.416 111.44C745.266 110.104 746.191 108.022 746.191 105.195C746.191 102.625 745.343 100.749 743.647 99.567C742.002 98.3334 739.252 97.7166 735.397 97.7166H728.844Z" fill="white"/>
    <path d="M782.527 140.121H770.191V86.1518H782.527V140.121Z" fill="white"/>
    <path d="M807.599 105.041V140.121H795.263V86.1518H809.449L833.813 121.386V86.1518H846.148V140.121H831.885L807.599 105.041Z" fill="white"/>
    <path d="M905.529 133.259H905.452L905.529 133.336C904.913 134.261 903.936 135.187 902.6 136.112C901.263 136.986 899.67 137.782 897.82 138.502C896.021 139.221 894.067 139.813 891.96 140.275C889.853 140.738 887.745 140.995 885.638 141.046C881.115 141.046 876.977 140.429 873.225 139.196C869.473 137.962 866.235 136.163 863.511 133.799C860.838 131.383 858.756 128.453 857.266 125.01C855.775 121.514 855.03 117.531 855.03 113.059C855.03 108.896 855.749 105.118 857.189 101.726C858.679 98.3334 860.761 95.4294 863.434 93.0136C866.106 90.5465 869.293 88.6447 872.994 87.3083C876.746 85.9205 880.884 85.2267 885.407 85.2267C889.519 85.2267 893.065 85.6635 896.046 86.5373C899.027 87.4111 901.443 88.3877 903.294 89.4671V105.427C902.42 104.296 901.392 103.216 900.21 102.188C899.027 101.16 897.665 100.261 896.123 99.4899C894.633 98.6675 892.988 98.025 891.189 97.5624C889.39 97.0485 887.463 96.7915 885.407 96.7915C882.785 96.7915 880.421 97.2026 878.314 98.025C876.258 98.796 874.484 99.9011 872.994 101.34C871.555 102.779 870.45 104.501 869.679 106.506C868.908 108.51 868.522 110.721 868.522 113.136C868.522 115.398 868.882 117.505 869.601 119.458C870.321 121.412 871.4 123.134 872.84 124.624C874.279 126.115 876.052 127.297 878.159 128.171C880.318 129.044 882.811 129.481 885.638 129.481C887.283 129.481 888.773 129.353 890.11 129.096C891.446 128.839 892.705 128.428 893.888 127.862V121.155H884.019V109.59H905.529V133.259Z" fill="white"/>
    <path d="M395.748 190.473C394.874 189.343 393.846 188.263 392.664 187.235C391.482 186.207 390.12 185.282 388.578 184.46C387.087 183.637 385.468 182.995 383.72 182.532C381.973 182.07 380.097 181.838 378.092 181.838C374.443 181.838 371.899 182.25 370.459 183.072C369.02 183.843 368.301 184.922 368.301 186.31C368.301 187.441 368.738 188.34 369.611 189.009C370.485 189.677 371.616 190.216 373.004 190.628C374.443 191.039 376.062 191.399 377.861 191.707C379.66 192.015 381.484 192.401 383.335 192.864C385.237 193.275 387.087 193.84 388.886 194.56C390.685 195.279 392.278 196.256 393.666 197.489C395.105 198.723 396.262 200.265 397.136 202.115C398.009 203.966 398.446 206.253 398.446 208.977C398.446 211.187 398.035 213.32 397.213 215.376C396.442 217.432 395.157 219.257 393.358 220.85C391.559 222.444 389.194 223.729 386.265 224.705C383.386 225.63 379.865 226.093 375.702 226.093C373.441 226.093 371.282 225.913 369.226 225.553C367.221 225.194 365.371 224.705 363.675 224.088C362.03 223.472 360.565 222.778 359.28 222.007C358.047 221.236 357.07 220.439 356.35 219.617V205.893C358.098 208.515 360.616 210.622 363.906 212.215C367.196 213.757 371.076 214.528 375.548 214.528C379.454 214.528 382.178 214.066 383.72 213.14C385.262 212.164 386.033 210.93 386.033 209.44C386.033 208.206 385.596 207.255 384.723 206.587C383.849 205.868 382.718 205.302 381.33 204.891C379.943 204.48 378.349 204.146 376.55 203.889C374.751 203.632 372.901 203.298 370.999 202.886C369.097 202.475 367.247 201.935 365.448 201.267C363.649 200.599 362.056 199.648 360.668 198.415C359.28 197.181 358.149 195.613 357.276 193.712C356.402 191.758 355.965 189.317 355.965 186.387C355.965 181.35 357.764 177.418 361.362 174.591C365.011 171.713 370.588 170.274 378.092 170.274C382.101 170.274 385.571 170.711 388.5 171.584C391.482 172.458 393.897 173.435 395.748 174.514V190.473Z" fill="white"/>
    <path d="M454.125 219.617C453.457 220.439 452.532 221.236 451.35 222.007C450.168 222.778 448.754 223.472 447.109 224.088C445.516 224.705 443.717 225.194 441.712 225.553C439.759 225.913 437.626 226.093 435.313 226.093C430.841 226.093 426.73 225.476 422.977 224.243C419.277 222.958 416.09 221.133 413.417 218.769C410.744 216.353 408.663 213.423 407.172 209.979C405.682 206.536 404.936 202.578 404.936 198.106C404.936 193.943 405.656 190.165 407.095 186.773C408.586 183.329 410.667 180.399 413.34 177.983C416.064 175.516 419.277 173.615 422.977 172.278C426.73 170.942 430.893 170.274 435.467 170.274C439.579 170.274 443.126 170.711 446.107 171.584C449.088 172.458 451.504 173.435 453.354 174.514V190.473C452.481 189.343 451.453 188.263 450.27 187.235C449.088 186.207 447.726 185.308 446.184 184.537C444.694 183.715 443.049 183.072 441.25 182.609C439.451 182.095 437.523 181.838 435.467 181.838C432.846 181.838 430.482 182.25 428.374 183.072C426.267 183.843 424.468 184.948 422.977 186.387C421.538 187.775 420.407 189.471 419.585 191.476C418.814 193.48 418.429 195.716 418.429 198.183C418.429 200.445 418.788 202.578 419.508 204.583C420.228 206.536 421.281 208.258 422.669 209.748C424.108 211.187 425.881 212.344 427.989 213.218C430.148 214.091 432.64 214.528 435.467 214.528C439.991 214.528 443.82 213.757 446.955 212.215C450.09 210.622 452.481 208.515 454.125 205.893V219.617Z" fill="white"/>
    <path d="M501.698 203.195H475.638V225.168H463.302V171.199H475.638V191.63H501.698V171.199H514.033V225.168H501.698V203.195Z" fill="white"/>
    <path d="M552.6 226.093C548.231 226.093 544.221 225.476 540.572 224.243C536.974 223.009 533.865 221.21 531.243 218.846C528.622 216.43 526.566 213.5 525.075 210.057C523.636 206.561 522.917 202.578 522.917 198.106C522.917 193.943 523.636 190.165 525.075 186.773C526.514 183.329 528.519 180.399 531.089 177.983C533.71 175.516 536.82 173.615 540.418 172.278C544.067 170.942 548.102 170.274 552.522 170.274C556.84 170.274 560.798 170.89 564.396 172.124C568.045 173.358 571.18 175.182 573.802 177.598C576.423 179.962 578.453 182.892 579.892 186.387C581.383 189.831 582.128 193.789 582.128 198.26C582.128 202.424 581.409 206.227 579.97 209.671C578.53 213.063 576.5 215.967 573.879 218.383C571.309 220.799 568.199 222.701 564.55 224.088C560.952 225.425 556.968 226.093 552.6 226.093ZM536.023 198.183C536.023 200.445 536.357 202.552 537.026 204.505C537.745 206.459 538.799 208.18 540.187 209.671C541.574 211.162 543.296 212.344 545.352 213.218C547.408 214.091 549.824 214.528 552.6 214.528C555.118 214.528 557.38 214.143 559.384 213.372C561.44 212.549 563.188 211.444 564.627 210.057C566.066 208.617 567.145 206.896 567.865 204.891C568.636 202.886 569.022 200.651 569.022 198.183C569.022 195.973 568.662 193.892 567.942 191.938C567.274 189.934 566.246 188.186 564.858 186.696C563.47 185.205 561.749 184.023 559.693 183.149C557.637 182.275 555.221 181.838 552.445 181.838C549.875 181.838 547.562 182.25 545.506 183.072C543.502 183.843 541.78 184.948 540.341 186.387C538.953 187.826 537.874 189.548 537.103 191.553C536.383 193.557 536.023 195.768 536.023 198.183Z" fill="white"/>
    <path d="M616.748 226.093C612.379 226.093 608.37 225.476 604.721 224.243C601.123 223.009 598.013 221.21 595.392 218.846C592.77 216.43 590.714 213.5 589.224 210.057C587.785 206.561 587.065 202.578 587.065 198.106C587.065 193.943 587.785 190.165 589.224 186.773C590.663 183.329 592.668 180.399 595.237 177.983C597.859 175.516 600.968 173.615 604.566 172.278C608.216 170.942 612.251 170.274 616.671 170.274C620.988 170.274 624.946 170.89 628.544 172.124C632.193 173.358 635.329 175.182 637.95 177.598C640.572 179.962 642.602 182.892 644.041 186.387C645.532 189.831 646.277 193.789 646.277 198.26C646.277 202.424 645.557 206.227 644.118 209.671C642.679 213.063 640.649 215.967 638.027 218.383C635.457 220.799 632.348 222.701 628.698 224.088C625.1 225.425 621.117 226.093 616.748 226.093ZM600.172 198.183C600.172 200.445 600.506 202.552 601.174 204.505C601.894 206.459 602.947 208.18 604.335 209.671C605.723 211.162 607.445 212.344 609.501 213.218C611.557 214.091 613.972 214.528 616.748 214.528C619.267 214.528 621.528 214.143 623.533 213.372C625.589 212.549 627.336 211.444 628.775 210.057C630.215 208.617 631.294 206.896 632.014 204.891C632.785 202.886 633.17 200.651 633.17 198.183C633.17 195.973 632.81 193.892 632.091 191.938C631.422 189.934 630.394 188.186 629.007 186.696C627.619 185.205 625.897 184.023 623.841 183.149C621.785 182.275 619.369 181.838 616.594 181.838C614.024 181.838 611.711 182.25 609.655 183.072C607.65 183.843 605.929 184.948 604.489 186.387C603.102 187.826 602.022 189.548 601.251 191.553C600.532 193.557 600.172 195.768 600.172 198.183Z" fill="white"/>
    <path d="M667.481 213.603H694.697V225.168H655.146V171.199H667.481V213.603Z" fill="white"/>
</svg>