<svg width="938" height="255" viewBox="0 0 938 255" fill="none" xmlns="http://www.w3.org/2000/svg">
<path fill-rule="evenodd" clip-rule="evenodd" d="M247.638 59.7096C245.94 58.0139 244.988 55.7148 244.988 53.3167V23.9353C244.988 19.3846 241.294 15.6953 236.737 15.6953H209.938C205.381 15.6953 201.688 19.3846 201.688 23.9353V50.7062C201.688 55.2559 205.381 58.9462 209.938 58.9462H239.338C241.739 58.9462 244.041 59.8978 245.738 61.5936L245.746 61.6013C247.443 63.2961 248.396 65.5952 248.396 67.9933V237.317C248.396 241.868 252.09 245.557 256.646 245.557H283.446C288.003 245.557 291.696 241.868 291.696 237.317V70.598C291.696 66.0463 288.003 62.357 283.446 62.357H254.038C251.637 62.357 249.336 61.4054 247.638 59.7096Z" fill="white"/>
<path fill-rule="evenodd" clip-rule="evenodd" d="M46.2758 154.937L46.3098 154.903C48.0065 153.217 50.3024 152.271 52.6945 152.271H125.437C129.972 152.271 133.648 148.598 133.648 144.067V114.607C133.648 112.23 134.597 109.95 136.285 108.272L136.317 108.241C138.014 106.555 140.31 105.608 142.704 105.608H172.146C176.68 105.608 180.358 101.935 180.358 97.4047V70.5602C180.358 66.0308 176.68 62.357 172.146 62.357H142.7C140.299 62.357 137.997 61.4044 136.3 59.7096C134.603 58.0139 133.648 55.7148 133.648 53.3167V23.8985C133.648 19.3681 129.972 15.6953 125.437 15.6953H8.6883C4.078 15.6953 0.339844 19.4283 0.339844 24.0352V50.6062C0.339844 55.2123 4.078 58.9462 8.6883 58.9462H127.996C130.399 58.9462 132.704 59.8998 134.404 61.5974C136.103 63.2951 137.059 65.5972 137.059 67.9982V99.9949C137.059 102.385 136.105 104.678 134.409 106.365L134.386 106.387C132.691 108.073 130.395 109.02 128.003 109.02H55.2604C50.7259 109.02 47.0489 112.693 47.0489 117.223V146.66C47.0489 149.044 46.1 151.331 44.413 153.018L44.3829 153.046C42.695 154.732 40.4068 155.68 38.0196 155.68H8.55234C4.01682 155.68 0.339844 159.352 0.339844 163.883V190.727C0.339844 195.258 4.01585 198.929 8.55234 198.929H38.0497C40.436 198.929 42.7261 199.876 44.413 201.563H44.414C46.101 203.248 47.0489 205.535 47.0489 207.918V237.353C47.0489 241.883 50.7259 245.555 55.2604 245.556L172.009 245.557C176.62 245.557 180.358 241.823 180.358 237.217V210.646C180.358 206.04 176.62 202.306 172.009 202.306L52.6935 202.304C50.3005 202.304 48.0045 201.359 46.3079 199.672L46.2758 199.641C44.5888 197.965 43.64 195.685 43.64 193.309V161.271C43.64 158.893 44.5888 156.615 46.2758 154.937Z" fill="white"/>
<path fill-rule="evenodd" clip-rule="evenodd" d="M274.471 141.82L274.364 141.712C274.204 141.553 274.113 141.336 274.113 141.111V137.981C274.113 137.512 273.732 137.129 273.262 137.129H265.593C265.368 137.129 265.15 137.04 264.991 136.88L264.935 136.824C264.774 136.665 264.685 136.447 264.685 136.221V128.539C264.685 128.068 264.303 127.688 263.833 127.688H261C260.53 127.688 260.148 128.068 260.148 128.539V150.917C260.148 151.386 260.53 151.767 261 151.767H263.833C264.303 151.767 264.685 151.386 264.685 150.917V136.97L264.792 137.078C264.952 137.237 265.041 137.454 265.041 137.68V140.81C265.041 141.28 265.423 141.661 265.894 141.661H273.562C273.788 141.661 274.006 141.751 274.165 141.91L274.221 141.966C274.38 142.125 274.471 142.343 274.471 142.568V150.917C274.471 151.386 274.852 151.767 275.323 151.767H278.155C278.625 151.767 279.007 151.386 279.007 150.917V128.539C279.007 128.068 278.625 127.688 278.155 127.688H275.323C274.852 127.688 274.471 128.068 274.471 128.539V141.82Z" fill="#0F0F14"/>
<path fill-rule="evenodd" clip-rule="evenodd" d="M274.214 118.313L274.172 118.356C274.008 118.52 273.785 118.612 273.553 118.612H269.578H265.602C265.371 118.612 265.147 118.52 264.983 118.356L264.94 118.313C264.776 118.149 264.684 117.927 264.684 117.695V104.511C264.684 104.279 264.776 104.058 264.94 103.894L264.984 103.85C265.148 103.686 265.372 103.594 265.603 103.594H273.551C273.784 103.594 274.006 103.686 274.17 103.85L274.213 103.894C274.378 104.058 274.471 104.279 274.471 104.511V107.608C274.471 108.091 274.861 108.481 275.345 108.481H278.131C278.614 108.481 279.006 108.091 279.006 107.608V104.825C279.006 104.343 278.614 103.951 278.131 103.951H275.031C274.799 103.951 274.576 103.86 274.412 103.696L274.37 103.653C274.206 103.489 274.113 103.266 274.113 103.035V99.9366C274.113 99.4544 273.722 99.0625 273.238 99.0625H265.916C265.433 99.0625 265.041 99.4544 265.041 99.9366V103.034C265.041 103.266 264.949 103.488 264.785 103.652L264.742 103.696C264.578 103.86 264.356 103.951 264.124 103.951H261.023C260.54 103.951 260.148 104.343 260.148 104.825V117.381C260.148 117.863 260.54 118.254 261.023 118.254H264.123C264.356 118.254 264.577 118.346 264.741 118.51L264.785 118.554C264.949 118.718 265.041 118.94 265.041 119.172V122.269C265.041 122.751 265.433 123.143 265.916 123.143H270.905H273.238C273.722 123.143 274.113 122.751 274.113 122.268V119.172C274.113 118.94 274.206 118.718 274.37 118.554L274.41 118.514C274.574 118.35 274.796 118.258 275.028 118.258H278.131C278.615 118.258 279.007 117.867 279.007 117.385V114.601C279.007 114.118 278.615 113.727 278.131 113.727H275.345C274.862 113.727 274.471 114.118 274.471 114.601V117.694C274.471 117.927 274.378 118.149 274.214 118.313Z" fill="#0F0F14"/>
<path fill-rule="evenodd" clip-rule="evenodd" d="M274.171 161.083L274.214 161.127C274.379 161.291 274.472 161.513 274.472 161.746V174.929C274.472 175.161 274.379 175.384 274.214 175.547L274.173 175.589C274.008 175.753 273.786 175.845 273.553 175.846H265.603C265.371 175.846 265.148 175.754 264.984 175.59L264.941 175.547C264.777 175.383 264.685 175.161 264.685 174.929V161.746C264.685 161.513 264.777 161.291 264.941 161.127L264.985 161.083C265.149 160.919 265.372 160.827 265.604 160.827H273.552C273.785 160.827 274.007 160.919 274.171 161.083ZM274.113 160.268V157.171C274.113 156.688 273.723 156.297 273.239 156.297H265.916C265.434 156.297 265.042 156.688 265.042 157.171V160.268C265.042 160.499 264.95 160.722 264.786 160.886L264.743 160.929C264.579 161.093 264.357 161.184 264.125 161.184H261.023C260.541 161.184 260.148 161.576 260.148 162.059V174.615C260.148 175.097 260.541 175.489 261.023 175.489H264.124C264.357 175.489 264.578 175.58 264.742 175.744L264.786 175.788C264.95 175.952 265.042 176.174 265.042 176.406V179.503C265.042 179.985 265.434 180.377 265.916 180.377H273.239C273.723 180.377 274.113 179.985 274.113 179.503V176.406C274.113 176.174 274.207 175.952 274.371 175.788L274.411 175.747C274.575 175.583 274.797 175.492 275.029 175.492H278.132C278.615 175.492 279.006 175.1 279.006 174.618V162.059C279.006 161.576 278.615 161.184 278.132 161.184H275.032C274.799 161.184 274.577 161.093 274.413 160.929L274.371 160.886C274.207 160.722 274.113 160.5 274.113 160.268Z" fill="#0F0F14"/>
<path fill-rule="evenodd" clip-rule="evenodd" d="M274.171 189.694L274.214 189.737C274.378 189.901 274.472 190.122 274.472 190.355V203.539C274.472 203.771 274.378 203.993 274.214 204.157L274.173 204.2C274.008 204.364 273.786 204.456 273.553 204.456H265.603C265.371 204.456 265.148 204.364 264.984 204.2L264.941 204.156C264.777 203.993 264.685 203.771 264.685 203.538V190.355C264.685 190.122 264.777 189.901 264.941 189.737L264.985 189.694C265.149 189.53 265.372 189.437 265.604 189.437H273.552C273.785 189.437 274.007 189.53 274.171 189.694ZM274.113 188.879V185.78C274.113 185.298 273.723 184.906 273.239 184.906H265.916C265.434 184.906 265.042 185.298 265.042 185.78V188.878C265.042 189.11 264.95 189.332 264.786 189.496L264.743 189.539C264.579 189.703 264.357 189.795 264.125 189.795H261.023C260.541 189.795 260.148 190.186 260.148 190.669V203.225C260.148 203.707 260.541 204.099 261.023 204.099H264.124C264.357 204.099 264.578 204.19 264.742 204.354L264.786 204.397C264.95 204.561 265.042 204.785 265.042 205.015V208.112C265.042 208.595 265.434 208.987 265.916 208.987L273.239 208.986C273.723 208.986 274.113 208.595 274.113 208.112V205.015C274.113 204.784 274.207 204.561 274.371 204.397L274.411 204.358C274.575 204.194 274.797 204.103 275.029 204.103H278.132C278.615 204.103 279.006 203.711 279.006 203.228V190.669C279.006 190.186 278.615 189.795 278.132 189.795H275.032C274.799 189.795 274.577 189.703 274.413 189.539L274.371 189.497C274.207 189.333 274.113 189.11 274.113 188.879Z" fill="#0F0F14"/>
<path fill-rule="evenodd" clip-rule="evenodd" d="M265.041 71.334V74.4316C265.041 74.6644 264.949 74.8856 264.785 75.0495L264.742 75.0922C264.578 75.2561 264.356 75.3493 264.125 75.3493H261.023C260.54 75.3493 260.148 75.7392 260.148 76.2224V79.0056C260.148 79.4877 260.54 79.8796 261.023 79.8796H264.125C264.356 79.8796 264.578 79.9708 264.742 80.1348L264.785 80.1784C264.949 80.3424 265.041 80.5645 265.041 80.7964V83.8939C265.041 84.376 265.433 84.768 265.916 84.768H273.553C273.785 84.768 274.007 84.8591 274.171 85.0231L274.214 85.0667C274.378 85.2307 274.471 85.4528 274.471 85.6847V89.0927C274.471 89.3245 274.378 89.5457 274.214 89.7096L274.171 89.7533C274.008 89.9172 273.785 90.0094 273.553 90.0094H261.023C260.54 90.0094 260.148 90.4003 260.148 90.8825V93.6667C260.148 94.1488 260.54 94.5398 261.023 94.5398H273.238C273.722 94.5398 274.113 94.1488 274.113 93.6667V90.5691C274.113 90.3373 274.207 90.1151 274.37 89.9512L274.41 89.9114C274.574 89.7475 274.796 89.6563 275.028 89.6563H278.132C278.616 89.6563 279.007 89.2644 279.007 88.7813V85.998C279.007 85.5159 278.616 85.125 278.132 85.125H275.031C274.8 85.125 274.577 85.0328 274.412 84.8688L274.37 84.8252C274.207 84.6612 274.113 84.4401 274.113 84.2082V81.1107C274.113 80.6276 273.722 80.2366 273.238 80.2366H265.603C265.371 80.2366 265.148 80.1445 264.984 79.9805L264.94 79.9369C264.777 79.7729 264.685 79.5517 264.685 79.3189V75.909C264.685 75.6772 264.777 75.455 264.94 75.2911L264.984 75.2464C265.148 75.0835 265.372 74.9913 265.603 74.9913H278.132C278.616 74.9913 279.007 74.5994 279.007 74.1172V71.334C279.007 70.8519 278.616 70.4609 278.132 70.4609H265.916C265.433 70.4609 265.041 70.8519 265.041 71.334Z" fill="#0F0F14"/>
<path fill-rule="evenodd" clip-rule="evenodd" d="M264.984 232.809L264.94 232.765C264.776 232.601 264.684 232.38 264.684 232.147V214.39C264.684 213.908 264.293 213.516 263.809 213.516H261.023C260.54 213.516 260.148 213.908 260.148 214.39V231.834C260.148 232.316 260.54 232.708 261.023 232.708H264.124C264.356 232.708 264.578 232.799 264.742 232.963L264.785 233.007C264.949 233.171 265.041 233.393 265.041 233.625V236.722C265.041 237.204 265.433 237.596 265.915 237.596H278.131C278.614 237.596 279.006 237.204 279.006 236.722V233.939C279.006 233.456 278.614 233.065 278.131 233.065H265.603C265.37 233.065 265.148 232.973 264.984 232.809Z" fill="#0F0F14"/>
<path d="M426.685 71.5625H361.165V15.5625H373.565V59.9625H387.725V15.5625H400.125V59.9625H414.285V15.5625H426.685V71.5625ZM449.502 71.5625H437.102V15.5625H449.502V37.4025L471.022 15.5625H487.182L462.862 40.3625L488.782 71.5625H472.462L453.502 48.6825L449.502 52.7625V71.5625ZM486.802 43.5625C486.802 35.4558 489.602 28.6025 495.202 23.0025C500.856 17.4025 507.682 14.6025 515.682 14.6025C521.336 14.6025 526.562 16.1225 531.362 19.1625C536.216 22.2025 539.736 26.2825 541.922 31.4025C543.629 35.5625 544.482 39.6158 544.482 43.5625C544.482 51.6158 541.682 58.4692 536.082 64.1225C530.482 69.7225 523.682 72.5225 515.682 72.5225C507.576 72.5225 500.722 69.7225 495.122 64.1225C489.576 58.4692 486.802 51.6158 486.802 43.5625ZM504.162 31.5625C501.176 34.8692 499.682 38.8692 499.682 43.5625C499.682 48.2558 501.202 52.2558 504.242 55.5625C507.282 58.8692 511.096 60.5225 515.682 60.5225C520.482 60.5225 524.322 58.8958 527.202 55.6425C530.136 52.3892 531.602 48.3625 531.602 43.5625C531.602 38.9225 530.082 34.9492 527.042 31.6425C524.002 28.2825 520.216 26.6025 515.682 26.6025C510.989 26.6025 507.149 28.2558 504.162 31.5625ZM597.362 71.5625H584.962V27.5625H567.442L567.122 34.0425C566.589 46.3092 565.202 55.4025 562.962 61.3225C561.522 65.2158 559.549 67.9358 557.042 69.4825C554.589 71.0292 551.229 71.8025 546.962 71.8025C545.842 71.8025 544.776 71.7225 543.762 71.5625V60.0425C544.722 60.1492 545.389 60.2025 545.762 60.2025C548.589 60.2025 550.642 58.8958 551.922 56.2825C552.722 54.6825 553.442 51.6158 554.082 47.0825C554.722 42.4958 555.122 34.0958 555.282 21.8825L555.362 15.5625H597.362V71.5625ZM615.007 71.5625H602.207L626.767 15.5625H635.967L660.527 71.5625H647.567L643.007 61.1625H619.567L615.007 71.5625ZM638.447 50.6825L631.247 33.9625L623.887 50.6825H638.447ZM403.565 157.562H361.165V101.562H373.565V145.962H396.205V101.562H408.605V145.962H415.085V166.923H403.565V157.562ZM458.527 123.402L431.247 157.562H421.087V101.562H433.487V135.882L460.607 101.562H470.927V157.562H458.527V123.402ZM518.281 158.763H505.881V152.283H505.561C497.774 152.283 491.241 150.229 485.961 146.122C480.734 141.962 478.121 136.176 478.121 128.762C478.121 120.762 480.708 114.842 485.881 111.002C491.108 107.162 497.774 105.242 505.881 105.242V100.362H518.281V105.242C526.494 105.242 533.161 107.242 538.281 111.242C543.454 115.189 546.041 121.029 546.041 128.762C546.041 136.336 543.401 142.149 538.121 146.202C532.894 150.256 526.441 152.283 518.761 152.283H518.281V158.763ZM518.441 116.842H518.281V140.682H518.761C528.414 140.682 533.241 136.709 533.241 128.762C533.241 124.336 531.934 121.242 529.321 119.482C526.761 117.722 523.134 116.842 518.441 116.842ZM490.921 128.762C490.921 132.709 492.361 135.696 495.241 137.722C498.121 139.696 501.588 140.682 505.641 140.682H505.881V116.842C501.081 116.842 497.374 117.722 494.761 119.482C492.201 121.189 490.921 124.282 490.921 128.762ZM565.674 139.962V157.562H553.274V101.562H576.474C581.008 101.562 584.981 102.149 588.394 103.322C591.808 104.496 594.634 106.576 596.874 109.562C599.114 112.496 600.234 116.256 600.234 120.842C600.234 125.269 599.061 128.976 596.714 131.962C594.368 134.896 591.461 136.976 587.994 138.202C584.581 139.376 580.741 139.962 576.474 139.962H565.674ZM576.794 113.162H565.674V128.362H576.314C583.674 128.362 587.354 125.829 587.354 120.762C587.354 115.696 583.834 113.162 576.794 113.162ZM604.224 129.562C604.224 121.456 607.024 114.602 612.624 109.002C618.278 103.402 625.104 100.602 633.104 100.602C638.758 100.602 643.984 102.122 648.784 105.162C653.638 108.202 657.158 112.282 659.344 117.402C661.051 121.562 661.904 125.616 661.904 129.562C661.904 137.616 659.104 144.469 653.504 150.122C647.904 155.722 641.104 158.523 633.104 158.523C624.998 158.523 618.144 155.722 612.544 150.122C606.998 144.469 604.224 137.616 604.224 129.562ZM621.584 117.562C618.598 120.869 617.104 124.869 617.104 129.562C617.104 134.256 618.624 138.256 621.664 141.562C624.704 144.869 628.518 146.522 633.104 146.522C637.904 146.522 641.744 144.896 644.624 141.642C647.558 138.389 649.024 134.362 649.024 129.562C649.024 124.922 647.504 120.949 644.464 117.642C641.424 114.282 637.638 112.602 633.104 112.602C628.411 112.602 624.571 114.256 621.584 117.562ZM693.924 157.562H669.524V101.562H694.564C700.698 101.562 705.338 102.576 708.484 104.602C712.111 107.216 713.924 110.976 713.924 115.882C713.924 120.736 712.111 124.736 708.484 127.882C713.338 130.176 715.764 134.522 715.764 140.922C715.764 144.976 714.644 148.309 712.404 150.922C710.218 153.482 707.578 155.242 704.484 156.202C701.391 157.109 697.871 157.562 693.924 157.562ZM693.284 134.602H681.924V145.962H692.644C693.978 145.962 695.098 145.909 696.004 145.803C696.964 145.696 698.031 145.482 699.204 145.162C700.378 144.842 701.258 144.256 701.844 143.402C702.484 142.549 702.804 141.482 702.804 140.202C702.804 138.922 702.511 137.882 701.924 137.082C701.391 136.282 700.591 135.722 699.524 135.402C698.458 135.029 697.471 134.816 696.564 134.762C695.711 134.656 694.618 134.602 693.284 134.602ZM692.484 113.162H681.924V123.402H693.524C695.498 123.402 697.231 123.056 698.724 122.362C700.271 121.669 701.044 120.442 701.044 118.682C701.044 117.456 700.804 116.442 700.324 115.642C699.898 114.842 699.204 114.282 698.244 113.962C697.338 113.642 696.458 113.429 695.604 113.322C694.804 113.216 693.764 113.162 692.484 113.162ZM785.343 157.562H772.943V101.562H785.343V157.562ZM744.223 131.722H736.143V145.962H744.063C745.663 145.962 747.023 145.882 748.143 145.722C749.263 145.562 750.41 145.269 751.583 144.842C752.756 144.362 753.636 143.616 754.223 142.602C754.81 141.589 755.103 140.282 755.103 138.682C755.103 134.042 751.476 131.722 744.223 131.722ZM723.743 101.562H736.143V120.122H744.463C747.663 120.122 750.596 120.469 753.263 121.162C755.983 121.802 758.463 122.816 760.703 124.202C762.996 125.589 764.783 127.536 766.063 130.042C767.343 132.496 767.983 135.376 767.983 138.682C767.983 142.149 767.316 145.136 765.983 147.642C764.703 150.149 762.89 152.122 760.543 153.562C758.196 154.949 755.636 155.962 752.863 156.602C750.09 157.242 747.05 157.562 743.743 157.562H723.743V101.562ZM831.454 101.562H846.494L826.254 129.162L847.134 157.562H832.014L818.894 139.242L805.694 157.562H790.574L811.534 129.162L791.454 101.562H806.414L818.974 118.922L831.454 101.562ZM373.885 199.162H355.965V187.562H404.285V199.162H386.285V243.562H373.885V199.162ZM452.966 243.562H409.446V187.562H452.246V199.162H421.846V209.562H450.246V220.762H421.846V231.962H452.966V243.562ZM497.079 187.562H512.119L491.879 215.162L512.759 243.562H497.639L484.519 225.242L471.319 243.562H456.199L477.159 215.162L457.079 187.562H472.039L484.599 204.922L497.079 187.562ZM567.642 243.562H555.242V221.162H530.362V243.562H517.962V187.562H530.362V209.562H555.242V187.562H567.642V243.562ZM575.24 215.562C575.24 207.456 578.04 200.602 583.64 195.002C589.293 189.402 596.12 186.602 604.12 186.602C609.773 186.602 615 188.122 619.8 191.162C624.653 194.202 628.173 198.282 630.36 203.402C632.067 207.562 632.92 211.616 632.92 215.562C632.92 223.616 630.12 230.469 624.52 236.122C618.92 241.722 612.12 244.523 604.12 244.523C596.013 244.523 589.16 241.722 583.56 236.122C578.013 230.469 575.24 223.616 575.24 215.562ZM592.6 203.562C589.613 206.869 588.12 210.869 588.12 215.562C588.12 220.256 589.64 224.256 592.68 227.562C595.72 230.869 599.533 232.522 604.12 232.522C608.92 232.522 612.76 230.896 615.64 227.642C618.573 224.389 620.04 220.362 620.04 215.562C620.04 210.922 618.52 206.949 615.48 203.642C612.44 200.282 608.653 198.602 604.12 198.602C599.427 198.602 595.587 200.256 592.6 203.562ZM685.8 243.562H673.4V199.562H655.88L655.56 206.042C655.027 218.309 653.64 227.402 651.4 233.322C649.96 237.216 647.987 239.936 645.48 241.482C643.027 243.029 639.667 243.803 635.4 243.803C634.28 243.803 633.213 243.723 632.2 243.562V232.042C633.16 232.149 633.827 232.202 634.2 232.202C637.027 232.202 639.08 230.896 640.36 228.282C641.16 226.682 641.88 223.616 642.52 219.082C643.16 214.496 643.56 206.096 643.72 193.882L643.8 187.562H685.8V243.562ZM693.365 215.562C693.365 207.456 696.165 200.602 701.765 195.002C707.418 189.402 714.245 186.602 722.245 186.602C727.898 186.602 733.125 188.122 737.925 191.162C742.778 194.202 746.298 198.282 748.485 203.402C750.192 207.562 751.045 211.616 751.045 215.562C751.045 223.616 748.245 230.469 742.645 236.122C737.045 241.722 730.245 244.523 722.245 244.523C714.138 244.523 707.285 241.722 701.685 236.122C696.138 230.469 693.365 223.616 693.365 215.562ZM710.725 203.562C707.738 206.869 706.245 210.869 706.245 215.562C706.245 220.256 707.765 224.256 710.805 227.562C713.845 230.869 717.658 232.522 722.245 232.522C727.045 232.522 730.885 230.896 733.765 227.642C736.698 224.389 738.165 220.362 738.165 215.562C738.165 210.922 736.645 206.949 733.605 203.642C730.565 200.282 726.778 198.602 722.245 198.602C717.552 198.602 713.712 200.256 710.725 203.562ZM771.065 243.562H758.665V187.562H800.665V199.162H771.065V243.562ZM843.292 209.402L816.012 243.562H805.852V187.562H818.252V221.882L845.372 187.562H855.692V243.562H843.292V209.402ZM903.527 209.402L876.247 243.562H866.087V187.562H878.487V221.882L905.607 187.562H915.927V243.562H903.527V209.402ZM876.327 172.122H886.727C887.367 174.842 888.967 176.202 891.527 176.202C892.807 176.202 893.9 175.829 894.807 175.082C895.767 174.336 896.327 173.349 896.487 172.122H906.887C906.78 175.589 905.153 178.656 902.007 181.322C898.913 183.936 895.58 185.242 892.007 185.242C887.633 185.242 884.113 184.122 881.447 181.882C878.78 179.589 877.073 176.336 876.327 172.122Z" fill="white"/>
</svg>
