<svg width="1094" height="255" viewBox="0 0 1094 255" fill="none" xmlns="http://www.w3.org/2000/svg">
<path fill-rule="evenodd" clip-rule="evenodd" d="M247.638 59.2253C245.94 57.5295 244.988 55.2304 244.988 52.8323V23.451C244.988 18.9002 241.294 15.2109 236.737 15.2109H209.938C205.381 15.2109 201.688 18.9002 201.688 23.451V50.2218C201.688 54.7715 205.381 58.4618 209.938 58.4618H239.338C241.739 58.4618 244.041 59.4135 245.738 61.1092L245.746 61.1169C247.443 62.8117 248.396 65.1108 248.396 67.5089V236.833C248.396 241.383 252.09 245.073 256.646 245.073H283.446C288.003 245.073 291.696 241.383 291.696 236.833V70.1136C291.696 65.5619 288.003 61.8727 283.446 61.8727H254.038C251.637 61.8727 249.336 60.921 247.638 59.2253Z" fill="white"/>
<path fill-rule="evenodd" clip-rule="evenodd" d="M46.2758 154.453L46.3098 154.419C48.0065 152.733 50.3024 151.786 52.6945 151.786H125.437C129.972 151.786 133.648 148.113 133.648 143.583V114.123C133.648 111.745 134.597 109.466 136.285 107.787L136.317 107.756C138.014 106.07 140.31 105.124 142.704 105.124H172.146C176.68 105.124 180.358 101.451 180.358 96.9204V70.0758C180.358 65.5464 176.68 61.8727 172.146 61.8727H142.7C140.299 61.8727 137.997 60.92 136.3 59.2253C134.603 57.5295 133.648 55.2304 133.648 52.8323V23.4141C133.648 18.8837 129.972 15.2109 125.437 15.2109H8.68831C4.078 15.2109 0.339844 18.9439 0.339844 23.5509V50.1219C0.339844 54.7279 4.078 58.4618 8.68831 58.4618H127.996C130.399 58.4618 132.704 59.4154 134.404 61.1131C136.103 62.8107 137.059 65.1128 137.059 67.5138V99.5105C137.059 101.901 136.105 104.193 134.409 105.88L134.386 105.903C132.691 107.589 130.395 108.535 128.003 108.535H55.2604C50.7259 108.535 47.0489 112.208 47.0489 116.739V146.175C47.0489 148.56 46.1 150.846 44.413 152.533L44.3829 152.561C42.695 154.247 40.4068 155.195 38.0196 155.195H8.55234C4.01682 155.195 0.339844 158.868 0.339844 163.398V190.243C0.339844 194.773 4.01585 198.445 8.55234 198.445H38.0497C40.436 198.445 42.7261 199.392 44.413 201.079H44.414C46.101 202.764 47.0489 205.05 47.0489 207.434V236.869C47.0489 241.399 50.7259 245.071 55.2604 245.072L172.009 245.073C176.62 245.073 180.358 241.339 180.358 236.733V210.162C180.358 205.556 176.62 201.822 172.009 201.822L52.6935 201.82C50.3005 201.82 48.0045 200.874 46.3079 199.188L46.2758 199.157C44.5888 197.481 43.64 195.201 43.64 192.824V160.787C43.64 158.409 44.5888 156.13 46.2758 154.453Z" fill="white"/>
<path fill-rule="evenodd" clip-rule="evenodd" d="M274.471 141.336L274.364 141.228C274.204 141.069 274.113 140.851 274.113 140.626V137.497C274.113 137.027 273.732 136.645 273.262 136.645H265.593C265.368 136.645 265.15 136.556 264.991 136.396L264.935 136.34C264.774 136.18 264.685 135.963 264.685 135.737V128.055C264.685 127.583 264.303 127.203 263.833 127.203H261C260.53 127.203 260.148 127.583 260.148 128.055V150.432C260.148 150.902 260.53 151.283 261 151.283H263.833C264.303 151.283 264.685 150.902 264.685 150.432V136.486L264.792 136.594C264.952 136.753 265.041 136.97 265.041 137.195V140.326C265.041 140.795 265.423 141.176 265.894 141.176H273.562C273.788 141.176 274.006 141.267 274.165 141.426L274.221 141.482C274.38 141.641 274.471 141.858 274.471 142.083V150.432C274.471 150.902 274.852 151.283 275.323 151.283H278.155C278.625 151.283 279.007 150.902 279.007 150.432V128.055C279.007 127.583 278.625 127.203 278.155 127.203H275.323C274.852 127.203 274.471 127.583 274.471 128.055V141.336Z" fill="#0F0F14"/>
<path fill-rule="evenodd" clip-rule="evenodd" d="M274.214 117.829L274.172 117.871C274.008 118.035 273.785 118.128 273.553 118.128H269.578H265.602C265.371 118.128 265.147 118.035 264.983 117.871L264.94 117.829C264.776 117.665 264.684 117.443 264.684 117.211V104.026C264.684 103.794 264.776 103.573 264.94 103.409L264.984 103.366C265.148 103.202 265.372 103.109 265.603 103.109H273.551C273.784 103.109 274.006 103.202 274.17 103.366L274.213 103.409C274.378 103.573 274.471 103.794 274.471 104.026V107.124C274.471 107.607 274.861 107.997 275.345 107.997H278.131C278.614 107.997 279.006 107.607 279.006 107.124V104.341C279.006 103.858 278.614 103.466 278.131 103.466H275.031C274.799 103.466 274.576 103.375 274.412 103.211L274.37 103.169C274.206 103.005 274.113 102.782 274.113 102.551V99.4522C274.113 98.97 273.722 98.5781 273.238 98.5781H265.916C265.433 98.5781 265.041 98.97 265.041 99.4522V102.55C265.041 102.782 264.949 103.004 264.785 103.168L264.742 103.211C264.578 103.375 264.356 103.466 264.124 103.466H261.023C260.54 103.466 260.148 103.858 260.148 104.341V116.896C260.148 117.379 260.54 117.77 261.023 117.77H264.123C264.356 117.77 264.577 117.862 264.741 118.026L264.785 118.069C264.949 118.233 265.041 118.455 265.041 118.687V121.785C265.041 122.267 265.433 122.659 265.916 122.659H270.905H273.238C273.722 122.659 274.113 122.267 274.113 121.784V118.687C274.113 118.455 274.206 118.233 274.37 118.069L274.41 118.03C274.574 117.866 274.796 117.773 275.028 117.773H278.131C278.615 117.773 279.007 117.383 279.007 116.9V114.116C279.007 113.634 278.615 113.242 278.131 113.242H275.345C274.862 113.242 274.471 113.634 274.471 114.116V117.21C274.471 117.443 274.378 117.665 274.214 117.829Z" fill="#0F0F14"/>
<path fill-rule="evenodd" clip-rule="evenodd" d="M274.171 160.599L274.214 160.643C274.379 160.807 274.472 161.029 274.472 161.262V174.444C274.472 174.677 274.379 174.899 274.214 175.063L274.173 175.105C274.008 175.269 273.786 175.361 273.553 175.362H265.603C265.371 175.362 265.148 175.27 264.984 175.106L264.941 175.062C264.777 174.898 264.685 174.677 264.685 174.444V161.262C264.685 161.029 264.777 160.807 264.941 160.643L264.985 160.599C265.149 160.435 265.372 160.343 265.604 160.343H273.552C273.785 160.343 274.007 160.435 274.171 160.599ZM274.113 159.784V156.687C274.113 156.203 273.723 155.812 273.239 155.812H265.916C265.434 155.812 265.042 156.203 265.042 156.687V159.784C265.042 160.015 264.95 160.238 264.786 160.402L264.743 160.445C264.579 160.609 264.357 160.7 264.125 160.7H261.023C260.541 160.7 260.148 161.092 260.148 161.575V174.131C260.148 174.613 260.541 175.005 261.023 175.005H264.124C264.357 175.005 264.578 175.096 264.742 175.26L264.786 175.304C264.95 175.468 265.042 175.69 265.042 175.922V179.018C265.042 179.5 265.434 179.892 265.916 179.892H273.239C273.723 179.892 274.113 179.5 274.113 179.018V175.922C274.113 175.69 274.207 175.468 274.371 175.304L274.411 175.263C274.575 175.099 274.797 175.008 275.029 175.008H278.132C278.615 175.008 279.006 174.616 279.006 174.134V161.575C279.006 161.092 278.615 160.7 278.132 160.7H275.032C274.799 160.7 274.577 160.609 274.413 160.445L274.371 160.402C274.207 160.238 274.113 160.016 274.113 159.784Z" fill="#0F0F14"/>
<path fill-rule="evenodd" clip-rule="evenodd" d="M274.171 189.209L274.214 189.253C274.378 189.417 274.472 189.638 274.472 189.871V203.055C274.472 203.286 274.378 203.509 274.214 203.673L274.173 203.715C274.008 203.879 273.786 203.971 273.553 203.971H265.603C265.371 203.971 265.148 203.879 264.984 203.715L264.941 203.672C264.777 203.509 264.685 203.286 264.685 203.054V189.871C264.685 189.638 264.777 189.417 264.941 189.253L264.985 189.209C265.149 189.045 265.372 188.952 265.604 188.952H273.552C273.785 188.952 274.007 189.045 274.171 189.209ZM274.113 188.394V185.296C274.113 184.814 273.723 184.422 273.239 184.422H265.916C265.434 184.422 265.042 184.814 265.042 185.296V188.393C265.042 188.625 264.95 188.847 264.786 189.011L264.743 189.055C264.579 189.219 264.357 189.31 264.125 189.31H261.023C260.541 189.31 260.148 189.702 260.148 190.184V202.74C260.148 203.222 260.541 203.614 261.023 203.614H264.124C264.357 203.614 264.578 203.705 264.742 203.869L264.786 203.913C264.95 204.077 265.042 204.3 265.042 204.531V207.628C265.042 208.111 265.434 208.503 265.916 208.503L273.239 208.502C273.723 208.502 274.113 208.111 274.113 207.628V204.531C274.113 204.299 274.207 204.077 274.371 203.913L274.411 203.873C274.575 203.709 274.797 203.618 275.029 203.618H278.132C278.615 203.618 279.006 203.226 279.006 202.743V190.184C279.006 189.702 278.615 189.31 278.132 189.31H275.032C274.799 189.31 274.577 189.219 274.413 189.055L274.371 189.012C274.207 188.848 274.113 188.625 274.113 188.394Z" fill="#0F0F14"/>
<path fill-rule="evenodd" clip-rule="evenodd" d="M265.041 70.8497V73.9472C265.041 74.18 264.949 74.4012 264.785 74.5651L264.742 74.6078C264.578 74.7718 264.356 74.8649 264.125 74.8649H261.023C260.54 74.8649 260.148 75.2549 260.148 75.738V78.5212C260.148 79.0033 260.54 79.3952 261.023 79.3952H264.125C264.356 79.3952 264.578 79.4864 264.742 79.6504L264.785 79.694C264.949 79.858 265.041 80.0801 265.041 80.312V83.4095C265.041 83.8917 265.433 84.2836 265.916 84.2836H273.553C273.785 84.2836 274.007 84.3748 274.171 84.5387L274.214 84.5824C274.378 84.7463 274.471 84.9685 274.471 85.2003V88.6083C274.471 88.8401 274.378 89.0613 274.214 89.2253L274.171 89.2689C274.008 89.4329 273.785 89.525 273.553 89.525H261.023C260.54 89.525 260.148 89.916 260.148 90.3981V93.1823C260.148 93.6644 260.54 94.0554 261.023 94.0554H273.238C273.722 94.0554 274.113 93.6644 274.113 93.1823V90.0848C274.113 89.8529 274.207 89.6308 274.37 89.4668L274.41 89.427C274.574 89.2631 274.796 89.1719 275.028 89.1719H278.132C278.616 89.1719 279.007 88.78 279.007 88.2969V85.5137C279.007 85.0315 278.616 84.6406 278.132 84.6406H275.031C274.8 84.6406 274.577 84.5484 274.412 84.3845L274.37 84.3408C274.207 84.1769 274.113 83.9557 274.113 83.7238V80.6263C274.113 80.1432 273.722 79.7522 273.238 79.7522H265.603C265.371 79.7522 265.148 79.6601 264.984 79.4961L264.94 79.4525C264.777 79.2885 264.685 79.0674 264.685 78.8345V75.4246C264.685 75.1928 264.777 74.9706 264.94 74.8067L264.984 74.7621C265.148 74.5991 265.372 74.5069 265.603 74.5069H278.132C278.616 74.5069 279.007 74.115 279.007 73.6329V70.8497C279.007 70.3675 278.616 69.9766 278.132 69.9766H265.916C265.433 69.9766 265.041 70.3675 265.041 70.8497Z" fill="#0F0F14"/>
<path fill-rule="evenodd" clip-rule="evenodd" d="M264.984 232.325L264.94 232.281C264.776 232.117 264.684 231.896 264.684 231.663V213.905C264.684 213.423 264.293 213.031 263.809 213.031H261.023C260.54 213.031 260.148 213.423 260.148 213.905V231.35C260.148 231.832 260.54 232.224 261.023 232.224H264.124C264.356 232.224 264.578 232.315 264.742 232.479L264.785 232.522C264.949 232.686 265.041 232.909 265.041 233.14V236.238C265.041 236.72 265.433 237.112 265.915 237.112H278.131C278.614 237.112 279.006 236.72 279.006 236.238V233.455C279.006 232.972 278.614 232.581 278.131 232.581H265.603C265.37 232.581 265.148 232.489 264.984 232.325Z" fill="#0F0F14"/>
<path d="M373.565 51.9581V71.0781H361.165V15.0781H383.805C390.685 15.0781 396.178 16.5181 400.285 19.3981C404.392 22.2781 406.445 26.9181 406.445 33.3181C406.445 36.8381 405.432 40.1715 403.405 43.3181C401.378 46.4115 398.738 48.5448 395.485 49.7181L411.085 71.0781H396.125L382.445 51.9581H373.565ZM383.565 26.6781H373.565V40.3581H384.045C386.712 40.3581 388.952 39.7981 390.765 38.6781C392.632 37.5581 393.565 35.7715 393.565 33.3181C393.565 30.7048 392.632 28.9448 390.765 28.0381C388.952 27.1315 386.552 26.6781 383.565 26.6781ZM422.273 71.0781H409.473L434.033 15.0781H443.233L467.793 71.0781H454.833L450.273 60.6781H426.833L422.273 71.0781ZM445.713 50.1981L438.513 33.4781L431.153 50.1981H445.713ZM467.896 43.0781C467.896 34.8648 470.669 27.9848 476.216 22.4381C481.816 16.8915 488.669 14.1181 496.776 14.1181C505.203 14.1181 512.109 16.8648 517.496 22.3581C522.883 27.7981 525.576 34.7048 525.576 43.0781C525.576 50.7581 523.123 57.2115 518.216 62.4381L523.016 68.3581L514.376 75.3181L509.256 69.0781C505.149 71.0515 500.989 72.0381 496.776 72.0381C488.136 72.0381 481.149 69.3448 475.816 63.9581C470.536 58.5715 467.896 51.6115 467.896 43.0781ZM485.096 30.9981C482.216 34.1981 480.776 38.2248 480.776 43.0781C480.776 47.9315 482.243 51.9848 485.176 55.2381C488.163 58.4381 492.029 60.0381 496.776 60.0381C498.909 60.0381 500.776 59.6915 502.376 58.9981L497.896 53.8781L505.736 47.2381L510.216 52.6781C511.869 50.3848 512.696 47.1848 512.696 43.0781C512.696 38.1715 511.229 34.1181 508.296 30.9181C505.416 27.7181 501.576 26.1181 496.776 26.1181C491.923 26.1181 488.029 27.7448 485.096 30.9981ZM538.523 71.0781H525.723L550.283 15.0781H559.483L584.043 71.0781H571.083L566.523 60.6781H543.083L538.523 71.0781ZM561.963 50.1981L554.763 33.4781L547.403 50.1981H561.963ZM601.299 71.0781H588.899V15.0781H600.419L618.339 41.8781L635.379 15.0781H646.579V71.0781H634.179V37.4781L619.619 59.7981H616.339L601.299 37.2381V71.0781ZM699.586 71.0781H656.946V15.0781H669.346V59.4781H699.586V71.0781ZM718.418 71.0781H706.018V15.0781H718.418V71.0781ZM373.885 112.678H355.965V101.078H404.285V112.678H386.285V157.078H373.885V112.678ZM452.966 157.078H409.446V101.078H452.246V112.678H421.846V123.078H450.246V134.278H421.846V145.478H452.966V157.078ZM497.079 101.078H512.119L491.879 128.678L512.759 157.078H497.639L484.519 138.758L471.319 157.078H456.199L477.159 128.678L457.079 101.078H472.039L484.599 118.438L497.079 101.078ZM566.762 101.078V157.078H557.162L530.042 123.878V157.078H517.962V101.078H527.482L554.682 134.358V101.078H566.762ZM574.38 129.078C574.38 120.971 577.18 114.118 582.78 108.518C588.434 102.918 595.26 100.118 603.26 100.118C608.914 100.118 614.14 101.638 618.94 104.678C623.794 107.718 627.314 111.798 629.5 116.918C631.207 121.078 632.06 125.131 632.06 129.078C632.06 137.131 629.26 143.985 623.66 149.638C618.06 155.238 611.26 158.038 603.26 158.038C595.154 158.038 588.3 155.238 582.7 149.638C577.154 143.985 574.38 137.131 574.38 129.078ZM591.74 117.078C588.754 120.385 587.26 124.385 587.26 129.078C587.26 133.771 588.78 137.771 591.82 141.078C594.86 144.385 598.674 146.038 603.26 146.038C608.06 146.038 611.9 144.411 614.78 141.158C617.714 137.905 619.18 133.878 619.18 129.078C619.18 124.438 617.66 120.465 614.62 117.158C611.58 113.798 607.794 112.118 603.26 112.118C598.567 112.118 594.727 113.771 591.74 117.078ZM682.32 157.078H639.68V101.078H652.08V145.478H682.32V157.078ZM682.662 129.078C682.662 120.971 685.462 114.118 691.062 108.518C696.715 102.918 703.542 100.118 711.542 100.118C717.195 100.118 722.422 101.638 727.222 104.678C732.075 107.718 735.595 111.798 737.782 116.918C739.488 121.078 740.342 125.131 740.342 129.078C740.342 137.131 737.542 143.985 731.942 149.638C726.342 155.238 719.542 158.038 711.542 158.038C703.435 158.038 696.582 155.238 690.982 149.638C685.435 143.985 682.662 137.131 682.662 129.078ZM700.022 117.078C697.035 120.385 695.542 124.385 695.542 129.078C695.542 133.771 697.062 137.771 700.102 141.078C703.142 144.385 706.955 146.038 711.542 146.038C716.342 146.038 720.182 144.411 723.062 141.158C725.995 137.905 727.462 133.878 727.462 129.078C727.462 124.438 725.942 120.465 722.902 117.158C719.862 113.798 716.075 112.118 711.542 112.118C706.848 112.118 703.008 113.771 700.022 117.078ZM786.122 136.918H771.962V125.718H798.042V148.358C795.215 151.451 791.802 153.851 787.802 155.558C783.855 157.211 779.748 158.038 775.482 158.038C766.682 158.038 759.428 155.371 753.722 150.038C748.015 144.651 745.162 137.665 745.162 129.078C745.162 120.758 747.935 113.851 753.482 108.358C759.028 102.865 765.908 100.118 774.122 100.118C778.495 100.118 782.842 100.971 787.162 102.678C791.482 104.385 794.682 106.891 796.762 110.198L788.202 117.878C784.895 114.038 780.362 112.118 774.602 112.118C769.428 112.118 765.375 113.665 762.442 116.758C759.508 119.798 758.042 123.905 758.042 129.078C758.042 134.358 759.668 138.518 762.922 141.558C766.175 144.545 770.388 146.038 775.562 146.038C779.508 146.038 783.028 144.971 786.122 142.838V136.918ZM819.277 157.078H806.877V101.078H819.277V157.078ZM867.351 101.078H881.671L858.951 136.998V157.078H846.551V136.998L824.071 101.078H838.871L852.951 123.478L867.351 101.078ZM884.851 157.078H872.051L896.611 101.078H905.811L930.371 157.078H917.411L912.851 146.678H889.411L884.851 157.078ZM908.291 136.198L901.091 119.478L893.731 136.198H908.291ZM977.867 157.078H935.227V101.078H947.627V145.478H977.867V157.078ZM991.179 157.078H978.379L1002.94 101.078H1012.14L1036.7 157.078H1023.74L1019.18 146.678H995.739L991.179 157.078ZM1014.62 136.198L1007.42 119.478L1000.06 136.198H1014.62ZM1053.96 137.958V157.078H1041.56V101.078H1064.2C1071.08 101.078 1076.57 102.518 1080.68 105.398C1084.78 108.278 1086.84 112.918 1086.84 119.318C1086.84 122.838 1085.82 126.171 1083.8 129.318C1081.77 132.411 1079.13 134.545 1075.88 135.718L1091.48 157.078H1076.52L1062.84 137.958H1053.96ZM1063.96 112.678H1053.96V126.358H1064.44C1067.1 126.358 1069.34 125.798 1071.16 124.678C1073.02 123.558 1073.96 121.771 1073.96 119.318C1073.96 116.705 1073.02 114.945 1071.16 114.038C1069.34 113.131 1066.94 112.678 1063.96 112.678ZM373.565 243.078H361.165V187.078H372.685L390.605 213.878L407.645 187.078H418.845V243.078H406.445V209.478L391.885 231.798H388.605L373.565 209.238V243.078ZM436.492 243.078H423.692L448.252 187.078H457.452L482.012 243.078H469.052L464.492 232.678H441.052L436.492 243.078ZM459.932 222.198L452.732 205.478L445.372 222.198H459.932ZM499.268 243.078H486.868V187.078H499.268V208.918L520.788 187.078H536.948L512.628 211.878L538.548 243.078H522.228L503.268 220.198L499.268 224.278V243.078ZM555.682 198.678H537.762V187.078H586.082V198.678H568.082V243.078H555.682V198.678ZM591.023 243.078H578.223L602.783 187.078H611.983L636.543 243.078H623.583L619.023 232.678H595.583L591.023 243.078ZM614.463 222.198L607.263 205.478L599.903 222.198H614.463ZM665.799 243.078H641.399V187.078H666.439C672.573 187.078 677.213 188.091 680.359 190.118C683.986 192.731 685.799 196.491 685.799 201.398C685.799 206.251 683.986 210.251 680.359 213.398C685.213 215.691 687.639 220.038 687.639 226.438C687.639 230.491 686.519 233.825 684.279 236.438C682.093 238.998 679.453 240.758 676.359 241.718C673.266 242.625 669.746 243.078 665.799 243.078ZM665.159 220.118H653.799V231.478H664.519C665.853 231.478 666.973 231.425 667.879 231.318C668.839 231.211 669.906 230.998 671.079 230.678C672.253 230.358 673.133 229.771 673.719 228.918C674.359 228.065 674.679 226.998 674.679 225.718C674.679 224.438 674.386 223.398 673.799 222.598C673.266 221.798 672.466 221.238 671.399 220.918C670.333 220.545 669.346 220.331 668.439 220.278C667.586 220.171 666.493 220.118 665.159 220.118ZM664.359 198.678H653.799V208.918H665.399C667.373 208.918 669.106 208.571 670.599 207.878C672.146 207.185 672.919 205.958 672.919 204.198C672.919 202.971 672.679 201.958 672.199 201.158C671.773 200.358 671.079 199.798 670.119 199.478C669.213 199.158 668.333 198.945 667.479 198.838C666.679 198.731 665.639 198.678 664.359 198.678ZM708.418 243.078H696.018V187.078H708.418V243.078Z" fill="white"/>
</svg>
