<svg width="689" height="124" viewBox="0 0 689 124" fill="none" xmlns="http://www.w3.org/2000/svg">
<path d="M658 122H210M75.5 122H62C28.8629 122 2 95.1371 2 62V62C2 28.8629 28.8629 2 62 2H169.5M687 60C687 2 687 2 635.5 2H404.5M85.5 9.5H635.5M681 37V88.5C681 112.5 681 112.5 650 112.5C615.991 112.5 543.833 112.833 512 112.5M291.5 112.5H171.5H61C35.5 111.5 14.5 89 14.5 62" stroke="url(#paint0_linear_635_489)" stroke-width="3"/>
<defs>
<linearGradient id="paint0_linear_635_489" x1="1.99997" y1="116.437" x2="371.141" y2="-287.005" gradientUnits="userSpaceOnUse">
<stop offset="0.225962" stop-color="#00E3FF"/>
<stop offset="0.875" stop-color="#00283A"/>
</linearGradient>
</defs>
</svg>
