<svg  viewBox="0 0 101 104" fill="none" xmlns="http://www.w3.org/2000/svg">
    <path d="M45.6902 1.2498C6.56734 4.95977 -14.492 51.574 11.4235 83.4031C23.3997 98.1677 43.3989 105.471 63.1108 100.392C73.6712 97.668 82.8021 91.6239 89.3066 83.759C117.712 49.5958 90.955 -3.06937 45.6902 1.2498Z" fill="url(#paint0_radial_314_356)"/>
    <path d="M33.9185 29.5676C32.9507 31.262 30.0876 31.2822 28.777 31.0805C31.1965 35.619 30.2892 37.1319 23.9379 35.0139C19.4013 35.3164 17.5866 39.0869 13.3525 37.1319C9.42072 35.3164 10.9329 28.9625 14.2598 26.8445C11.8403 27.7522 5.55277 29.2929 7.30363 38.3422C9.11842 47.7218 18.9476 43.1833 21.5183 48.0244C23.2322 51.2518 25.0267 57.5857 19.7037 58.3118C14.3807 59.038 16.0745 53.8916 18.1915 54.0758C11.5378 52.8656 12.444 58.3118 16.0745 61.3375C19.7037 65.5735 29.0795 62.2452 28.1721 66.7838C20.6111 67.3889 19.8045 71.7258 19.7037 74.3481C21.1151 71.7258 25.3858 69.3745 30.8941 71.9275C35.7332 76.7686 33.3137 80.7021 28.4746 82.8201C37.5479 85.8458 39.3625 79.1892 41.4795 77.9789C41.2376 82.8201 42.6892 84.938 44.2015 85.8458C45.7138 86.7535 49.7664 87.9638 50.2503 91.5946C50.7342 95.2254 45.4113 95.8306 44.2015 97.3434C42.3003 99.7208 46.3186 103.697 48.4357 104C45.7742 101.337 49.5446 98.0494 51.7625 97.0409C55.3918 95.1044 55.9968 91.292 55.6943 89.174C57.8114 89.7792 56.3118 93.7126 54.787 94.9229C55.2911 94.6203 57.4484 93.1075 58.4163 90.6869C59.3841 88.2663 57.6097 84.8372 56.6016 83.4252C55.5935 81.5089 54.2426 77.0107 58.1139 76.7686C61.9851 76.5266 62.3481 81.0046 60.2309 82.5175C62.6504 83.2437 63.8602 78.5841 64.1627 76.1635C69.7276 83.1831 65.8765 87.9638 63.5578 89.174C70.8164 86.7535 70.9172 81.7106 70.8164 79.4918C70.8164 77.9789 68.4574 74.227 69.9091 72.5326C71.7238 70.4146 74.4457 71.9275 77.7725 71.3224C80.434 70.8382 82.5108 67.8932 83.2165 66.4812C82.914 66.7838 81.4019 68.2967 77.7725 67.3889C74.2516 66.5083 74.5465 63.9598 75.3531 62.2452C76.0588 62.6487 78.317 63.0319 80.4946 62.5478C82.6721 62.0637 84.7288 58.917 84.4263 57.4041C83.4585 58.8564 79.8897 60.1272 78.075 58.0093C78.6799 58.6144 81.2399 56.3559 82.3092 55.2861C83.519 54.0758 85.0312 50.445 89.2654 52.563C93.3772 54.6197 94.4069 57.7067 92.2898 62.2452C93.3987 61.6401 95.4352 59.159 94.7093 54.0758C93.802 47.7218 87.1483 44.3936 85.9385 43.7884C84.7287 43.1833 78.075 43.1833 78.6799 38.3422C79.1638 34.4692 83.7206 33.7027 85.9385 33.8036C80.797 28.6599 77.4701 31.9882 75.6554 33.8036C73.8408 35.619 71.1221 35.5685 71.4213 31.0805C71.7238 26.5419 70.2115 23.5162 69.909 21.7008C69.6671 20.2484 71.6229 18.2716 72.631 17.4648C70.514 17.7673 69.6067 18.5993 68.0944 20.4905C66.8846 22.0033 68.2559 24.37 65.3724 25.3316C62.6504 26.2393 62.0456 24.4239 62.6504 22.9111C63.212 21.5064 65.3941 18.1349 64.1627 14.4391C62.6504 9.90051 52.6699 9.29537 54.787 9.90051C56.9041 10.5057 61.4407 12.9262 61.4407 17.1622C61.4407 20.551 58.3154 22.9111 56.6016 23.5162C56.9041 22.5076 57.4484 20.1879 57.2065 18.9776C56.9041 17.4648 55.6943 14.4391 53.5772 13.2288C51.4601 12.0185 46.621 10.2031 48.4357 5.36195C49.8874 1.48905 53.8796 0.319115 55.6943 0.218262C53.2747 -0.386879 47.5284 0.218262 44.8064 2.63883C42.0844 5.05939 39.9673 10.8082 42.9917 14.4391C46.0162 18.0699 44.8064 19.5828 44.8064 21.7008C44.8064 23.8188 39.6649 25.0291 39.9673 21.7008C40.2698 18.3725 39.0588 16.6414 37.2453 15.6494C34.9937 14.4176 27.5672 15.0442 30.5916 15.6494C33.616 16.2545 33.9185 16.2545 35.7331 17.4648C37.5478 18.6751 36.338 21.0956 34.8258 23.5162C33.3136 25.9368 35.1283 27.4496 33.9185 29.5676Z" fill="#E55833"/>
    <path d="M50.0435 19.4438C50.9594 22.9844 46.6858 25.9348 46.6858 28.2952L50.9593 27.7051C52.1803 26.2299 54.348 24.4937 54.0118 20.919C53.7065 17.6735 53.2799 18.4171 48.7012 14.5815C45.0381 11.513 47.1749 7.00862 48.7012 5.13999C48.1924 5.23834 46.0681 6.2009 45.1594 10.5924C43.9385 16.4933 49.4109 16.9982 50.0435 19.4438Z" fill="url(#paint1_linear_314_356)"/>
    <path d="M68.6638 25.9348C66.8323 30.3605 63.5762 30.2622 61.9482 30.3605C62.3552 31.7374 64.1867 34.1961 66.2218 33.0159C68.6638 31.5997 68.3585 30.6556 68.6638 25.9348Z" fill="url(#paint2_linear_314_356)"/>
    <path d="M76.6002 38.3267C76.356 39.7429 74.7687 42.7524 73.2424 41.5722C73.3442 42.8507 73.7919 45.5258 74.7687 45.9979C75.9897 46.588 76.2949 46.2929 77.5159 45.1127C78.4927 44.1686 77.3124 40.1953 76.6002 38.3267Z" fill="url(#paint3_linear_314_356)"/>
    <path d="M81.1792 47.7682C79.7978 48.7696 77.5162 49.2434 75.0742 48.3583C74.0567 50.0302 72.6933 53.138 75.3795 53.3741C78.7372 53.6691 80.5687 51.3088 82.4002 50.1286C83.837 49.2028 86.7755 49.0467 88.2 49.2434C86.6737 47.1781 82.4002 46.8831 81.1792 47.7682Z" fill="url(#paint4_linear_314_356)"/>
    <path d="M74.4638 70.1918C75.3795 67.8314 70.4955 66.3561 68.664 69.8967C70.4955 69.0116 74.4638 70.1918 74.4638 70.1918Z" fill="url(#paint5_linear_314_356)"/>
    <path d="M51.2647 83.1737C48.3867 79.6332 53.198 76.6827 55.8435 75.5026C53.7067 75.1092 49.25 74.5584 47.2964 75.5026C44.8544 76.6827 44.7643 81.6636 46.3807 82.8787C49.1281 84.944 52.1805 85.5341 52.4857 91.14C54.012 88.7796 53.9509 86.4783 51.2647 83.1737Z" fill="url(#paint6_linear_314_356)"/>
    <path d="M37.2228 76.9778C36.9176 75.2075 38.7491 73.0438 39.6648 72.5521C38.6473 71.1752 36.3071 68.7755 35.0861 70.1917C33.5599 71.962 33.8651 74.9124 35.0861 76.6827C36.1178 78.1784 35.0861 81.1084 34.4756 82.2886C35.6966 81.4035 37.6274 79.3241 37.2228 76.9778Z" fill="url(#paint7_linear_314_356)"/>
    <path d="M18.9077 61.9304C21.3497 61.9304 23.7917 61.3403 25.318 58.6849C25.318 63.4056 21.3497 63.4056 18.9077 61.9304Z" fill="url(#paint8_linear_314_356)"/>
    <path d="M13.1082 43.6376C10.9103 43.6376 9.54689 40.4904 9.13989 38.9169C11.2766 40.6871 13.5256 42.2324 16.1607 41.2772C18.6027 40.3921 20.8443 39.1935 23.1814 40.0971C24.7077 40.6871 26.5392 43.0475 27.7602 44.5227L26.5392 48.3583C25.2164 46.4897 22.4488 42.9295 21.9604 43.6376C21.3499 44.5227 23.1814 46.5881 23.7919 47.7683C23.309 47.4732 20.7394 44.8178 19.2132 44.2277C18.0107 43.7628 15.8554 43.6376 13.1082 43.6376Z" fill="url(#paint9_linear_314_356)"/>
    <circle cx="51.7564" cy="51.4826" r="25.0945" fill="#E55833"/>
    <circle cx="52.015" cy="51.7413" r="21.2139" fill="#F68730"/>
    <circle cx="52.0148" cy="51.7413" r="17.0746" fill="#FFE065"/>
    <defs>
        <radialGradient id="paint0_radial_314_356" cx="0" cy="0" r="1" gradientUnits="userSpaceOnUse" gradientTransform="translate(50.498 51.5019) scale(43.5674 43.6012)">
            <stop stop-color="#D84F12"/>
            <stop offset="1" stop-color="#D84F12" stop-opacity="0"/>
        </radialGradient>
        <linearGradient id="paint1_linear_314_356" x1="48.1234" y1="11.0269" x2="58.8781" y2="20.213" gradientUnits="userSpaceOnUse">
            <stop stop-color="#FF7E16"/>
            <stop offset="0.179361" stop-color="#E86214"/>
            <stop offset="0.591346" stop-color="#FFE065"/>
            <stop offset="1" stop-color="#F1A609"/>
        </linearGradient>
        <linearGradient id="paint2_linear_314_356" x1="64.2753" y1="27.8143" x2="67.0712" y2="33.3562" gradientUnits="userSpaceOnUse">
            <stop stop-color="#FF7E16"/>
            <stop offset="0.179361" stop-color="#E86214"/>
            <stop offset="0.591346" stop-color="#FFE065"/>
            <stop offset="1" stop-color="#F1A609"/>
        </linearGradient>
        <linearGradient id="paint3_linear_314_356" x1="74.8519" y1="40.352" x2="78.492" y2="44.9828" gradientUnits="userSpaceOnUse">
            <stop stop-color="#FF7E16"/>
            <stop offset="0.179361" stop-color="#E86214"/>
            <stop offset="0.591346" stop-color="#FFE065"/>
            <stop offset="1" stop-color="#F1A609"/>
        </linearGradient>
        <linearGradient id="paint4_linear_314_356" x1="78.7971" y1="48.849" x2="79.8718" y2="54.3787" gradientUnits="userSpaceOnUse">
            <stop stop-color="#FF7E16"/>
            <stop offset="0.179361" stop-color="#E86214"/>
            <stop offset="0.591346" stop-color="#FFE065"/>
            <stop offset="1" stop-color="#F1A609"/>
        </linearGradient>
        <linearGradient id="paint5_linear_314_356" x1="55.4407" y1="73.7214" x2="62.5241" y2="93.0989" gradientUnits="userSpaceOnUse">
            <stop stop-color="#FF7E16"/>
            <stop offset="0.179361" stop-color="#E86214"/>
            <stop offset="0.591346" stop-color="#FFE065"/>
            <stop offset="1" stop-color="#F1A609"/>
        </linearGradient>
        <linearGradient id="paint6_linear_314_356" x1="55.4407" y1="73.7214" x2="62.5241" y2="93.0989" gradientUnits="userSpaceOnUse">
            <stop stop-color="#FF7E16"/>
            <stop offset="0.179361" stop-color="#E86214"/>
            <stop offset="0.591346" stop-color="#FFE065"/>
            <stop offset="1" stop-color="#F1A609"/>
        </linearGradient>
        <linearGradient id="paint7_linear_314_356" x1="35.9974" y1="72.9447" x2="41.8877" y2="78.7015" gradientUnits="userSpaceOnUse">
            <stop stop-color="#FF7E16"/>
            <stop offset="0.179361" stop-color="#E86214"/>
            <stop offset="0.591346" stop-color="#FFE065"/>
            <stop offset="1" stop-color="#F1A609"/>
        </linearGradient>
        <linearGradient id="paint8_linear_314_356" x1="21.129" y1="59.7308" x2="22.1763" y2="63.2917" gradientUnits="userSpaceOnUse">
            <stop stop-color="#FF7E16"/>
            <stop offset="0.179361" stop-color="#E86214"/>
            <stop offset="0.591346" stop-color="#FFE065"/>
            <stop offset="1" stop-color="#F1A609"/>
        </linearGradient>
        <linearGradient id="paint9_linear_314_356" x1="15.5922" y1="41.3172" x2="17.55" y2="49.7419" gradientUnits="userSpaceOnUse">
            <stop stop-color="#FF7E16"/>
            <stop offset="0.179361" stop-color="#E86214"/>
            <stop offset="0.591346" stop-color="#FFE065"/>
            <stop offset="1" stop-color="#F1A609"/>
        </linearGradient>
    </defs>
</svg>