<svg width="83" height="76" viewBox="0 0 83 76" fill="none" xmlns="http://www.w3.org/2000/svg">
<g filter="url(#filter0_d_558_495)">
<path d="M15.3728 75.4161H67.657L82.7107 59.0177V17.2743L67.657 0.875916H15.3728L0.315918 17.2743V59.0177L15.3728 75.4161Z" fill="url(#paint0_linear_558_495)" fill-opacity="0.8" shape-rendering="crispEdges"/>
<path d="M67.437 1.37592L82.2104 17.4677V58.8232L67.437 74.916H15.5923L0.815918 58.8232V17.4677L15.5923 1.37592H67.437Z" stroke="url(#paint1_linear_558_495)" shape-rendering="crispEdges"/>
</g>
<g filter="url(#filter1_f_558_495)">
<path d="M19.3649 66.5037H62.8487L75.3686 53.4919V20.3694L62.8487 7.35767H19.3649L6.84229 20.3694V53.4919L19.3649 66.5037Z" fill="#0F3653" fill-opacity="0.25"/>
<path d="M62.6362 7.85767L74.8687 20.5706V53.2893L62.6362 66.0032H19.5776L7.34229 53.2893V20.5706L19.5776 7.85767H62.6362Z" stroke="url(#paint2_linear_558_495)"/>
</g>
<g filter="url(#filter2_d_558_495)">
<path d="M17.3149 51.6377L45.4214 52.0745L45.542 51.8519L62.5782 20.4233L34.473 19.9877L17.3149 51.6377Z" stroke="#17C0B8" stroke-miterlimit="10" shape-rendering="crispEdges"/>
</g>
<g filter="url(#filter3_d_558_495)">
<path d="M20.4751 55.7086L21.3381 55.6941L49.4445 56.1297L66.6014 24.4786L66.3761 24.475" stroke="#17C0B8" stroke-miterlimit="10" shape-rendering="crispEdges"/>
</g>
<path d="M18.391 49.6546C18.1275 50.0854 17.8603 50.6401 17.1266 51.7917C16.2156 53.2201 17.326 55.6472 20.6476 55.7146C21.5648 55.7326 22.2813 55.7675 22.8279 55.717" stroke="#17C0B8" stroke-miterlimit="10"/>
<path d="M62.2017 20.587L66.5278 24.6157" stroke="#17C0B8" stroke-miterlimit="10"/>
<g filter="url(#filter4_d_558_495)">
<mask id="mask0_558_495" style="mask-type:luminance" maskUnits="userSpaceOnUse" x="32" y="28" width="17" height="13">
<path d="M42.7178 28.547C44.7947 28.6148 46.3367 29.3279 47.1992 30.3458C48.0463 31.3457 48.2964 32.7059 47.6768 34.2413C47.0482 35.7985 45.6436 37.2251 43.8369 38.2491C42.0349 39.2705 39.8785 39.8647 37.8047 39.797C35.7278 39.7291 34.1866 39.0152 33.3242 37.9972C32.4772 36.9973 32.227 35.6381 32.8467 34.1027C33.4752 32.5455 34.879 31.1189 36.6855 30.0948C38.4876 29.0734 40.6439 28.4793 42.7178 28.547Z" fill="white" stroke="white"/>
</mask>
<g mask="url(#mask0_558_495)">
<mask id="path-10-inside-1_558_495" fill="white">
<path d="M44.5263 28.3159C43.9416 28.1366 43.1524 28.3075 43.0219 28.9862C42.9567 29.3267 43.1093 29.6372 43.1586 29.9669C43.1844 30.1402 42.9702 30.2184 42.8409 30.3002C42.6932 30.3941 42.5442 30.4867 42.4064 30.595C42.1663 30.7815 41.9533 31.0318 41.8831 31.3315C41.8474 31.4807 41.8524 31.6299 41.8893 31.7779C41.9078 31.8513 41.9385 31.9259 41.9385 32.0029C41.9385 32.104 41.8868 32.1979 41.845 32.2881C41.6111 32.7983 41.4732 33.5275 41.8524 34.0101C42.0321 34.2387 42.3214 34.3338 42.607 34.2544C42.9284 34.1653 43.1389 33.9102 43.3691 33.6924C43.5993 33.4746 43.8726 33.264 44.1792 33.1425C44.4229 33.045 44.7652 32.9668 45.0126 33.0955C45.2601 33.2243 45.1998 33.5588 45.4472 33.6912C45.7144 33.8344 45.9163 33.6358 46.1477 33.5372C46.2499 33.4938 46.3262 33.5263 46.3743 33.625C46.4432 33.7682 46.3681 33.9307 46.2967 34.0582C46.1366 34.3458 45.9138 34.6202 45.9655 34.9679C46.0111 35.2724 46.261 35.501 46.5491 35.5997C46.8852 35.7152 47.2533 35.6201 47.5524 35.4517C48.1458 35.1183 48.7035 34.4673 48.626 33.761C48.6014 33.5324 48.2308 33.5299 48.2566 33.761C48.3194 34.3314 47.8799 34.8332 47.4096 35.1147C47.1745 35.2555 46.8802 35.3566 46.6131 35.2375C46.3459 35.1183 46.2696 34.8789 46.389 34.6238C46.5171 34.3506 46.7337 34.1244 46.7658 33.8127C46.7904 33.5745 46.6746 33.317 46.453 33.2038C46.2179 33.0835 45.9988 33.2026 45.7932 33.3194C45.7255 33.3579 45.6565 33.412 45.5962 33.3446C45.5223 33.2628 45.5088 33.1196 45.4534 33.0258C45.1715 32.542 44.45 32.6407 44.0142 32.8212C43.7483 32.9319 43.5107 33.0907 43.2915 33.2736C43.0724 33.4565 42.873 33.7453 42.6009 33.8729C42.3596 33.9848 42.1577 33.8801 42.0629 33.6491C41.957 33.3928 41.9792 33.0847 42.0432 32.8212C42.1109 32.5408 42.3226 32.2725 42.3066 31.9789C42.2993 31.8369 42.2328 31.7057 42.2266 31.5637C42.2205 31.4217 42.2783 31.2881 42.3547 31.1714C42.5406 30.8874 42.8619 30.7238 43.1413 30.5421C43.2743 30.4554 43.4343 30.364 43.5008 30.2148C43.5673 30.0656 43.5242 29.8971 43.4885 29.7455C43.4159 29.4434 43.2645 29.0764 43.5119 28.8129C43.7594 28.5494 44.1213 28.571 44.4303 28.6661C44.6581 28.7359 44.7553 28.3881 44.5288 28.3183L44.5263 28.3159Z"/>
</mask>
<path d="M44.5263 28.3159C43.9416 28.1366 43.1524 28.3075 43.0219 28.9862C42.9567 29.3267 43.1093 29.6372 43.1586 29.9669C43.1844 30.1402 42.9702 30.2184 42.8409 30.3002C42.6932 30.3941 42.5442 30.4867 42.4064 30.595C42.1663 30.7815 41.9533 31.0318 41.8831 31.3315C41.8474 31.4807 41.8524 31.6299 41.8893 31.7779C41.9078 31.8513 41.9385 31.9259 41.9385 32.0029C41.9385 32.104 41.8868 32.1979 41.845 32.2881C41.6111 32.7983 41.4732 33.5275 41.8524 34.0101C42.0321 34.2387 42.3214 34.3338 42.607 34.2544C42.9284 34.1653 43.1389 33.9102 43.3691 33.6924C43.5993 33.4746 43.8726 33.264 44.1792 33.1425C44.4229 33.045 44.7652 32.9668 45.0126 33.0955C45.2601 33.2243 45.1998 33.5588 45.4472 33.6912C45.7144 33.8344 45.9163 33.6358 46.1477 33.5372C46.2499 33.4938 46.3262 33.5263 46.3743 33.625C46.4432 33.7682 46.3681 33.9307 46.2967 34.0582C46.1366 34.3458 45.9138 34.6202 45.9655 34.9679C46.0111 35.2724 46.261 35.501 46.5491 35.5997C46.8852 35.7152 47.2533 35.6201 47.5524 35.4517C48.1458 35.1183 48.7035 34.4673 48.626 33.761C48.6014 33.5324 48.2308 33.5299 48.2566 33.761C48.3194 34.3314 47.8799 34.8332 47.4096 35.1147C47.1745 35.2555 46.8802 35.3566 46.6131 35.2375C46.3459 35.1183 46.2696 34.8789 46.389 34.6238C46.5171 34.3506 46.7337 34.1244 46.7658 33.8127C46.7904 33.5745 46.6746 33.317 46.453 33.2038C46.2179 33.0835 45.9988 33.2026 45.7932 33.3194C45.7255 33.3579 45.6565 33.412 45.5962 33.3446C45.5223 33.2628 45.5088 33.1196 45.4534 33.0258C45.1715 32.542 44.45 32.6407 44.0142 32.8212C43.7483 32.9319 43.5107 33.0907 43.2915 33.2736C43.0724 33.4565 42.873 33.7453 42.6009 33.8729C42.3596 33.9848 42.1577 33.8801 42.0629 33.6491C41.957 33.3928 41.9792 33.0847 42.0432 32.8212C42.1109 32.5408 42.3226 32.2725 42.3066 31.9789C42.2993 31.8369 42.2328 31.7057 42.2266 31.5637C42.2205 31.4217 42.2783 31.2881 42.3547 31.1714C42.5406 30.8874 42.8619 30.7238 43.1413 30.5421C43.2743 30.4554 43.4343 30.364 43.5008 30.2148C43.5673 30.0656 43.5242 29.8971 43.4885 29.7455C43.4159 29.4434 43.2645 29.0764 43.5119 28.8129C43.7594 28.5494 44.1213 28.571 44.4303 28.6661C44.6581 28.7359 44.7553 28.3881 44.5288 28.3183L44.5263 28.3159Z" fill="#F2F2F2"/>
<path d="M44.5263 28.3159L45.2253 27.6008L45.0517 27.431L44.8195 27.3599L44.5263 28.3159ZM43.0219 28.9862L42.0399 28.7974L42.0398 28.798L43.0219 28.9862ZM43.1586 29.9669L44.1476 29.8193L44.1476 29.8192L43.1586 29.9669ZM42.8409 30.3002L42.3061 29.4553L42.3047 29.4562L42.8409 30.3002ZM42.4064 30.595L43.0199 31.3847L43.024 31.3815L42.4064 30.595ZM41.8831 31.3315L42.8557 31.5642L42.8568 31.5595L41.8831 31.3315ZM41.8893 31.7779L40.919 32.02L40.9195 32.0219L41.8893 31.7779ZM41.845 32.2881L40.9378 31.8674L40.936 31.8714L41.845 32.2881ZM41.8524 34.0101L41.0661 34.6279L41.0662 34.6281L41.8524 34.0101ZM42.607 34.2544L42.34 33.2907L42.3391 33.2909L42.607 34.2544ZM44.1792 33.1425L44.5477 34.0721L44.5504 34.071L44.1792 33.1425ZM45.4472 33.6912L45.9196 32.8098L45.9189 32.8094L45.4472 33.6912ZM46.1477 33.5372L45.7574 32.6165L45.7556 32.6173L46.1477 33.5372ZM46.3743 33.625L47.2753 33.1912L47.2735 33.1875L46.3743 33.625ZM46.2967 34.0582L45.4241 33.5697L45.4229 33.5719L46.2967 34.0582ZM45.9655 34.9679L44.9764 35.115L44.9765 35.1159L45.9655 34.9679ZM46.5491 35.5997L46.8741 34.654L46.8731 34.6536L46.5491 35.5997ZM47.5524 35.4517L47.0627 34.5798L47.0618 34.5803L47.5524 35.4517ZM48.626 33.761L47.6317 33.8681L47.6319 33.8701L48.626 33.761ZM48.2566 33.761L49.2506 33.6516L49.2504 33.6498L48.2566 33.761ZM46.389 34.6238L45.4836 34.1994L45.4833 34.1998L46.389 34.6238ZM46.7658 33.8127L45.771 33.7099L45.771 33.7106L46.7658 33.8127ZM46.453 33.2038L45.9975 34.0941L45.9984 34.0945L46.453 33.2038ZM45.7932 33.3194L45.2995 32.4497L45.2988 32.4501L45.7932 33.3194ZM45.5962 33.3446L46.3413 32.6776L46.3385 32.6746L45.5962 33.3446ZM45.4534 33.0258L44.5894 33.5293L44.5922 33.5341L45.4534 33.0258ZM44.0142 32.8212L43.6316 31.8973L43.6299 31.898L44.0142 32.8212ZM42.6009 33.8729L43.0216 34.7801L43.0254 34.7783L42.6009 33.8729ZM42.0629 33.6491L42.988 33.2695L42.9871 33.2673L42.0629 33.6491ZM42.0432 32.8212L43.0149 33.0572L43.0152 33.0559L42.0432 32.8212ZM42.3066 31.9789L41.308 32.0308L41.3081 32.0333L42.3066 31.9789ZM42.3547 31.1714L41.518 30.6237L41.5177 30.6241L42.3547 31.1714ZM43.1413 30.5421L43.6864 31.3805L43.6873 31.3799L43.1413 30.5421ZM43.4885 29.7455L44.4619 29.5163L44.4608 29.5117L43.4885 29.7455ZM44.4303 28.6661L44.1363 29.6219L44.1373 29.6222L44.4303 28.6661ZM44.5288 28.3183L43.8298 29.0335L44.003 29.2027L44.2344 29.274L44.5288 28.3183ZM44.5263 28.3159L44.8195 27.3599C44.3434 27.2139 43.7743 27.2016 43.2595 27.3905C42.7131 27.5908 42.1843 28.0463 42.0399 28.7974L43.0219 28.9862L44.0039 29.175C44.0011 29.1898 43.9881 29.2231 43.9607 29.2524C43.938 29.2767 43.9264 29.2761 43.9481 29.2682C43.9707 29.2599 44.013 29.2501 44.0718 29.2495C44.1302 29.249 44.1872 29.2579 44.2332 29.272L44.5263 28.3159ZM43.0219 28.9862L42.0398 28.798C41.9689 29.1679 42.0244 29.4889 42.0715 29.6992C42.1351 29.9831 42.1504 29.9861 42.1695 30.1146L43.1586 29.9669L44.1476 29.8192C44.128 29.6878 44.0997 29.569 44.0774 29.4797C44.0512 29.375 44.0377 29.327 44.0231 29.2619C43.9979 29.1495 44.0097 29.145 44.0041 29.1744L43.0219 28.9862ZM43.1586 29.9669L42.1695 30.1145C42.1414 29.9262 42.1821 29.741 42.2655 29.592C42.3373 29.4637 42.4218 29.3957 42.446 29.377C42.4715 29.3572 42.4849 29.3514 42.4541 29.3689C42.4472 29.3728 42.3648 29.4181 42.3061 29.4553L42.8409 30.3002L43.3758 31.1452C43.3714 31.1479 43.3724 31.1471 43.386 31.1394C43.3926 31.1357 43.3994 31.1318 43.4096 31.1261C43.4189 31.1209 43.4309 31.1142 43.4434 31.1071C43.4883 31.0815 43.5779 31.03 43.6699 30.9587C43.849 30.8201 44.24 30.4382 44.1476 29.8193L43.1586 29.9669ZM42.8409 30.3002L42.3047 29.4562C42.1724 29.5402 41.9747 29.6625 41.7887 29.8086L42.4064 30.595L43.024 31.3815C43.1138 31.3109 43.2141 31.2479 43.3772 31.1443L42.8409 30.3002ZM42.4064 30.595L41.7928 29.8054C41.4589 30.0648 41.0524 30.4932 40.9095 31.1034L41.8831 31.3315L42.8568 31.5595C42.8545 31.5691 42.8554 31.5552 42.8825 31.5188C42.9102 31.4817 42.9554 31.4348 43.0199 31.3847L42.4064 30.595ZM41.8831 31.3315L40.9106 31.0988C40.8333 31.422 40.8479 31.7351 40.919 32.02L41.8893 31.7779L42.8595 31.5358C42.8577 31.5285 42.8587 31.5292 42.8588 31.5365C42.8589 31.5443 42.8581 31.5542 42.8557 31.5642L41.8831 31.3315ZM41.8893 31.7779L40.9195 32.0219C40.9249 32.0432 40.9301 32.0623 40.9345 32.0779C40.9389 32.0932 40.943 32.1072 40.9459 32.117C40.9477 32.1231 40.9485 32.1259 40.9499 32.1306C40.9511 32.1345 40.952 32.1375 40.9527 32.1401C40.9542 32.1454 40.9547 32.1472 40.9547 32.1471C40.9546 32.1469 40.9537 32.1434 40.9524 32.1375C40.9511 32.1316 40.9491 32.1224 40.9471 32.1106C40.9432 32.0872 40.9385 32.05 40.9385 32.0029H41.9385H42.9385C42.9385 31.8362 42.9056 31.7007 42.887 31.631C42.8777 31.5962 42.8675 31.5623 42.8636 31.5494C42.8581 31.5305 42.8581 31.53 42.8591 31.5339L41.8893 31.7779ZM41.9385 32.0029H40.9385C40.9385 31.8843 40.9687 31.8047 40.9737 31.7917C40.9766 31.784 40.9772 31.7836 40.9706 31.7978C40.9673 31.8049 40.9637 31.8125 40.9579 31.8248C40.9527 31.8356 40.9453 31.8511 40.9378 31.8674L41.845 32.2881L42.7521 32.7089C42.7526 32.708 42.8068 32.5973 42.8412 32.5074C42.8825 32.3997 42.9385 32.2226 42.9385 32.0029H41.9385ZM41.845 32.2881L40.936 31.8714C40.7799 32.2117 40.6447 32.6456 40.6202 33.1063C40.5956 33.5677 40.6805 34.1372 41.0661 34.6279L41.8524 34.0101L42.6386 33.3922C42.6385 33.392 42.6376 33.3909 42.6359 33.3874C42.6341 33.3837 42.6308 33.3758 42.6274 33.3623C42.6201 33.3339 42.6135 33.2851 42.6173 33.2126C42.6254 33.0605 42.6761 32.8747 42.754 32.7049L41.845 32.2881ZM41.8524 34.0101L41.0662 34.6281C41.4978 35.1771 42.2042 35.4043 42.8749 35.2178L42.607 34.2544L42.3391 33.2909C42.382 33.279 42.439 33.2772 42.4991 33.2967C42.5591 33.3162 42.6072 33.3522 42.6385 33.392L41.8524 34.0101ZM42.607 34.2544L42.8741 35.218C43.2229 35.1214 43.4824 34.9411 43.6655 34.7873C43.8121 34.6642 44.0078 34.4647 44.0563 34.4188L43.3691 33.6924L42.6819 32.966C42.6165 33.0278 42.5411 33.1033 42.4985 33.145C42.4465 33.1959 42.4102 33.2298 42.379 33.256C42.3189 33.3065 42.3125 33.2983 42.34 33.2907L42.607 34.2544ZM43.3691 33.6924L44.0563 34.4188C44.2431 34.2421 44.409 34.1271 44.5477 34.0721L44.1792 33.1425L43.8106 32.2129C43.3363 32.4009 42.9555 32.7071 42.6819 32.966L43.3691 33.6924ZM44.1792 33.1425L44.5504 34.071C44.5801 34.0591 44.6104 34.0488 44.6389 34.0411C44.6679 34.0333 44.6887 34.0298 44.7004 34.0286C44.7127 34.0272 44.7055 34.0294 44.6825 34.0264C44.6586 34.0233 44.6103 34.0135 44.5511 33.9826L45.0126 33.0955L45.4742 32.2084C45.1125 32.0203 44.7453 32.0125 44.4887 32.0398C44.2243 32.0679 43.9861 32.1427 43.8079 32.214L44.1792 33.1425ZM45.0126 33.0955L44.5511 33.9826C44.4263 33.9178 44.3481 33.8262 44.3081 33.7637C44.2818 33.7227 44.2725 33.6915 44.3022 33.7653C44.3296 33.8333 44.4859 34.311 44.9756 34.573L45.4472 33.6912L45.9189 32.8094C46.1611 32.939 46.2239 33.1833 46.1577 33.0187C46.13 32.9501 45.9719 32.4674 45.4742 32.2084L45.0126 33.0955ZM45.4472 33.6912L44.9748 34.5726C45.1809 34.683 45.4053 34.7415 45.6371 34.7414C45.8596 34.7413 46.0441 34.6874 46.1748 34.6363C46.2979 34.5882 46.4054 34.529 46.4558 34.5016C46.4881 34.484 46.5049 34.4748 46.5218 34.4661C46.5369 34.4583 46.5416 34.4563 46.5399 34.4571L46.1477 33.5372L45.7556 32.6173C45.696 32.6427 45.6437 32.6685 45.6025 32.6899C45.563 32.7104 45.524 32.7317 45.5006 32.7444C45.4729 32.7595 45.4583 32.7672 45.4471 32.7729C45.4367 32.7781 45.4379 32.777 45.447 32.7735C45.4648 32.7665 45.5343 32.7414 45.6365 32.7414C45.6881 32.7414 45.741 32.7478 45.7928 32.761C45.8442 32.7742 45.8868 32.7922 45.9196 32.8098L45.4472 33.6912ZM46.1477 33.5372L46.538 34.4578C46.4263 34.5052 46.1886 34.567 45.9121 34.4572C45.6439 34.3506 45.5193 34.1535 45.4751 34.0626L46.3743 33.625L47.2735 33.1875C47.1812 32.9979 46.9945 32.7352 46.6506 32.5985C46.2983 32.4586 45.9713 32.5258 45.7574 32.6165L46.1477 33.5372ZM46.3743 33.625L45.4732 34.0588C45.3728 33.8502 45.4019 33.6674 45.4194 33.5992C45.434 33.5422 45.4512 33.5213 45.4241 33.5697L46.2967 34.0582L47.1693 34.5467C47.2136 34.4676 47.304 34.3017 47.3568 34.0957C47.4124 33.8787 47.4447 33.543 47.2753 33.1912L46.3743 33.625ZM46.2967 34.0582L45.4229 33.5719C45.3922 33.6271 45.3652 33.67 45.3107 33.7616C45.2644 33.8395 45.2023 33.9462 45.1459 34.0667C45.0295 34.3156 44.9113 34.6769 44.9764 35.115L45.9655 34.9679L46.9547 34.8209C46.9681 34.9112 46.9354 34.9615 46.9575 34.9143C46.9703 34.8868 46.9908 34.8493 47.0296 34.784C47.0603 34.7323 47.1212 34.6331 47.1705 34.5445L46.2967 34.0582ZM45.9655 34.9679L44.9765 35.1159C45.0935 35.8979 45.7009 36.3662 46.225 36.5457L46.5491 35.5997L46.8731 34.6536C46.864 34.6505 46.8689 34.6489 46.8846 34.6652C46.9034 34.6846 46.942 34.7364 46.9545 34.82L45.9655 34.9679ZM46.5491 35.5997L46.224 36.5454C46.9359 36.79 47.6128 36.5654 48.0431 36.323L47.5524 35.4517L47.0618 34.5803C46.9909 34.6202 46.9304 34.6404 46.8901 34.6475C46.8525 34.6542 46.8524 34.6465 46.8741 34.654L46.5491 35.5997ZM47.5524 35.4517L48.0422 36.3235C48.4544 36.092 48.8613 35.7485 49.1614 35.3178C49.4626 34.8854 49.6921 34.3082 49.62 33.6518L48.626 33.761L47.6319 33.8701C47.6374 33.9201 47.6269 34.0216 47.5203 34.1746C47.4125 34.3293 47.2439 34.478 47.0627 34.5798L47.5524 35.4517ZM48.626 33.761L49.6202 33.6539C49.5382 32.8925 48.8728 32.5901 48.4256 32.5886C48.188 32.5878 47.8823 32.6591 47.6265 32.8922C47.3391 33.154 47.2237 33.5225 47.2628 33.8722L48.2566 33.761L49.2504 33.6498C49.2766 33.884 49.1978 34.1661 48.9735 34.3705C48.7806 34.5463 48.5642 34.5891 48.4191 34.5886C48.157 34.5878 47.6891 34.4008 47.6317 33.8681L48.626 33.761ZM48.2566 33.761L47.2626 33.8704C47.2627 33.8705 47.2626 33.8704 47.2626 33.8704C47.2626 33.8703 47.2627 33.8706 47.2626 33.8713C47.2625 33.8725 47.2619 33.8768 47.2595 33.8847C47.2546 33.9011 47.2417 33.9324 47.2112 33.9764C47.1463 34.07 47.0336 34.1743 46.8959 34.2568L47.4096 35.1147L47.9233 35.9727C48.5098 35.6216 49.3785 34.8128 49.2506 33.6516L48.2566 33.761ZM47.4096 35.1147L46.8959 34.2568C46.87 34.2723 46.8491 34.2827 46.8341 34.289C46.8187 34.2955 46.815 34.2955 46.8224 34.294C46.8301 34.2924 46.8542 34.2884 46.8907 34.2911C46.9291 34.2939 46.9745 34.3037 47.0204 34.3242L46.6131 35.2375L46.2058 36.1508C46.9387 36.4776 47.6166 36.1564 47.9233 35.9727L47.4096 35.1147ZM46.6131 35.2375L47.0204 34.3242C47.0871 34.3539 47.2287 34.449 47.2993 34.6495C47.3674 34.8428 47.3199 34.9939 47.2947 35.0477L46.389 34.6238L45.4833 34.1998C45.3387 34.5087 45.2697 34.9071 45.4129 35.3137C45.5585 35.7275 45.872 36.0019 46.2058 36.1508L46.6131 35.2375ZM46.389 34.6238L47.2945 35.0482C47.3389 34.9534 47.3469 34.9644 47.4814 34.7293C47.5801 34.5567 47.7233 34.2776 47.7605 33.9149L46.7658 33.8127L45.771 33.7106C45.7762 33.6595 45.795 33.6494 45.7454 33.7361C45.715 33.7893 45.6942 33.8209 45.6406 33.9099C45.5965 33.9833 45.5378 34.0837 45.4836 34.1994L46.389 34.6238ZM46.7658 33.8127L47.7605 33.9155C47.8209 33.3303 47.5514 32.6417 46.9077 32.3132L46.453 33.2038L45.9984 34.0945C45.8949 34.0417 45.8351 33.9648 45.8053 33.9046C45.7768 33.8469 45.7636 33.7819 45.7711 33.7099L46.7658 33.8127ZM46.453 33.2038L46.9086 32.3136C46.1254 31.9129 45.4162 32.3835 45.2995 32.4497L45.7932 33.3194L46.2869 34.189C46.3392 34.1593 46.3654 34.145 46.3854 34.1354C46.404 34.1263 46.3963 34.1319 46.3699 34.1389C46.3412 34.1466 46.2851 34.1575 46.2107 34.1523C46.1326 34.1469 46.0589 34.1255 45.9975 34.0941L46.453 33.2038ZM45.7932 33.3194L45.2988 32.4501C45.2804 32.4606 45.2626 32.4712 45.2574 32.4743C45.2486 32.4795 45.2506 32.4782 45.2553 32.4756C45.2593 32.4734 45.3175 32.4399 45.4057 32.4135C45.5008 32.3851 45.6698 32.3531 45.8738 32.4016C46.0878 32.4523 46.2434 32.5684 46.3413 32.6776L45.5962 33.3446L44.8511 34.0116C44.9791 34.1546 45.166 34.2891 45.412 34.3475C45.648 34.4035 45.8498 34.3682 45.9781 34.3299C46.0995 34.2936 46.1915 34.2435 46.2293 34.2224C46.2509 34.2104 46.2699 34.1991 46.2781 34.1942C46.2898 34.1873 46.289 34.1878 46.2875 34.1886L45.7932 33.3194ZM45.5962 33.3446L46.3385 32.6746C46.4055 32.7488 46.4402 32.8157 46.454 32.8449C46.4672 32.8728 46.4718 32.8891 46.4651 32.8692C46.461 32.8571 46.4598 32.8532 46.4523 32.8305C46.4465 32.8132 46.438 32.7879 46.4277 32.7599C46.4085 32.7075 46.373 32.6165 46.3146 32.5174L45.4534 33.0258L44.5922 33.5341C44.5757 33.5061 44.565 33.4835 44.5589 33.4699C44.5529 33.4564 44.5498 33.4478 44.5496 33.4474C44.5496 33.4474 44.5508 33.4506 44.5546 33.4621C44.5566 33.4682 44.5649 33.4934 44.5706 33.5102C44.5834 33.5481 44.6087 33.6214 44.647 33.7021C44.6859 33.784 44.7499 33.8996 44.8539 34.0147L45.5962 33.3446ZM45.4534 33.0258L46.3174 32.5222C45.943 31.8799 45.3009 31.6981 44.8405 31.6756C44.3863 31.6533 43.9478 31.7663 43.6316 31.8973L44.0142 32.8212L44.3968 33.7451C44.4482 33.7238 44.5136 33.7029 44.5823 33.689C44.6521 33.6748 44.7072 33.6714 44.7425 33.6732C44.7795 33.675 44.7686 33.6809 44.7305 33.6622C44.6824 33.6386 44.6262 33.5924 44.5894 33.5293L45.4534 33.0258ZM44.0142 32.8212L43.6299 31.898C43.2459 32.0579 42.9228 32.2789 42.6508 32.5059L43.2915 33.2736L43.9323 34.0414C44.0986 33.9026 44.2507 33.8059 44.3985 33.7444L44.0142 32.8212ZM43.2915 33.2736L42.6508 32.5059C42.5572 32.584 42.476 32.6646 42.4157 32.7261C42.3386 32.8047 42.3152 32.8308 42.2598 32.8861C42.1643 32.9814 42.1477 32.9809 42.1764 32.9675L42.6009 33.8729L43.0254 34.7783C43.3261 34.6373 43.5453 34.4287 43.6724 34.3019C43.8467 34.128 43.8669 34.096 43.9323 34.0414L43.2915 33.2736ZM42.6009 33.8729L42.1801 32.9657C42.2738 32.9223 42.4674 32.88 42.6827 32.9756C42.8813 33.0638 42.9634 33.2095 42.988 33.2695L42.0629 33.6491L41.1377 34.0287C41.2572 34.3197 41.4876 34.6333 41.8712 34.8036C42.2714 34.9813 42.6866 34.9354 43.0216 34.7801L42.6009 33.8729ZM42.0629 33.6491L42.9871 33.2673C42.9968 33.2907 42.9892 33.2869 42.9893 33.24C42.9894 33.1942 42.9969 33.1314 43.0149 33.0572L42.0432 32.8212L41.0714 32.5851C40.9867 32.9341 40.9148 33.4891 41.1386 34.0309L42.0629 33.6491ZM42.0432 32.8212L43.0152 33.0559C43.0138 33.0619 43.0163 33.0493 43.0368 33.0006C43.0467 32.977 43.0581 32.9515 43.0737 32.9165C43.088 32.8844 43.1071 32.8418 43.1257 32.7984C43.1931 32.6407 43.3266 32.3175 43.3052 31.9244L42.3066 31.9789L41.3081 32.0333C41.3027 31.9338 41.3383 31.8916 41.2869 32.0116C41.2758 32.0376 41.2639 32.0642 41.2474 32.1013C41.2321 32.1354 41.2127 32.1789 41.1935 32.2245C41.1558 32.3142 41.1064 32.4402 41.0711 32.5864L42.0432 32.8212ZM42.3066 31.9789L43.3053 31.9269C43.2999 31.8226 43.2843 31.7327 43.2698 31.6651C43.2561 31.6009 43.2398 31.5412 43.232 31.5123C43.2273 31.4945 43.2245 31.4841 43.2222 31.475C43.2201 31.4665 43.2194 31.4634 43.2195 31.4637C43.2195 31.4639 43.2242 31.4855 43.2257 31.5204L42.2266 31.5637L41.2276 31.607C41.2361 31.8051 41.2862 31.9778 41.3003 32.0303C41.3109 32.0697 41.3129 32.0783 41.314 32.083C41.3142 32.0843 41.3097 32.0642 41.308 32.0308L42.3066 31.9789ZM42.2266 31.5637L43.2257 31.5204C43.2292 31.6005 43.2135 31.6602 43.2025 31.6914C43.1922 31.7205 43.1841 31.7301 43.1916 31.7187L42.3547 31.1714L41.5177 30.6241C41.3881 30.8223 41.2085 31.1668 41.2276 31.607L42.2266 31.5637ZM42.3547 31.1714L43.1913 31.7191C43.1889 31.7229 43.2055 31.6956 43.2949 31.6316C43.3386 31.6003 43.3899 31.567 43.4577 31.5245C43.517 31.4873 43.6074 31.4318 43.6864 31.3805L43.1413 30.5421L42.5962 29.7037C42.5256 29.7496 42.2869 29.8936 42.1309 30.0052C41.9433 30.1395 41.7063 30.336 41.518 30.6237L42.3547 31.1714ZM43.1413 30.5421L43.6873 31.3799C43.7167 31.3607 43.8571 31.2744 43.9736 31.1805C44.1009 31.0779 44.2908 30.8989 44.4143 30.6218L43.5008 30.2148L42.5874 29.8078C42.6164 29.7427 42.6504 29.6959 42.6753 29.6668C42.6993 29.6388 42.7171 29.6244 42.7185 29.6233C42.7196 29.6224 42.7132 29.6276 42.6907 29.6425C42.6799 29.6498 42.6676 29.6577 42.6512 29.6682C42.6368 29.6775 42.6153 29.6913 42.5954 29.7043L43.1413 30.5421ZM43.5008 30.2148L44.4143 30.6218C44.645 30.1039 44.4742 29.5687 44.4619 29.5163L43.4885 29.7455L42.5151 29.9747C42.5259 30.0203 42.5307 30.0405 42.5349 30.0611C42.5385 30.0789 42.5377 30.0787 42.5367 30.0676C42.5349 30.0463 42.5284 29.9402 42.5874 29.8078L43.5008 30.2148ZM43.4885 29.7455L44.4608 29.5117C44.4483 29.4596 44.4348 29.4094 44.4242 29.3698C44.4126 29.3266 44.4041 29.2953 44.396 29.2636C44.3797 29.1991 44.376 29.1735 44.3754 29.1667C44.3749 29.1617 44.3803 29.2052 44.3625 29.2749C44.3533 29.311 44.3385 29.3512 44.3163 29.3922C44.2941 29.4334 44.2679 29.4687 44.2409 29.4974L43.5119 28.8129L42.7829 28.1284C42.3906 28.5462 42.3528 29.0361 42.385 29.3628C42.4099 29.6153 42.5095 29.9513 42.5162 29.9793L43.4885 29.7455ZM43.5119 28.8129L44.2409 29.4974C44.2123 29.5279 44.1741 29.5558 44.1312 29.5753C44.0905 29.5939 44.0589 29.599 44.0453 29.6003C44.0329 29.6015 44.0347 29.5997 44.0537 29.6024C44.0725 29.605 44.1001 29.6108 44.1363 29.6219L44.4303 28.6661L44.7244 27.7103C44.3239 27.5871 43.4424 27.4261 42.7829 28.1284L43.5119 28.8129ZM44.4303 28.6661L44.1373 29.6222C44.4576 29.7204 44.8115 29.6845 45.1097 29.4952C45.3847 29.3206 45.5437 29.0602 45.6125 28.8155C45.6816 28.5701 45.6794 28.2739 45.5481 27.991C45.4067 27.6862 45.1437 27.4614 44.8233 27.3627L44.5288 28.3183L44.2344 29.274C44.0272 29.2102 43.837 29.055 43.7339 28.8329C43.641 28.6326 43.6427 28.432 43.6873 28.2736C43.7317 28.1159 43.8378 27.9337 44.0376 27.8068C44.2606 27.6653 44.5169 27.6467 44.7233 27.71L44.4303 28.6661ZM44.5288 28.3183L45.2278 27.6032L45.2253 27.6008L44.5263 28.3159L43.8274 29.0311L43.8298 29.0335L44.5288 28.3183Z" fill="#17C0B8" mask="url(#path-10-inside-1_558_495)"/>
<mask id="path-12-inside-2_558_495" fill="white">
<path d="M46.0123 36.8944C45.2441 36.5695 44.4611 36.2531 43.608 36.2675C42.8459 36.2807 42.0802 36.5202 41.4609 36.9558C41.1667 37.164 40.9168 37.4203 40.6397 37.6489C40.5142 37.7524 40.38 37.8487 40.231 37.9197C40.0599 38.0015 39.8851 38.0087 39.7016 38.0436C39.3582 38.1086 39.1132 38.4997 39.0578 38.821C38.9962 39.1759 39.2301 39.4647 39.517 39.6513C40.2409 40.1218 41.2775 40.1494 42.0506 39.7981C42.2661 39.7006 42.0789 39.3889 41.8647 39.4864C41.2455 39.7668 40.4674 39.7259 39.8605 39.4274C39.6192 39.3083 39.3335 39.0989 39.4431 38.8005C39.4862 38.6826 39.5859 38.4708 39.7066 38.4142C39.842 38.3517 40.023 38.3733 40.1682 38.33C40.7739 38.1495 41.1519 37.6176 41.6468 37.2675C42.1737 36.8956 42.809 36.6718 43.4578 36.6333C44.2986 36.584 45.0681 36.8848 45.8252 37.2061C46.0407 37.2976 46.229 36.9871 46.0111 36.8944H46.0123Z"/>
</mask>
<path d="M46.0123 36.8944C45.2441 36.5695 44.4611 36.2531 43.608 36.2675C42.8459 36.2807 42.0802 36.5202 41.4609 36.9558C41.1667 37.164 40.9168 37.4203 40.6397 37.6489C40.5142 37.7524 40.38 37.8487 40.231 37.9197C40.0599 38.0015 39.8851 38.0087 39.7016 38.0436C39.3582 38.1086 39.1132 38.4997 39.0578 38.821C38.9962 39.1759 39.2301 39.4647 39.517 39.6513C40.2409 40.1218 41.2775 40.1494 42.0506 39.7981C42.2661 39.7006 42.0789 39.3889 41.8647 39.4864C41.2455 39.7668 40.4674 39.7259 39.8605 39.4274C39.6192 39.3083 39.3335 39.0989 39.4431 38.8005C39.4862 38.6826 39.5859 38.4708 39.7066 38.4142C39.842 38.3517 40.023 38.3733 40.1682 38.33C40.7739 38.1495 41.1519 37.6176 41.6468 37.2675C42.1737 36.8956 42.809 36.6718 43.4578 36.6333C44.2986 36.584 45.0681 36.8848 45.8252 37.2061C46.0407 37.2976 46.229 36.9871 46.0111 36.8944H46.0123Z" fill="#F2F2F2"/>
<path d="M46.0123 36.8944V37.8944L46.4019 35.9734L46.0123 36.8944ZM43.608 36.2675L43.5911 35.2676L43.5906 35.2677L43.608 36.2675ZM41.4609 36.9558L40.8856 36.1379L40.8833 36.1395L41.4609 36.9558ZM40.6397 37.6489L41.2757 38.4206L41.2763 38.4202L40.6397 37.6489ZM40.231 37.9197L39.8008 37.017L39.7996 37.0175L40.231 37.9197ZM39.7016 38.0436L39.8875 39.0262L39.8885 39.026L39.7016 38.0436ZM39.0578 38.821L40.0431 38.9918L40.0432 38.9909L39.0578 38.821ZM39.517 39.6513L38.9719 40.4896L38.972 40.4897L39.517 39.6513ZM42.0506 39.7981L41.6384 38.887L41.6369 38.8877L42.0506 39.7981ZM41.8647 39.4864L42.2772 40.3974L42.2789 40.3966L41.8647 39.4864ZM39.8605 39.4274L39.4178 40.3241L39.4192 40.3248L39.8605 39.4274ZM39.4431 38.8005L40.3818 39.1452L40.3824 39.1437L39.4431 38.8005ZM39.7066 38.4142L39.2871 37.5064L39.2821 37.5088L39.7066 38.4142ZM40.1682 38.33L39.8826 37.3717L39.8825 37.3717L40.1682 38.33ZM41.6468 37.2675L41.0702 36.4504L41.0692 36.4511L41.6468 37.2675ZM43.4578 36.6333L43.3992 35.635L43.3985 35.6351L43.4578 36.6333ZM45.8252 37.2061L46.216 36.2856L46.2159 36.2856L45.8252 37.2061ZM46.0111 36.8944V35.8944L45.6198 37.8147L46.0111 36.8944ZM46.0123 36.8944L46.4019 35.9734C45.6531 35.6567 44.6848 35.2491 43.5911 35.2676L43.608 36.2675L43.6249 37.2674C44.2375 37.257 44.8352 37.4823 45.6228 37.8155L46.0123 36.8944ZM43.608 36.2675L43.5906 35.2677C42.6382 35.2842 41.6761 35.5818 40.8856 36.1379L41.4609 36.9558L42.0363 37.7737C42.4842 37.4586 43.0536 37.2773 43.6253 37.2674L43.608 36.2675ZM41.4609 36.9558L40.8833 36.1395C40.6901 36.2762 40.5209 36.4219 40.3805 36.5464C40.2281 36.6815 40.1236 36.7783 40.0032 36.8777L40.6397 37.6489L41.2763 38.4202C41.4329 38.2909 41.5919 38.1452 41.7072 38.043C41.8346 37.9301 41.9375 37.8436 42.0385 37.7721L41.4609 36.9558ZM40.6397 37.6489L40.0038 36.8772C39.9096 36.9548 39.8465 36.9952 39.8008 37.017L40.231 37.9197L40.6613 38.8224C40.9134 38.7022 41.1188 38.55 41.2757 38.4206L40.6397 37.6489ZM40.231 37.9197L39.7996 37.0175C39.8245 37.0056 39.833 37.0077 39.7878 37.0162C39.7628 37.0208 39.7354 37.025 39.6865 37.0325C39.643 37.0392 39.5808 37.0487 39.5148 37.0612L39.7016 38.0436L39.8885 39.026C39.9142 39.0211 39.9426 39.0166 39.9889 39.0095C40.0297 39.0033 40.091 38.9941 40.1541 38.9823C40.285 38.958 40.4664 38.9156 40.6624 38.8218L40.231 37.9197ZM39.7016 38.0436L39.5158 37.061C39.0234 37.1542 38.6807 37.4614 38.4758 37.7307C38.2679 38.004 38.1274 38.3313 38.0723 38.651L39.0578 38.821L40.0432 38.9909C40.0423 38.996 40.0433 38.9883 40.0501 38.9728C40.0567 38.9577 40.0638 38.9466 40.0675 38.9416C40.0718 38.9361 40.0648 38.9473 40.0399 38.9648C40.0136 38.9833 39.9624 39.012 39.8875 39.0262L39.7016 38.0436ZM39.0578 38.821L38.0725 38.6501C37.9078 39.5995 38.5616 40.2228 38.9719 40.4896L39.517 39.6513L40.0621 38.8129C40.0363 38.7961 40.0185 38.7814 40.0081 38.7714C39.9974 38.7611 39.9994 38.7607 40.0069 38.7727C40.0149 38.7857 40.0298 38.8142 40.0394 38.8573C40.0494 38.9025 40.0504 38.9496 40.0431 38.9918L39.0578 38.821ZM39.517 39.6513L38.972 40.4897C40.0147 41.1674 41.4172 41.1843 42.4644 40.7085L42.0506 39.7981L41.6369 38.8877C41.1377 39.1145 40.4671 39.0761 40.0619 38.8128L39.517 39.6513ZM42.0506 39.7981L42.4628 40.7092C42.7711 40.5697 43.0318 40.2943 43.1177 39.9161C43.1954 39.5741 43.1037 39.2675 42.9769 39.0556C42.7305 38.644 42.1225 38.2705 41.4506 38.5762L41.8647 39.4864L42.2789 40.3966C41.8211 40.6049 41.4138 40.3384 41.2607 40.0827C41.1805 39.9487 41.1085 39.7322 41.1674 39.473C41.2345 39.1776 41.4378 38.9777 41.6384 38.887L42.0506 39.7981ZM41.8647 39.4864L41.4523 38.5754C41.1315 38.7206 40.6674 38.7099 40.3017 38.5301L39.8605 39.4274L39.4192 40.3248C40.2674 40.7419 41.3594 40.8129 42.2772 40.3974L41.8647 39.4864ZM39.8605 39.4274L40.3031 38.5308C40.2749 38.5168 40.2572 38.5059 40.2491 38.5003C40.2392 38.4934 40.2572 38.5039 40.2857 38.5378C40.3152 38.5728 40.3713 38.6518 40.4009 38.7756C40.433 38.9101 40.4199 39.0416 40.3818 39.1452L39.4431 38.8005L38.5044 38.4558C38.2955 39.0248 38.4994 39.5209 38.7547 39.8247C38.9749 40.0866 39.2528 40.2427 39.4178 40.3241L39.8605 39.4274ZM39.4431 38.8005L40.3824 39.1437C40.3841 39.1391 40.3878 39.1295 40.3928 39.1188C40.398 39.1076 40.4011 39.1024 40.4005 39.1034C40.3999 39.1043 40.397 39.1091 40.3914 39.1169C40.3859 39.1244 40.3757 39.1379 40.3601 39.155C40.3356 39.1819 40.2616 39.2585 40.131 39.3197L39.7066 38.4142L39.2821 37.5088C38.9378 37.6702 38.7539 37.9618 38.691 38.0653C38.6027 38.2108 38.5408 38.3562 38.5038 38.4573L39.4431 38.8005ZM39.7066 38.4142L40.126 39.322C40.0647 39.3503 40.0186 39.36 40.0063 39.3624C39.9957 39.3644 39.9964 39.3635 40.0306 39.3602C40.0498 39.3583 40.1212 39.3522 40.1804 39.3446C40.2467 39.3362 40.3447 39.3209 40.454 39.2883L40.1682 38.33L39.8825 37.3717C39.9191 37.3608 39.94 37.3591 39.9273 37.3607C39.9075 37.3632 39.8979 37.3637 39.8368 37.3696C39.7907 37.3741 39.7117 37.3822 39.6245 37.3992C39.5357 37.4164 39.4161 37.4469 39.2871 37.5065L39.7066 38.4142ZM40.1682 38.33L40.4538 39.2884C40.9603 39.1374 41.3351 38.849 41.6006 38.621C41.9196 38.3471 42.0244 38.2253 42.2244 38.0838L41.6468 37.2675L41.0692 36.4511C40.7743 36.6598 40.4427 36.9791 40.2975 37.1037C40.0989 37.2743 39.9819 37.3421 39.8826 37.3717L40.1682 38.33ZM41.6468 37.2675L42.2234 38.0845C42.5986 37.8198 43.0548 37.659 43.517 37.6316L43.4578 36.6333L43.3985 35.6351C42.5632 35.6847 41.7489 35.9715 41.0702 36.4504L41.6468 37.2675ZM43.4578 36.6333L43.5164 37.6316C44.096 37.5976 44.666 37.8005 45.4346 38.1266L45.8252 37.2061L46.2159 36.2856C45.4702 35.9691 44.5013 35.5704 43.3992 35.635L43.4578 36.6333ZM45.8252 37.2061L45.4345 38.1266C46.1013 38.4096 46.6944 38.039 46.9376 37.6348C47.0637 37.4251 47.16 37.1144 47.0775 36.7651C46.9858 36.3771 46.7119 36.1058 46.4024 35.9742L46.0111 36.8944L45.6198 37.8147C45.4193 37.7294 45.2036 37.5317 45.1311 37.225C45.0678 36.9572 45.1444 36.7357 45.2238 36.6038C45.3734 36.3552 45.7646 36.094 46.216 36.2856L45.8252 37.2061ZM46.0111 36.8944V37.8944H46.0123V36.8944V35.8944H46.0111V36.8944Z" fill="#17C0B8" mask="url(#path-12-inside-2_558_495)"/>
<mask id="path-14-inside-3_558_495" fill="white">
<path d="M37.1496 29.5361C37.4427 29.4555 37.7147 29.7888 37.8526 29.9994C38.0164 30.2485 38.1185 30.5481 38.0767 30.8465C37.9991 31.4061 37.5288 31.8693 37.6446 32.4626C37.7357 32.9271 38.1641 33.1906 38.5248 33.4505C38.6836 33.5648 38.8498 33.6912 38.9458 33.8633C39.0665 34.0811 39.0062 34.329 38.8498 34.5143C38.4005 35.0461 37.5436 34.8524 36.9354 34.8488C36.6092 34.8464 36.2829 34.8873 35.9838 35.0233C35.7166 35.146 35.5332 35.3385 35.383 35.5828C35.3214 35.6827 35.2574 35.8042 35.1282 35.8223C34.973 35.8427 34.813 35.7465 34.6653 35.7116C34.3907 35.6466 34.0608 35.6911 33.9463 35.9811C33.6914 36.6309 34.6394 36.8932 35.042 37.1387C35.1171 37.1845 35.1959 37.2362 35.2562 37.3012C35.3104 37.3589 35.3325 37.3722 35.2562 37.4131C35.0961 37.4985 34.877 37.5093 34.6985 37.5118C34.3181 37.5178 33.9229 37.4793 33.5499 37.4095C32.922 37.2915 32.1661 36.9426 32.0898 36.2362C32.0651 36.0076 31.6958 36.0052 31.7204 36.2362C31.7918 36.8884 32.2892 37.3637 32.89 37.6008C33.2285 37.7344 33.5905 37.7897 33.9524 37.8282C34.3341 37.8679 34.7293 37.9064 35.1097 37.833C35.3867 37.7789 35.7708 37.6176 35.6662 37.2711C35.5726 36.963 35.17 36.7849 34.9016 36.6562C34.7551 36.5852 34.6012 36.519 34.4683 36.4264C34.3784 36.3638 34.179 36.1688 34.3292 36.0654C34.4338 35.9944 34.6246 36.0762 34.7268 36.1099C34.893 36.164 35.0752 36.2134 35.2513 36.1688C35.5837 36.0834 35.6526 35.7549 35.8656 35.5395C36.102 35.3012 36.4578 35.2254 36.7852 35.2134C37.5042 35.1881 38.3254 35.3987 38.9446 34.9234C39.4235 34.5552 39.5183 33.9306 39.1133 33.4782C38.8092 33.1389 38.2909 32.9716 38.0681 32.5649C37.9043 32.2664 38.0521 31.9319 38.1789 31.6479C38.3266 31.3182 38.478 30.9849 38.4497 30.6167C38.4214 30.2485 38.2552 29.8983 38.0127 29.6095C37.7701 29.3207 37.434 29.0836 37.0512 29.1895C36.8234 29.2521 36.9194 29.6011 37.1496 29.5373V29.5361Z"/>
</mask>
<path d="M37.1496 29.5361C37.4427 29.4555 37.7147 29.7888 37.8526 29.9994C38.0164 30.2485 38.1185 30.5481 38.0767 30.8465C37.9991 31.4061 37.5288 31.8693 37.6446 32.4626C37.7357 32.9271 38.1641 33.1906 38.5248 33.4505C38.6836 33.5648 38.8498 33.6912 38.9458 33.8633C39.0665 34.0811 39.0062 34.329 38.8498 34.5143C38.4005 35.0461 37.5436 34.8524 36.9354 34.8488C36.6092 34.8464 36.2829 34.8873 35.9838 35.0233C35.7166 35.146 35.5332 35.3385 35.383 35.5828C35.3214 35.6827 35.2574 35.8042 35.1282 35.8223C34.973 35.8427 34.813 35.7465 34.6653 35.7116C34.3907 35.6466 34.0608 35.6911 33.9463 35.9811C33.6914 36.6309 34.6394 36.8932 35.042 37.1387C35.1171 37.1845 35.1959 37.2362 35.2562 37.3012C35.3104 37.3589 35.3325 37.3722 35.2562 37.4131C35.0961 37.4985 34.877 37.5093 34.6985 37.5118C34.3181 37.5178 33.9229 37.4793 33.5499 37.4095C32.922 37.2915 32.1661 36.9426 32.0898 36.2362C32.0651 36.0076 31.6958 36.0052 31.7204 36.2362C31.7918 36.8884 32.2892 37.3637 32.89 37.6008C33.2285 37.7344 33.5905 37.7897 33.9524 37.8282C34.3341 37.8679 34.7293 37.9064 35.1097 37.833C35.3867 37.7789 35.7708 37.6176 35.6662 37.2711C35.5726 36.963 35.17 36.7849 34.9016 36.6562C34.7551 36.5852 34.6012 36.519 34.4683 36.4264C34.3784 36.3638 34.179 36.1688 34.3292 36.0654C34.4338 35.9944 34.6246 36.0762 34.7268 36.1099C34.893 36.164 35.0752 36.2134 35.2513 36.1688C35.5837 36.0834 35.6526 35.7549 35.8656 35.5395C36.102 35.3012 36.4578 35.2254 36.7852 35.2134C37.5042 35.1881 38.3254 35.3987 38.9446 34.9234C39.4235 34.5552 39.5183 33.9306 39.1133 33.4782C38.8092 33.1389 38.2909 32.9716 38.0681 32.5649C37.9043 32.2664 38.0521 31.9319 38.1789 31.6479C38.3266 31.3182 38.478 30.9849 38.4497 30.6167C38.4214 30.2485 38.2552 29.8983 38.0127 29.6095C37.7701 29.3207 37.434 29.0836 37.0512 29.1895C36.8234 29.2521 36.9194 29.6011 37.1496 29.5373V29.5361Z" fill="#F2F2F2"/>
<path d="M37.1496 29.5361L36.8844 28.5719L36.1496 28.7741V29.5361H37.1496ZM37.8526 29.9994L37.016 30.5472L37.017 30.5487L37.8526 29.9994ZM38.0767 30.8465L37.0864 30.7076L37.0862 30.7092L38.0767 30.8465ZM37.6446 32.4626L36.6631 32.6541L36.6633 32.6551L37.6446 32.4626ZM38.5248 33.4505L37.9402 34.2618L37.9406 34.2621L38.5248 33.4505ZM38.9458 33.8633L39.8206 33.3787L39.8191 33.376L38.9458 33.8633ZM38.8498 34.5143L39.6137 35.1596L39.6141 35.1591L38.8498 34.5143ZM36.9354 34.8488L36.9281 35.8488L36.9295 35.8488L36.9354 34.8488ZM35.9838 35.0233L35.57 34.1129L35.5663 34.1146L35.9838 35.0233ZM35.383 35.5828L36.2343 36.1075L36.2348 36.1066L35.383 35.5828ZM35.1282 35.8223L35.2589 36.8137L35.2664 36.8127L35.1282 35.8223ZM34.6653 35.7116L34.4349 36.6847L34.4354 36.6848L34.6653 35.7116ZM33.9463 35.9811L33.0161 35.6139L33.0153 35.616L33.9463 35.9811ZM35.042 37.1387L34.5214 37.9925L34.5219 37.9928L35.042 37.1387ZM35.2562 37.3012L34.5233 37.9816L34.5268 37.9852L35.2562 37.3012ZM35.2562 37.4131L35.7271 38.2953L35.7286 38.2945L35.2562 37.4131ZM34.6985 37.5118L34.685 36.5118L34.6827 36.5119L34.6985 37.5118ZM33.5499 37.4095L33.3653 38.3923L33.366 38.3924L33.5499 37.4095ZM32.0898 36.2362L31.0955 36.3433L31.0955 36.3437L32.0898 36.2362ZM31.7204 36.2362L30.726 36.3422L30.7264 36.3451L31.7204 36.2362ZM32.89 37.6008L32.5229 38.531L32.523 38.531L32.89 37.6008ZM33.9524 37.8282L33.8466 38.8226L33.8489 38.8229L33.9524 37.8282ZM35.1097 37.833L35.2991 38.8149L35.3015 38.8145L35.1097 37.833ZM35.6662 37.2711L36.6235 36.982L36.623 36.9805L35.6662 37.2711ZM34.9016 36.6562L34.4655 37.5561L34.4691 37.5578L34.9016 36.6562ZM34.4683 36.4264L35.04 35.6059L35.0397 35.6057L34.4683 36.4264ZM34.3292 36.0654L33.7677 35.2378L33.7618 35.2419L34.3292 36.0654ZM34.7268 36.1099L34.4137 37.0596L34.417 37.0607L34.7268 36.1099ZM35.2513 36.1688L35.4964 37.1383L35.5002 37.1374L35.2513 36.1688ZM35.8656 35.5395L35.1557 34.8352L35.1545 34.8364L35.8656 35.5395ZM36.7852 35.2134L36.7501 34.214L36.7485 34.2141L36.7852 35.2134ZM38.9446 34.9234L39.5535 35.7167L39.5542 35.7162L38.9446 34.9234ZM39.1133 33.4782L39.8583 32.8112L39.858 32.8108L39.1133 33.4782ZM38.0681 32.5649L38.9451 32.0844L38.9448 32.0838L38.0681 32.5649ZM38.1789 31.6479L37.2663 31.239L37.2658 31.2402L38.1789 31.6479ZM37.0512 29.1895L37.3161 30.1538L37.3177 30.1534L37.0512 29.1895ZM37.1496 29.5373L37.4166 30.501L38.1496 30.2979V29.5373H37.1496ZM37.1496 29.5361L37.4149 30.5003C37.2671 30.5409 37.1338 30.5226 37.0444 30.4925C36.9656 30.4659 36.9267 30.433 36.9266 30.4329C36.9242 30.431 36.9351 30.4399 36.9564 30.4655C36.9764 30.4897 36.997 30.5182 37.016 30.5472L37.8526 29.9994L38.6892 29.4516C38.5976 29.3117 38.4293 29.078 38.192 28.8841C37.9698 28.7026 37.4927 28.4045 36.8844 28.5719L37.1496 29.5361ZM37.8526 29.9994L37.017 30.5487C37.0516 30.6013 37.0709 30.6464 37.0799 30.6781C37.0885 30.7084 37.0851 30.7165 37.0864 30.7076L38.0767 30.8465L39.067 30.9854C39.1529 30.3732 38.9383 29.8305 38.6882 29.4501L37.8526 29.9994ZM38.0767 30.8465L37.0862 30.7092C37.072 30.8115 37.031 30.8747 36.8708 31.2438C36.7437 31.5366 36.5436 32.0419 36.6631 32.6541L37.6446 32.4626L38.6261 32.2711C38.6297 32.29 38.6069 32.2671 38.7055 32.04C38.735 31.9721 38.8321 31.7628 38.8871 31.6269C38.9554 31.4581 39.0319 31.2385 39.0672 30.9838L38.0767 30.8465ZM37.6446 32.4626L36.6633 32.6551C36.7623 33.1603 37.0418 33.5164 37.2924 33.756C37.5216 33.9751 37.806 34.1652 37.9402 34.2618L38.5248 33.4505L39.1094 32.6392C38.9943 32.5563 38.9319 32.5141 38.8439 32.4488C38.7675 32.3921 38.7141 32.3482 38.6747 32.3105C38.5981 32.2373 38.6179 32.2294 38.6259 32.2701L37.6446 32.4626ZM38.5248 33.4505L37.9406 34.2621C37.9775 34.2887 38.0059 34.3096 38.0307 34.3288C38.0552 34.3478 38.0716 34.3618 38.0826 34.3719C38.1064 34.3937 38.0927 34.3866 38.0726 34.3506L38.9458 33.8633L39.8191 33.376C39.6001 32.9835 39.2509 32.7411 39.109 32.6389L38.5248 33.4505ZM38.9458 33.8633L38.0711 34.3478C38.0129 34.2427 37.9999 34.1253 38.0165 34.0296C38.0315 33.9436 38.066 33.8925 38.0855 33.8694L38.8498 34.5143L39.6141 35.1591C39.9558 34.7541 40.1977 34.0594 39.8206 33.3787L38.9458 33.8633ZM38.8498 34.5143L38.086 33.8689C38.1269 33.8204 38.1437 33.8713 37.9014 33.8836C37.7872 33.8894 37.6558 33.8847 37.4878 33.8746C37.3402 33.8658 37.1289 33.8499 36.9414 33.8488L36.9354 34.8488L36.9295 35.8488C37.046 35.8495 37.1699 35.8592 37.3681 35.871C37.5459 35.8817 37.7708 35.8928 38.0029 35.881C38.4535 35.8582 39.1234 35.74 39.6137 35.1596L38.8498 34.5143ZM36.9354 34.8488L36.9428 33.8488C36.5351 33.8458 36.0492 33.8951 35.57 34.1129L35.9838 35.0233L36.3976 35.9336C36.5167 35.8795 36.6832 35.847 36.9281 35.8488L36.9354 34.8488ZM35.9838 35.0233L35.5663 34.1146C35.0729 34.3413 34.7543 34.6961 34.5311 35.059L35.383 35.5828L36.2348 36.1066C36.2765 36.0389 36.3088 36.0012 36.3317 35.9792C36.3522 35.9595 36.3728 35.945 36.4013 35.932L35.9838 35.0233ZM35.383 35.5828L34.5317 35.0581C34.5026 35.1054 34.5051 35.1022 34.4963 35.1158C34.493 35.1209 34.5055 35.1006 34.5315 35.0712C34.5894 35.0056 34.7414 34.8666 34.9899 34.8319L35.1282 35.8223L35.2664 36.8127C35.6442 36.7599 35.8928 36.5511 36.0305 36.3952C36.1433 36.2675 36.2336 36.1086 36.2343 36.1075L35.383 35.5828ZM35.1282 35.8223L34.9974 34.8309C35.0818 34.8197 35.1466 34.8272 35.1798 34.8328C35.2108 34.8382 35.2251 34.844 35.2092 34.8387C35.2022 34.8364 35.1925 34.833 35.1758 34.8269C35.1639 34.8226 35.1351 34.8121 35.1137 34.8045C35.0676 34.7881 34.9877 34.7602 34.8951 34.7384L34.6653 35.7116L34.4354 36.6848C34.4167 36.6804 34.4121 36.6777 34.4424 36.6885C34.4542 36.6926 34.5274 36.7196 34.5786 36.7367C34.6876 36.7729 34.9467 36.8549 35.2589 36.8137L35.1282 35.8223ZM34.6653 35.7116L34.8956 34.7385C34.6381 34.6775 34.3017 34.6526 33.9589 34.7553C33.5853 34.8671 33.2042 35.1376 33.0161 35.6139L33.9463 35.9811L34.8764 36.3483C34.8457 36.426 34.7924 36.504 34.7187 36.5671C34.6482 36.6275 34.5793 36.6572 34.5326 36.6712C34.452 36.6953 34.4178 36.6806 34.4349 36.6847L34.6653 35.7116ZM33.9463 35.9811L33.0153 35.616C32.854 36.0274 32.8665 36.4602 33.0572 36.8454C33.2245 37.1833 33.4885 37.4018 33.677 37.5328C33.8726 37.6687 34.081 37.7731 34.2254 37.8438C34.4041 37.9313 34.4725 37.9627 34.5214 37.9925L35.042 37.1387L35.5626 36.2849C35.4759 36.2321 35.3873 36.1863 35.3156 36.1505C35.2486 36.1171 35.161 36.075 35.1048 36.0475C34.9662 35.9797 34.8781 35.9319 34.8182 35.8903C34.7512 35.8438 34.8008 35.8596 34.8495 35.9579C34.8781 36.0156 34.9003 36.0903 34.9031 36.1742C34.9059 36.2567 34.8888 36.3168 34.8772 36.3462L33.9463 35.9811ZM35.042 37.1387L34.5219 37.9928C34.5358 38.0013 34.5456 38.0075 34.5531 38.0123C34.5605 38.0172 34.5639 38.0196 34.5645 38.02C34.565 38.0204 34.5613 38.0178 34.5546 38.012C34.5479 38.0062 34.5369 37.9961 34.5233 37.9815L35.2562 37.3012L35.9891 36.6208C35.8266 36.4458 35.6424 36.3335 35.562 36.2846L35.042 37.1387ZM35.2562 37.3012L34.5268 37.9852C34.5697 38.0311 34.5402 37.9994 34.5278 37.9849C34.5153 37.9702 34.4805 37.9285 34.4437 37.8675C34.4071 37.8068 34.348 37.6936 34.3204 37.5378C34.2902 37.3669 34.305 37.1843 34.3723 37.0118C34.4344 36.8524 34.5243 36.7446 34.585 36.6833C34.6451 36.6225 34.6994 36.5843 34.7261 36.5665C34.7549 36.5473 34.7767 36.5355 34.7838 36.5317L35.2562 37.4131L35.7286 38.2945C35.76 38.2776 35.887 38.211 36.007 38.0896C36.1651 37.9298 36.3647 37.612 36.2898 37.1891C36.2375 36.8935 36.066 36.7065 36.0517 36.6896C36.0294 36.6634 36.0092 36.642 36.0017 36.6341C35.9859 36.6174 35.9932 36.6252 35.9856 36.6171L35.2562 37.3012ZM35.2562 37.4131L34.7853 36.5309C34.8201 36.5123 34.8449 36.5047 34.8525 36.5025C34.8603 36.5003 34.8587 36.5014 34.8447 36.5033C34.831 36.5053 34.8109 36.5073 34.7827 36.5089C34.7545 36.5105 34.723 36.5113 34.685 36.5118L34.6985 37.5118L34.712 38.5117C34.8617 38.5096 35.3222 38.5114 35.7271 38.2953L35.2562 37.4131ZM34.6985 37.5118L34.6827 36.5119C34.3775 36.5167 34.0496 36.4856 33.7338 36.4265L33.5499 37.4095L33.366 38.3924C33.7962 38.4729 34.2586 38.5188 34.7143 38.5116L34.6985 37.5118ZM33.5499 37.4095L33.7344 36.4267C33.5083 36.3842 33.3064 36.3066 33.1792 36.2192C33.1202 36.1787 33.0955 36.1486 33.0877 36.1371C33.0832 36.1305 33.0843 36.1316 33.084 36.1288L32.0898 36.2362L31.0955 36.3437C31.174 37.0695 31.6077 37.5662 32.0468 37.8678C32.4736 38.1609 32.9635 38.3168 33.3653 38.3923L33.5499 37.4095ZM32.0898 36.2362L33.084 36.1292C33.0022 35.3697 32.3392 35.0653 31.8899 35.0639C31.6516 35.0631 31.3467 35.1347 31.0914 35.3668C30.8054 35.627 30.6889 35.9933 30.726 36.3422L31.7204 36.2362L32.7148 36.1303C32.7397 36.3637 32.6601 36.6436 32.4371 36.8464C32.2449 37.0212 32.0293 37.0643 31.8834 37.0638C31.6187 37.063 31.1527 36.8741 31.0955 36.3433L32.0898 36.2362ZM31.7204 36.2362L30.7264 36.3451C30.8514 37.4872 31.7071 38.2091 32.5229 38.531L32.89 37.6008L33.257 36.6706C32.8713 36.5184 32.7322 36.2897 32.7145 36.1274L31.7204 36.2362ZM32.89 37.6008L32.523 38.531C32.9922 38.7161 33.4651 38.782 33.8466 38.8226L33.9524 37.8282L34.0582 36.8338C33.7158 36.7974 33.4649 36.7526 33.257 36.6706L32.89 37.6008ZM33.9524 37.8282L33.8489 38.8229C34.2097 38.8604 34.7506 38.9208 35.2991 38.8149L35.1097 37.833L34.9202 36.8512C34.7079 36.8921 34.4584 36.8755 34.0559 36.8336L33.9524 37.8282ZM35.1097 37.833L35.3015 38.8145C35.5049 38.7747 35.8453 38.6815 36.1406 38.4545C36.2984 38.3331 36.4821 38.1433 36.592 37.8657C36.7082 37.5725 36.7087 37.2644 36.6235 36.982L35.6662 37.2711L34.7088 37.5602C34.6759 37.451 34.6677 37.2931 34.7326 37.1293C34.7912 36.9811 34.8812 36.8999 34.9215 36.869C34.9611 36.8385 34.9832 36.8324 34.9699 36.8375C34.9598 36.8414 34.9409 36.8471 34.9178 36.8516L35.1097 37.833ZM35.6662 37.2711L36.623 36.9805C36.477 36.4998 36.1252 36.2145 35.9114 36.0693C35.6888 35.918 35.4397 35.8052 35.3342 35.7546L34.9016 36.6562L34.4691 37.5578C34.5479 37.5956 34.6029 37.6212 34.6634 37.6523C34.7207 37.6819 34.7603 37.7051 34.7874 37.7235C34.8157 37.7428 34.8134 37.7453 34.7973 37.7272C34.7795 37.7072 34.7369 37.6524 34.7093 37.5617L35.6662 37.2711ZM34.9016 36.6562L35.3377 35.7563C35.1323 35.6568 35.0884 35.6397 35.04 35.6059L34.4683 36.4264L33.8965 37.2468C34.114 37.3984 34.3779 37.5136 34.4655 37.5561L34.9016 36.6562ZM34.4683 36.4264L35.0397 35.6057C35.0655 35.6236 35.1096 35.6537 35.1628 35.7411C35.1884 35.7831 35.2817 35.9443 35.2744 36.1868C35.2704 36.3203 35.2355 36.4656 35.1573 36.6029C35.0805 36.7377 34.982 36.8299 34.8965 36.8888L34.3292 36.0654L33.7618 35.2419C33.4858 35.4321 33.2868 35.7469 33.2753 36.1265C33.266 36.4366 33.3867 36.6698 33.4546 36.7813C33.5924 37.0076 33.7812 37.1665 33.8969 37.247L34.4683 36.4264ZM34.3292 36.0654L34.8906 36.8929C34.7223 37.007 34.5605 37.0317 34.4732 37.0363C34.3879 37.0407 34.3306 37.0286 34.319 37.0261C34.3038 37.0228 34.301 37.0211 34.32 37.0274C34.3288 37.0303 34.3384 37.0337 34.3542 37.0392C34.3667 37.0436 34.3904 37.0519 34.4137 37.0596L34.7268 36.1099L35.04 35.1602C35.0652 35.1685 34.8821 35.1014 34.7388 35.0706C34.6537 35.0524 34.5226 35.031 34.3689 35.039C34.2132 35.0471 33.9883 35.0882 33.7677 35.2378L34.3292 36.0654ZM34.7268 36.1099L34.417 37.0607C34.5748 37.1121 35.011 37.2611 35.4964 37.1383L35.2513 36.1688L35.0061 35.1994C35.0844 35.1796 35.1364 35.1878 35.1368 35.1879C35.1375 35.188 35.1303 35.1869 35.1123 35.1821C35.0939 35.1772 35.0705 35.1701 35.0366 35.1591L34.7268 36.1099ZM35.2513 36.1688L35.5002 37.1374C35.9961 37.0099 36.2717 36.6877 36.4173 36.4836C36.4685 36.4119 36.5508 36.283 36.5586 36.2713C36.5882 36.2269 36.5907 36.2284 36.5767 36.2426L35.8656 35.5395L35.1545 34.8364C35.034 34.9583 34.948 35.0817 34.8944 35.1621C34.869 35.2001 34.841 35.244 34.8263 35.2666C34.8079 35.2949 34.7972 35.3108 34.7891 35.3222C34.7723 35.3457 34.7852 35.3227 34.8249 35.2903C34.8725 35.2514 34.9351 35.2176 35.0023 35.2003L35.2513 36.1688ZM35.8656 35.5395L36.5755 36.2438C36.5522 36.2673 36.5453 36.26 36.5918 36.2454C36.6404 36.2301 36.7167 36.2166 36.822 36.2127L36.7852 35.2134L36.7485 34.2141C36.3425 34.229 35.6647 34.3222 35.1557 34.8352L35.8656 35.5395ZM36.7852 35.2134L36.8204 36.2128C36.9525 36.2081 37.0979 36.2141 37.2923 36.2232C37.4721 36.2316 37.6993 36.2429 37.929 36.2368C38.3936 36.2244 39.0018 36.1401 39.5535 35.7167L38.9446 34.9234L38.3357 34.1301C38.2682 34.182 38.1562 34.23 37.8757 34.2375C37.7327 34.2413 37.5812 34.2345 37.3855 34.2254C37.2043 34.2169 36.9775 34.206 36.7501 34.214L36.7852 35.2134ZM38.9446 34.9234L39.5542 35.7162C40.4405 35.0347 40.6951 33.746 39.8583 32.8112L39.1133 33.4782L38.3682 34.1452C38.3741 34.1518 38.376 34.1552 38.3757 34.1547C38.3754 34.1542 38.3737 34.1511 38.372 34.1455C38.3702 34.1399 38.3688 34.1333 38.3681 34.1259C38.3675 34.1187 38.3677 34.1119 38.3684 34.1061C38.37 34.094 38.3732 34.0902 38.3708 34.0943C38.3683 34.0983 38.359 34.1123 38.3351 34.1306L38.9446 34.9234ZM39.1133 33.4782L39.858 32.8108C39.7175 32.654 39.5674 32.5336 39.4455 32.444C39.3362 32.3636 39.1956 32.2704 39.1288 32.2242C38.9382 32.0925 38.9331 32.0626 38.9451 32.0844L38.0681 32.5649L37.1911 33.0454C37.4258 33.4739 37.7913 33.731 37.9916 33.8695C38.2562 34.0523 38.3184 34.0896 38.3686 34.1456L39.1133 33.4782ZM38.0681 32.5649L38.9448 32.0838C38.9748 32.1386 38.9898 32.1957 38.9942 32.2435C38.9982 32.2868 38.9925 32.3098 38.9938 32.3033C38.9954 32.2959 39.0012 32.2728 39.0188 32.227C39.0368 32.1799 39.059 32.1294 39.092 32.0557L38.1789 31.6479L37.2658 31.2402C37.21 31.365 37.0931 31.6181 37.0352 31.8987C36.9724 32.2028 36.9594 32.6231 37.1914 33.0459L38.0681 32.5649ZM38.1789 31.6479L39.0914 32.0568C39.2176 31.7752 39.4979 31.2055 39.4468 30.54L38.4497 30.6167L37.4527 30.6934C37.4543 30.7151 37.4532 30.7599 37.425 30.8511C37.3935 30.9531 37.3457 31.0618 37.2663 31.239L38.1789 31.6479ZM38.4497 30.6167L39.4468 30.54C39.3993 29.9228 39.1265 29.3809 38.7784 28.9664L38.0127 29.6095L37.2469 30.2526C37.3839 30.4157 37.4435 30.5741 37.4527 30.6934L38.4497 30.6167ZM38.0127 29.6095L38.7784 28.9664C38.4763 28.6066 37.7661 27.9543 36.7846 28.2257L37.0512 29.1895L37.3177 30.1534C37.2809 30.1635 37.2381 30.1666 37.1971 30.1612C37.1587 30.1561 37.1365 30.1455 37.1328 30.1437C37.1301 30.1423 37.1412 30.1476 37.1643 30.1674C37.1871 30.1869 37.2153 30.215 37.2469 30.2526L38.0127 29.6095ZM37.0512 29.1895L36.7862 28.2253C36.4605 28.3148 36.1857 28.5356 36.0364 28.8469C35.8985 29.1344 35.8972 29.435 35.9655 29.6797C36.0339 29.9247 36.1909 30.1811 36.4579 30.3557C36.7465 30.5443 37.094 30.5904 37.4166 30.501L37.1496 29.5373L36.8827 28.5736C37.0902 28.5161 37.3394 28.5425 37.5523 28.6817C37.7437 28.8068 37.8477 28.984 37.8918 29.1419C37.9358 29.2995 37.9388 29.5051 37.8398 29.7116C37.7294 29.9419 37.5279 30.0956 37.3161 30.1538L37.0512 29.1895ZM37.1496 29.5373H38.1496V29.5361H37.1496H36.1496V29.5373H37.1496Z" fill="#17C0B8" mask="url(#path-14-inside-3_558_495)"/>
</g>
<path d="M32.3829 33.915C31.0176 37.2976 33.438 40.1543 37.7888 40.2963C42.1395 40.4383 46.7747 37.8114 48.14 34.4289C49.5053 31.0463 47.0849 28.1896 42.7342 28.0476C38.3834 27.9056 33.7482 30.5325 32.3829 33.915Z" stroke="#17C0B8" stroke-miterlimit="10"/>
</g>
<g filter="url(#filter5_d_558_495)">
<path d="M31.7683 31.8321C28.8555 35.8212 30.2971 40.1026 34.9877 41.395C39.6782 42.6873 45.8424 40.5009 48.754 36.5119C51.6669 32.5228 50.2252 28.2414 45.5347 26.949C40.8441 25.6566 34.6799 27.8431 31.7683 31.8321Z" stroke="#17C0B8" stroke-miterlimit="10" shape-rendering="crispEdges"/>
</g>
<g filter="url(#filter6_d_558_495)">
<path d="M49.4077 56.1755L45.4214 52.0745" stroke="#17C0B8" stroke-miterlimit="10"/>
</g>
<defs>
<filter id="filter0_d_558_495" x="0.315918" y="0.875916" width="82.3945" height="74.5402" filterUnits="userSpaceOnUse" color-interpolation-filters="sRGB">
<feFlood flood-opacity="0" result="BackgroundImageFix"/>
<feColorMatrix in="SourceAlpha" type="matrix" values="0 0 0 0 0 0 0 0 0 0 0 0 0 0 0 0 0 0 127 0" result="hardAlpha"/>
<feOffset/>
<feComposite in2="hardAlpha" operator="out"/>
<feColorMatrix type="matrix" values="0 0 0 0 0.742308 0 0 0 0 0.957051 0 0 0 0 1 0 0 0 0.63 0"/>
<feBlend mode="normal" in2="BackgroundImageFix" result="effect1_dropShadow_558_495"/>
<feBlend mode="normal" in="SourceGraphic" in2="effect1_dropShadow_558_495" result="shape"/>
</filter>
<filter id="filter1_f_558_495" x="4.84229" y="5.35767" width="72.5264" height="63.146" filterUnits="userSpaceOnUse" color-interpolation-filters="sRGB">
<feFlood flood-opacity="0" result="BackgroundImageFix"/>
<feBlend mode="normal" in="SourceGraphic" in2="BackgroundImageFix" result="shape"/>
<feGaussianBlur stdDeviation="1" result="effect1_foregroundBlur_558_495"/>
</filter>
<filter id="filter2_d_558_495" x="12.4819" y="15.4831" width="54.9292" height="41.0961" filterUnits="userSpaceOnUse" color-interpolation-filters="sRGB">
<feFlood flood-opacity="0" result="BackgroundImageFix"/>
<feColorMatrix in="SourceAlpha" type="matrix" values="0 0 0 0 0 0 0 0 0 0 0 0 0 0 0 0 0 0 127 0" result="hardAlpha"/>
<feOffset/>
<feGaussianBlur stdDeviation="2"/>
<feComposite in2="hardAlpha" operator="out"/>
<feColorMatrix type="matrix" values="0 0 0 0 0.537255 0 0 0 0 0.776471 0 0 0 0 0.92549 0 0 0 1 0"/>
<feBlend mode="normal" in2="BackgroundImageFix" result="effect1_dropShadow_558_495"/>
<feBlend mode="normal" in="SourceGraphic" in2="effect1_dropShadow_558_495" result="shape"/>
</filter>
<filter id="filter3_d_558_495" x="16.4668" y="21.975" width="54.9673" height="40.6594" filterUnits="userSpaceOnUse" color-interpolation-filters="sRGB">
<feFlood flood-opacity="0" result="BackgroundImageFix"/>
<feColorMatrix in="SourceAlpha" type="matrix" values="0 0 0 0 0 0 0 0 0 0 0 0 0 0 0 0 0 0 127 0" result="hardAlpha"/>
<feOffset dy="2"/>
<feGaussianBlur stdDeviation="2"/>
<feComposite in2="hardAlpha" operator="out"/>
<feColorMatrix type="matrix" values="0 0 0 0 0.537255 0 0 0 0 0.776471 0 0 0 0 0.92549 0 0 0 1 0"/>
<feBlend mode="normal" in2="BackgroundImageFix" result="effect1_dropShadow_558_495"/>
<feBlend mode="normal" in="SourceGraphic" in2="effect1_dropShadow_558_495" result="shape"/>
</filter>
<filter id="filter4_d_558_495" x="27.502" y="23.5421" width="25.519" height="21.2597" filterUnits="userSpaceOnUse" color-interpolation-filters="sRGB">
<feFlood flood-opacity="0" result="BackgroundImageFix"/>
<feColorMatrix in="SourceAlpha" type="matrix" values="0 0 0 0 0 0 0 0 0 0 0 0 0 0 0 0 0 0 127 0" result="hardAlpha"/>
<feOffset/>
<feGaussianBlur stdDeviation="2"/>
<feComposite in2="hardAlpha" operator="out"/>
<feColorMatrix type="matrix" values="0 0 0 0 0.537255 0 0 0 0 0.776471 0 0 0 0 0.92549 0 0 0 1 0"/>
<feBlend mode="normal" in2="BackgroundImageFix" result="effect1_dropShadow_558_495"/>
<feBlend mode="normal" in="SourceGraphic" in2="effect1_dropShadow_558_495" result="shape"/>
</filter>
<filter id="filter5_d_558_495" x="25.7622" y="22.0774" width="28.9976" height="24.1892" filterUnits="userSpaceOnUse" color-interpolation-filters="sRGB">
<feFlood flood-opacity="0" result="BackgroundImageFix"/>
<feColorMatrix in="SourceAlpha" type="matrix" values="0 0 0 0 0 0 0 0 0 0 0 0 0 0 0 0 0 0 127 0" result="hardAlpha"/>
<feOffset/>
<feGaussianBlur stdDeviation="2"/>
<feComposite in2="hardAlpha" operator="out"/>
<feColorMatrix type="matrix" values="0 0 0 0 0.537255 0 0 0 0 0.776471 0 0 0 0 0.92549 0 0 0 1 0"/>
<feBlend mode="normal" in2="BackgroundImageFix" result="effect1_dropShadow_558_495"/>
<feBlend mode="normal" in="SourceGraphic" in2="effect1_dropShadow_558_495" result="shape"/>
</filter>
<filter id="filter6_d_558_495" x="41.063" y="47.726" width="12.7031" height="12.798" filterUnits="userSpaceOnUse" color-interpolation-filters="sRGB">
<feFlood flood-opacity="0" result="BackgroundImageFix"/>
<feColorMatrix in="SourceAlpha" type="matrix" values="0 0 0 0 0 0 0 0 0 0 0 0 0 0 0 0 0 0 127 0" result="hardAlpha"/>
<feOffset/>
<feGaussianBlur stdDeviation="2"/>
<feComposite in2="hardAlpha" operator="out"/>
<feColorMatrix type="matrix" values="0 0 0 0 0.537255 0 0 0 0 0.776471 0 0 0 0 0.92549 0 0 0 1 0"/>
<feBlend mode="normal" in2="BackgroundImageFix" result="effect1_dropShadow_558_495"/>
<feBlend mode="normal" in="SourceGraphic" in2="effect1_dropShadow_558_495" result="shape"/>
</filter>
<linearGradient id="paint0_linear_558_495" x1="41.9212" y1="-1.95985" x2="41.9212" y2="85.5438" gradientUnits="userSpaceOnUse">
<stop offset="0.0480769" stop-color="#6BA0A2"/>
<stop offset="0.182692" stop-color="#19638D"/>
<stop offset="0.336538" stop-color="#07649B"/>
<stop offset="0.528846" stop-color="#1A3B6D"/>
<stop offset="0.798077" stop-color="#19638D"/>
<stop offset="1" stop-color="#6BA0A2"/>
</linearGradient>
<linearGradient id="paint1_linear_558_495" x1="41.5133" y1="0.875916" x2="41.5133" y2="75.4161" gradientUnits="userSpaceOnUse">
<stop offset="0.0144231" stop-color="#85C1FF"/>
</linearGradient>
<linearGradient id="paint2_linear_558_495" x1="41.1054" y1="7.35767" x2="41.1054" y2="66.5037" gradientUnits="userSpaceOnUse">
<stop stop-color="#9CD5F9"/>
<stop offset="1" stop-color="#0B84CB"/>
</linearGradient>
</defs>
</svg>
