<svg width="83" height="75" viewBox="0 0 83 75" fill="none" xmlns="http://www.w3.org/2000/svg">
<g filter="url(#filter0_dii_560_504)">
<path d="M15.0569 74.5401H67.3411L82.3947 58.1418V16.3984L67.3411 0H15.0569L0 16.3984V58.1418L15.0569 74.5401Z" fill="url(#paint0_linear_560_504)" fill-opacity="0.8" shape-rendering="crispEdges"/>
<path d="M67.1211 0.5L81.8945 16.5918V57.9473L67.1211 74.04H15.2764L0.5 57.9473V16.5918L15.2764 0.5H67.1211Z" stroke="#48BBFF" shape-rendering="crispEdges"/>
</g>
<mask id="mask0_560_504" style="mask-type:alpha" maskUnits="userSpaceOnUse" x="6" y="5" width="70" height="60">
<path d="M19.049 64.8175H62.5328L75.0527 51.8057V18.6833L62.5328 5.67151H19.049L6.52637 18.6833V51.8057L19.049 64.8175Z" fill="#0F3653"/>
</mask>
<g mask="url(#mask0_560_504)">
<g filter="url(#filter1_i_560_504)">
<path d="M19.049 66.4379H62.5328L75.0527 53.0697V19.0398L62.5328 5.67151H19.049L6.52637 19.0398V53.0697L19.049 66.4379Z" fill="#0F3653" fill-opacity="0.67"/>
</g>
<path d="M62.3164 6.17151L74.5527 19.2369V52.8717L62.3164 65.9381H19.2656L7.02637 52.8717V19.2369L19.2656 6.17151H62.3164Z" stroke="#3180BF"/>
<mask id="mask1_560_504" style="mask-type:alpha" maskUnits="userSpaceOnUse" x="6" y="0" width="70" height="60">
<path d="M19.049 59.146H62.5328L75.0527 46.1342V13.0118L62.5328 0H19.049L6.52637 13.0118V46.1342L19.049 59.146Z" fill="#0F3653" fill-opacity="0.67"/>
</mask>
<g mask="url(#mask1_560_504)">
<g filter="url(#filter2_f_560_504)">
<path d="M14.241 75.3503H66.5252L81.5788 58.9519V17.2086L66.5252 0.810181H14.241L-0.815918 17.2086V58.9519L14.241 75.3503Z" fill="#96F5FF" fill-opacity="0.15"/>
</g>
</g>
</g>
<g filter="url(#filter3_d_560_504)">
<path d="M16.4941 49.65L44.6006 50.0868L44.7212 49.8641L61.7574 18.4356L33.6522 18L16.4941 49.65Z" stroke="#9DF3EF" stroke-miterlimit="10" shape-rendering="crispEdges"/>
</g>
<g filter="url(#filter4_d_560_504)">
<path d="M19.6543 53.7208L20.5173 53.7064L48.6237 54.142L65.7806 22.4909L65.5553 22.4872" stroke="#9DF3EF" stroke-miterlimit="10" shape-rendering="crispEdges"/>
</g>
<path d="M17.5702 47.6669C17.3067 48.0977 17.0395 48.6524 16.3058 49.804C15.3948 51.2323 16.5052 53.6594 19.8268 53.7268C20.744 53.7449 21.4605 53.7798 22.0071 53.7292" stroke="#9DF3EF" stroke-miterlimit="10"/>
<path d="M61.3809 18.5992L65.707 22.628" stroke="#9DF3EF" stroke-miterlimit="10"/>
<g filter="url(#filter5_d_560_504)">
<mask id="mask2_560_504" style="mask-type:luminance" maskUnits="userSpaceOnUse" x="31" y="26" width="17" height="13">
<path d="M41.897 26.5593C43.9739 26.627 45.5159 27.3402 46.3784 28.3581C47.2255 29.358 47.4756 30.7181 46.856 32.2536C46.2274 33.8107 44.8228 35.2374 43.0161 36.2614C41.2141 37.2827 39.0577 37.8769 36.9839 37.8093C34.907 37.7414 33.3658 37.0274 32.5034 36.0095C31.6564 35.0096 31.4062 33.6504 32.0259 32.1149C32.6544 30.5578 34.0582 29.1311 35.8647 28.1071C37.6668 27.0857 39.8231 26.4916 41.897 26.5593Z" fill="white" stroke="white"/>
</mask>
<g mask="url(#mask2_560_504)">
<mask id="path-13-inside-1_560_504" fill="white">
<path d="M43.7055 26.3282C43.1208 26.1489 42.3316 26.3198 42.2011 26.9984C42.1359 27.339 42.2885 27.6494 42.3378 27.9792C42.3636 28.1524 42.1494 28.2307 42.0201 28.3125C41.8724 28.4063 41.7234 28.499 41.5856 28.6073C41.3455 28.7938 41.1325 29.0441 41.0623 29.3437C41.0266 29.4929 41.0316 29.6422 41.0685 29.7902C41.087 29.8636 41.1177 29.9382 41.1177 30.0152C41.1177 30.1163 41.066 30.2101 41.0242 30.3004C40.7903 30.8106 40.6524 31.5398 41.0316 32.0223C41.2113 32.251 41.5006 32.346 41.7862 32.2666C42.1076 32.1776 42.3181 31.9225 42.5483 31.7047C42.7785 31.4869 43.0518 31.2763 43.3584 31.1547C43.6021 31.0573 43.9444 30.9791 44.1918 31.1078C44.4393 31.2366 44.379 31.5711 44.6264 31.7035C44.8936 31.8467 45.0955 31.6481 45.3269 31.5494C45.4291 31.5061 45.5054 31.5386 45.5535 31.6373C45.6224 31.7805 45.5473 31.9429 45.4759 32.0705C45.3158 32.3581 45.093 32.6324 45.1447 32.9802C45.1903 33.2846 45.4402 33.5133 45.7283 33.6119C46.0644 33.7275 46.4325 33.6324 46.7316 33.4639C47.325 33.1306 47.8827 32.4796 47.8052 31.7733C47.7805 31.5446 47.41 31.5422 47.4358 31.7733C47.4986 32.3436 47.0591 32.8454 46.5888 33.127C46.3537 33.2678 46.0594 33.3689 45.7923 33.2497C45.5251 33.1306 45.4488 32.8911 45.5682 32.636C45.6963 32.3629 45.9129 32.1367 45.945 31.825C45.9696 31.5867 45.8538 31.3292 45.6322 31.2161C45.3971 31.0958 45.178 31.2149 44.9724 31.3316C44.9047 31.3701 44.8357 31.4243 44.7754 31.3569C44.7015 31.2751 44.688 31.1319 44.6326 31.038C44.3507 30.5543 43.6292 30.653 43.1934 30.8335C42.9275 30.9442 42.6899 31.103 42.4707 31.2859C42.2516 31.4688 42.0522 31.7576 41.7801 31.8852C41.5388 31.9971 41.3369 31.8924 41.2421 31.6613C41.1362 31.405 41.1584 31.097 41.2224 30.8335C41.2901 30.5531 41.5018 30.2847 41.4858 29.9911C41.4785 29.8491 41.412 29.718 41.4058 29.576C41.3997 29.434 41.4575 29.3004 41.5339 29.1837C41.7198 28.8997 42.0411 28.7361 42.3205 28.5544C42.4535 28.4677 42.6135 28.3763 42.68 28.227C42.7465 28.0778 42.7034 27.9094 42.6677 27.7577C42.5951 27.4557 42.4437 27.0887 42.6911 26.8252C42.9386 26.5616 43.3005 26.5833 43.6095 26.6784C43.8373 26.7482 43.9345 26.4004 43.708 26.3306L43.7055 26.3282Z"/>
</mask>
<path d="M43.7055 26.3282C43.1208 26.1489 42.3316 26.3198 42.2011 26.9984C42.1359 27.339 42.2885 27.6494 42.3378 27.9792C42.3636 28.1524 42.1494 28.2307 42.0201 28.3125C41.8724 28.4063 41.7234 28.499 41.5856 28.6073C41.3455 28.7938 41.1325 29.0441 41.0623 29.3437C41.0266 29.4929 41.0316 29.6422 41.0685 29.7902C41.087 29.8636 41.1177 29.9382 41.1177 30.0152C41.1177 30.1163 41.066 30.2101 41.0242 30.3004C40.7903 30.8106 40.6524 31.5398 41.0316 32.0223C41.2113 32.251 41.5006 32.346 41.7862 32.2666C42.1076 32.1776 42.3181 31.9225 42.5483 31.7047C42.7785 31.4869 43.0518 31.2763 43.3584 31.1547C43.6021 31.0573 43.9444 30.9791 44.1918 31.1078C44.4393 31.2366 44.379 31.5711 44.6264 31.7035C44.8936 31.8467 45.0955 31.6481 45.3269 31.5494C45.4291 31.5061 45.5054 31.5386 45.5535 31.6373C45.6224 31.7805 45.5473 31.9429 45.4759 32.0705C45.3158 32.3581 45.093 32.6324 45.1447 32.9802C45.1903 33.2846 45.4402 33.5133 45.7283 33.6119C46.0644 33.7275 46.4325 33.6324 46.7316 33.4639C47.325 33.1306 47.8827 32.4796 47.8052 31.7733C47.7805 31.5446 47.41 31.5422 47.4358 31.7733C47.4986 32.3436 47.0591 32.8454 46.5888 33.127C46.3537 33.2678 46.0594 33.3689 45.7923 33.2497C45.5251 33.1306 45.4488 32.8911 45.5682 32.636C45.6963 32.3629 45.9129 32.1367 45.945 31.825C45.9696 31.5867 45.8538 31.3292 45.6322 31.2161C45.3971 31.0958 45.178 31.2149 44.9724 31.3316C44.9047 31.3701 44.8357 31.4243 44.7754 31.3569C44.7015 31.2751 44.688 31.1319 44.6326 31.038C44.3507 30.5543 43.6292 30.653 43.1934 30.8335C42.9275 30.9442 42.6899 31.103 42.4707 31.2859C42.2516 31.4688 42.0522 31.7576 41.7801 31.8852C41.5388 31.9971 41.3369 31.8924 41.2421 31.6613C41.1362 31.405 41.1584 31.097 41.2224 30.8335C41.2901 30.5531 41.5018 30.2847 41.4858 29.9911C41.4785 29.8491 41.412 29.718 41.4058 29.576C41.3997 29.434 41.4575 29.3004 41.5339 29.1837C41.7198 28.8997 42.0411 28.7361 42.3205 28.5544C42.4535 28.4677 42.6135 28.3763 42.68 28.227C42.7465 28.0778 42.7034 27.9094 42.6677 27.7577C42.5951 27.4557 42.4437 27.0887 42.6911 26.8252C42.9386 26.5616 43.3005 26.5833 43.6095 26.6784C43.8373 26.7482 43.9345 26.4004 43.708 26.3306L43.7055 26.3282Z" fill="#F2F2F2"/>
<path d="M43.7055 26.3282L44.4045 25.6131L44.2309 25.4433L43.9987 25.3721L43.7055 26.3282ZM42.2011 26.9984L41.2191 26.8096L41.219 26.8103L42.2011 26.9984ZM42.3378 27.9792L43.3268 27.8316L43.3268 27.8314L42.3378 27.9792ZM42.0201 28.3125L41.4853 27.4675L41.4839 27.4684L42.0201 28.3125ZM41.5856 28.6073L42.1991 29.397L42.2032 29.3937L41.5856 28.6073ZM41.0623 29.3437L42.0349 29.5764L42.036 29.5718L41.0623 29.3437ZM41.0685 29.7902L40.0982 30.0323L40.0987 30.0341L41.0685 29.7902ZM41.0242 30.3004L40.117 29.8796L40.1152 29.8836L41.0242 30.3004ZM41.0316 32.0223L40.2453 32.6402L40.2454 32.6404L41.0316 32.0223ZM41.7862 32.2666L41.5192 31.3029L41.5183 31.3032L41.7862 32.2666ZM43.3584 31.1547L43.7269 32.0844L43.7296 32.0833L43.3584 31.1547ZM44.6264 31.7035L45.0988 30.8221L45.0981 30.8217L44.6264 31.7035ZM45.3269 31.5494L44.9366 30.6288L44.9348 30.6295L45.3269 31.5494ZM45.5535 31.6373L46.4545 31.2035L46.4527 31.1997L45.5535 31.6373ZM45.4759 32.0705L44.6033 31.582L44.6021 31.5842L45.4759 32.0705ZM45.1447 32.9802L44.1556 33.1273L44.1557 33.1282L45.1447 32.9802ZM45.7283 33.6119L46.0533 32.6662L46.0523 32.6659L45.7283 33.6119ZM46.7316 33.4639L46.2419 32.5921L46.241 32.5926L46.7316 33.4639ZM47.8052 31.7733L46.8109 31.8803L46.8111 31.8824L47.8052 31.7733ZM47.4358 31.7733L48.4298 31.6638L48.4296 31.662L47.4358 31.7733ZM45.5682 32.636L44.6628 32.2116L44.6625 32.2121L45.5682 32.636ZM45.945 31.825L44.9502 31.7222L44.9502 31.7228L45.945 31.825ZM45.6322 31.2161L45.1767 32.1063L45.1776 32.1068L45.6322 31.2161ZM44.9724 31.3316L44.4787 30.462L44.478 30.4624L44.9724 31.3316ZM44.7754 31.3569L45.5205 30.6899L45.5177 30.6868L44.7754 31.3569ZM44.6326 31.038L43.7686 31.5416L43.7714 31.5463L44.6326 31.038ZM43.1934 30.8335L42.8108 29.9096L42.8091 29.9103L43.1934 30.8335ZM41.7801 31.8852L42.2008 32.7924L42.2046 32.7906L41.7801 31.8852ZM41.2421 31.6613L42.1672 31.2818L42.1663 31.2796L41.2421 31.6613ZM41.2224 30.8335L42.1941 31.0695L42.1944 31.0682L41.2224 30.8335ZM41.4858 29.9911L40.4872 30.0431L40.4873 30.0456L41.4858 29.9911ZM41.5339 29.1837L40.6972 28.636L40.6969 28.6364L41.5339 29.1837ZM42.3205 28.5544L42.8656 29.3927L42.8665 29.3922L42.3205 28.5544ZM42.6677 27.7577L43.6411 27.5285L43.64 27.5239L42.6677 27.7577ZM43.6095 26.6784L43.3155 27.6342L43.3165 27.6345L43.6095 26.6784ZM43.708 26.3306L43.009 27.0457L43.1822 27.215L43.4136 27.2863L43.708 26.3306ZM43.7055 26.3282L43.9987 25.3721C43.5226 25.2262 42.9535 25.2139 42.4387 25.4027C41.8923 25.6031 41.3635 26.0585 41.2191 26.8096L42.2011 26.9984L43.1831 27.1873C43.1803 27.2021 43.1673 27.2354 43.1399 27.2647C43.1172 27.289 43.1056 27.2884 43.1273 27.2804C43.1499 27.2721 43.1922 27.2623 43.251 27.2618C43.3094 27.2613 43.3664 27.2701 43.4124 27.2843L43.7055 26.3282ZM42.2011 26.9984L41.219 26.8103C41.1481 27.1801 41.2036 27.5011 41.2507 27.7115C41.3143 27.9954 41.3296 27.9984 41.3487 28.1269L42.3378 27.9792L43.3268 27.8314C43.3072 27.7001 43.2789 27.5813 43.2566 27.492C43.2304 27.3872 43.2169 27.3392 43.2023 27.2742C43.1771 27.1618 43.1889 27.1573 43.1833 27.1866L42.2011 26.9984ZM42.3378 27.9792L41.3487 28.1267C41.3206 27.9385 41.3613 27.7533 41.4447 27.6043C41.5165 27.476 41.601 27.408 41.6252 27.3892C41.6507 27.3695 41.6641 27.3636 41.6333 27.3812C41.6264 27.3851 41.544 27.4304 41.4853 27.4675L42.0201 28.3125L42.555 29.1574C42.5506 29.1602 42.5516 29.1594 42.5652 29.1516C42.5718 29.1479 42.5786 29.1441 42.5888 29.1384C42.5981 29.1332 42.6101 29.1265 42.6226 29.1193C42.6675 29.0938 42.7571 29.0422 42.8491 28.971C43.0282 28.8324 43.4192 28.4505 43.3268 27.8316L42.3378 27.9792ZM42.0201 28.3125L41.4839 27.4684C41.3516 27.5525 41.1539 27.6748 40.9679 27.8209L41.5856 28.6073L42.2032 29.3937C42.293 29.3232 42.3933 29.2602 42.5564 29.1565L42.0201 28.3125ZM41.5856 28.6073L40.972 27.8176C40.6381 28.077 40.2316 28.5054 40.0887 29.1157L41.0623 29.3437L42.036 29.5718C42.0337 29.5813 42.0346 29.5674 42.0617 29.5311C42.0894 29.494 42.1346 29.4471 42.1991 29.397L41.5856 28.6073ZM41.0623 29.3437L40.0898 29.111C40.0125 29.4343 40.0271 29.7473 40.0982 30.0323L41.0685 29.7902L42.0387 29.5481C42.0369 29.5408 42.0379 29.5415 42.038 29.5488C42.0381 29.5566 42.0373 29.5665 42.0349 29.5764L41.0623 29.3437ZM41.0685 29.7902L40.0987 30.0341C40.1041 30.0555 40.1093 30.0746 40.1137 30.0902C40.1181 30.1054 40.1222 30.1195 40.1251 30.1293C40.1269 30.1353 40.1277 30.1381 40.1291 30.1428C40.1303 30.1467 40.1312 30.1498 40.1319 30.1524C40.1334 30.1576 40.1339 30.1595 40.1339 30.1594C40.1338 30.1591 40.1329 30.1557 40.1316 30.1498C40.1303 30.1439 40.1283 30.1347 40.1263 30.1229C40.1224 30.0994 40.1177 30.0623 40.1177 30.0152H41.1177H42.1177C42.1177 29.8485 42.0848 29.7129 42.0662 29.6433C42.0569 29.6085 42.0467 29.5746 42.0428 29.5616C42.0373 29.5428 42.0373 29.5423 42.0383 29.5462L41.0685 29.7902ZM41.1177 30.0152H40.1177C40.1177 29.8966 40.1479 29.8169 40.1529 29.804C40.1558 29.7963 40.1564 29.7958 40.1498 29.8101C40.1465 29.8172 40.1429 29.8248 40.1371 29.837C40.1319 29.8479 40.1245 29.8634 40.117 29.8796L41.0242 30.3004L41.9313 30.7211C41.9318 30.7203 41.986 30.6096 42.0204 30.5197C42.0617 30.412 42.1177 30.2349 42.1177 30.0152H41.1177ZM41.0242 30.3004L40.1152 29.8836C39.9591 30.224 39.8239 30.6579 39.7994 31.1186C39.7748 31.5799 39.8597 32.1495 40.2453 32.6402L41.0316 32.0223L41.8178 31.4045C41.8177 31.4043 41.8168 31.4032 41.8151 31.3997C41.8133 31.396 41.81 31.3881 41.8066 31.3746C41.7993 31.3462 41.7927 31.2974 41.7965 31.2249C41.8046 31.0728 41.8553 30.887 41.9332 30.7171L41.0242 30.3004ZM41.0316 32.0223L40.2454 32.6404C40.677 33.1893 41.3834 33.4166 42.0541 33.2301L41.7862 32.2666L41.5183 31.3032C41.5612 31.2913 41.6182 31.2895 41.6783 31.309C41.7383 31.3285 41.7864 31.3645 41.8177 31.4043L41.0316 32.0223ZM41.7862 32.2666L42.0533 33.2303C42.4021 33.1336 42.6616 32.9534 42.8447 32.7996C42.9913 32.6764 43.187 32.477 43.2355 32.4311L42.5483 31.7047L41.861 30.9782C41.7957 31.04 41.7203 31.1156 41.6777 31.1573C41.6257 31.2082 41.5894 31.2421 41.5582 31.2683C41.4981 31.3188 41.4917 31.3106 41.5192 31.3029L41.7862 32.2666ZM42.5483 31.7047L43.2355 32.4311C43.4223 32.2544 43.5882 32.1394 43.7269 32.0844L43.3584 31.1547L42.9898 30.2251C42.5155 30.4132 42.1347 30.7194 41.861 30.9782L42.5483 31.7047ZM43.3584 31.1547L43.7296 32.0833C43.7593 32.0714 43.7896 32.0611 43.8181 32.0534C43.8471 32.0455 43.8679 32.0421 43.8796 32.0408C43.8919 32.0395 43.8847 32.0417 43.8617 32.0387C43.8378 32.0355 43.7895 32.0257 43.7303 31.9949L44.1918 31.1078L44.6534 30.2207C44.2917 30.0325 43.9245 30.0247 43.6679 30.0521C43.4035 30.0802 43.1653 30.155 42.9871 30.2262L43.3584 31.1547ZM44.1918 31.1078L43.7303 31.9949C43.6055 31.93 43.5273 31.8384 43.4873 31.7759C43.461 31.735 43.4517 31.7037 43.4814 31.7776C43.5088 31.8456 43.6651 32.3233 44.1548 32.5852L44.6264 31.7035L45.0981 30.8217C45.3403 30.9512 45.4031 31.1955 45.3369 31.031C45.3092 30.9624 45.1511 30.4797 44.6534 30.2207L44.1918 31.1078ZM44.6264 31.7035L44.154 32.5848C44.3601 32.6953 44.5845 32.7538 44.8163 32.7537C45.0388 32.7536 45.2233 32.6996 45.354 32.6486C45.4771 32.6005 45.5846 32.5413 45.635 32.5138C45.6673 32.4963 45.6841 32.4871 45.701 32.4783C45.7161 32.4705 45.7208 32.4686 45.7191 32.4693L45.3269 31.5494L44.9348 30.6295C44.8752 30.6549 44.8229 30.6808 44.7817 30.7022C44.7422 30.7226 44.7032 30.744 44.6798 30.7567C44.6521 30.7718 44.6375 30.7795 44.6263 30.7851C44.6159 30.7903 44.6171 30.7892 44.6261 30.7857C44.644 30.7787 44.7135 30.7537 44.8157 30.7537C44.8673 30.7537 44.9202 30.76 44.972 30.7733C45.0234 30.7865 45.066 30.8045 45.0988 30.8221L44.6264 31.7035ZM45.3269 31.5494L45.7172 32.4701C45.6055 32.5175 45.3678 32.5793 45.0913 32.4694C44.8231 32.3629 44.6985 32.1657 44.6543 32.0748L45.5535 31.6373L46.4527 31.1997C46.3604 31.0102 46.1737 30.7474 45.8298 30.6108C45.4775 30.4708 45.1505 30.5381 44.9366 30.6288L45.3269 31.5494ZM45.5535 31.6373L44.6524 32.0711C44.552 31.8624 44.5811 31.6796 44.5986 31.6115C44.6132 31.5545 44.6304 31.5336 44.6033 31.582L45.4759 32.0705L46.3485 32.559C46.3928 32.4798 46.4832 32.3139 46.536 32.108C46.5916 31.8909 46.6239 31.5553 46.4545 31.2035L45.5535 31.6373ZM45.4759 32.0705L44.6021 31.5842C44.5714 31.6394 44.5443 31.6823 44.4899 31.7738C44.4436 31.8517 44.3815 31.9585 44.3251 32.079C44.2087 32.3278 44.0905 32.6891 44.1556 33.1273L45.1447 32.9802L46.1339 32.8331C46.1473 32.9235 46.1146 32.9737 46.1367 32.9266C46.1495 32.8991 46.17 32.8615 46.2088 32.7963C46.2395 32.7446 46.3004 32.6453 46.3497 32.5567L45.4759 32.0705ZM45.1447 32.9802L44.1557 33.1282C44.2727 33.9102 44.8801 34.3784 45.4042 34.558L45.7283 33.6119L46.0523 32.6659C46.0432 32.6628 46.0481 32.6612 46.0638 32.6774C46.0826 32.6969 46.1212 32.7486 46.1337 32.8322L45.1447 32.9802ZM45.7283 33.6119L45.4032 34.5576C46.1151 34.8023 46.792 34.5776 47.2223 34.3353L46.7316 33.4639L46.241 32.5926C46.1701 32.6325 46.1096 32.6526 46.0693 32.6598C46.0317 32.6664 46.0316 32.6588 46.0533 32.6662L45.7283 33.6119ZM46.7316 33.4639L47.2214 34.3358C47.6336 34.1043 48.0405 33.7608 48.3406 33.3301C48.6418 32.8977 48.8713 32.3205 48.7992 31.6641L47.8052 31.7733L46.8111 31.8824C46.8166 31.9324 46.8061 32.0339 46.6995 32.1869C46.5917 32.3416 46.4231 32.4903 46.2419 32.5921L46.7316 33.4639ZM47.8052 31.7733L48.7994 31.6662C48.7174 30.9048 48.052 30.6023 47.6048 30.6009C47.3672 30.6001 47.0615 30.6713 46.8057 30.9045C46.5183 31.1663 46.4029 31.5348 46.442 31.8845L47.4358 31.7733L48.4296 31.662C48.4558 31.8962 48.377 32.1784 48.1527 32.3828C47.9598 32.5586 47.7434 32.6013 47.5983 32.6009C47.3362 32.6 46.8683 32.4131 46.8109 31.8803L47.8052 31.7733ZM47.4358 31.7733L46.4418 31.8827C46.4419 31.8828 46.4418 31.8827 46.4418 31.8826C46.4418 31.8826 46.4418 31.8828 46.4418 31.8835C46.4417 31.8848 46.4411 31.8891 46.4387 31.8969C46.4338 31.9134 46.4209 31.9447 46.3904 31.9886C46.3255 32.0822 46.2128 32.1866 46.0751 32.269L46.5888 33.127L47.1025 33.985C47.689 33.6339 48.5577 32.8251 48.4298 31.6638L47.4358 31.7733ZM46.5888 33.127L46.0751 32.269C46.0492 32.2846 46.0283 32.2949 46.0133 32.3013C45.9979 32.3078 45.9942 32.3078 46.0016 32.3062C46.0093 32.3047 46.0334 32.3006 46.0699 32.3033C46.1083 32.3062 46.1537 32.316 46.1996 32.3364L45.7923 33.2497L45.385 34.163C46.1179 34.4898 46.7958 34.1686 47.1025 33.985L46.5888 33.127ZM45.7923 33.2497L46.1996 32.3364C46.2663 32.3662 46.4079 32.4613 46.4785 32.6618C46.5466 32.8551 46.4991 33.0062 46.4739 33.06L45.5682 32.636L44.6625 32.2121C44.5179 32.521 44.4489 32.9194 44.5921 33.326C44.7377 33.7398 45.0512 34.0142 45.385 34.163L45.7923 33.2497ZM45.5682 32.636L46.4737 33.0605C46.5181 32.9657 46.5261 32.9766 46.6606 32.7415C46.7593 32.5689 46.9025 32.2899 46.9397 31.9272L45.945 31.825L44.9502 31.7228C44.9554 31.6718 44.9742 31.6617 44.9246 31.7484C44.8942 31.8015 44.8734 31.8332 44.8198 31.9222C44.7757 31.9956 44.717 32.096 44.6628 32.2116L45.5682 32.636ZM45.945 31.825L46.9397 31.9278C47.0001 31.3426 46.7306 30.654 46.0869 30.3254L45.6322 31.2161L45.1776 32.1068C45.0741 32.054 45.0143 31.9771 44.9845 31.9169C44.956 31.8592 44.9428 31.7941 44.9502 31.7222L45.945 31.825ZM45.6322 31.2161L46.0878 30.3259C45.3046 29.9251 44.5954 30.3957 44.4787 30.462L44.9724 31.3316L45.4661 32.2013C45.5184 32.1716 45.5446 32.1573 45.5646 32.1476C45.5832 32.1386 45.5755 32.1441 45.5491 32.1511C45.5203 32.1588 45.4643 32.1697 45.3899 32.1646C45.3118 32.1592 45.2381 32.1378 45.1767 32.1063L45.6322 31.2161ZM44.9724 31.3316L44.478 30.4624C44.4596 30.4728 44.4418 30.4835 44.4366 30.4866C44.4278 30.4918 44.4298 30.4905 44.4345 30.4879C44.4385 30.4857 44.4967 30.4521 44.5849 30.4258C44.68 30.3974 44.849 30.3654 45.053 30.4138C45.267 30.4646 45.4226 30.5806 45.5205 30.6899L44.7754 31.3569L44.0303 32.0239C44.1583 32.1669 44.3452 32.3014 44.5912 32.3598C44.8272 32.4158 45.029 32.3805 45.1573 32.3422C45.2787 32.3059 45.3707 32.2558 45.4085 32.2347C45.4301 32.2227 45.4491 32.2113 45.4573 32.2065C45.469 32.1996 45.4682 32.2001 45.4667 32.2009L44.9724 31.3316ZM44.7754 31.3569L45.5177 30.6868C45.5847 30.7611 45.6194 30.828 45.6332 30.8572C45.6464 30.8851 45.651 30.9013 45.6443 30.8815C45.6402 30.8694 45.639 30.8655 45.6315 30.8428C45.6257 30.8255 45.6172 30.8001 45.6069 30.7722C45.5877 30.7197 45.5522 30.6287 45.4938 30.5297L44.6326 31.038L43.7714 31.5463C43.7549 31.5184 43.7442 31.4958 43.7381 31.4822C43.7321 31.4687 43.729 31.4601 43.7288 31.4597C43.7288 31.4596 43.73 31.4628 43.7338 31.4744C43.7358 31.4805 43.7441 31.5057 43.7498 31.5225C43.7626 31.5604 43.7879 31.6337 43.8262 31.7144C43.8651 31.7963 43.9291 31.9118 44.0331 32.027L44.7754 31.3569ZM44.6326 31.038L45.4966 30.5345C45.1222 29.8922 44.4801 29.7104 44.0197 29.6878C43.5655 29.6656 43.127 29.7786 42.8108 29.9096L43.1934 30.8335L43.576 31.7574C43.6274 31.7361 43.6928 31.7152 43.7615 31.7012C43.8313 31.6871 43.8864 31.6837 43.9217 31.6855C43.9587 31.6873 43.9478 31.6931 43.9097 31.6744C43.8616 31.6508 43.8054 31.6047 43.7686 31.5416L44.6326 31.038ZM43.1934 30.8335L42.8091 29.9103C42.4251 30.0701 42.102 30.2911 41.83 30.5182L42.4707 31.2859L43.1115 32.0536C43.2778 31.9149 43.4299 31.8182 43.5777 31.7566L43.1934 30.8335ZM42.4707 31.2859L41.83 30.5182C41.7364 30.5963 41.6552 30.6769 41.5949 30.7384C41.5178 30.817 41.4944 30.8431 41.439 30.8984C41.3435 30.9936 41.3269 30.9932 41.3556 30.9797L41.7801 31.8852L42.2046 32.7906C42.5053 32.6496 42.7245 32.441 42.8516 32.3142C43.0259 32.1403 43.0461 32.1082 43.1115 32.0536L42.4707 31.2859ZM41.7801 31.8852L41.3593 30.978C41.453 30.9345 41.6466 30.8923 41.8619 30.9879C42.0605 31.076 42.1426 31.2217 42.1672 31.2818L41.2421 31.6613L40.3169 32.0409C40.4364 32.332 40.6668 32.6456 41.0503 32.8158C41.4506 32.9935 41.8658 32.9477 42.2008 32.7923L41.7801 31.8852ZM41.2421 31.6613L42.1663 31.2796C42.176 31.303 42.1684 31.2992 42.1685 31.2523C42.1686 31.2064 42.1761 31.1436 42.1941 31.0695L41.2224 30.8335L40.2506 30.5974C40.1659 30.9463 40.094 31.5013 40.3178 32.0431L41.2421 31.6613ZM41.2224 30.8335L42.1944 31.0682C42.193 31.0742 42.1955 31.0616 42.216 31.0129C42.2259 30.9893 42.2373 30.9637 42.2529 30.9287C42.2672 30.8967 42.2863 30.8541 42.3049 30.8106C42.3723 30.653 42.5058 30.3298 42.4844 29.9367L41.4858 29.9911L40.4873 30.0456C40.4819 29.9461 40.5175 29.9039 40.4661 30.0239C40.455 30.0499 40.4431 30.0764 40.4266 30.1136C40.4113 30.1477 40.3919 30.1912 40.3727 30.2368C40.335 30.3265 40.2856 30.4525 40.2503 30.5987L41.2224 30.8335ZM41.4858 29.9911L42.4845 29.9392C42.4791 29.8348 42.4635 29.745 42.449 29.6774C42.4353 29.6132 42.419 29.5534 42.4112 29.5245C42.4065 29.5068 42.4037 29.4964 42.4014 29.4872C42.3993 29.4788 42.3986 29.4757 42.3987 29.476C42.3987 29.4762 42.4034 29.4978 42.4049 29.5327L41.4058 29.576L40.4068 29.6193C40.4153 29.8174 40.4654 29.9901 40.4795 30.0426C40.4901 30.0819 40.4921 30.0905 40.4932 30.0953C40.4934 30.0966 40.4889 30.0764 40.4872 30.0431L41.4858 29.9911ZM41.4058 29.576L42.4049 29.5327C42.4084 29.6127 42.3927 29.6725 42.3817 29.7037C42.3714 29.7327 42.3633 29.7424 42.3708 29.731L41.5339 29.1837L40.6969 28.6364C40.5673 28.8346 40.3877 29.179 40.4068 29.6193L41.4058 29.576ZM41.5339 29.1837L42.3705 29.7314C42.3681 29.7352 42.3847 29.7078 42.4741 29.6439C42.5178 29.6126 42.5691 29.5793 42.6369 29.5367C42.6962 29.4996 42.7866 29.4441 42.8656 29.3927L42.3205 28.5544L41.7754 27.716C41.7048 27.7619 41.4661 27.9058 41.3101 28.0175C41.1225 28.1517 40.8855 28.3482 40.6972 28.636L41.5339 29.1837ZM42.3205 28.5544L42.8665 29.3922C42.8959 29.373 43.0363 29.2866 43.1528 29.1927C43.2801 29.0901 43.47 28.9112 43.5935 28.634L42.68 28.227L41.7666 27.8201C41.7956 27.755 41.8296 27.7082 41.8545 27.6791C41.8785 27.651 41.8963 27.6367 41.8977 27.6356C41.8988 27.6347 41.8924 27.6399 41.8699 27.6548C41.8591 27.662 41.8468 27.67 41.8304 27.6805C41.816 27.6898 41.7945 27.7036 41.7746 27.7165L42.3205 28.5544ZM42.68 28.227L43.5935 28.634C43.8242 28.1162 43.6534 27.581 43.6411 27.5285L42.6677 27.7577L41.6943 27.987C41.7051 28.0325 41.7099 28.0528 41.7141 28.0733C41.7177 28.0912 41.7169 28.091 41.7159 28.0798C41.7141 28.0585 41.7076 27.9524 41.7666 27.8201L42.68 28.227ZM42.6677 27.7577L43.64 27.5239C43.6275 27.4719 43.614 27.4216 43.6034 27.3821C43.5918 27.3389 43.5833 27.3076 43.5752 27.2758C43.5589 27.2114 43.5552 27.1858 43.5546 27.179C43.5541 27.174 43.5595 27.2175 43.5417 27.2872C43.5325 27.3233 43.5177 27.3635 43.4955 27.4045C43.4733 27.4457 43.4471 27.481 43.4201 27.5097L42.6911 26.8252L41.9621 26.1406C41.5698 26.5584 41.532 27.0484 41.5642 27.3751C41.5891 27.6276 41.6887 27.9636 41.6954 27.9916L42.6677 27.7577ZM42.6911 26.8252L43.4201 27.5097C43.3915 27.5402 43.3533 27.568 43.3104 27.5876C43.2697 27.6061 43.2381 27.6112 43.2245 27.6126C43.2121 27.6138 43.2139 27.612 43.2329 27.6146C43.2517 27.6172 43.2793 27.623 43.3155 27.6342L43.6095 26.6784L43.9036 25.7226C43.5031 25.5994 42.6216 25.4383 41.9621 26.1406L42.6911 26.8252ZM43.6095 26.6784L43.3165 27.6345C43.6368 27.7326 43.9907 27.6968 44.2889 27.5075C44.5639 27.3329 44.7229 27.0725 44.7917 26.8277C44.8608 26.5824 44.8586 26.2862 44.7273 26.0032C44.5859 25.6985 44.3229 25.4737 44.0025 25.3749L43.708 26.3306L43.4136 27.2863C43.2064 27.2224 43.0162 27.0673 42.9131 26.8451C42.8202 26.6449 42.8219 26.4443 42.8665 26.2859C42.9109 26.1281 43.017 25.9459 43.2168 25.8191C43.4398 25.6775 43.6961 25.659 43.9025 25.7222L43.6095 26.6784ZM43.708 26.3306L44.407 25.6155L44.4045 25.6131L43.7055 26.3282L43.0066 27.0433L43.009 27.0457L43.708 26.3306Z" fill="#9DF3EF" mask="url(#path-13-inside-1_560_504)"/>
<mask id="path-15-inside-2_560_504" fill="white">
<path d="M45.1915 34.9067C44.4233 34.5818 43.6403 34.2653 42.7872 34.2798C42.0251 34.293 41.2594 34.5325 40.6401 34.9681C40.3459 35.1763 40.0959 35.4326 39.8189 35.6612C39.6934 35.7647 39.5592 35.8609 39.4102 35.9319C39.2391 36.0138 39.0643 36.021 38.8808 36.0559C38.5374 36.1209 38.2924 36.5119 38.237 36.8332C38.1754 37.1882 38.4093 37.477 38.6962 37.6635C39.4201 38.134 40.4567 38.1617 41.2298 37.8103C41.4453 37.7129 41.2581 37.4012 41.0439 37.4987C40.4247 37.7791 39.6466 37.7381 39.0397 37.4397C38.7984 37.3206 38.5127 37.1112 38.6223 36.8128C38.6654 36.6949 38.7651 36.4831 38.8858 36.4265C39.0212 36.3639 39.2022 36.3856 39.3474 36.3423C39.9531 36.1618 40.3311 35.6299 40.826 35.2797C41.3529 34.9079 41.9882 34.6841 42.637 34.6456C43.4778 34.5962 44.2473 34.8971 45.0044 35.2184C45.2199 35.3098 45.4082 34.9994 45.1903 34.9067H45.1915Z"/>
</mask>
<path d="M45.1915 34.9067C44.4233 34.5818 43.6403 34.2653 42.7872 34.2798C42.0251 34.293 41.2594 34.5325 40.6401 34.9681C40.3459 35.1763 40.0959 35.4326 39.8189 35.6612C39.6934 35.7647 39.5592 35.8609 39.4102 35.9319C39.2391 36.0138 39.0643 36.021 38.8808 36.0559C38.5374 36.1209 38.2924 36.5119 38.237 36.8332C38.1754 37.1882 38.4093 37.477 38.6962 37.6635C39.4201 38.134 40.4567 38.1617 41.2298 37.8103C41.4453 37.7129 41.2581 37.4012 41.0439 37.4987C40.4247 37.7791 39.6466 37.7381 39.0397 37.4397C38.7984 37.3206 38.5127 37.1112 38.6223 36.8128C38.6654 36.6949 38.7651 36.4831 38.8858 36.4265C39.0212 36.3639 39.2022 36.3856 39.3474 36.3423C39.9531 36.1618 40.3311 35.6299 40.826 35.2797C41.3529 34.9079 41.9882 34.6841 42.637 34.6456C43.4778 34.5962 44.2473 34.8971 45.0044 35.2184C45.2199 35.3098 45.4082 34.9994 45.1903 34.9067H45.1915Z" fill="#F2F2F2"/>
<path d="M45.1915 34.9067V35.9067L45.5811 33.9857L45.1915 34.9067ZM42.7872 34.2798L42.7703 33.2799L42.7698 33.2799L42.7872 34.2798ZM40.6401 34.9681L40.0648 34.1502L40.0625 34.1517L40.6401 34.9681ZM39.8189 35.6612L40.4549 36.4329L40.4555 36.4324L39.8189 35.6612ZM39.4102 35.9319L38.98 35.0292L38.9788 35.0298L39.4102 35.9319ZM38.8808 36.0559L39.0667 37.0385L39.0677 37.0383L38.8808 36.0559ZM38.237 36.8332L39.2223 37.0041L39.2224 37.0032L38.237 36.8332ZM38.6962 37.6635L38.1511 38.5019L38.1512 38.502L38.6962 37.6635ZM41.2298 37.8103L40.8176 36.8992L40.8161 36.8999L41.2298 37.8103ZM41.0439 37.4987L41.4564 38.4097L41.4581 38.4089L41.0439 37.4987ZM39.0397 37.4397L38.597 38.3364L38.5984 38.3371L39.0397 37.4397ZM38.6223 36.8128L39.561 37.1574L39.5616 37.156L38.6223 36.8128ZM38.8858 36.4265L38.4663 35.5187L38.4613 35.5211L38.8858 36.4265ZM39.3474 36.3423L39.0618 35.3839L39.0617 35.384L39.3474 36.3423ZM40.826 35.2797L40.2494 34.4627L40.2484 34.4634L40.826 35.2797ZM42.637 34.6456L42.5784 33.6473L42.5777 33.6473L42.637 34.6456ZM45.0044 35.2184L45.3952 34.2979L45.3951 34.2978L45.0044 35.2184ZM45.1903 34.9067V33.9067L44.799 35.827L45.1903 34.9067ZM45.1915 34.9067L45.5811 33.9857C44.8323 33.669 43.864 33.2614 42.7703 33.2799L42.7872 34.2798L42.8041 35.2796C43.4167 35.2693 44.0144 35.4946 44.802 35.8277L45.1915 34.9067ZM42.7872 34.2798L42.7698 33.2799C41.8174 33.2965 40.8553 33.594 40.0648 34.1502L40.6401 34.9681L41.2155 35.786C41.6634 35.4709 42.2328 35.2896 42.8045 35.2796L42.7872 34.2798ZM40.6401 34.9681L40.0625 34.1517C39.8693 34.2885 39.7001 34.4342 39.5597 34.5586C39.4073 34.6938 39.3028 34.7906 39.1824 34.89L39.8189 35.6612L40.4555 36.4324C40.6121 36.3032 40.7711 36.1575 40.8864 36.0553C41.0138 35.9424 41.1167 35.8559 41.2177 35.7844L40.6401 34.9681ZM39.8189 35.6612L39.183 34.8895C39.0888 34.9671 39.0257 35.0074 38.98 35.0292L39.4102 35.9319L39.8405 36.8347C40.0926 36.7145 40.298 36.5622 40.4549 36.4329L39.8189 35.6612ZM39.4102 35.9319L38.9788 35.0298C39.0037 35.0179 39.0122 35.02 38.967 35.0284C38.942 35.0331 38.9146 35.0373 38.8657 35.0448C38.8222 35.0515 38.76 35.0609 38.694 35.0735L38.8808 36.0559L39.0677 37.0383C39.0934 37.0334 39.1218 37.0289 39.1681 37.0218C39.2089 37.0156 39.2702 37.0063 39.3333 36.9946C39.4642 36.9702 39.6456 36.9278 39.8416 36.8341L39.4102 35.9319ZM38.8808 36.0559L38.695 35.0733C38.2026 35.1665 37.8599 35.4737 37.655 35.743C37.4471 36.0162 37.3066 36.3436 37.2515 36.6633L38.237 36.8332L39.2224 37.0032C39.2215 37.0083 39.2225 37.0006 39.2293 36.985C39.2359 36.97 39.243 36.9589 39.2467 36.9539C39.251 36.9484 39.244 36.9595 39.2191 36.9771C39.1928 36.9956 39.1416 37.0243 39.0667 37.0385L38.8808 36.0559ZM38.237 36.8332L37.2517 36.6624C37.087 37.6117 37.7408 38.2351 38.1511 38.5019L38.6962 37.6635L39.2413 36.8252C39.2155 36.8084 39.1977 36.7937 39.1873 36.7836C39.1766 36.7734 39.1786 36.7729 39.1861 36.785C39.1941 36.798 39.209 36.8265 39.2186 36.8696C39.2286 36.9148 39.2296 36.9619 39.2223 37.0041L38.237 36.8332ZM38.6962 37.6635L38.1512 38.502C39.1939 39.1797 40.5964 39.1966 41.6436 38.7207L41.2298 37.8103L40.8161 36.8999C40.3169 37.1268 39.6463 37.0884 39.2411 36.8251L38.6962 37.6635ZM41.2298 37.8103L41.642 38.7214C41.9503 38.582 42.211 38.3066 42.2969 37.9284C42.3746 37.5864 42.2829 37.2798 42.1561 37.0679C41.9097 36.6563 41.3017 36.2827 40.6298 36.5885L41.0439 37.4987L41.4581 38.4089C41.0003 38.6172 40.593 38.3507 40.4399 38.0949C40.3597 37.961 40.2877 37.7444 40.3466 37.4853C40.4137 37.1898 40.617 36.99 40.8176 36.8992L41.2298 37.8103ZM41.0439 37.4987L40.6315 36.5877C40.3107 36.7329 39.8466 36.7221 39.4809 36.5423L39.0397 37.4397L38.5984 38.3371C39.4466 38.7542 40.5386 38.8252 41.4564 38.4097L41.0439 37.4987ZM39.0397 37.4397L39.4823 36.543C39.4541 36.5291 39.4364 36.5182 39.4283 36.5126C39.4184 36.5056 39.4364 36.5161 39.4649 36.55C39.4943 36.5851 39.5505 36.6641 39.5801 36.7878C39.6122 36.9224 39.5991 37.0539 39.561 37.1574L38.6223 36.8128L37.6836 36.4681C37.4747 37.037 37.6786 37.5331 37.9339 37.8369C38.1541 38.0989 38.432 38.2549 38.597 38.3364L39.0397 37.4397ZM38.6223 36.8128L39.5616 37.156C39.5633 37.1513 39.567 37.1418 39.572 37.131C39.5772 37.1198 39.5803 37.1147 39.5797 37.1157C39.5791 37.1166 39.5762 37.1214 39.5706 37.1291C39.5651 37.1367 39.5549 37.1501 39.5393 37.1673C39.5148 37.1942 39.4408 37.2707 39.3102 37.332L38.8858 36.4265L38.4613 35.5211C38.117 35.6824 37.9331 35.974 37.8702 36.0776C37.7819 36.2231 37.72 36.3684 37.683 36.4696L38.6223 36.8128ZM38.8858 36.4265L39.3052 37.3343C39.2439 37.3626 39.1978 37.3723 39.1855 37.3746C39.1749 37.3767 39.1756 37.3758 39.2098 37.3725C39.229 37.3706 39.3004 37.3644 39.3596 37.3569C39.4259 37.3484 39.5239 37.3332 39.6332 37.3006L39.3474 36.3423L39.0617 35.384C39.0983 35.373 39.1192 35.3713 39.1065 35.373C39.0867 35.3755 39.0771 35.3759 39.016 35.3819C38.9699 35.3864 38.8909 35.3945 38.8037 35.4114C38.7149 35.4287 38.5953 35.4591 38.4663 35.5187L38.8858 36.4265ZM39.3474 36.3423L39.633 37.3006C40.1395 37.1497 40.5143 36.8613 40.7798 36.6333C41.0988 36.3593 41.2035 36.2376 41.4036 36.0961L40.826 35.2797L40.2484 34.4634C39.9535 34.672 39.6219 34.9913 39.4767 35.116C39.2781 35.2866 39.1611 35.3544 39.0618 35.3839L39.3474 36.3423ZM40.826 35.2797L41.4026 36.0968C41.7778 35.832 42.234 35.6713 42.6962 35.6438L42.637 34.6456L42.5777 33.6473C41.7424 33.6969 40.9281 33.9838 40.2494 34.4627L40.826 35.2797ZM42.637 34.6456L42.6956 35.6439C43.2752 35.6099 43.8452 35.8128 44.6138 36.1389L45.0044 35.2184L45.3951 34.2978C44.6494 33.9814 43.6805 33.5826 42.5784 33.6473L42.637 34.6456ZM45.0044 35.2184L44.6137 36.1389C45.2805 36.4219 45.8736 36.0512 46.1168 35.6471C46.2429 35.4374 46.3392 35.1267 46.2567 34.7774C46.165 34.3893 45.8911 34.118 45.5816 33.9864L45.1903 34.9067L44.799 35.827C44.5985 35.7417 44.3828 35.544 44.3103 35.2373C44.247 34.9695 44.3236 34.748 44.403 34.6161C44.5526 34.3674 44.9438 34.1063 45.3952 34.2979L45.0044 35.2184ZM45.1903 34.9067V35.9067H45.1915V34.9067V33.9067H45.1903V34.9067Z" fill="#9DF3EF" mask="url(#path-15-inside-2_560_504)"/>
<mask id="path-17-inside-3_560_504" fill="white">
<path d="M36.3288 27.5484C36.6219 27.4677 36.8939 27.8011 37.0318 28.0116C37.1956 28.2607 37.2977 28.5604 37.2559 28.8588C37.1783 29.4183 36.708 29.8816 36.8238 30.4749C36.9149 30.9393 37.3433 31.2029 37.704 31.4628C37.8628 31.5771 38.029 31.7035 38.125 31.8755C38.2457 32.0933 38.1854 32.3412 38.029 32.5265C37.5797 33.0584 36.7228 32.8647 36.1146 32.8611C35.7884 32.8587 35.4621 32.8996 35.163 33.0355C34.8958 33.1583 34.7124 33.3508 34.5622 33.5951C34.5006 33.695 34.4366 33.8165 34.3074 33.8345C34.1522 33.855 33.9922 33.7587 33.8444 33.7238C33.5699 33.6589 33.24 33.7034 33.1255 33.9934C32.8706 34.6432 33.8186 34.9055 34.2212 35.151C34.2963 35.1967 34.3751 35.2485 34.4354 35.3134C34.4896 35.3712 34.5117 35.3844 34.4354 35.4254C34.2753 35.5108 34.0562 35.5216 33.8777 35.524C33.4973 35.53 33.1021 35.4915 32.7291 35.4217C32.1012 35.3038 31.3453 34.9548 31.269 34.2485C31.2443 34.0199 30.875 34.0175 30.8996 34.2485C30.971 34.9007 31.4684 35.376 32.0692 35.6131C32.4077 35.7466 32.7697 35.802 33.1316 35.8405C33.5133 35.8802 33.9085 35.9187 34.2889 35.8453C34.5659 35.7912 34.95 35.6299 34.8453 35.2834C34.7518 34.9753 34.3492 34.7972 34.0808 34.6685C33.9343 34.5975 33.7804 34.5313 33.6475 34.4386C33.5576 34.376 33.3582 34.1811 33.5084 34.0776C33.613 34.0066 33.8038 34.0885 33.906 34.1221C34.0722 34.1763 34.2544 34.2256 34.4305 34.1811C34.7629 34.0957 34.8318 33.7672 35.0448 33.5518C35.2812 33.3135 35.637 33.2377 35.9644 33.2257C36.6834 33.2004 37.5046 33.411 38.1238 32.9357C38.6027 32.5674 38.6975 31.9429 38.2925 31.4905C37.9884 31.1511 37.4701 30.9839 37.2473 30.5771C37.0835 30.2787 37.2313 29.9442 37.3581 29.6602C37.5058 29.3305 37.6572 28.9972 37.6289 28.629C37.6006 28.2607 37.4344 27.9106 37.1919 27.6218C36.9493 27.333 36.6132 27.0959 36.2304 27.2018C36.0026 27.2644 36.0986 27.6133 36.3288 27.5496V27.5484Z"/>
</mask>
<path d="M36.3288 27.5484C36.6219 27.4677 36.8939 27.8011 37.0318 28.0116C37.1956 28.2607 37.2977 28.5604 37.2559 28.8588C37.1783 29.4183 36.708 29.8816 36.8238 30.4749C36.9149 30.9393 37.3433 31.2029 37.704 31.4628C37.8628 31.5771 38.029 31.7035 38.125 31.8755C38.2457 32.0933 38.1854 32.3412 38.029 32.5265C37.5797 33.0584 36.7228 32.8647 36.1146 32.8611C35.7884 32.8587 35.4621 32.8996 35.163 33.0355C34.8958 33.1583 34.7124 33.3508 34.5622 33.5951C34.5006 33.695 34.4366 33.8165 34.3074 33.8345C34.1522 33.855 33.9922 33.7587 33.8444 33.7238C33.5699 33.6589 33.24 33.7034 33.1255 33.9934C32.8706 34.6432 33.8186 34.9055 34.2212 35.151C34.2963 35.1967 34.3751 35.2485 34.4354 35.3134C34.4896 35.3712 34.5117 35.3844 34.4354 35.4254C34.2753 35.5108 34.0562 35.5216 33.8777 35.524C33.4973 35.53 33.1021 35.4915 32.7291 35.4217C32.1012 35.3038 31.3453 34.9548 31.269 34.2485C31.2443 34.0199 30.875 34.0175 30.8996 34.2485C30.971 34.9007 31.4684 35.376 32.0692 35.6131C32.4077 35.7466 32.7697 35.802 33.1316 35.8405C33.5133 35.8802 33.9085 35.9187 34.2889 35.8453C34.5659 35.7912 34.95 35.6299 34.8453 35.2834C34.7518 34.9753 34.3492 34.7972 34.0808 34.6685C33.9343 34.5975 33.7804 34.5313 33.6475 34.4386C33.5576 34.376 33.3582 34.1811 33.5084 34.0776C33.613 34.0066 33.8038 34.0885 33.906 34.1221C34.0722 34.1763 34.2544 34.2256 34.4305 34.1811C34.7629 34.0957 34.8318 33.7672 35.0448 33.5518C35.2812 33.3135 35.637 33.2377 35.9644 33.2257C36.6834 33.2004 37.5046 33.411 38.1238 32.9357C38.6027 32.5674 38.6975 31.9429 38.2925 31.4905C37.9884 31.1511 37.4701 30.9839 37.2473 30.5771C37.0835 30.2787 37.2313 29.9442 37.3581 29.6602C37.5058 29.3305 37.6572 28.9972 37.6289 28.629C37.6006 28.2607 37.4344 27.9106 37.1919 27.6218C36.9493 27.333 36.6132 27.0959 36.2304 27.2018C36.0026 27.2644 36.0986 27.6133 36.3288 27.5496V27.5484Z" fill="#F2F2F2"/>
<path d="M36.3288 27.5484L36.0635 26.5842L35.3288 26.7864V27.5484H36.3288ZM37.0318 28.0116L36.1952 28.5594L36.1962 28.5609L37.0318 28.0116ZM37.2559 28.8588L36.2656 28.7199L36.2654 28.7215L37.2559 28.8588ZM36.8238 30.4749L35.8423 30.6663L35.8425 30.6673L36.8238 30.4749ZM37.704 31.4628L37.1194 32.2741L37.1198 32.2744L37.704 31.4628ZM38.125 31.8755L38.9998 31.391L38.9983 31.3882L38.125 31.8755ZM38.029 32.5265L38.7929 33.1719L38.7933 33.1714L38.029 32.5265ZM36.1146 32.8611L36.1073 33.861L36.1087 33.861L36.1146 32.8611ZM35.163 33.0355L34.7492 32.1252L34.7455 32.1269L35.163 33.0355ZM34.5622 33.5951L35.4135 34.1198L35.414 34.1189L34.5622 33.5951ZM34.3074 33.8345L34.4381 34.826L34.4456 34.8249L34.3074 33.8345ZM33.8444 33.7238L33.6141 34.697L33.6146 34.6971L33.8444 33.7238ZM33.1255 33.9934L32.1953 33.6262L32.1945 33.6283L33.1255 33.9934ZM34.2212 35.151L33.7006 36.0048L33.7011 36.0051L34.2212 35.151ZM34.4354 35.3134L33.7025 35.9938L33.706 35.9975L34.4354 35.3134ZM34.4354 35.4254L34.9063 36.3075L34.9078 36.3067L34.4354 35.4254ZM33.8777 35.524L33.8642 34.5241L33.8619 34.5241L33.8777 35.524ZM32.7291 35.4217L32.5445 36.4046L32.5452 36.4047L32.7291 35.4217ZM31.269 34.2485L30.2747 34.3556L30.2747 34.3559L31.269 34.2485ZM30.8996 34.2485L29.9052 34.3545L29.9056 34.3573L30.8996 34.2485ZM32.0692 35.6131L31.7021 36.5433L31.7022 36.5433L32.0692 35.6131ZM33.1316 35.8405L33.0258 36.8349L33.0281 36.8351L33.1316 35.8405ZM34.2889 35.8453L34.4783 36.8272L34.4807 36.8267L34.2889 35.8453ZM34.8453 35.2834L35.8027 34.9943L35.8022 34.9927L34.8453 35.2834ZM34.0808 34.6685L33.6447 35.5684L33.6483 35.5701L34.0808 34.6685ZM33.6475 34.4386L34.2192 33.6182L34.2189 33.6179L33.6475 34.4386ZM33.5084 34.0776L32.9469 33.2501L32.941 33.2542L33.5084 34.0776ZM33.906 34.1221L33.5929 35.0719L33.5962 35.073L33.906 34.1221ZM34.4305 34.1811L34.6756 35.1506L34.6794 35.1496L34.4305 34.1811ZM35.0448 33.5518L34.3349 32.8475L34.3337 32.8487L35.0448 33.5518ZM35.9644 33.2257L35.9293 32.2263L35.9277 32.2263L35.9644 33.2257ZM38.1238 32.9357L38.7327 33.7289L38.7334 33.7284L38.1238 32.9357ZM38.2925 31.4905L39.0375 30.8235L39.0372 30.8231L38.2925 31.4905ZM37.2473 30.5771L38.1243 30.0967L38.124 30.0961L37.2473 30.5771ZM37.3581 29.6602L36.4455 29.2513L36.445 29.2525L37.3581 29.6602ZM36.2304 27.2018L36.4953 28.1661L36.4969 28.1656L36.2304 27.2018ZM36.3288 27.5496L36.5958 28.5133L37.3288 28.3102V27.5496H36.3288ZM36.3288 27.5484L36.5941 28.5125C36.4463 28.5532 36.313 28.5349 36.2236 28.5048C36.1448 28.4782 36.1059 28.4452 36.1058 28.4452C36.1034 28.4432 36.1143 28.4522 36.1356 28.4778C36.1556 28.5019 36.1762 28.5305 36.1952 28.5594L37.0318 28.0116L37.8684 27.4638C37.7768 27.3239 37.6085 27.0903 37.3712 26.8964C37.149 26.7149 36.6719 26.4168 36.0635 26.5842L36.3288 27.5484ZM37.0318 28.0116L36.1962 28.5609C36.2308 28.6136 36.2501 28.6587 36.2591 28.6903C36.2677 28.7206 36.2643 28.7287 36.2656 28.7199L37.2559 28.8588L38.2462 28.9977C38.3321 28.3855 38.1175 27.8427 37.8674 27.4623L37.0318 28.0116ZM37.2559 28.8588L36.2654 28.7215C36.2512 28.8237 36.2102 28.8869 36.05 29.2561C35.9229 29.5488 35.7228 30.0542 35.8423 30.6663L36.8238 30.4749L37.8053 30.2834C37.8089 30.3023 37.7861 30.2794 37.8847 30.0523C37.9142 29.9843 38.0113 29.775 38.0663 29.6392C38.1346 29.4704 38.2111 29.2508 38.2464 28.9961L37.2559 28.8588ZM36.8238 30.4749L35.8425 30.6673C35.9415 31.1725 36.221 31.5286 36.4716 31.7683C36.7008 31.9874 36.9852 32.1774 37.1194 32.2741L37.704 31.4628L38.2886 30.6515C38.1735 30.5685 38.1111 30.5264 38.0231 30.4611C37.9467 30.4044 37.8933 30.3605 37.8539 30.3228C37.7773 30.2496 37.7971 30.2416 37.8051 30.2824L36.8238 30.4749ZM37.704 31.4628L37.1198 32.2744C37.1567 32.3009 37.1851 32.3218 37.2099 32.3411C37.2344 32.3601 37.2508 32.374 37.2618 32.3842C37.2856 32.406 37.2719 32.3989 37.2518 32.3628L38.125 31.8755L38.9983 31.3882C38.7793 30.9958 38.4301 30.7533 38.2882 30.6512L37.704 31.4628ZM38.125 31.8755L37.2503 32.3601C37.192 32.255 37.1791 32.1375 37.1957 32.0418C37.2107 31.9558 37.2452 31.9048 37.2647 31.8817L38.029 32.5265L38.7933 33.1714C39.135 32.7664 39.3769 32.0717 38.9998 31.391L38.125 31.8755ZM38.029 32.5265L37.2651 31.8812C37.3061 31.8327 37.3229 31.8836 37.0806 31.8959C36.9664 31.9017 36.835 31.897 36.667 31.8869C36.5194 31.8781 36.3081 31.8622 36.1206 31.8611L36.1146 32.8611L36.1087 33.861C36.2252 33.8617 36.3491 33.8714 36.5473 33.8833C36.7251 33.894 36.95 33.9051 37.1821 33.8933C37.6327 33.8704 38.3026 33.7522 38.7929 33.1719L38.029 32.5265ZM36.1146 32.8611L36.122 31.8611C35.7143 31.8581 35.2284 31.9073 34.7492 32.1252L35.163 33.0355L35.5768 33.9459C35.6959 33.8918 35.8624 33.8592 36.1073 33.861L36.1146 32.8611ZM35.163 33.0355L34.7455 32.1269C34.2521 32.3536 33.9335 32.7084 33.7103 33.0713L34.5622 33.5951L35.414 34.1189C35.4557 34.0511 35.488 34.0135 35.5109 33.9915C35.5314 33.9718 35.552 33.9573 35.5805 33.9442L35.163 33.0355ZM34.5622 33.5951L33.7109 33.0704C33.6818 33.1176 33.6843 33.1145 33.6755 33.1281C33.6722 33.1332 33.6847 33.1129 33.7107 33.0835C33.7686 33.0179 33.9206 32.8788 34.1691 32.8442L34.3074 33.8345L34.4456 34.8249C34.8234 34.7722 35.072 34.5634 35.2097 34.4075C35.3225 34.2797 35.4128 34.1209 35.4135 34.1198L34.5622 33.5951ZM34.3074 33.8345L34.1766 32.8431C34.261 32.832 34.3258 32.8394 34.359 32.8451C34.39 32.8504 34.4043 32.8562 34.3884 32.851C34.3814 32.8486 34.3716 32.8452 34.355 32.8392C34.3431 32.8349 34.3143 32.8244 34.2929 32.8168C34.2468 32.8003 34.1669 32.7725 34.0743 32.7506L33.8444 33.7238L33.6146 34.6971C33.5959 34.6927 33.5913 34.6899 33.6216 34.7007C33.6334 34.7049 33.7066 34.7319 33.7578 34.7489C33.8668 34.7851 34.1259 34.8671 34.4381 34.826L34.3074 33.8345ZM33.8444 33.7238L34.0748 32.7507C33.8173 32.6898 33.4809 32.6649 33.1381 32.7675C32.7645 32.8794 32.3834 33.1498 32.1953 33.6262L33.1255 33.9934L34.0556 34.3606C34.0249 34.4383 33.9716 34.5163 33.8979 34.5794C33.8274 34.6397 33.7585 34.6695 33.7118 34.6835C33.6312 34.7076 33.597 34.6929 33.6141 34.697L33.8444 33.7238ZM33.1255 33.9934L32.1945 33.6283C32.0332 34.0397 32.0457 34.4725 32.2364 34.8576C32.4037 35.1955 32.6677 35.4141 32.8562 35.545C33.0518 35.6809 33.2602 35.7854 33.4046 35.8561C33.5833 35.9436 33.6517 35.975 33.7006 36.0048L34.2212 35.151L34.7418 34.2972C34.6551 34.2444 34.5665 34.1986 34.4948 34.1628C34.4278 34.1293 34.3402 34.0873 34.284 34.0598C34.1454 33.992 34.0573 33.9442 33.9974 33.9026C33.9304 33.8561 33.98 33.8718 34.0287 33.9701C34.0573 34.0279 34.0795 34.1026 34.0823 34.1865C34.0851 34.2689 34.068 34.3291 34.0564 34.3585L33.1255 33.9934ZM34.2212 35.151L33.7011 36.0051C33.715 36.0136 33.7248 36.0197 33.7323 36.0246C33.7397 36.0294 33.7431 36.0319 33.7437 36.0323C33.7442 36.0327 33.7405 36.03 33.7338 36.0243C33.7271 36.0185 33.7161 36.0084 33.7025 35.9938L34.4354 35.3134L35.1683 34.6331C35.0058 34.4581 34.8216 34.3458 34.7412 34.2969L34.2212 35.151ZM34.4354 35.3134L33.706 35.9975C33.7489 36.0433 33.7194 36.0117 33.707 35.9972C33.6945 35.9825 33.6597 35.9408 33.6229 35.8798C33.5863 35.819 33.5272 35.7059 33.4996 35.5501C33.4694 35.3791 33.4842 35.1966 33.5515 35.0241C33.6136 34.8647 33.7035 34.7569 33.7642 34.6955C33.8243 34.6348 33.8786 34.5966 33.9053 34.5788C33.9341 34.5596 33.9559 34.5478 33.963 34.544L34.4354 35.4254L34.9078 36.3067C34.9392 36.2899 35.0662 36.2233 35.1862 36.1019C35.3443 35.9421 35.5439 35.6243 35.469 35.2014C35.4167 34.9058 35.2452 34.7187 35.2309 34.7019C35.2086 34.6757 35.1884 34.6543 35.1809 34.6463C35.1651 34.6296 35.1724 34.6374 35.1648 34.6294L34.4354 35.3134ZM34.4354 35.4254L33.9645 34.5432C33.9993 34.5246 34.0241 34.5169 34.0317 34.5148C34.0395 34.5126 34.0379 34.5136 34.0239 34.5156C34.0102 34.5175 33.9901 34.5196 33.9619 34.5212C33.9337 34.5227 33.9022 34.5236 33.8642 34.5241L33.8777 35.524L33.8912 36.5239C34.0409 36.5219 34.5014 36.5237 34.9063 36.3075L34.4354 35.4254ZM33.8777 35.524L33.8619 34.5241C33.5567 34.529 33.2288 34.4979 32.913 34.4388L32.7291 35.4217L32.5452 36.4047C32.9754 36.4852 33.4378 36.5311 33.8935 36.5239L33.8777 35.524ZM32.7291 35.4217L32.9136 34.4389C32.6875 34.3965 32.4856 34.3189 32.3584 34.2315C32.2994 34.191 32.2747 34.1609 32.2669 34.1494C32.2624 34.1428 32.2635 34.1438 32.2632 34.1411L31.269 34.2485L30.2747 34.3559C30.3532 35.0818 30.7869 35.5785 31.226 35.88C31.6528 36.1732 32.1427 36.3291 32.5445 36.4046L32.7291 35.4217ZM31.269 34.2485L32.2632 34.1414C32.1814 33.382 31.5184 33.0776 31.0691 33.0761C30.8308 33.0753 30.5259 33.1469 30.2706 33.3791C29.9846 33.6392 29.8681 34.0055 29.9052 34.3545L30.8996 34.2485L31.894 34.1425C31.9189 34.3759 31.8393 34.6559 31.6163 34.8587C31.4241 35.0334 31.2085 35.0766 31.0626 35.0761C30.7979 35.0753 30.3319 34.8864 30.2747 34.3556L31.269 34.2485ZM30.8996 34.2485L29.9056 34.3573C30.0306 35.4994 30.8863 36.2214 31.7021 36.5433L32.0692 35.6131L32.4362 34.6829C32.0505 34.5307 31.9114 34.302 31.8937 34.1397L30.8996 34.2485ZM32.0692 35.6131L31.7022 36.5433C32.1714 36.7284 32.6443 36.7943 33.0258 36.8349L33.1316 35.8405L33.2374 34.8461C32.895 34.8097 32.6441 34.7649 32.4362 34.6828L32.0692 35.6131ZM33.1316 35.8405L33.0281 36.8351C33.3889 36.8727 33.9298 36.933 34.4783 36.8272L34.2889 35.8453L34.0994 34.8634C33.8871 34.9044 33.6376 34.8878 33.2351 34.8459L33.1316 35.8405ZM34.2889 35.8453L34.4807 36.8267C34.6841 36.787 35.0245 36.6938 35.3198 36.4667C35.4776 36.3454 35.6613 36.1555 35.7712 35.878C35.8874 35.5848 35.8879 35.2767 35.8027 34.9943L34.8453 35.2834L33.888 35.5724C33.8551 35.4633 33.8469 35.3053 33.9118 35.1415C33.9704 34.9934 34.0604 34.9122 34.1007 34.8812C34.1403 34.8508 34.1624 34.8447 34.1491 34.8498C34.139 34.8537 34.1201 34.8594 34.097 34.8639L34.2889 35.8453ZM34.8453 35.2834L35.8022 34.9927C35.6562 34.5121 35.3044 34.2268 35.0906 34.0815C34.868 33.9303 34.6189 33.8175 34.5134 33.7668L34.0808 34.6685L33.6483 35.5701C33.7271 35.6079 33.7821 35.6335 33.8426 35.6646C33.8999 35.6941 33.9395 35.7174 33.9666 35.7358C33.9949 35.755 33.9926 35.7576 33.9765 35.7395C33.9587 35.7194 33.9161 35.6647 33.8885 35.574L34.8453 35.2834ZM34.0808 34.6685L34.5169 33.7686C34.3115 33.669 34.2676 33.6519 34.2192 33.6182L33.6475 34.4386L33.0757 35.2591C33.2932 35.4106 33.5571 35.5259 33.6447 35.5684L34.0808 34.6685ZM33.6475 34.4386L34.2189 33.6179C34.2447 33.6359 34.2888 33.666 34.342 33.7533C34.3676 33.7954 34.4609 33.9565 34.4536 34.199C34.4496 34.3326 34.4147 34.4779 34.3365 34.6151C34.2597 34.75 34.1612 34.8422 34.0757 34.9011L33.5084 34.0776L32.941 33.2542C32.665 33.4443 32.466 33.7591 32.4545 34.1387C32.4452 34.4489 32.5659 34.682 32.6338 34.7936C32.7716 35.0199 32.9604 35.1788 33.0761 35.2593L33.6475 34.4386ZM33.5084 34.0776L34.0698 34.9051C33.9015 35.0193 33.7397 35.044 33.6524 35.0485C33.5671 35.053 33.5098 35.0408 33.4982 35.0383C33.483 35.0351 33.4802 35.0333 33.4992 35.0397C33.508 35.0426 33.5176 35.0459 33.5334 35.0515C33.5459 35.0558 33.5696 35.0642 33.5929 35.0718L33.906 34.1221L34.2192 33.1724C34.2444 33.1807 34.0613 33.1137 33.918 33.0829C33.8329 33.0646 33.7018 33.0432 33.5481 33.0513C33.3924 33.0594 33.1675 33.1005 32.9469 33.2501L33.5084 34.0776ZM33.906 34.1221L33.5962 35.073C33.754 35.1244 34.1902 35.2734 34.6756 35.1506L34.4305 34.1811L34.1853 33.2116C34.2636 33.1918 34.3156 33.2001 34.316 33.2002C34.3167 33.2003 34.3095 33.1992 34.2915 33.1944C34.2731 33.1895 34.2497 33.1824 34.2158 33.1713L33.906 34.1221ZM34.4305 34.1811L34.6794 35.1496C35.1753 35.0222 35.4509 34.7 35.5965 34.4959C35.6477 34.4242 35.73 34.2953 35.7378 34.2836C35.7674 34.2391 35.7699 34.2407 35.7559 34.2549L35.0448 33.5518L34.3337 32.8487C34.2132 32.9706 34.1272 33.0939 34.0736 33.1743C34.0482 33.2124 34.0202 33.2562 34.0055 33.2788C33.9871 33.3072 33.9764 33.3231 33.9683 33.3344C33.9515 33.358 33.9644 33.335 34.0041 33.3025C34.0517 33.2637 34.1143 33.2299 34.1815 33.2126L34.4305 34.1811ZM35.0448 33.5518L35.7547 34.2561C35.7314 34.2796 35.7245 34.2723 35.771 34.2576C35.8196 34.2423 35.8959 34.2289 36.0012 34.225L35.9644 33.2257L35.9277 32.2263C35.5217 32.2413 34.8439 32.3344 34.3349 32.8475L35.0448 33.5518ZM35.9644 33.2257L35.9996 34.225C36.1317 34.2204 36.2771 34.2264 36.4715 34.2354C36.6513 34.2438 36.8785 34.2552 37.1082 34.2491C37.5728 34.2367 38.181 34.1524 38.7327 33.7289L38.1238 32.9357L37.5149 32.1424C37.4474 32.1943 37.3354 32.2423 37.0549 32.2498C36.9119 32.2536 36.7604 32.2468 36.5647 32.2376C36.3835 32.2292 36.1567 32.2183 35.9293 32.2263L35.9644 33.2257ZM38.1238 32.9357L38.7334 33.7284C39.6197 33.0469 39.8743 31.7582 39.0375 30.8235L38.2925 31.4905L37.5474 32.1575C37.5533 32.1641 37.5552 32.1674 37.5549 32.167C37.5546 32.1665 37.5529 32.1634 37.5512 32.1578C37.5494 32.1522 37.548 32.1455 37.5473 32.1382C37.5467 32.1309 37.5469 32.1242 37.5476 32.1184C37.5492 32.1063 37.5524 32.1025 37.55 32.1065C37.5475 32.1106 37.5382 32.1245 37.5143 32.1429L38.1238 32.9357ZM38.2925 31.4905L39.0372 30.8231C38.8967 30.6663 38.7466 30.5459 38.6247 30.4562C38.5154 30.3758 38.3748 30.2827 38.308 30.2364C38.1174 30.1047 38.1123 30.0748 38.1243 30.0967L37.2473 30.5771L36.3703 31.0576C36.605 31.4862 36.9705 31.7433 37.1708 31.8817C37.4354 32.0645 37.4976 32.1019 37.5477 32.1578L38.2925 31.4905ZM37.2473 30.5771L38.124 30.0961C38.154 30.1508 38.169 30.208 38.1734 30.2558C38.1774 30.2991 38.1717 30.3221 38.173 30.3156C38.1746 30.3082 38.1804 30.2851 38.198 30.2393C38.216 30.1922 38.2382 30.1417 38.2712 30.0679L37.3581 29.6602L36.445 29.2525C36.3892 29.3773 36.2723 29.6304 36.2144 29.9109C36.1516 30.215 36.1386 30.6353 36.3706 31.0582L37.2473 30.5771ZM37.3581 29.6602L38.2706 30.0691C38.3968 29.7875 38.6771 29.2177 38.626 28.5523L37.6289 28.629L36.6319 28.7056C36.6335 28.7274 36.6324 28.7721 36.6042 28.8634C36.5727 28.9653 36.5249 29.074 36.4455 29.2513L37.3581 29.6602ZM37.6289 28.629L38.626 28.5523C38.5785 27.9351 38.3057 27.3931 37.9576 26.9787L37.1919 27.6218L36.4261 28.2649C36.5631 28.428 36.6227 28.5864 36.6319 28.7056L37.6289 28.629ZM37.1919 27.6218L37.9576 26.9787C37.6555 26.6189 36.9453 25.9665 35.9638 26.238L36.2304 27.2018L36.4969 28.1656C36.4601 28.1758 36.4173 28.1789 36.3763 28.1734C36.3379 28.1683 36.3157 28.1578 36.312 28.1559C36.3093 28.1546 36.3204 28.1599 36.3435 28.1797C36.3663 28.1991 36.3945 28.2272 36.4261 28.2649L37.1919 27.6218ZM36.2304 27.2018L35.9654 26.2375C35.6397 26.327 35.3649 26.5478 35.2156 26.8591C35.0777 27.1467 35.0764 27.4472 35.1447 27.692C35.2131 27.937 35.3701 28.1934 35.6371 28.3679C35.9257 28.5566 36.2732 28.6026 36.5958 28.5133L36.3288 27.5496L36.0619 26.5859C36.2694 26.5284 36.5186 26.5547 36.7315 26.6939C36.9229 26.819 37.0269 26.9963 37.071 27.1542C37.115 27.3118 37.118 27.5174 37.019 27.7239C36.9086 27.9541 36.7071 28.1079 36.4953 28.1661L36.2304 27.2018ZM36.3288 27.5496H37.3288V27.5484H36.3288H35.3288V27.5496H36.3288Z" fill="#9DF3EF" mask="url(#path-17-inside-3_560_504)"/>
</g>
<path d="M31.5621 31.9273C30.1968 35.3099 32.6172 38.1666 36.968 38.3086C41.3187 38.4506 45.9539 35.8237 47.3192 32.4411C48.6845 29.0586 46.2641 26.2019 41.9134 26.0599C37.5626 25.9179 32.9274 28.5448 31.5621 31.9273Z" stroke="#9DF3EF" stroke-miterlimit="10"/>
</g>
<g filter="url(#filter6_d_560_504)">
<path d="M30.9475 29.8444C28.0347 33.8334 29.4763 38.1149 34.1669 39.4072C38.8574 40.6996 45.0216 38.5132 47.9332 34.5241C50.8461 30.5351 49.4044 26.2537 44.7139 24.9613C40.0233 23.6689 33.8591 25.8554 30.9475 29.8444Z" stroke="#9DF3EF" stroke-miterlimit="10" shape-rendering="crispEdges"/>
</g>
<g filter="url(#filter7_d_560_504)">
<path d="M48.5869 54.1877L44.6006 50.0868" stroke="#9DF3EF" stroke-miterlimit="10"/>
</g>
<defs>
<filter id="filter0_dii_560_504" x="0" y="-3" width="82.3945" height="80.5402" filterUnits="userSpaceOnUse" color-interpolation-filters="sRGB">
<feFlood flood-opacity="0" result="BackgroundImageFix"/>
<feColorMatrix in="SourceAlpha" type="matrix" values="0 0 0 0 0 0 0 0 0 0 0 0 0 0 0 0 0 0 127 0" result="hardAlpha"/>
<feOffset/>
<feComposite in2="hardAlpha" operator="out"/>
<feColorMatrix type="matrix" values="0 0 0 0 0.742308 0 0 0 0 0.957051 0 0 0 0 1 0 0 0 0.63 0"/>
<feBlend mode="normal" in2="BackgroundImageFix" result="effect1_dropShadow_560_504"/>
<feBlend mode="normal" in="SourceGraphic" in2="effect1_dropShadow_560_504" result="shape"/>
<feColorMatrix in="SourceAlpha" type="matrix" values="0 0 0 0 0 0 0 0 0 0 0 0 0 0 0 0 0 0 127 0" result="hardAlpha"/>
<feOffset dy="4"/>
<feGaussianBlur stdDeviation="1.5"/>
<feComposite in2="hardAlpha" operator="arithmetic" k2="-1" k3="1"/>
<feColorMatrix type="matrix" values="0 0 0 0 0.8 0 0 0 0 1 0 0 0 0 0.992941 0 0 0 0.45 0"/>
<feBlend mode="normal" in2="shape" result="effect2_innerShadow_560_504"/>
<feColorMatrix in="SourceAlpha" type="matrix" values="0 0 0 0 0 0 0 0 0 0 0 0 0 0 0 0 0 0 127 0" result="hardAlpha"/>
<feOffset dy="-5"/>
<feGaussianBlur stdDeviation="1.5"/>
<feComposite in2="hardAlpha" operator="arithmetic" k2="-1" k3="1"/>
<feColorMatrix type="matrix" values="0 0 0 0 0.8 0 0 0 0 1 0 0 0 0 0.992157 0 0 0 0.3 0"/>
<feBlend mode="normal" in2="effect2_innerShadow_560_504" result="effect3_innerShadow_560_504"/>
</filter>
<filter id="filter1_i_560_504" x="6.52637" y="5.67151" width="68.5264" height="61.7664" filterUnits="userSpaceOnUse" color-interpolation-filters="sRGB">
<feFlood flood-opacity="0" result="BackgroundImageFix"/>
<feBlend mode="normal" in="SourceGraphic" in2="BackgroundImageFix" result="shape"/>
<feColorMatrix in="SourceAlpha" type="matrix" values="0 0 0 0 0 0 0 0 0 0 0 0 0 0 0 0 0 0 127 0" result="hardAlpha"/>
<feOffset dy="9"/>
<feGaussianBlur stdDeviation="0.5"/>
<feComposite in2="hardAlpha" operator="arithmetic" k2="-1" k3="1"/>
<feColorMatrix type="matrix" values="0 0 0 0 0 0 0 0 0 0 0 0 0 0 0 0 0 0 0.45 0"/>
<feBlend mode="normal" in2="shape" result="effect1_innerShadow_560_504"/>
</filter>
<filter id="filter2_f_560_504" x="-2.81592" y="-1.18982" width="86.3945" height="78.5402" filterUnits="userSpaceOnUse" color-interpolation-filters="sRGB">
<feFlood flood-opacity="0" result="BackgroundImageFix"/>
<feBlend mode="normal" in="SourceGraphic" in2="BackgroundImageFix" result="shape"/>
<feGaussianBlur stdDeviation="1" result="effect1_foregroundBlur_560_504"/>
</filter>
<filter id="filter3_d_560_504" x="11.6611" y="13.4954" width="54.9292" height="41.0961" filterUnits="userSpaceOnUse" color-interpolation-filters="sRGB">
<feFlood flood-opacity="0" result="BackgroundImageFix"/>
<feColorMatrix in="SourceAlpha" type="matrix" values="0 0 0 0 0 0 0 0 0 0 0 0 0 0 0 0 0 0 127 0" result="hardAlpha"/>
<feOffset/>
<feGaussianBlur stdDeviation="2"/>
<feComposite in2="hardAlpha" operator="out"/>
<feColorMatrix type="matrix" values="0 0 0 0 0.537255 0 0 0 0 0.776471 0 0 0 0 0.92549 0 0 0 1 0"/>
<feBlend mode="normal" in2="BackgroundImageFix" result="effect1_dropShadow_560_504"/>
<feBlend mode="normal" in="SourceGraphic" in2="effect1_dropShadow_560_504" result="shape"/>
</filter>
<filter id="filter4_d_560_504" x="15.646" y="19.9873" width="54.9673" height="40.6594" filterUnits="userSpaceOnUse" color-interpolation-filters="sRGB">
<feFlood flood-opacity="0" result="BackgroundImageFix"/>
<feColorMatrix in="SourceAlpha" type="matrix" values="0 0 0 0 0 0 0 0 0 0 0 0 0 0 0 0 0 0 127 0" result="hardAlpha"/>
<feOffset dy="2"/>
<feGaussianBlur stdDeviation="2"/>
<feComposite in2="hardAlpha" operator="out"/>
<feColorMatrix type="matrix" values="0 0 0 0 0.537255 0 0 0 0 0.776471 0 0 0 0 0.92549 0 0 0 1 0"/>
<feBlend mode="normal" in2="BackgroundImageFix" result="effect1_dropShadow_560_504"/>
<feBlend mode="normal" in="SourceGraphic" in2="effect1_dropShadow_560_504" result="shape"/>
</filter>
<filter id="filter5_d_560_504" x="26.6812" y="21.5544" width="25.519" height="21.2597" filterUnits="userSpaceOnUse" color-interpolation-filters="sRGB">
<feFlood flood-opacity="0" result="BackgroundImageFix"/>
<feColorMatrix in="SourceAlpha" type="matrix" values="0 0 0 0 0 0 0 0 0 0 0 0 0 0 0 0 0 0 127 0" result="hardAlpha"/>
<feOffset/>
<feGaussianBlur stdDeviation="2"/>
<feComposite in2="hardAlpha" operator="out"/>
<feColorMatrix type="matrix" values="0 0 0 0 0.537255 0 0 0 0 0.776471 0 0 0 0 0.92549 0 0 0 1 0"/>
<feBlend mode="normal" in2="BackgroundImageFix" result="effect1_dropShadow_560_504"/>
<feBlend mode="normal" in="SourceGraphic" in2="effect1_dropShadow_560_504" result="shape"/>
</filter>
<filter id="filter6_d_560_504" x="24.9414" y="20.0897" width="28.9976" height="24.1892" filterUnits="userSpaceOnUse" color-interpolation-filters="sRGB">
<feFlood flood-opacity="0" result="BackgroundImageFix"/>
<feColorMatrix in="SourceAlpha" type="matrix" values="0 0 0 0 0 0 0 0 0 0 0 0 0 0 0 0 0 0 127 0" result="hardAlpha"/>
<feOffset/>
<feGaussianBlur stdDeviation="2"/>
<feComposite in2="hardAlpha" operator="out"/>
<feColorMatrix type="matrix" values="0 0 0 0 0.537255 0 0 0 0 0.776471 0 0 0 0 0.92549 0 0 0 1 0"/>
<feBlend mode="normal" in2="BackgroundImageFix" result="effect1_dropShadow_560_504"/>
<feBlend mode="normal" in="SourceGraphic" in2="effect1_dropShadow_560_504" result="shape"/>
</filter>
<filter id="filter7_d_560_504" x="40.2422" y="45.7383" width="12.7031" height="12.798" filterUnits="userSpaceOnUse" color-interpolation-filters="sRGB">
<feFlood flood-opacity="0" result="BackgroundImageFix"/>
<feColorMatrix in="SourceAlpha" type="matrix" values="0 0 0 0 0 0 0 0 0 0 0 0 0 0 0 0 0 0 127 0" result="hardAlpha"/>
<feOffset/>
<feGaussianBlur stdDeviation="2"/>
<feComposite in2="hardAlpha" operator="out"/>
<feColorMatrix type="matrix" values="0 0 0 0 0.537255 0 0 0 0 0.776471 0 0 0 0 0.92549 0 0 0 1 0"/>
<feBlend mode="normal" in2="BackgroundImageFix" result="effect1_dropShadow_560_504"/>
<feBlend mode="normal" in="SourceGraphic" in2="effect1_dropShadow_560_504" result="shape"/>
</filter>
<linearGradient id="paint0_linear_560_504" x1="41.6053" y1="-2.83577" x2="41.6053" y2="84.6679" gradientUnits="userSpaceOnUse">
<stop offset="0.0576923" stop-color="#6BA0A2"/>
<stop offset="0.307692" stop-color="#19638D"/>
<stop offset="0.495192" stop-color="#1A3B6D"/>
<stop offset="0.673077" stop-color="#07649B"/>
<stop offset="0.908654" stop-color="#6BA0A2"/>
</linearGradient>
</defs>
</svg>
