<svg width="81" height="74" viewBox="0 0 81 74" fill="none" xmlns="http://www.w3.org/2000/svg">
<g filter="url(#filter0_d_554_512)">
<path d="M14.6926 73.1971H65.7119L80.4013 57.0942V16.1029L65.7119 0H14.6926L0 16.1029V57.0942L14.6926 73.1971Z" fill="url(#paint0_linear_554_512)" fill-opacity="0.8" shape-rendering="crispEdges"/>
<path d="M65.4912 0.5L79.9014 16.2959V56.8994L65.4912 72.6973H14.9131L0.5 56.8994V16.2959L14.9131 0.5H65.4912Z" stroke="url(#paint1_linear_554_512)" shape-rendering="crispEdges"/>
</g>
<g filter="url(#filter1_f_554_512)">
<path d="M18.5878 64.4452H61.0196L73.2366 51.6678V19.1422L61.0196 6.36487H18.5878L6.36816 19.1422V51.6678L18.5878 64.4452Z" fill="#0F3653" fill-opacity="0.25"/>
<path d="M60.8057 6.86487L72.7363 19.3424V51.4664L60.8057 63.9449H18.8018L6.86816 51.4664V19.3424L18.8018 6.86487H60.8057Z" stroke="url(#paint2_linear_554_512)"/>
</g>
<g filter="url(#filter2_d_554_512)">
<path d="M27.684 39.6406L45.3775 18.0427C45.6215 17.7443 45.9864 17.5537 46.3908 17.5135L60.9097 16.0409L62.5059 17.6099L60.0925 31.1988C60.028 31.5575 59.817 31.8763 59.5024 32.088L36.128 47.7796C35.5181 48.1891 34.6629 48.1072 34.1249 47.5869L27.8251 41.4975C27.2908 40.9825 27.2314 40.1925 27.684 39.6406Z" stroke="#17C0B8" stroke-miterlimit="10"/>
<path d="M14.6113 38.6165L25.0237 39.3227L33.1398 29.517L24.5994 30.6191L14.6113 38.6165Z" stroke="#17C0B8" stroke-miterlimit="10"/>
<path d="M37.0151 60.268L36.1414 50.0655L47.1071 43.0162L45.9336 51.2373L37.0151 60.268Z" stroke="#17C0B8" stroke-miterlimit="10"/>
<path d="M31.1877 59.5835L30.4489 50.2648L24.1944 44.2209L14.7837 43.6754L14.9234 41.3918L25.292 41.9915L32.8346 49.2807L33.6394 59.4268L31.1877 59.5835Z" stroke="#17C0B8" stroke-miterlimit="10"/>
<path d="M28.9397 58.1191L28.3676 50.9109L23.5304 46.2353L16.2504 45.8138L16.3582 44.0482L24.3791 44.5111L30.2132 50.1508L30.8362 57.9977L28.9397 58.1191Z" stroke="#17C0B8" stroke-miterlimit="10"/>
<path d="M50.0682 27.3064L42.9575 27.0774L42.9344 33.6979L50.0451 33.9269L50.0682 27.3064Z" stroke="#17C0B8" stroke-miterlimit="10"/>
<path d="M45.7583 17.5773L47.626 20.6227L57.0028 29.6853L59.9933 31.7595" stroke="#17C0B8" stroke-miterlimit="10"/>
</g>
<defs>
<filter id="filter0_d_554_512" x="0" y="0" width="80.4014" height="73.1971" filterUnits="userSpaceOnUse" color-interpolation-filters="sRGB">
<feFlood flood-opacity="0" result="BackgroundImageFix"/>
<feColorMatrix in="SourceAlpha" type="matrix" values="0 0 0 0 0 0 0 0 0 0 0 0 0 0 0 0 0 0 127 0" result="hardAlpha"/>
<feOffset/>
<feComposite in2="hardAlpha" operator="out"/>
<feColorMatrix type="matrix" values="0 0 0 0 0.742308 0 0 0 0 0.957051 0 0 0 0 1 0 0 0 0.63 0"/>
<feBlend mode="normal" in2="BackgroundImageFix" result="effect1_dropShadow_554_512"/>
<feBlend mode="normal" in="SourceGraphic" in2="effect1_dropShadow_554_512" result="shape"/>
</filter>
<filter id="filter1_f_554_512" x="4.36816" y="4.36487" width="70.8687" height="62.0803" filterUnits="userSpaceOnUse" color-interpolation-filters="sRGB">
<feFlood flood-opacity="0" result="BackgroundImageFix"/>
<feBlend mode="normal" in="SourceGraphic" in2="BackgroundImageFix" result="shape"/>
<feGaussianBlur stdDeviation="1" result="effect1_foregroundBlur_554_512"/>
</filter>
<filter id="filter2_d_554_512" x="9.29688" y="11.5197" width="57.7476" height="53.8707" filterUnits="userSpaceOnUse" color-interpolation-filters="sRGB">
<feFlood flood-opacity="0" result="BackgroundImageFix"/>
<feColorMatrix in="SourceAlpha" type="matrix" values="0 0 0 0 0 0 0 0 0 0 0 0 0 0 0 0 0 0 127 0" result="hardAlpha"/>
<feOffset/>
<feGaussianBlur stdDeviation="2"/>
<feComposite in2="hardAlpha" operator="out"/>
<feColorMatrix type="matrix" values="0 0 0 0 0 0 0 0 0 1 0 0 0 0 0.95 0 0 0 1 0"/>
<feBlend mode="normal" in2="BackgroundImageFix" result="effect1_dropShadow_554_512"/>
<feBlend mode="normal" in="SourceGraphic" in2="effect1_dropShadow_554_512" result="shape"/>
</filter>
<linearGradient id="paint0_linear_554_512" x1="40.5987" y1="-2.78467" x2="40.5987" y2="83.1423" gradientUnits="userSpaceOnUse">
<stop offset="0.0576923" stop-color="#6BA0A2"/>
<stop offset="0.211538" stop-color="#19638D"/>
<stop offset="0.370192" stop-color="#07649B"/>
<stop offset="0.557692" stop-color="#1A3B6D"/>
<stop offset="0.759615" stop-color="#19638D"/>
<stop offset="0.961538" stop-color="#6BA0A2"/>
</linearGradient>
<linearGradient id="paint1_linear_554_512" x1="40.2007" y1="0" x2="40.2007" y2="73.1971" gradientUnits="userSpaceOnUse">
<stop offset="0.4375" stop-color="#85C1FF"/>
</linearGradient>
<linearGradient id="paint2_linear_554_512" x1="39.8024" y1="6.36487" x2="39.8024" y2="64.4452" gradientUnits="userSpaceOnUse">
<stop stop-color="#17C0B8"/>
<stop offset="1" stop-color="#0B84CB"/>
</linearGradient>
</defs>
</svg>
