<svg width="83" height="75" viewBox="0 0 83 75" fill="none" xmlns="http://www.w3.org/2000/svg">
<g filter="url(#filter0_dii_558_498)">
<path d="M15.0569 74.5401H67.3411L82.3947 58.1418V16.3984L67.3411 0H15.0569L0 16.3984V58.1418L15.0569 74.5401Z" fill="url(#paint0_linear_558_498)" fill-opacity="0.8" shape-rendering="crispEdges"/>
<path d="M67.1211 0.5L81.8945 16.5918V57.9473L67.1211 74.04H15.2764L0.5 57.9473V16.5918L15.2764 0.5H67.1211Z" stroke="#48BBFF" shape-rendering="crispEdges"/>
</g>
<mask id="mask0_558_498" style="mask-type:alpha" maskUnits="userSpaceOnUse" x="6" y="5" width="70" height="60">
<path d="M19.049 64.8175H62.5328L75.0527 51.8057V18.6833L62.5328 5.67151H19.049L6.52637 18.6833V51.8057L19.049 64.8175Z" fill="#0F3653"/>
</mask>
<g mask="url(#mask0_558_498)">
<g filter="url(#filter1_i_558_498)">
<path d="M19.049 66.4379H62.5328L75.0527 53.0697V19.0398L62.5328 5.67151H19.049L6.52637 19.0398V53.0697L19.049 66.4379Z" fill="#0F3653" fill-opacity="0.67"/>
</g>
<path d="M62.3164 6.17151L74.5527 19.2369V52.8717L62.3164 65.9381H19.2656L7.02637 52.8717V19.2369L19.2656 6.17151H62.3164Z" stroke="#3180BF"/>
<mask id="mask1_558_498" style="mask-type:alpha" maskUnits="userSpaceOnUse" x="6" y="0" width="70" height="60">
<path d="M19.049 59.146H62.5328L75.0527 46.1342V13.0118L62.5328 0H19.049L6.52637 13.0118V46.1342L19.049 59.146Z" fill="#0F3653" fill-opacity="0.67"/>
</mask>
<g mask="url(#mask1_558_498)">
<g filter="url(#filter2_f_558_498)">
<path d="M14.241 75.3503H66.5252L81.5788 58.9519V17.2086L66.5252 0.810181H14.241L-0.815918 17.2086V58.9519L14.241 75.3503Z" fill="#96F5FF" fill-opacity="0.15"/>
</g>
</g>
</g>
<g filter="url(#filter3_d_558_498)">
<path d="M26.5241 39.7944L45.095 17.1255C45.3511 16.8123 45.7342 16.6123 46.1585 16.57L61.3974 15.0244L63.0727 16.6713L60.5397 30.934C60.472 31.3105 60.2505 31.6451 59.9204 31.8673L35.3869 48.3369C34.7467 48.7667 33.8491 48.6808 33.2844 48.1347L26.6722 41.7434C26.1114 41.2028 26.0491 40.3736 26.5241 39.7944Z" stroke="#9DF3EF" stroke-miterlimit="10"/>
<path d="M12.8027 37.7195L23.7314 38.4607L32.2499 28.1688L23.2861 29.3255L12.8027 37.7195Z" stroke="#9DF3EF" stroke-miterlimit="10"/>
<path d="M36.3176 60.4446L35.4006 49.7363L46.9101 42.3373L45.6784 50.9662L36.3176 60.4446Z" stroke="#9DF3EF" stroke-miterlimit="10"/>
<path d="M30.2014 59.7262L29.426 49.9454L22.8614 43.6018L12.984 43.0293L13.1306 40.6324L24.0134 41.2618L31.93 48.9125L32.7747 59.5617L30.2014 59.7262Z" stroke="#9DF3EF" stroke-miterlimit="10"/>
<path d="M27.8417 58.1891L27.2413 50.6235L22.1642 45.716L14.5233 45.2736L14.6364 43.4205L23.055 43.9063L29.1785 49.8257L29.8323 58.0616L27.8417 58.1891Z" stroke="#9DF3EF" stroke-miterlimit="10"/>
<path d="M50.0179 25.8485L42.5547 25.6082L42.5305 32.557L49.9937 32.7973L50.0179 25.8485Z" stroke="#9DF3EF" stroke-miterlimit="10"/>
<path d="M45.3711 17L47.3315 20.1964L57.1732 29.7083L60.3119 31.8855" stroke="#9DF3EF" stroke-miterlimit="10"/>
</g>
<defs>
<filter id="filter0_dii_558_498" x="0" y="-3" width="82.3945" height="80.5402" filterUnits="userSpaceOnUse" color-interpolation-filters="sRGB">
<feFlood flood-opacity="0" result="BackgroundImageFix"/>
<feColorMatrix in="SourceAlpha" type="matrix" values="0 0 0 0 0 0 0 0 0 0 0 0 0 0 0 0 0 0 127 0" result="hardAlpha"/>
<feOffset/>
<feComposite in2="hardAlpha" operator="out"/>
<feColorMatrix type="matrix" values="0 0 0 0 0.742308 0 0 0 0 0.957051 0 0 0 0 1 0 0 0 0.63 0"/>
<feBlend mode="normal" in2="BackgroundImageFix" result="effect1_dropShadow_558_498"/>
<feBlend mode="normal" in="SourceGraphic" in2="effect1_dropShadow_558_498" result="shape"/>
<feColorMatrix in="SourceAlpha" type="matrix" values="0 0 0 0 0 0 0 0 0 0 0 0 0 0 0 0 0 0 127 0" result="hardAlpha"/>
<feOffset dy="4"/>
<feGaussianBlur stdDeviation="1.5"/>
<feComposite in2="hardAlpha" operator="arithmetic" k2="-1" k3="1"/>
<feColorMatrix type="matrix" values="0 0 0 0 0.8 0 0 0 0 1 0 0 0 0 0.992941 0 0 0 0.45 0"/>
<feBlend mode="normal" in2="shape" result="effect2_innerShadow_558_498"/>
<feColorMatrix in="SourceAlpha" type="matrix" values="0 0 0 0 0 0 0 0 0 0 0 0 0 0 0 0 0 0 127 0" result="hardAlpha"/>
<feOffset dy="-5"/>
<feGaussianBlur stdDeviation="1.5"/>
<feComposite in2="hardAlpha" operator="arithmetic" k2="-1" k3="1"/>
<feColorMatrix type="matrix" values="0 0 0 0 0.8 0 0 0 0 1 0 0 0 0 0.992157 0 0 0 0.3 0"/>
<feBlend mode="normal" in2="effect2_innerShadow_558_498" result="effect3_innerShadow_558_498"/>
</filter>
<filter id="filter1_i_558_498" x="6.52637" y="5.67151" width="68.5264" height="61.7664" filterUnits="userSpaceOnUse" color-interpolation-filters="sRGB">
<feFlood flood-opacity="0" result="BackgroundImageFix"/>
<feBlend mode="normal" in="SourceGraphic" in2="BackgroundImageFix" result="shape"/>
<feColorMatrix in="SourceAlpha" type="matrix" values="0 0 0 0 0 0 0 0 0 0 0 0 0 0 0 0 0 0 127 0" result="hardAlpha"/>
<feOffset dy="9"/>
<feGaussianBlur stdDeviation="0.5"/>
<feComposite in2="hardAlpha" operator="arithmetic" k2="-1" k3="1"/>
<feColorMatrix type="matrix" values="0 0 0 0 0 0 0 0 0 0 0 0 0 0 0 0 0 0 0.45 0"/>
<feBlend mode="normal" in2="shape" result="effect1_innerShadow_558_498"/>
</filter>
<filter id="filter2_f_558_498" x="-2.81592" y="-1.18982" width="86.3945" height="78.5402" filterUnits="userSpaceOnUse" color-interpolation-filters="sRGB">
<feFlood flood-opacity="0" result="BackgroundImageFix"/>
<feBlend mode="normal" in="SourceGraphic" in2="BackgroundImageFix" result="shape"/>
<feGaussianBlur stdDeviation="1" result="effect1_foregroundBlur_558_498"/>
</filter>
<filter id="filter3_d_558_498" x="7.48828" y="10.5033" width="60.123" height="55.0637" filterUnits="userSpaceOnUse" color-interpolation-filters="sRGB">
<feFlood flood-opacity="0" result="BackgroundImageFix"/>
<feColorMatrix in="SourceAlpha" type="matrix" values="0 0 0 0 0 0 0 0 0 0 0 0 0 0 0 0 0 0 127 0" result="hardAlpha"/>
<feOffset/>
<feGaussianBlur stdDeviation="2"/>
<feComposite in2="hardAlpha" operator="out"/>
<feColorMatrix type="matrix" values="0 0 0 0 0.537255 0 0 0 0 0.776471 0 0 0 0 0.92549 0 0 0 1 0"/>
<feBlend mode="normal" in2="BackgroundImageFix" result="effect1_dropShadow_558_498"/>
<feBlend mode="normal" in="SourceGraphic" in2="effect1_dropShadow_558_498" result="shape"/>
</filter>
<linearGradient id="paint0_linear_558_498" x1="41.6053" y1="-2.83577" x2="41.6053" y2="84.6679" gradientUnits="userSpaceOnUse">
<stop offset="0.0576923" stop-color="#6BA0A2"/>
<stop offset="0.307692" stop-color="#19638D"/>
<stop offset="0.495192" stop-color="#1A3B6D"/>
<stop offset="0.673077" stop-color="#07649B"/>
<stop offset="0.908654" stop-color="#6BA0A2"/>
</linearGradient>
</defs>
</svg>
