<?xml version="1.0" encoding="UTF-8"?>
<svg id="headboy2" xmlns="http://www.w3.org/2000/svg" viewBox="0 0 2135.16 1542.16">
  <defs>
    <style>
      .cls-1 {
        fill: #2e1e0e;
      }

      .cls-2 {
        fill: #f89269;
      }

      .cls-3 {
        fill: #333330;
      }

      .cls-4 {
        fill: #faba83;
      }

      .cls-5 {
        fill: #666;
      }

      .cls-6 {
        fill: #fff;
      }

      .cls-6, .cls-7 {
        opacity: .7;
      }

      .cls-7 {
        fill: #3f200e;
      }
    </style>
  </defs>
  <path class="cls-2" d="M1177.4,894.87s50.02,5.56,30.57,63.91c-9.73,25.01-23.62,37.52-50.02,40.29-26.4,2.78,19.45-104.21,19.45-104.21Z"/>
  <path class="cls-2" d="M1025.95,1082.44l2.23,37.96s-47.24,6.95-94.48-1.39c0,0,.84-22.69-2.78-52.8l95.04,16.23Z"/>
  <path class="cls-4" d="M1149.76,776.28s27.64,51.9,10.97,176.95c0,0,38.9,133.39-166.73,137.56-61.14,0-126.44-19.45-168.12-77.81,0,0-46.27,18.51-78.66-24.08-12.44-16.35-17.42-37.41-12.06-57.24,4.87-18.02,17.95-34.93,51.82-22.88l34.74-201.47,202.86-47.24,125.19,116.22Z"/>
  <path class="cls-2" d="M1159.81,808.87c5.61,5.02-150.98-33.93-180.41-65.1l34.04,42.73s-13.89,33.35-91.7-27.79c0,0,4.17,5.56,2.78,9.73-1.39,4.17-33.35,6.95-73.64-29.18l-29.18-31.96,202.86-47.24,125.19,116.22"/>
  <ellipse class="cls-6" cx="1094.73" cy="906.68" rx="40.99" ry="45.16"/>
  <path class="cls-7" d="M1135.72,900.14s-1.39-40.58-40.99-41.68c-39.6-1.1-40.99,46.1-40.99,46.1,0,0,8.34-42.54,40.99-40.7,32.65,1.84,40.99,36.29,40.99,36.29Z"/>
  <path class="cls-1" d="M1067.64,905.98c6.91,0,12.51-5.6,12.51-12.51,0-3.58-1.51-6.8-3.93-9.08,3.7-2.19,7.86-3.42,12.26-3.42,15.35,0,27.79,14.93,27.79,33.35,0,18.42-12.44,33.35-27.79,33.35s-27.79-14.93-27.79-33.35c0-3.39.42-6.66,1.21-9.74,1.72.89,3.67,1.4,5.74,1.4Z"/>
  <ellipse class="cls-6" cx="914.1" cy="906.2" rx="42.38" ry="47.02"/>
  <path class="cls-7" d="M956.48,899.39s-1.44-42.26-42.38-43.41c-40.94-1.15-42.38,48-42.38,48,0,0,8.62-44.3,42.38-42.39s42.38,37.79,42.38,37.79Z"/>
  <path class="cls-1" d="M894.43,905.48c7.14,0,12.93-5.83,12.93-13.02,0-3.73-1.57-7.08-4.06-9.46,3.83-2.28,8.13-3.56,12.68-3.56,15.87,0,28.73,15.55,28.73,34.73,0,19.18-12.86,34.73-28.73,34.73s-28.73-15.55-28.73-34.73c0-3.53.44-6.93,1.25-10.14,1.78.93,3.79,1.46,5.93,1.46Z"/>
  <path class="cls-3" d="M1131.6,832.51c-5.38-4.66-26.69-20.83-58.03-15.76-1.2.19-2.43-.15-3.3-1-3.03-2.93-8.4-10.32,4.79-17.58,12.36-6.8,27.59-6.47,39.6.92,16.81,10.35,27.52,29.7,21.37,33.85-1.36.91-3.19.65-4.43-.43Z"/>
  <path class="cls-3" d="M871.4,832.95c10.52-7.26,36.11-21.44,68.8-15.43,2.87.53,5.75-1.01,6.97-3.8,2.7-6.19,3.93-16.84-15.99-21.46-12.83-2.97-26.31-1.79-38.38,3.67-18.59,8.41-26.79,22.97-27.97,32.71-.46,3.8,3.56,6.41,6.59,4.31Z"/>
  <path class="cls-2" d="M1012.92,942.15c-1.08-.07-1.29-1.59-.25-1.9,8.18-2.47,22.65-3.8,30.64,6.58,8.77,11.39,2.95,27.9-10.57,32.78-10.66,3.84-23.73,3.89-29.89,1.26-3.29-1.41-2.83-6.13.68-6.86,8.61-1.77,28.17-2.1,29.72-12.07,2.44-15.68-11.01-19.22-20.33-19.79Z"/>
  <path class="cls-2" d="M1012.83,1043.14c-18.31,0-39.44-5.76-60.43-24.01-3.18-2.76-3.51-7.58-.75-10.76,2.76-3.18,7.58-3.52,10.76-.75,47.41,41.23,93.66,7.92,95.61,6.48,3.39-2.51,8.16-1.79,10.67,1.6,2.5,3.39,1.79,8.16-1.6,10.67-.36.27-23.26,16.77-54.26,16.77Z"/>
  <path d="M817.13,952.18s-22.41-52.8-60.73-46.2c0,0-78.22-185.84,23.21-223.35,0,0-55.58,2.78-55.58-9.73,0,0,28.85-33.35,63.75,0,0,0-12.34-58.36,37.68-88.92,23.62-9.73,5.56,52.8,5.56,52.8,0,0,102.36-113.27,273.25-40.91,2.84,1.2,5.6,2.56,8.33,4,14.64,7.73,69.81,35.13,111.63,32.74,31.96-1.39-13.89,51.41-38.9,48.63,0,0,62.24,45.03,57.44,96.29-.34,3.65-1.74,7.18-4.21,9.9-4.27,4.72-12.42,8.09-25.44-7.54,0,0-5.17,113.74-51,163.61,0,0,13-90.82-8.99-148.06,0,0-123.42-22.5-155.37-60.01,0,0,15.28,27.79,20.84,50.02,0,0,15.28,47.24-98.65-41.68,0,0,6.87,11.35,7.6,18.18,0,0,2.13,36.01-68.74-26.52,0,0-4.17,69.47-34.74,100.04-15.28,16.67,6.95,141.72-6.95,116.71Z"/>
  <path class="cls-3" d="M779.6,682.63c-65.83,27.38-47.54,106.09-41.47,126.68.57,1.95,3.24,2.19,4.16.38,6.27-12.23,12.71-31.54,12.71-31.54,0,40.3,13.9,62.52,48.62,50.02,56.97-41.67,44.46-122.27,44.46-122.27,54.2,68.09,77.81,50.02,77.81,50.02-5.47-10.94-20.38-44.76-20.83-45.82,79.19,87.51,108.38,66.77,109.75,63.9-5.03-20.15-35.18-64.26-40.79-72.36,29.22,40.39,164.7,77.97,188.07,82.08,31.23-.61,38.91-4.16,43.09-25.01,8.32-52.8-70.86-100.03-70.86-100.03,75.03,31.96,123.65-25.01,89.9-26.05-41.81,2.39-96.99-25.03-111.63-32.74-2.72-1.45-5.49-2.8-8.32-4.01-170.9-72.36-273.26,40.91-273.26,40.91,0,0,15.71-55.92-7.92-46.2-49.39,30.2-33.75,84.76-33.37,86.14-34.9-33.32-65.69-3.81-65.69-3.81,0,12.52,55.57,9.74,55.57,9.74ZM992.61,687.84s127.83,17.66,94.48-33.54c0,0,94.04,57.19,71.33,74.56-22.71,17.35-165.81-41.01-165.81-41.01ZM780.02,742.04s24.56,8.32,50.49-24.33c0,0-4.93,72.95-34.66,72.95s-15.83-48.62-15.83-48.62Z"/>
  <path class="cls-5" d="M992.61,687.84s143.1,58.36,165.81,41.01c22.71-17.36-71.33-74.56-71.33-74.56,33.35,51.2-94.48,33.54-94.48,33.54Z"/>
  <path class="cls-5" d="M795.85,790.66c29.73,0,34.66-72.95,34.66-72.95-25.93,32.65-50.49,24.33-50.49,24.33,0,0-13.9,48.62,15.83,48.62Z"/>
  <path class="cls-3" d="M1242.72,765.53s-12.51,44.58-44.47-59.62c0,0-2.57-10.32-11.01-23.22,0,0,49.93,36.87,55.48,82.85Z"/>
</svg>