<?xml version="1.0" encoding="UTF-8"?>
<svg id="_Слой_3" data-name="Слой 3" xmlns="http://www.w3.org/2000/svg" viewBox="0 0 2135.16 1542.16">
  <defs>
    <style>
      .cls-1 {
        fill: #2e1e0e;
      }

      .cls-2 {
        fill: #f89269;
      }

      .cls-3 {
        fill: #ffb915;
      }

      .cls-4 {
        fill: #d36909;
      }

      .cls-5 {
        fill: #faba83;
      }

      .cls-6 {
        fill: #ffdd5b;
      }

      .cls-7 {
        fill: #ffb91d;
      }

      .cls-8 {
        fill: #de8413;
      }

      .cls-9 {
        fill: #fff;
      }

      .cls-9, .cls-10 {
        opacity: .7;
      }

      .cls-10 {
        fill: #3f200e;
      }
    </style>
  </defs>
  <g id="lightboy2">
    <path class="cls-2" d="M1166.2,914.01s58.3,6.48,35.63,74.5c-11.34,29.15-27.53,43.73-58.3,46.97-30.77,3.24,22.67-121.46,22.67-121.46Z"/>
    <path class="cls-2" d="M989.67,1132.64l2.59,44.24s-55.06,8.1-110.13-1.62c0,0,.97-26.45-3.24-61.54l110.77,18.92Z"/>
    <path class="cls-5" d="M1133.98,775.78s32.22,60.49,12.79,206.25c0,0,45.35,155.47-194.34,160.33-71.26,0-147.38-22.67-195.96-90.69,0,0-53.93,21.57-91.69-28.07-14.5-19.06-20.31-43.6-14.06-66.72,5.68-21.01,20.92-40.71,60.4-26.67l40.49-234.83,236.45-55.06,145.93,135.47Z"/>
    <path class="cls-2" d="M1145.7,813.77c6.54,5.85-175.98-39.54-210.28-75.88l39.68,49.8s-16.2,38.87-106.89-32.39c0,0,4.86,6.48,3.24,11.34-1.62,4.86-38.87,8.1-85.83-34.01l-34.01-37.25,236.45-55.06,145.93,135.47"/>
    <ellipse class="cls-9" cx="1069.84" cy="927.78" rx="47.78" ry="52.63"/>
    <path class="cls-10" d="M1117.61,920.15s-1.62-47.3-47.78-48.59c-46.16-1.29-47.78,53.73-47.78,53.73,0,0,9.72-49.59,47.78-47.44,38.06,2.14,47.78,42.3,47.78,42.3Z"/>
    <path class="cls-1" d="M1038.26,926.97c8.05,0,14.58-6.53,14.58-14.58,0-4.18-1.77-7.93-4.58-10.59,4.31-2.55,9.16-3.99,14.3-3.99,17.89,0,32.39,17.4,32.39,38.87,0,21.47-14.5,38.87-32.39,38.87s-32.39-17.4-32.39-38.87c0-3.95.49-7.76,1.41-11.35,2,1.04,4.28,1.64,6.69,1.64Z"/>
    <ellipse class="cls-9" cx="859.3" cy="927.22" rx="49.4" ry="54.81"/>
    <path class="cls-10" d="M908.7,919.28s-1.67-49.26-49.4-50.6c-47.72-1.34-49.4,55.95-49.4,55.95,0,0,10.05-51.64,49.4-49.4,39.35,2.23,49.4,44.05,49.4,44.05Z"/>
    <path class="cls-1" d="M836.37,926.37c8.32,0,15.07-6.8,15.07-15.18,0-4.35-1.82-8.26-4.73-11.03,4.46-2.66,9.47-4.15,14.78-4.15,18.5,0,33.49,18.12,33.49,40.48,0,22.35-14.99,40.48-33.49,40.48-18.5,0-33.49-18.12-33.49-40.48,0-4.11.51-8.08,1.46-11.82,2.07,1.08,4.42,1.7,6.92,1.7Z"/>
    <path class="cls-8" d="M1112.81,841.33c-6.27-5.43-31.1-24.28-67.64-18.37-1.4.23-2.83-.18-3.85-1.16-3.53-3.41-9.8-12.03,5.59-20.5,14.4-7.92,32.16-7.54,46.16,1.08,19.59,12.06,32.08,34.62,24.9,39.45-1.58,1.06-3.72.75-5.16-.5Z"/>
    <path class="cls-8" d="M809.53,841.83c12.26-8.46,42.09-24.99,80.19-17.99,3.34.61,6.7-1.17,8.12-4.43,3.15-7.21,4.58-19.62-18.64-25.01-14.95-3.47-30.66-2.09-44.74,4.28-21.67,9.8-31.22,26.77-32.61,38.13-.54,4.43,4.14,7.47,7.68,5.03Z"/>
    <path class="cls-2" d="M974.48,969.11c-1.26-.08-1.5-1.85-.29-2.21,9.53-2.88,26.4-4.43,35.72,7.67,10.23,13.27,3.44,32.52-12.32,38.21-12.42,4.48-27.66,4.54-34.84,1.46-3.84-1.64-3.3-7.15.79-7.99,10.04-2.07,32.83-2.45,34.64-14.07,2.84-18.27-12.83-22.4-23.69-23.07Z"/>
    <path class="cls-2" d="M974.32,1088.91c-21.74,0-46.83-6.83-71.74-28.49-4.57-3.97-5.05-10.9-1.08-15.46,3.97-4.57,10.89-5.05,15.46-1.08,53.67,46.67,106.65,9.05,108.88,7.43,4.88-3.56,11.73-2.5,15.31,2.36,3.57,4.87,2.55,11.7-2.31,15.29-.43.32-27.67,19.96-64.53,19.96Z"/>
    <path class="cls-4" d="M746.27,980.81s-26.12-61.54-70.78-53.85c0,0-91.17-216.61,27.06-260.34,0,0-64.78,3.24-64.78-11.34,0,0,33.63-38.87,74.31,0,0,0-14.39-68.02,43.92-103.65,27.53-11.34,6.48,61.54,6.48,61.54,0,0,119.3-132.03,318.5-47.68,3.31,1.4,6.53,2.98,9.71,4.66,17.06,9,81.37,40.95,130.12,38.16,37.25-1.62-16.2,59.92-45.35,56.68,0,0,72.55,52.48,66.95,112.24-.4,4.26-2.03,8.37-4.9,11.54-4.98,5.5-14.47,9.43-29.65-8.79,0,0-6.02,132.57-59.45,190.7,0,0,15.15-105.86-10.48-172.57,0,0-143.85-26.22-181.1-69.95,0,0,17.81,32.39,24.29,58.3,0,0,17.81,55.06-114.99-48.59,0,0,8,13.23,8.86,21.19,0,0,2.48,41.97-80.12-30.91,0,0-4.86,80.98-40.49,116.61-17.81,19.43,8.1,165.19-8.1,136.04Z"/>
    <path class="cls-7" d="M702.53,666.63c-76.73,31.91-55.42,123.66-48.33,147.66.67,2.27,3.78,2.56,4.85.45,7.31-14.25,14.82-36.76,14.82-36.76,0,46.97,16.2,72.87,56.68,58.3,66.4-48.58,51.82-142.52,51.82-142.52,63.17,79.37,90.7,58.3,90.7,58.3-6.37-12.75-23.75-52.17-24.28-53.41,92.3,102,126.32,77.83,127.92,74.48-5.87-23.49-41-74.9-47.54-84.34,34.06,47.07,191.97,90.88,219.21,95.67,36.4-.71,45.35-4.85,50.22-29.15,9.7-61.55-82.6-116.6-82.6-116.6,87.45,37.25,144.12-29.15,104.78-30.37-48.74,2.78-113.05-29.17-130.12-38.16-3.17-1.68-6.39-3.27-9.7-4.67-199.19-84.34-318.51,47.68-318.51,47.68,0,0,18.31-65.18-9.24-53.85-57.57,35.2-39.34,98.8-38.89,100.4-40.68-38.83-76.57-4.45-76.57-4.45,0,14.6,64.77,11.35,64.77,11.35ZM950.81,672.7s149,20.58,110.12-39.1c0,0,109.61,66.66,83.15,86.9-26.47,20.22-193.27-47.8-193.27-47.8ZM703.02,735.87s28.62,9.7,58.85-28.36c0,0-5.74,85.03-40.39,85.03-34.65,0-18.45-56.67-18.45-56.67Z"/>
    <path class="cls-3" d="M1242.33,763.25s-14.59,51.97-51.84-69.5c0,0-2.99-12.03-12.83-27.07,0,0,58.2,42.98,64.67,96.57Z"/>
    <path class="cls-6" d="M950.81,672.7s166.8,68.02,193.27,47.8c26.47-20.24-83.15-86.9-83.15-86.9,38.87,59.68-110.12,39.1-110.12,39.1Z"/>
    <path class="cls-6" d="M721.47,792.54c34.65,0,40.39-85.03,40.39-85.03-30.23,38.06-58.85,28.36-58.85,28.36,0,0-16.2,56.67,18.45,56.67Z"/>
  </g>
</svg>