<?xml version="1.0" encoding="UTF-8"?>
<svg id="headgirl2" xmlns="http://www.w3.org/2000/svg" viewBox="0 0 2135.16 1542.16">
  <defs>
    <style>
      .cls-1 {
        fill: #2e1e0e;
      }

      .cls-2 {
        fill: #f89269;
      }

      .cls-3 {
        fill: #333330;
      }

      .cls-4 {
        fill: #faba83;
      }

      .cls-5 {
        fill: #666;
      }

      .cls-6 {
        fill: #ffb91d;
      }

      .cls-7 {
        fill: #fff;
      }

      .cls-7, .cls-8 {
        opacity: .7;
      }

      .cls-8 {
        fill: #3f200e;
      }
    </style>
  </defs>
  <path d="M949.02,564.08s.56-200.33-214.45-117.06c0,0-123.54,43-161.08,241.63,0,0-35.49,85.32-105.11,17.75,0,0,6.14,126.96,118.77,96.92,0,0-23.21,38.22-62.8,34.13,0,0,78.49,73.72,161.77-20.48,83.27-94.19,262.91-252.89,262.91-252.89Z"/>
  <path class="cls-3" d="M949.02,564.08s-41.54,36.7-93.93,85.26l-64.28-54.54s-105.27-27.59-150.41,114.85c-.52,1.6-1.02,3.19-1.51,4.82-1.36,4.64-2.84,9.25-4.7,13.72-34.52,82.21-132.13,63.24-154.24,26.51-10.41-24.54-11.57-48.3-11.57-48.3,40.61,39.41,69.61,26.8,86.72,9.45,10.76-10.91,17.74-24.99,20.96-39.98,40.32-187.7,158.51-228.84,158.51-228.84,215.01-83.28,214.46,117.05,214.46,117.05Z"/>
  <path class="cls-2" d="M1190.14,903.02s57.07,6.34,34.88,72.92c-11.1,28.54-26.95,42.8-57.07,45.97-30.12,3.17,22.19-118.9,22.19-118.9Z"/>
  <path class="cls-2" d="M1018.87,1115.02l3.02,51.58s-53.9,7.93-107.8-1.59c0,0,.95-25.89-3.17-60.24l107.95,10.25Z"/>
  <path class="cls-4" d="M1155.08,764.64s31.54,59.22,12.52,201.89c0,0,44.39,152.19-190.23,156.94-69.75,0-144.26-22.19-191.82-88.78,0,0-52.79,21.12-89.75-27.48-14.19-18.66-19.88-42.68-13.76-65.31,5.56-20.56,20.48-39.85,59.12-26.11l39.63-229.87,231.45-53.9,142.84,132.6Z"/>
  <ellipse class="cls-7" cx="891.73" cy="922.2" rx="48.35" ry="53.65"/>
  <path class="cls-8" d="M940.09,914.43s-1.64-48.21-48.35-49.53c-23.28-.65-35.36,12.94-41.63,26.75-.67,1.48-.99,4.6-8.27,2.12.47,4.23,4.6,7.09,4.6,7.09-.61,1.92-5.15,7.91-13.02,1.7-1.19,6.25,9.97,17.1,9.97,17.1,0,0,9.83-50.55,48.35-48.36,38.52,2.18,48.35,43.12,48.35,43.12Z"/>
  <path class="cls-1" d="M869.29,921.38c8.15,0,14.75-6.65,14.75-14.86,0-4.26-1.79-8.08-4.63-10.79,4.36-2.6,9.27-4.07,14.47-4.07,18.1,0,32.78,17.74,32.78,39.62,0,21.88-14.68,39.62-32.78,39.62-18.1,0-32.78-17.74-32.78-39.62,0-4.03.5-7.91,1.42-11.57,2.03,1.06,4.33,1.67,6.77,1.67Z"/>
  <ellipse class="cls-7" cx="1098.06" cy="922.2" rx="48.35" ry="53.65"/>
  <path class="cls-8" d="M1049.71,914.43s1.64-48.21,48.35-49.53c23.28-.65,35.36,12.94,41.63,26.75.67,1.48.99,4.6,8.27,2.12-.47,4.23-4.6,7.09-4.6,7.09.61,1.92,5.15,7.91,13.02,1.7,1.19,6.25-9.97,17.1-9.97,17.1,0,0-9.83-50.55-48.35-48.36-38.52,2.18-48.35,43.12-48.35,43.12Z"/>
  <path class="cls-1" d="M1071.34,921.38c8.15,0,14.75-6.65,14.75-14.86,0-4.26-1.79-8.08-4.63-10.79,4.36-2.6,9.27-4.07,14.47-4.07,18.1,0,32.78,17.74,32.78,39.62,0,21.88-14.68,39.62-32.78,39.62-18.1,0-32.78-17.74-32.78-39.62,0-4.03.5-7.91,1.42-11.57,2.03,1.06,4.33,1.67,6.77,1.67Z"/>
  <path class="cls-3" d="M1132.13,853.46c-6.12-4.97-30.34-22.23-65.98-16.82-1.37.21-2.76-.16-3.76-1.06-3.45-3.12-9.56-11.02,5.45-18.77,14.05-7.25,31.38-6.91,45.03.99,19.11,11.05,31.3,31.7,24.29,36.12-1.54.98-3.63.69-5.03-.45Z"/>
  <path class="cls-3" d="M846.55,856.82c11.96-7.74,41.06-22.89,78.22-16.47,3.26.56,6.54-1.07,7.92-4.06,3.07-6.6,4.46-17.97-18.19-22.9-14.59-3.18-29.91-1.91-43.64,3.92-21.14,8.97-30.46,24.52-31.81,34.91-.53,4.05,4.04,6.84,7.49,4.61Z"/>
  <path class="cls-2" d="M1006.65,966.82c-1.03-.06-1.22-1.5-.24-1.8,7.73-2.34,21.41-3.59,28.97,6.22,8.29,10.77,2.79,26.38-9.99,30.99-10.08,3.63-22.44,3.68-28.26,1.19-3.11-1.33-2.68-5.8.64-6.48,8.14-1.68,26.63-1.98,28.1-11.41,2.31-14.82-10.41-18.17-19.22-18.71Z"/>
  <path class="cls-2" d="M1011.56,1072.79c-15.88,1.29-34.62-2.22-54.12-16.61-2.95-2.18-3.59-6.35-1.41-9.31,2.17-2.96,6.33-3.59,9.28-1.41,43.81,32.33,76.5,1.87,78.1.49,2.77-2.4,6.96-2.1,9.36.67s2.12,6.96-.64,9.37c-.3.26-13.67,14.61-40.57,16.8Z"/>
  <path d="M1075.02,724.79s-58.7,80.54-105.11,73.72c0,0-11.6,6.14,16.38-45.73,0,0-86.68,83.27-199.31,92.83,0,0,2.73,95.56-9.56,107.16,0,0-23.39-28.19-36.27-36.96,0,0-25.25-11.46-44.23,1.74-4.99-8.27-94.24-140.73,67.53-285.51,0,0,112.91-90.17,274.87-37.62,0,0,34.33,9.56,47.3,30.03,0,0,90.1,2.05,121.5,104.43,0,0,19.69,98.52-40.52,237.65,9.18-74.25,1.96-112.03,1.96-112.03-35.22-30.41-78.06-56.27-94.54-129.72Z"/>
  <path class="cls-6" d="M811.87,625.51s96.27-31.74,146.42-24.57l-9.28-36.86s-77.93-75.76-158.22,30.72c0,0,10.83,23.55,21.07,30.72Z"/>
  <path class="cls-3" d="M1208.88,821.76s-.01.09-.03.12c-26.51,39.28-133.2-36.64-127.33-103.17,1.01-11.41,3.81-22.59,4.48-34.03,1.27-21.7,1.51-41.32,1.51-41.32l-11.73,55.94s-19.14,80.86-98.33,88.38c0,0,23.09-55.67,38.03-92.07-21.58,28.89-46.59,66.95-101.3,96.63-39.07,21.23-93.29,38.2-172.2,44.5,0,0,.41-33.19,11.28-73.39,11.23-41.42,33.56-90.28,78.06-117.83-64.6,35.32-103.42,116.55-107.18,166.1,0,0-40.04,98.78-52.3,43.1-13.14-59.72-.2-143.83,92.61-222.67,0,0,112.9-90.19,274.86-37.62,0,0,34.32,9.54,47.28,30.02,0,0,90.1,2.06,121.52,104.43,0,0,9.45,26.15.75,92.89Z"/>
  <path class="cls-5" d="M953.25,700.86s-46.43,69.28-167.22,90.19c-2.1-48.74,50.89-124.08,50.89-124.08-34.28,52.62,116.33,33.89,116.33,33.89Z"/>
  <path class="cls-5" d="M1175.97,797.16c-33.23,6.78-65.59-74.06-65.59-74.06,39.8,51.6,65.96,14.9,65.96,14.9,0,0,20.93,39.7-.37,59.16Z"/>
  <path class="cls-5" d="M785.97,531.69s31.05-77.81,100.74-37.54c0,0-54.53-83.27-186.27-.68,0,0,81.65-31.4,85.53,38.22Z"/>
</svg>