<?xml version="1.0" encoding="UTF-8"?>
<svg id="headgirl1" xmlns="http://www.w3.org/2000/svg" viewBox="0 0 2135.16 1542.16">
  <defs>
    <style>
      .cls-1 {
        fill: #2e1e0e;
      }

      .cls-2 {
        fill: #f89269;
      }

      .cls-3 {
        fill: #d36909;
      }

      .cls-4 {
        fill: #faba83;
      }

      .cls-5 {
        fill: #ffdd5b;
      }

      .cls-6 {
        fill: #ffb91d;
      }

      .cls-7 {
        fill: #de8413;
      }

      .cls-8 {
        fill: #fff;
      }

      .cls-8, .cls-9 {
        opacity: .7;
      }

      .cls-9 {
        fill: #3f200e;
      }
    </style>
  </defs>
  <path class="cls-3" d="M949.15,572.22s.54-192.47-206.04-112.47c0,0-118.7,41.31-154.77,232.15,0,0-34.1,81.97-100.99,17.05,0,0,5.9,121.98,114.11,93.12,0,0-22.3,36.72-60.33,32.79,0,0,75.42,70.83,155.42-19.67,80.01-90.5,252.6-242.97,252.6-242.97Z"/>
  <path class="cls-6" d="M949.15,572.22s-39.91,35.26-90.25,81.91l-61.76-52.4s-101.14-26.51-144.51,110.34c-.5,1.53-.98,3.07-1.45,4.63-1.31,4.46-2.73,8.89-4.52,13.18-33.17,78.99-126.95,60.76-148.19,25.47-10.01-23.58-11.12-46.41-11.12-46.41,39.02,37.87,66.88,25.75,83.32,9.08,10.34-10.48,17.05-24.01,20.14-38.41,38.74-180.34,152.29-219.87,152.29-219.87,206.58-80.02,206.05,112.46,206.05,112.46Z"/>
  <path class="cls-2" d="M1180.81,897.86s54.83,6.09,33.51,70.06c-10.66,27.42-25.89,41.12-54.83,44.17-28.94,3.05,21.32-114.23,21.32-114.23Z"/>
  <path class="cls-2" d="M1016.26,1101.55l2.91,49.55s-51.79,7.62-103.57-1.52c0,0,.92-24.87-3.05-57.88l103.71,9.85Z"/>
  <path class="cls-4" d="M1147.14,764.91s30.3,56.89,12.03,193.97c0,0,42.65,146.22-182.77,150.79-67.02,0-138.6-21.32-184.3-85.29,0,0-50.72,20.29-86.23-26.4-13.63-17.93-19.1-41.01-13.22-62.75,5.34-19.76,19.68-38.29,56.8-25.09l38.08-220.85,222.37-51.79,137.24,127.4Z"/>
  <ellipse class="cls-8" cx="894.11" cy="916.3" rx="46.45" ry="51.55"/>
  <path class="cls-9" d="M940.57,908.83s-1.57-46.32-46.45-47.58c-22.36-.63-33.98,12.44-40,25.7-.65,1.42-.95,4.42-7.95,2.04.45,4.06,4.42,6.81,4.42,6.81-.59,1.85-4.95,7.6-12.51,1.63-1.15,6,9.58,16.43,9.58,16.43,0,0,9.45-48.56,46.45-46.46,37.01,2.1,46.45,41.43,46.45,41.43Z"/>
  <path class="cls-1" d="M872.55,915.5c7.83,0,14.17-6.39,14.17-14.28,0-4.09-1.72-7.77-4.45-10.37,4.19-2.5,8.91-3.91,13.9-3.91,17.39,0,31.49,17.04,31.49,38.07,0,21.02-14.1,38.07-31.49,38.07-17.39,0-31.49-17.04-31.49-38.07,0-3.87.48-7.6,1.37-11.12,1.95,1.02,4.16,1.6,6.51,1.6Z"/>
  <path class="cls-8" d="M1138.8,916.3c0,28.47-20.8,51.55-46.45,51.55-25.66,0-46.45-23.08-46.45-51.55s20.8-51.55,46.45-51.55c25.66,0,46.45,23.08,46.45,51.55Z"/>
  <path class="cls-9" d="M1045.89,908.83s1.57-46.32,46.45-47.58c22.36-.63,33.98,12.44,40,25.7.65,1.42.95,4.42,7.95,2.04-.45,4.06-4.42,6.81-4.42,6.81.59,1.85,4.95,7.6,12.51,1.63,1.15,6-9.58,16.43-9.58,16.43,0,0-9.45-48.56-46.45-46.46-37.01,2.1-46.45,41.43-46.45,41.43Z"/>
  <path class="cls-1" d="M1066.68,915.5c7.83,0,14.17-6.39,14.17-14.28,0-4.09-1.72-7.77-4.45-10.37,4.19-2.5,8.91-3.91,13.9-3.91,17.39,0,31.49,17.04,31.49,38.07,0,21.02-14.1,38.07-31.49,38.07-17.39,0-31.49-17.04-31.49-38.07,0-3.87.48-7.6,1.37-11.12,1.95,1.02,4.16,1.6,6.51,1.6Z"/>
  <path class="cls-7" d="M1125.08,850.25c-5.88-4.78-29.15-21.36-63.4-16.16-1.31.2-2.65-.16-3.61-1.02-3.31-3-9.18-10.59,5.24-18.03,13.5-6.97,30.15-6.64,43.26.95,18.36,10.61,30.07,30.46,23.34,34.71-1.48.94-3.48.66-4.84-.44Z"/>
  <path class="cls-7" d="M850.7,853.48c11.49-7.44,39.45-21.99,75.16-15.83,3.13.54,6.28-1.03,7.61-3.9,2.95-6.34,4.29-17.26-17.47-22-14.01-3.05-28.74-1.84-41.93,3.76-20.31,8.62-29.26,23.55-30.56,33.54-.51,3.9,3.88,6.57,7.2,4.42Z"/>
  <path class="cls-2" d="M1004.53,959.16c-.98-.06-1.17-1.44-.23-1.73,7.43-2.25,20.57-3.45,27.84,5.98,7.97,10.34,2.68,25.35-9.6,29.78-9.68,3.49-21.56,3.54-27.15,1.14-2.99-1.28-2.57-5.57.61-6.23,7.82-1.61,25.59-1.91,26.99-10.96,2.22-14.24-10-17.46-18.47-17.98Z"/>
  <path class="cls-2" d="M1009.24,1060.98c-15.26,1.24-33.26-2.13-52-15.96-2.84-2.09-3.45-6.1-1.36-8.94,2.08-2.84,6.08-3.45,8.92-1.36,42.09,31.06,73.5,1.79,75.04.47,2.66-2.3,6.68-2.02,8.99.64s2.04,6.69-.61,9c-.28.25-13.14,14.03-38.98,16.14Z"/>
  <path class="cls-3" d="M1070.21,726.63s-56.4,77.38-100.99,70.83c0,0-11.15,5.9,15.74-43.94,0,0-83.29,80.01-191.49,89.19,0,0,2.62,91.81-9.18,102.96,0,0-22.47-27.09-34.84-35.51,0,0-24.26-11.01-42.5,1.68-4.8-7.95-90.54-135.21,64.88-274.31,0,0,108.48-86.64,264.09-36.14,0,0,32.98,9.18,45.44,28.85,0,0,86.56,1.97,116.73,100.34,0,0,18.91,94.66-38.93,228.33,8.82-71.34,1.88-107.63,1.88-107.63-33.83-29.21-75-54.06-90.83-124.63Z"/>
  <path class="cls-1" d="M817.38,631.24s92.5-30.49,140.68-23.61l-8.91-35.41s-74.87-72.79-152.01,29.51c0,0,10.41,22.62,20.24,29.51Z"/>
  <path class="cls-6" d="M1198.82,819.8s-.01.09-.03.11c-25.47,37.74-127.98-35.2-122.33-99.12.97-10.96,3.66-21.71,4.3-32.69,1.22-20.85,1.45-39.7,1.45-39.7l-11.27,53.75s-18.39,77.69-94.48,84.91c0,0,22.19-53.48,36.54-88.46-20.74,27.76-44.76,64.33-97.33,92.84-37.54,20.4-89.63,36.71-165.44,42.75,0,0,.39-31.88,10.84-70.51,10.79-39.8,32.25-86.73,75-113.21-62.07,33.94-99.37,111.98-102.97,159.59,0,0-38.47,94.91-50.25,41.41-12.63-57.38-.19-138.19,88.98-213.93,0,0,108.47-86.65,264.08-36.15,0,0,32.97,9.17,45.43,28.85,0,0,86.57,1.98,116.75,100.34,0,0,9.08,25.12.72,89.24Z"/>
  <path class="cls-5" d="M953.22,703.64s-44.61,66.56-160.67,86.65c-2.01-46.83,48.9-119.21,48.9-119.21-32.93,50.56,111.77,32.56,111.77,32.56Z"/>
  <path class="cls-5" d="M1167.2,796.16c-31.93,6.51-63.02-71.16-63.02-71.16,38.24,49.57,63.37,14.31,63.37,14.31,0,0,20.11,38.14-.35,56.84Z"/>
  <path class="cls-5" d="M792.5,541.1s29.83-74.76,96.79-36.07c0,0-52.4-80.01-178.96-.66,0,0,78.45-30.17,82.18,36.72Z"/>
</svg>