<svg viewBox="0 0 97 98" fill="none" xmlns="http://www.w3.org/2000/svg">
    <g clip-path="url(#clip0_176_1910)">
        <path d="M43.8807 0.73991C6.30725 4.30295 -13.918 49.0711 10.9711 79.6396C22.473 93.8194 41.6801 100.834 60.6113 95.956C70.7535 93.3396 79.5228 87.5348 85.7697 79.9814C113.05 47.1712 87.3528 -3.40821 43.8807 0.73991Z" fill="url(#paint0_radial_176_1910)"/>
        <path d="M56.3734 14.7652C68.8982 18.2589 77.8988 28.2463 80.7257 40.0755C86.966 66.1592 62.2231 88.8084 37.3513 81.0047C21.4779 76.2278 11.2346 60.6922 12.9717 44.3173C15.1577 23.168 35.8456 9.03895 56.3734 14.7652Z" fill="url(#paint1_radial_176_1910)"/>
        <g opacity="0.75">
            <path d="M47.5711 71.2762C44.6168 69.4903 40.3203 68.8432 39.9157 70.6679C39.5111 72.4926 42.3305 75.3332 45.7536 74.9256C49.183 74.5244 49.5877 72.4926 47.5711 71.2762Z" fill="#056DB1"/>
            <path d="M57.2046 81.1244C54.5393 81.9203 51.7392 82.3991 48.8428 82.5091C49.5043 78.2838 53.4925 79.6168 55.6247 80.1991C56.2477 80.3739 56.7679 80.7168 57.2046 81.1244Z" fill="#056DB1"/>
            <path d="M28.8438 71.0754C30.1475 71.6513 31.0595 68.843 29.2484 66.4101C27.4373 63.9772 26.6281 60.9295 24.4125 60.3213C22.1968 59.7131 20.9894 67.6266 28.8438 71.0754Z" fill="#056DB1"/>
            <path d="M19.9811 61.1306C19.2682 61.26 18.9728 62.7547 20.5848 62.9553C22.1968 63.1623 22.1968 60.7294 19.9811 61.1306Z" fill="#056DB1"/>
            <path d="M37.9054 52.8157C36.4861 52.6863 35.086 53.424 35.2851 55.0481C35.4842 56.6722 37.6999 55.0481 38.7082 55.0481C39.7165 55.0481 40.1211 53.0163 37.9054 52.8157Z" fill="#056DB1"/>
        </g>
        <path d="M13.7014 53.9622C19.4379 56.9456 25.5009 51.1638 29.5086 52.8255C34.1995 54.7652 30.8471 61.6188 32.8268 70.3827C33.8189 74.7686 33.2336 77.4522 32.405 79.034C22.4039 74.1359 15.5568 64.6789 13.7014 53.9622Z" fill="url(#paint2_linear_176_1910)"/>
        <path d="M14.4464 38.8343C17.9972 25.9328 28.3651 16.786 40.5399 14.2466C41.9064 18.7975 37.1728 20.5723 31.6498 22.2613C24.803 24.3532 29.8062 27.4341 27.1726 33.2259C24.5327 39.0159 28.1133 40.4377 24.9693 45.0328C22.7264 48.315 17.1876 43.0636 14.2041 39.7873C14.2775 39.4721 14.3589 39.1523 14.4464 38.8343Z" fill="url(#paint3_linear_176_1910)"/>
        <path d="M48.1695 37.3974C52.0011 37.2778 52.742 42.0435 57.4738 42.3093C62.2056 42.5751 68.0996 35.5912 62.0306 34.1064C55.9616 32.6216 54.1919 32.974 50.5911 28.599C46.9903 24.2239 41.156 24.9129 38.2571 29.3683C35.3643 33.8254 35.3131 37.8129 48.1695 37.3974Z" fill="url(#paint4_linear_176_1910)"/>
        <path d="M36.7618 50.0077C38.7832 49.927 39.5196 49.0917 39.2605 47.7571C39.0014 46.4225 36.6211 45.9667 35.9415 43.8836C35.2619 41.8006 32.939 38.8362 31.0893 42.5301C29.2334 46.2223 32.1137 50.1883 36.7618 50.0077Z" fill="url(#paint5_linear_176_1910)"/>
        <path opacity="0.5" d="M40.7519 62.0718C41.8159 59.562 43.4689 62.8297 47.1349 64.6916C50.801 66.5536 51.7074 69.3377 49.5313 70.416C47.3552 71.4943 44.7055 72.0175 42.7481 70.001C40.7985 67.98 39.5616 64.8955 40.7519 62.0718Z" fill="#005041"/>
        <path d="M40.5794 78.6553C45.4317 80.0088 48.5122 77.9205 53.4053 77.6001C56.3223 77.4134 58.1297 79.0791 59.117 80.4557C52.6526 82.8288 45.4207 83.269 38.2847 81.2784C38.0372 81.2093 37.7958 81.142 37.5578 81.0622C37.6053 79.558 38.1719 77.9837 40.5794 78.6553Z" fill="url(#paint6_linear_176_1910)"/>
        <path opacity="0.45" d="M46.1241 82.7321C36.9815 82.48 28.3484 78.5235 22.154 71.9339C20.7126 70.3965 19.4046 68.719 18.248 66.9165C16.7446 64.5623 15.5059 61.9892 14.5921 59.22C14.4462 58.7846 14.3127 58.3456 14.1836 57.8986C10.5767 45.4137 14.3095 32.5237 22.8349 23.9202C25.2182 21.512 27.9792 19.4377 31.0607 17.8015C33.0811 16.7318 35.2408 15.8435 37.5243 15.1749C41.4988 14.0112 45.5111 13.604 49.4099 13.8697C39.3765 20.8678 27.5089 33.6349 30.4754 53.8892C31.0547 57.8404 32.0127 61.4115 33.2543 64.6436C36.3136 72.5686 41.0737 78.4336 46.1241 82.7321Z" fill="url(#paint7_linear_176_1910)"/>
        <path d="M81.2497 42.3981C81.2497 42.3981 76.3752 24.4099 53.9614 18.4893C40.526 14.937 31.2009 18.1399 25.8896 21.2717C42.8509 7.32111 68.7905 12.8599 78.411 33.2681C80.646 37.9981 81.0891 41.7381 81.2497 42.3981Z" fill="url(#paint8_linear_176_1910)"/>
        <g filter="url(#filter0_i_176_1910)">
            <path d="M72.75 27.5C76.209 27.5 79.0131 29.2702 79.0131 31.4538C79.0131 32.0536 78.8015 32.6221 78.423 33.1313C78.4625 33.1308 78.5021 33.1306 78.5419 33.1306C81.5563 33.1306 84 34.5578 84 36.3185C84 38.0791 81.5563 39.5064 78.5419 39.5064C77.5376 39.5064 76.5968 39.3479 75.7885 39.0715C74.7136 39.939 73.0051 40.5 71.0812 40.5C70.1798 40.5 69.3257 40.3768 68.5619 40.1567C67.3694 40.3758 66.0081 40.5 64.5628 40.5C62.3748 40.5 60.3794 40.2154 58.8705 39.7478C58.6526 39.7796 58.4292 39.7962 58.2016 39.7962C55.8811 39.7962 54 38.0816 54 35.9666C54 33.8515 55.8811 32.1369 58.2016 32.1369C58.7305 32.1369 59.2365 32.226 59.7027 32.3886C59.8562 31.0008 61.9647 29.9013 64.5432 29.9013C65.36 29.9013 66.1297 30.0116 66.805 30.2065C67.6325 28.6341 69.9814 27.5 72.75 27.5Z" fill="#D9D9D9"/>
        </g>
        <g filter="url(#filter1_i_176_1910)">
            <path d="M69.625 66.5C71.5851 66.5 73.1741 67.5893 73.1741 68.9331C73.1741 69.3022 73.0542 69.652 72.8397 69.9654C72.8621 69.9651 72.8846 69.965 72.9071 69.965C74.6152 69.965 76 70.8433 76 71.9268C76 73.0102 74.6152 73.8885 72.9071 73.8885C72.338 73.8885 71.8048 73.791 71.3468 73.6209C70.7377 74.1548 69.7696 74.5 68.6793 74.5C68.1685 74.5 67.6846 74.4242 67.2518 74.2888C66.576 74.4236 65.8046 74.5 64.9856 74.5C63.7457 74.5 62.615 74.3249 61.7599 74.0371C61.6365 74.0567 61.5099 74.0669 61.3809 74.0669C60.066 74.0669 59 73.0118 59 71.7102C59 70.4086 60.066 69.3535 61.3809 69.3535C61.6806 69.3535 61.9674 69.4083 62.2315 69.5084C62.3185 68.6544 63.5133 67.9777 64.9745 67.9777C65.4374 67.9777 65.8735 68.0456 66.2562 68.1656C66.7251 67.1979 68.0561 66.5 69.625 66.5Z" fill="#D9D9D9"/>
        </g>
        <g filter="url(#filter2_di_176_1910)">
            <path d="M22.7988 48.5C26.2454 48.5001 29.1856 49.7624 30.3398 51.5371C30.4823 51.5346 30.6255 51.5342 30.7695 51.5342C35.867 51.5342 39.9997 53.093 40 55.0166C40 56.9403 35.8672 58.5 30.7695 58.5C29.3518 58.5 28.0089 58.3786 26.8086 58.1631H20.9805C19.8116 58.3765 18.459 58.5 17.0176 58.5C12.5895 58.4999 9 57.3491 9 55.9297C9.00055 54.7633 11.4248 53.7798 14.7461 53.4658C14.738 53.3795 14.7334 53.2926 14.7334 53.2051C14.7334 50.6065 18.3448 48.5 22.7988 48.5Z" fill="url(#paint9_linear_176_1910)"/>
        </g>
    </g>
    <defs>
        <filter id="filter0_i_176_1910" x="54" y="27.5" width="30" height="15" filterUnits="userSpaceOnUse" color-interpolation-filters="sRGB">
            <feFlood flood-opacity="0" result="BackgroundImageFix"/>
            <feBlend mode="normal" in="SourceGraphic" in2="BackgroundImageFix" result="shape"/>
            <feColorMatrix in="SourceAlpha" type="matrix" values="0 0 0 0 0 0 0 0 0 0 0 0 0 0 0 0 0 0 127 0" result="hardAlpha"/>
            <feOffset dy="2"/>
            <feGaussianBlur stdDeviation="3"/>
            <feComposite in2="hardAlpha" operator="arithmetic" k2="-1" k3="1"/>
            <feColorMatrix type="matrix" values="0 0 0 0 0.571115 0 0 0 0 0.549571 0 0 0 0 0.804518 0 0 0 1 0"/>
            <feBlend mode="normal" in2="shape" result="effect1_innerShadow_176_1910"/>
        </filter>
        <filter id="filter1_i_176_1910" x="59" y="66.5" width="17" height="10" filterUnits="userSpaceOnUse" color-interpolation-filters="sRGB">
            <feFlood flood-opacity="0" result="BackgroundImageFix"/>
            <feBlend mode="normal" in="SourceGraphic" in2="BackgroundImageFix" result="shape"/>
            <feColorMatrix in="SourceAlpha" type="matrix" values="0 0 0 0 0 0 0 0 0 0 0 0 0 0 0 0 0 0 127 0" result="hardAlpha"/>
            <feOffset dy="2"/>
            <feGaussianBlur stdDeviation="3"/>
            <feComposite in2="hardAlpha" operator="arithmetic" k2="-1" k3="1"/>
            <feColorMatrix type="matrix" values="0 0 0 0 0.571115 0 0 0 0 0.549571 0 0 0 0 0.804518 0 0 0 1 0"/>
            <feBlend mode="normal" in2="shape" result="effect1_innerShadow_176_1910"/>
        </filter>
        <filter id="filter2_di_176_1910" x="5" y="48.5" width="39" height="18" filterUnits="userSpaceOnUse" color-interpolation-filters="sRGB">
            <feFlood flood-opacity="0" result="BackgroundImageFix"/>
            <feColorMatrix in="SourceAlpha" type="matrix" values="0 0 0 0 0 0 0 0 0 0 0 0 0 0 0 0 0 0 127 0" result="hardAlpha"/>
            <feOffset dy="4"/>
            <feGaussianBlur stdDeviation="2"/>
            <feComposite in2="hardAlpha" operator="out"/>
            <feColorMatrix type="matrix" values="0 0 0 0 0 0 0 0 0 0 0 0 0 0 0 0 0 0 0.25 0"/>
            <feBlend mode="normal" in2="BackgroundImageFix" result="effect1_dropShadow_176_1910"/>
            <feBlend mode="normal" in="SourceGraphic" in2="effect1_dropShadow_176_1910" result="shape"/>
            <feColorMatrix in="SourceAlpha" type="matrix" values="0 0 0 0 0 0 0 0 0 0 0 0 0 0 0 0 0 0 127 0" result="hardAlpha"/>
            <feOffset dy="4"/>
            <feGaussianBlur stdDeviation="2"/>
            <feComposite in2="hardAlpha" operator="arithmetic" k2="-1" k3="1"/>
            <feColorMatrix type="matrix" values="0 0 0 0 0 0 0 0 0 0 0 0 0 0 0 0 0 0 0.25 0"/>
            <feBlend mode="normal" in2="shape" result="effect2_innerShadow_176_1910"/>
        </filter>
        <radialGradient id="paint0_radial_176_1910" cx="0" cy="0" r="1" gradientUnits="userSpaceOnUse" gradientTransform="translate(48.4981 49.0018) scale(41.8419 41.8744)">
            <stop stop-color="#90DD6F"/>
            <stop offset="1" stop-color="#B8FFA9" stop-opacity="0"/>
        </radialGradient>
        <radialGradient id="paint1_radial_176_1910" cx="0" cy="0" r="1" gradientUnits="userSpaceOnUse" gradientTransform="translate(42.001 60.5372) rotate(-164.414) scale(41.8306 41.8235)">
            <stop stop-color="#3B307B"/>
            <stop offset="1" stop-color="#201A61"/>
        </radialGradient>
        <linearGradient id="paint2_linear_176_1910" x1="17.1716" y1="97.9819" x2="36.1495" y2="0.306597" gradientUnits="userSpaceOnUse">
            <stop stop-color="#DAC1AE"/>
            <stop offset="1" stop-color="#005041" stop-opacity="0"/>
        </linearGradient>
        <linearGradient id="paint3_linear_176_1910" x1="14.1673" y1="97.3981" x2="33.1452" y2="-0.27708" gradientUnits="userSpaceOnUse">
            <stop stop-color="#DAC1AE"/>
            <stop offset="1" stop-color="#005041" stop-opacity="0"/>
        </linearGradient>
        <linearGradient id="paint4_linear_176_1910" x1="37.796" y1="101.989" x2="56.774" y2="4.31341" gradientUnits="userSpaceOnUse">
            <stop stop-color="#DAC1AE"/>
            <stop offset="1" stop-color="#005041" stop-opacity="0"/>
        </linearGradient>
        <linearGradient id="paint5_linear_176_1910" x1="24.7385" y1="99.4522" x2="43.7165" y2="1.77656" gradientUnits="userSpaceOnUse">
            <stop stop-color="#DAC1AE"/>
            <stop offset="1" stop-color="#005041" stop-opacity="0"/>
        </linearGradient>
        <linearGradient id="paint6_linear_176_1910" x1="44" y1="103.195" x2="62.9779" y2="5.51919" gradientUnits="userSpaceOnUse">
            <stop stop-color="#DAC1AE"/>
            <stop offset="1" stop-color="#005041"/>
        </linearGradient>
        <linearGradient id="paint7_linear_176_1910" x1="2.94895" y1="48.0521" x2="49.5674" y2="55.0648" gradientUnits="userSpaceOnUse">
            <stop stop-color="#201A61"/>
            <stop offset="1" stop-color="#3B307B"/>
        </linearGradient>
        <linearGradient id="paint8_linear_176_1910" x1="72.3323" y1="-5.44515" x2="50.5264" y2="37.2343" gradientUnits="userSpaceOnUse">
            <stop stop-color="#E2FFB5"/>
            <stop offset="1" stop-color="#FFFFB3" stop-opacity="0"/>
        </linearGradient>
        <linearGradient id="paint9_linear_176_1910" x1="25.3158" y1="42.25" x2="24.8367" y2="58.5099" gradientUnits="userSpaceOnUse">
            <stop stop-color="#A095E3"/>
            <stop offset="1" stop-color="white"/>
        </linearGradient>
        <clipPath id="clip0_176_1910">
            <rect width="97" height="97" fill="white" transform="translate(0 0.5)"/>
        </clipPath>
    </defs>
</svg>