<svg viewBox="0 0 103 103" fill="none" xmlns="http://www.w3.org/2000/svg">
    <circle cx="51.34" cy="51.3397" r="47.8942" transform="rotate(4.28615 51.34 51.3397)" fill="url(#paint0_radial_323_348)"/>
    <circle cx="50.1643" cy="52.4437" r="34.7196" transform="rotate(4.28615 50.1643 52.4437)" fill="url(#paint1_radial_323_348)"/>
    <g filter="url(#filter0_i_323_348)">
        <path d="M59.0127 25.1734C56.4366 23.759 53.7685 27.6814 50.7953 27.4586C47.822 27.2358 43.3307 26.9881 43.5536 24.0148C43.7764 21.0416 48.4417 18.9674 51.4149 19.1902C54.3882 19.4131 59.2681 21.7655 59.0127 25.1734Z" fill="url(#paint2_linear_323_348)"/>
        <path d="M59.0127 25.1734C56.4366 23.759 53.7685 27.6814 50.7953 27.4586C47.822 27.2358 43.3307 26.9881 43.5536 24.0148C43.7764 21.0416 48.4417 18.9674 51.4149 19.1902C54.3882 19.4131 59.2681 21.7655 59.0127 25.1734Z" fill="url(#paint3_linear_323_348)"/>
    </g>
    <path d="M34.4292 25.2869C33.704 26.3665 32.7745 27.9803 31.3902 29.0458C30.0059 30.1114 27.939 31.746 27.2318 30.8273C26.5245 29.9086 28.0392 27.5565 29.4235 26.4909C30.8078 25.4253 30.6545 25.0039 34.4292 25.2869Z" fill="white"/>
    <path d="M34.4292 25.2869C33.704 26.3665 32.7745 27.9803 31.3902 29.0458C30.0059 30.1114 27.939 31.746 27.2318 30.8273C26.5245 29.9086 28.0392 27.5565 29.4235 26.4909C30.8078 25.4253 30.6545 25.0039 34.4292 25.2869Z" fill="#D7E9F5"/>
    <g filter="url(#filter1_i_323_348)">
        <path d="M33.2136 34.7287C34.1063 36.7708 29.8106 41.9079 26.9541 42.2073C24.0975 42.5067 23.6954 42.001 22.3852 39.7479C22.1144 37.1634 24.8555 34.8078 27.4174 33.5931C30.2434 32.2532 32.0062 31.9668 33.2136 34.7287Z" fill="url(#paint4_linear_323_348)"/>
    </g>
    <g filter="url(#filter2_i_323_348)">
        <path d="M65.6331 52.0811C66.6579 53.73 64.2051 58.7109 62.0578 59.3331C59.9106 59.9553 59.5176 59.5701 58.1368 57.7924C57.5004 55.5962 59.2183 53.214 60.9874 51.8393C62.9389 50.3228 64.2471 49.8511 65.6331 52.0811Z" fill="url(#paint5_linear_323_348)"/>
    </g>
    <g filter="url(#filter3_i_323_348)">
        <path d="M68.815 30.3833C70.6879 29.8317 75.1458 31.8332 75.3046 33.2999C75.4634 34.7667 74.9926 34.9971 72.9137 35.7741C70.5766 36.0271 68.5624 34.7098 67.5682 33.4356C66.4715 32.0299 66.282 31.1292 68.815 30.3833Z" fill="url(#paint6_linear_323_348)"/>
    </g>
    <path d="M78.3656 56.465C78.8606 58.6909 74.7234 63.4201 72.3379 63.3492C69.9525 63.2783 69.681 62.7031 68.8673 60.2041C68.9477 57.5014 71.4794 55.4354 73.7298 54.5227C76.2123 53.5159 77.6963 53.4548 78.3656 56.465Z" fill="url(#paint7_linear_323_348)"/>
    <g filter="url(#filter4_i_323_348)">
        <path d="M35.876 49.2472C35.8153 52.9316 34.0566 54.4482 31.5163 55.298C29.2044 54.3088 27.2897 53.2668 27.3582 49.1069C28.3132 45.2589 28.6417 43.3622 31.712 43.4127C34.7824 43.4633 35.0482 45.3698 35.876 49.2472Z" fill="url(#paint8_linear_323_348)"/>
    </g>
    <g filter="url(#filter5_ii_323_348)">
        <path d="M41.4506 64.171C41.8029 66.4915 40.6351 67.6643 38.8034 68.5167C36.9459 68.1861 35.3834 67.7723 34.9857 65.1524C35.2929 62.6169 35.3366 61.385 37.667 61.0313C39.9974 60.6775 40.4047 61.8409 41.4506 64.171Z" fill="url(#paint9_linear_323_348)"/>
    </g>
    <g filter="url(#filter6_i_323_348)">
        <path d="M66.329 66.2008C66.6814 68.2139 66.7787 67.2775 66.1135 69.0759C63.7292 69.8304 63.4917 69.456 62.5584 67.742C62.1484 65.9019 61.874 65.0355 63.4469 64.179C65.0198 63.3225 66.0967 64.8742 66.329 66.2008Z" fill="url(#paint10_linear_323_348)"/>
    </g>
    <g filter="url(#filter7_i_323_348)">
        <path d="M79.1221 40.1805C81.3036 43.1502 80.5094 45.6511 78.5469 48.199C75.6888 49.1186 73.1863 49.7033 70.7232 46.3503C69.315 42.5912 68.482 40.8432 71.5095 38.6192C74.537 36.3952 75.956 37.7127 79.1221 40.1805Z" fill="url(#paint11_linear_323_348)"/>
    </g>
    <g filter="url(#filter8_d_323_348)">
        <path d="M28.8509 57.1685C32.0258 59.8706 30.5837 62.5439 29.2575 64.3992C27.2269 65.5753 26.6503 65.9791 22.8532 63.0622C21.6481 60.0351 21.0219 59.5475 23.3759 56.7582C25.7299 53.9689 25.676 54.4665 28.8509 57.1685Z" fill="url(#paint12_linear_323_348)"/>
    </g>
    <g filter="url(#filter9_ii_323_348)">
        <path d="M33.5957 70.5352C36.8127 71.5283 36.9868 73.4713 36.894 74.8879C36.054 76.0353 35.8448 76.404 32.1293 75.4093C30.0691 73.8039 29.4536 73.6359 29.8296 71.4306C30.2055 69.2253 30.3787 69.542 33.5957 70.5352Z" fill="url(#paint13_linear_323_348)"/>
    </g>
    <path d="M64.3011 45.3855C61.423 46.2202 60.41 44.1653 59.8373 42.5347C59.9505 40.753 59.9411 40.2171 63.1961 39.0836C65.4791 39.6267 66.0198 39.4426 66.7367 42.1205C67.4536 44.7985 67.1792 44.5508 64.3011 45.3855Z" fill="url(#paint14_linear_323_348)"/>
    <g filter="url(#filter10_d_323_348)">
        <path d="M56.9802 44.3979C54.4258 45.0917 53.5366 43.4177 53.0359 42.0884C53.1437 40.6328 53.1376 40.1952 56.0273 39.2558C58.0484 39.6897 58.5283 39.5371 59.1525 41.7212C59.7767 43.9052 59.5345 43.7041 56.9802 44.3979Z" fill="#DFF2F8"/>
    </g>
    <g filter="url(#filter11_d_323_348)">
        <path d="M55.2719 51.0097C53.6878 50.4162 53.884 49.1827 54.1454 48.2808C54.7689 47.5412 54.9366 47.3043 56.7889 47.8928C57.6587 48.8893 57.965 48.9889 57.4335 50.3957C56.9019 51.8025 56.8559 51.6032 55.2719 51.0097Z" fill="#DFF2F8"/>
    </g>
    <path d="M63.1149 37.5942C60.8691 38.1373 60.1014 36.8785 59.6718 35.8774C59.7771 34.7765 59.7749 34.4458 62.3166 33.7146C64.0864 34.0278 64.5085 33.909 65.0401 35.5552C65.5716 37.2014 65.3607 37.0511 63.1149 37.5942Z" fill="url(#paint15_linear_323_348)"/>
    <path d="M55.2205 33.5748C54.2724 32.2409 56.2787 31.3774 57.8801 30.8105C59.6598 30.5696 60.1933 30.4748 61.4543 31.9516C61.0057 33.2119 61.211 33.4579 58.572 34.2743C55.933 35.0908 56.1686 34.9087 55.2205 33.5748Z" fill="url(#paint16_linear_323_348)"/>
    <g filter="url(#filter12_d_323_348)">
        <path d="M23.7436 48.6423C23.8789 50.4659 22.7857 51.9691 20.9968 52.4652C19.471 51.2752 19.1354 51.3221 19.0521 48.7836C19.801 46.6968 20.3838 45.3155 21.7868 45.863C23.1899 46.4105 23.6084 46.8187 23.7436 48.6423Z" fill="url(#paint17_linear_323_348)"/>
    </g>
    <path d="M54.71 82.5851C51.3384 83.5011 49.0246 83.795 46.5445 83.6091C45.5391 83.5338 41.4364 83.4124 41.6288 80.8452C41.8212 78.278 43.7954 79.7304 46.6089 79.9413C49.4223 80.1522 52.9524 81.752 54.71 82.5851Z" fill="url(#paint18_linear_323_348)"/>
    <path d="M50.2165 75.7349C50.5293 78.9841 48.2474 83.7492 46.5445 83.609C45.3916 83.5141 41.6288 83.3534 41.6288 80.8451C41.6289 78.3369 43.9274 79.8011 46.609 79.9412C47.8708 78.47 48.333 75.7621 50.2165 75.7349Z" fill="url(#paint19_linear_323_348)"/>
    <defs>
        <filter id="filter0_i_323_348" x="43.5454" y="15.1739" width="15.4771" height="12.2939" filterUnits="userSpaceOnUse" color-interpolation-filters="sRGB">
            <feFlood flood-opacity="0" result="BackgroundImageFix"/>
            <feBlend mode="normal" in="SourceGraphic" in2="BackgroundImageFix" result="shape"/>
            <feColorMatrix in="SourceAlpha" type="matrix" values="0 0 0 0 0 0 0 0 0 0 0 0 0 0 0 0 0 0 127 0" result="hardAlpha"/>
            <feOffset dy="-4"/>
            <feGaussianBlur stdDeviation="2"/>
            <feComposite in2="hardAlpha" operator="arithmetic" k2="-1" k3="1"/>
            <feColorMatrix type="matrix" values="0 0 0 0 0.647059 0 0 0 0 0.815686 0 0 0 0 0.917647 0 0 0 1 0"/>
            <feBlend mode="normal" in2="shape" result="effect1_innerShadow_323_348"/>
        </filter>
        <filter id="filter1_i_323_348" x="20.3667" y="31.606" width="12.9668" height="10.6796" filterUnits="userSpaceOnUse" color-interpolation-filters="sRGB">
            <feFlood flood-opacity="0" result="BackgroundImageFix"/>
            <feBlend mode="normal" in="SourceGraphic" in2="BackgroundImageFix" result="shape"/>
            <feColorMatrix in="SourceAlpha" type="matrix" values="0 0 0 0 0 0 0 0 0 0 0 0 0 0 0 0 0 0 127 0" result="hardAlpha"/>
            <feOffset dx="-2" dy="-1"/>
            <feGaussianBlur stdDeviation="1.5"/>
            <feComposite in2="hardAlpha" operator="arithmetic" k2="-1" k3="1"/>
            <feColorMatrix type="matrix" values="0 0 0 0 0.647059 0 0 0 0 0.815686 0 0 0 0 0.917647 0 0 0 1 0"/>
            <feBlend mode="normal" in2="shape" result="effect1_innerShadow_323_348"/>
        </filter>
        <filter id="filter2_i_323_348" x="58.0015" y="50.554" width="7.87207" height="9.05695" filterUnits="userSpaceOnUse" color-interpolation-filters="sRGB">
            <feFlood flood-opacity="0" result="BackgroundImageFix"/>
            <feBlend mode="normal" in="SourceGraphic" in2="BackgroundImageFix" result="shape"/>
            <feColorMatrix in="SourceAlpha" type="matrix" values="0 0 0 0 0 0 0 0 0 0 0 0 0 0 0 0 0 0 127 0" result="hardAlpha"/>
            <feOffset dx="15" dy="-12"/>
            <feGaussianBlur stdDeviation="3.5"/>
            <feComposite in2="hardAlpha" operator="arithmetic" k2="-1" k3="1"/>
            <feColorMatrix type="matrix" values="0 0 0 0 0.647059 0 0 0 0 0.815686 0 0 0 0 0.917647 0 0 0 1 0"/>
            <feBlend mode="normal" in2="shape" result="effect1_innerShadow_323_348"/>
        </filter>
        <filter id="filter3_i_323_348" x="66.8008" y="27.2896" width="11.5322" height="8.51599" filterUnits="userSpaceOnUse" color-interpolation-filters="sRGB">
            <feFlood flood-opacity="0" result="BackgroundImageFix"/>
            <feBlend mode="normal" in="SourceGraphic" in2="BackgroundImageFix" result="shape"/>
            <feColorMatrix in="SourceAlpha" type="matrix" values="0 0 0 0 0 0 0 0 0 0 0 0 0 0 0 0 0 0 127 0" result="hardAlpha"/>
            <feOffset dx="8" dy="-5"/>
            <feGaussianBlur stdDeviation="1.5"/>
            <feComposite in2="hardAlpha" operator="arithmetic" k2="-1" k3="1"/>
            <feColorMatrix type="matrix" values="0 0 0 0 0.647059 0 0 0 0 0.815686 0 0 0 0 0.917647 0 0 0 1 0"/>
            <feBlend mode="normal" in2="shape" result="effect1_innerShadow_323_348"/>
        </filter>
        <filter id="filter4_i_323_348" x="27.3564" y="37.4117" width="8.51953" height="17.8862" filterUnits="userSpaceOnUse" color-interpolation-filters="sRGB">
            <feFlood flood-opacity="0" result="BackgroundImageFix"/>
            <feBlend mode="normal" in="SourceGraphic" in2="BackgroundImageFix" result="shape"/>
            <feColorMatrix in="SourceAlpha" type="matrix" values="0 0 0 0 0 0 0 0 0 0 0 0 0 0 0 0 0 0 127 0" result="hardAlpha"/>
            <feOffset dy="-6"/>
            <feGaussianBlur stdDeviation="3"/>
            <feComposite in2="hardAlpha" operator="arithmetic" k2="-1" k3="1"/>
            <feColorMatrix type="matrix" values="0 0 0 0 0.647059 0 0 0 0 0.815686 0 0 0 0 0.917647 0 0 0 0.46 0"/>
            <feBlend mode="normal" in2="shape" result="effect1_innerShadow_323_348"/>
        </filter>
        <filter id="filter5_ii_323_348" x="30.9858" y="56.9688" width="13.5273" height="16.5479" filterUnits="userSpaceOnUse" color-interpolation-filters="sRGB">
            <feFlood flood-opacity="0" result="BackgroundImageFix"/>
            <feBlend mode="normal" in="SourceGraphic" in2="BackgroundImageFix" result="shape"/>
            <feColorMatrix in="SourceAlpha" type="matrix" values="0 0 0 0 0 0 0 0 0 0 0 0 0 0 0 0 0 0 127 0" result="hardAlpha"/>
            <feOffset dx="-9" dy="-8"/>
            <feGaussianBlur stdDeviation="2"/>
            <feComposite in2="hardAlpha" operator="arithmetic" k2="-1" k3="1"/>
            <feColorMatrix type="matrix" values="0 0 0 0 0.647059 0 0 0 0 0.815686 0 0 0 0 0.917647 0 0 0 1 0"/>
            <feBlend mode="normal" in2="shape" result="effect1_innerShadow_323_348"/>
            <feColorMatrix in="SourceAlpha" type="matrix" values="0 0 0 0 0 0 0 0 0 0 0 0 0 0 0 0 0 0 127 0" result="hardAlpha"/>
            <feOffset dx="3" dy="5"/>
            <feGaussianBlur stdDeviation="13"/>
            <feComposite in2="hardAlpha" operator="arithmetic" k2="-1" k3="1"/>
            <feColorMatrix type="matrix" values="0 0 0 0 0.87451 0 0 0 0 0.94902 0 0 0 0 0.972549 0 0 0 1 0"/>
            <feBlend mode="normal" in2="effect1_innerShadow_323_348" result="effect2_innerShadow_323_348"/>
        </filter>
        <filter id="filter6_i_323_348" x="58.2402" y="63.933" width="8.36377" height="9.51361" filterUnits="userSpaceOnUse" color-interpolation-filters="sRGB">
            <feFlood flood-opacity="0" result="BackgroundImageFix"/>
            <feBlend mode="normal" in="SourceGraphic" in2="BackgroundImageFix" result="shape"/>
            <feColorMatrix in="SourceAlpha" type="matrix" values="0 0 0 0 0 0 0 0 0 0 0 0 0 0 0 0 0 0 127 0" result="hardAlpha"/>
            <feOffset dx="-4" dy="8"/>
            <feGaussianBlur stdDeviation="2"/>
            <feComposite in2="hardAlpha" operator="arithmetic" k2="-1" k3="1"/>
            <feColorMatrix type="matrix" values="0 0 0 0 0.87451 0 0 0 0 0.94902 0 0 0 0 0.972549 0 0 0 1 0"/>
            <feBlend mode="normal" in2="shape" result="effect1_innerShadow_323_348"/>
        </filter>
        <filter id="filter7_i_323_348" x="66.4531" y="27.4825" width="13.9771" height="21.431" filterUnits="userSpaceOnUse" color-interpolation-filters="sRGB">
            <feFlood flood-opacity="0" result="BackgroundImageFix"/>
            <feBlend mode="normal" in="SourceGraphic" in2="BackgroundImageFix" result="shape"/>
            <feColorMatrix in="SourceAlpha" type="matrix" values="0 0 0 0 0 0 0 0 0 0 0 0 0 0 0 0 0 0 127 0" result="hardAlpha"/>
            <feOffset dx="-3" dy="-21"/>
            <feGaussianBlur stdDeviation="5"/>
            <feComposite in2="hardAlpha" operator="arithmetic" k2="-1" k3="1"/>
            <feColorMatrix type="matrix" values="0 0 0 0 0.647059 0 0 0 0 0.815686 0 0 0 0 0.917647 0 0 0 1 0"/>
            <feBlend mode="normal" in2="shape" result="effect1_innerShadow_323_348"/>
        </filter>
        <filter id="filter8_d_323_348" x="14.7798" y="51.8901" width="16.9839" height="18.3959" filterUnits="userSpaceOnUse" color-interpolation-filters="sRGB">
            <feFlood flood-opacity="0" result="BackgroundImageFix"/>
            <feColorMatrix in="SourceAlpha" type="matrix" values="0 0 0 0 0 0 0 0 0 0 0 0 0 0 0 0 0 0 127 0" result="hardAlpha"/>
            <feOffset dx="-3" dy="1"/>
            <feGaussianBlur stdDeviation="2"/>
            <feComposite in2="hardAlpha" operator="out"/>
            <feColorMatrix type="matrix" values="0 0 0 0 0.647059 0 0 0 0 0.815686 0 0 0 0 0.917647 0 0 0 1 0"/>
            <feBlend mode="normal" in2="BackgroundImageFix" result="effect1_dropShadow_323_348"/>
            <feBlend mode="normal" in="SourceGraphic" in2="effect1_dropShadow_323_348" result="shape"/>
        </filter>
        <filter id="filter9_ii_323_348" x="23.7256" y="69.7735" width="13.1855" height="13.2124" filterUnits="userSpaceOnUse" color-interpolation-filters="sRGB">
            <feFlood flood-opacity="0" result="BackgroundImageFix"/>
            <feBlend mode="normal" in="SourceGraphic" in2="BackgroundImageFix" result="shape"/>
            <feColorMatrix in="SourceAlpha" type="matrix" values="0 0 0 0 0 0 0 0 0 0 0 0 0 0 0 0 0 0 127 0" result="hardAlpha"/>
            <feOffset dx="5" dy="-12"/>
            <feGaussianBlur stdDeviation="2"/>
            <feComposite in2="hardAlpha" operator="arithmetic" k2="-1" k3="1"/>
            <feColorMatrix type="matrix" values="0 0 0 0 0.654902 0 0 0 0 0.819608 0 0 0 0 0.921569 0 0 0 1 0"/>
            <feBlend mode="normal" in2="shape" result="effect1_innerShadow_323_348"/>
            <feColorMatrix in="SourceAlpha" type="matrix" values="0 0 0 0 0 0 0 0 0 0 0 0 0 0 0 0 0 0 127 0" result="hardAlpha"/>
            <feOffset dx="-6" dy="7"/>
            <feGaussianBlur stdDeviation="8"/>
            <feComposite in2="hardAlpha" operator="arithmetic" k2="-1" k3="1"/>
            <feColorMatrix type="matrix" values="0 0 0 0 0.866667 0 0 0 0 0.945098 0 0 0 0 0.972549 0 0 0 1 0"/>
            <feBlend mode="normal" in2="effect1_innerShadow_323_348" result="effect2_innerShadow_323_348"/>
        </filter>
        <filter id="filter10_d_323_348" x="26.0356" y="37.2558" width="33.4062" height="17.3044" filterUnits="userSpaceOnUse" color-interpolation-filters="sRGB">
            <feFlood flood-opacity="0" result="BackgroundImageFix"/>
            <feColorMatrix in="SourceAlpha" type="matrix" values="0 0 0 0 0 0 0 0 0 0 0 0 0 0 0 0 0 0 127 0" result="hardAlpha"/>
            <feOffset dx="-21" dy="4"/>
            <feGaussianBlur stdDeviation="3"/>
            <feComposite in2="hardAlpha" operator="out"/>
            <feColorMatrix type="matrix" values="0 0 0 0 0.647059 0 0 0 0 0.815686 0 0 0 0 0.917647 0 0 0 1 0"/>
            <feBlend mode="normal" in2="BackgroundImageFix" result="effect1_dropShadow_323_348"/>
            <feBlend mode="normal" in="SourceGraphic" in2="effect1_dropShadow_323_348" result="shape"/>
        </filter>
        <filter id="filter11_d_323_348" x="39.9683" y="47.5616" width="29.7275" height="34.8994" filterUnits="userSpaceOnUse" color-interpolation-filters="sRGB">
            <feFlood flood-opacity="0" result="BackgroundImageFix"/>
            <feColorMatrix in="SourceAlpha" type="matrix" values="0 0 0 0 0 0 0 0 0 0 0 0 0 0 0 0 0 0 127 0" result="hardAlpha"/>
            <feOffset dx="-1" dy="18"/>
            <feGaussianBlur stdDeviation="6.5"/>
            <feComposite in2="hardAlpha" operator="out"/>
            <feColorMatrix type="matrix" values="0 0 0 0 0.647059 0 0 0 0 0.815686 0 0 0 0 0.917647 0 0 0 1 0"/>
            <feBlend mode="normal" in2="BackgroundImageFix" result="effect1_dropShadow_323_348"/>
            <feBlend mode="normal" in="SourceGraphic" in2="effect1_dropShadow_323_348" result="shape"/>
        </filter>
        <filter id="filter12_d_323_348" x="14.0522" y="44.7427" width="12.7026" height="14.7225" filterUnits="userSpaceOnUse" color-interpolation-filters="sRGB">
            <feFlood flood-opacity="0" result="BackgroundImageFix"/>
            <feColorMatrix in="SourceAlpha" type="matrix" values="0 0 0 0 0 0 0 0 0 0 0 0 0 0 0 0 0 0 127 0" result="hardAlpha"/>
            <feOffset dx="-1" dy="3"/>
            <feGaussianBlur stdDeviation="2"/>
            <feComposite in2="hardAlpha" operator="out"/>
            <feColorMatrix type="matrix" values="0 0 0 0 0.647059 0 0 0 0 0.815686 0 0 0 0 0.917647 0 0 0 1 0"/>
            <feBlend mode="normal" in2="BackgroundImageFix" result="effect1_dropShadow_323_348"/>
            <feBlend mode="normal" in="SourceGraphic" in2="effect1_dropShadow_323_348" result="shape"/>
        </filter>
        <radialGradient id="paint0_radial_323_348" cx="0" cy="0" r="1" gradientUnits="userSpaceOnUse" gradientTransform="translate(51.34 51.3397) rotate(90) scale(47.8942)">
            <stop stop-color="#DEF1F7"/>
            <stop offset="1" stop-color="#737373" stop-opacity="0"/>
        </radialGradient>
        <radialGradient id="paint1_radial_323_348" cx="0" cy="0" r="1" gradientUnits="userSpaceOnUse" gradientTransform="translate(47.3412 54.3754) rotate(118.544) scale(30.7846)">
            <stop offset="0.67073" stop-color="#DFF2F8"/>
            <stop offset="1" stop-color="#A5C1E5"/>
        </radialGradient>
        <linearGradient id="paint2_linear_323_348" x1="51.6866" y1="19.2106" x2="51.0669" y2="27.4792" gradientUnits="userSpaceOnUse">
            <stop stop-color="#C8ECFC"/>
            <stop offset="1" stop-color="#DFF2F8"/>
        </linearGradient>
        <linearGradient id="paint3_linear_323_348" x1="51.6866" y1="19.2106" x2="51.0669" y2="27.4792" gradientUnits="userSpaceOnUse">
            <stop stop-color="#C8ECFC"/>
            <stop offset="1" stop-color="#DFF2F8"/>
        </linearGradient>
        <linearGradient id="paint4_linear_323_348" x1="27.3798" y1="32.9272" x2="28.3372" y2="42.0623" gradientUnits="userSpaceOnUse">
            <stop offset="0.0967923" stop-color="#DFF2F8"/>
            <stop offset="0.798728" stop-color="#C4E9FB"/>
        </linearGradient>
        <linearGradient id="paint5_linear_323_348" x1="60.8482" y1="51.2693" x2="63.0976" y2="59.0318" gradientUnits="userSpaceOnUse">
            <stop offset="0.0967923" stop-color="#DFF2F8"/>
            <stop offset="0.798728" stop-color="#C4E9FB"/>
        </linearGradient>
        <linearGradient id="paint6_linear_323_348" x1="66.9673" y1="33.484" x2="75.2277" y2="32.5897" gradientUnits="userSpaceOnUse">
            <stop offset="0.0967923" stop-color="#DFF2F8"/>
            <stop offset="0.798728" stop-color="#C4E9FB"/>
        </linearGradient>
        <linearGradient id="paint7_linear_323_348" x1="73.7771" y1="53.8306" x2="73.493" y2="63.3836" gradientUnits="userSpaceOnUse">
            <stop offset="0.0967923" stop-color="#DFF2F8"/>
            <stop offset="0.798728" stop-color="#C4E9FB"/>
        </linearGradient>
        <linearGradient id="paint8_linear_323_348" x1="31.712" y1="43.4127" x2="31.5163" y2="55.298" gradientUnits="userSpaceOnUse">
            <stop offset="0.0967923" stop-color="#DFF2F8"/>
            <stop offset="0.798728" stop-color="#C4E9FB"/>
        </linearGradient>
        <linearGradient id="paint9_linear_323_348" x1="37.667" y1="61.0313" x2="38.8034" y2="68.5167" gradientUnits="userSpaceOnUse">
            <stop offset="0.0967923" stop-color="#DFF2F8"/>
            <stop offset="0.798728" stop-color="#C4E9FB"/>
        </linearGradient>
        <linearGradient id="paint10_linear_323_348" x1="63.127" y1="64.3532" x2="65.7935" y2="69.2501" gradientUnits="userSpaceOnUse">
            <stop offset="0.0967923" stop-color="#DFF2F8"/>
            <stop offset="0.798728" stop-color="#C4E9FB"/>
        </linearGradient>
        <linearGradient id="paint11_linear_323_348" x1="71.5095" y1="38.6192" x2="78.5469" y2="48.199" gradientUnits="userSpaceOnUse">
            <stop offset="0.0967923" stop-color="#DFF2F8"/>
            <stop offset="0.798728" stop-color="#C4E9FB"/>
        </linearGradient>
        <linearGradient id="paint12_linear_323_348" x1="23.1724" y1="56.5004" x2="29.2543" y2="64.4017" gradientUnits="userSpaceOnUse">
            <stop offset="0.0967923" stop-color="#DFF2F8"/>
            <stop offset="0.798728" stop-color="#C4E9FB"/>
        </linearGradient>
        <linearGradient id="paint13_linear_323_348" x1="29.5879" y1="71.315" x2="36.8929" y2="74.8901" gradientUnits="userSpaceOnUse">
            <stop offset="0.0967923" stop-color="#DFF2F8"/>
            <stop offset="0.798728" stop-color="#C4E9FB"/>
        </linearGradient>
        <linearGradient id="paint14_linear_323_348" x1="66.9715" y1="42.1033" x2="59.8371" y2="42.5316" gradientUnits="userSpaceOnUse">
            <stop offset="0.0967923" stop-color="#DFF2F8"/>
            <stop offset="0.798728" stop-color="#C4E9FB"/>
        </linearGradient>
        <linearGradient id="paint15_linear_323_348" x1="65.2228" y1="35.5423" x2="59.6717" y2="35.8755" gradientUnits="userSpaceOnUse">
            <stop offset="0.0967923" stop-color="#DFF2F8"/>
            <stop offset="0.798728" stop-color="#C4E9FB"/>
        </linearGradient>
        <linearGradient id="paint16_linear_323_348" x1="58.5986" y1="34.3917" x2="57.8832" y2="30.8099" gradientUnits="userSpaceOnUse">
            <stop offset="0.0967923" stop-color="#DFF2F8"/>
            <stop offset="0.798728" stop-color="#C4E9FB"/>
        </linearGradient>
        <linearGradient id="paint17_linear_323_348" x1="21.7838" y1="45.8023" x2="20.9866" y2="52.464" gradientUnits="userSpaceOnUse">
            <stop offset="0.0967923" stop-color="#DFF2F8"/>
            <stop offset="0.798728" stop-color="#C4E9FB"/>
        </linearGradient>
        <linearGradient id="paint18_linear_323_348" x1="41.5758" y1="81.551" x2="54.7136" y2="82.5356" gradientUnits="userSpaceOnUse">
            <stop stop-color="#DAF0FD"/>
            <stop offset="1" stop-color="#A8D6F5"/>
        </linearGradient>
        <linearGradient id="paint19_linear_323_348" x1="50.1403" y1="75.6697" x2="44.248" y2="82.54" gradientUnits="userSpaceOnUse">
            <stop stop-color="#D9EFF8"/>
            <stop offset="1" stop-color="#D4EDFD"/>
        </linearGradient>
    </defs>
</svg>