<svg viewBox="0 0 75 55" fill="none" xmlns="http://www.w3.org/2000/svg">
    <path d="M66.3643 19.7377C64.9574 13.0367 57.73 5.08779 54.4667 1.9507C55.5124 0.901725 62.1452 0.5424 67.7323 1.23206C75.1394 2.1464 75.9397 2.4678 72.9809 8.90466C71.3943 12.3563 68.223 17.6401 66.3643 19.7377Z" fill="url(#paint0_linear_321_360)"/>
    <path d="M64.616 17.9947C66.018 21.6235 66.0162 20.4365 63.9258 23.2327C59.3952 28.4765 52.423 35.1206 41.9558 39.3262C34.9647 33.7509 30.4143 26.0772 28.3121 21.1927C26.9106 17.9361 26.5621 18.4024 29.0023 15.9548C36.3614 8.57328 41.2049 5.11323 53.0703 1.95285C55.8659 3.69417 62.8634 13.4588 64.616 17.9947Z" fill="url(#paint1_linear_321_360)"/>
    <path d="M25.8628 17.7053C26.6981 16.0282 32.4858 10.9454 35.2752 8.61358C26.8946 7.5791 19.917 10.7319 19.9191 12.1284C19.9209 13.2456 23.8823 16.3118 25.8628 17.7053Z" fill="url(#paint2_linear_321_360)"/>
    <path d="M25.5148 18.404C23.2795 17.8489 20.3878 14.2225 19.2214 12.4786L18.1757 13.5276C19.0174 16.04 22.7223 18.7575 24.4696 19.8021L25.5148 18.404Z" fill="url(#paint3_linear_321_360)"/>
    <path d="M46.5067 47.349C49.6445 44.5512 54.174 38.6091 54.5161 34.07C54.2385 35.1876 46.481 38.6883 42.6556 40.3724C43.2692 42.7421 45.1092 46.6529 46.5067 47.349Z" fill="url(#paint4_linear_321_360)"/>
    <path d="M41.6085 40.521L40.2128 41.0745C40.3174 43.8673 43.1738 47.4705 44.4141 48.7487L45.4604 48.0488C44.0614 46.3752 42.193 42.2167 41.6085 40.521Z" fill="url(#paint5_linear_321_360)"/>
    <path d="M41.2581 39.6764C35.3171 35.8451 28.6666 24.6834 26.2136 18.7521C24.472 21.3678 24.8208 21.1981 26.2216 23.9889C27.5131 26.562 34.2697 35.8468 37.4161 38.6349C38.8145 39.8741 39.1644 40.3778 41.2581 39.6764Z" fill="url(#paint6_linear_321_360)"/>
    <path d="M11.2142 27.1542C16.4462 24.004 24.596 26.3189 26.9263 28.1773C23.2268 26.4768 17.2175 28.9492 15.8698 29.5462C17.1792 29.142 21.994 30.8971 24.1392 32.022C17.437 32.5909 14.6086 39.8337 14.381 43.2089C20.6561 37.2642 29.7338 37.5994 28.3385 38.2997C27.2222 38.8601 27.184 44.353 27.3044 47.0294C27.4206 46.9129 28.297 46.3342 30.0931 44.2321C32.1841 41.7851 32.7599 37.8274 32.8732 35.8489C33.4563 36.6626 34.5535 38.7385 34.2769 40.5323C33.9312 42.7745 34.5528 45.2726 29.4051 50.8665C26.0591 54.5026 21.2645 54.4867 19.2854 54.0242C20.0996 53.7902 22.0066 52.7632 23.1204 50.5271C24.2341 48.291 24.2762 45.4048 24.158 44.2413C22.0681 47.3866 17.1853 50.5362 12.651 53.3362C9.02354 55.5762 2.99407 54.7475 0.432763 54.0532C1.59507 53.1204 3.92076 51.9531 4.96061 47.0638C6.84609 38.1983 8.78269 35.1877 12.6204 33.4362C9.54635 32.3237 5.98917 34.8429 4.59483 36.2415C5.28985 34.1457 5.8222 30.4006 11.2142 27.1542Z" fill="url(#paint7_linear_321_360)"/>
    <path d="M31.157 51.5817C33.9614 49.2365 35.5401 44.3188 36.0245 41.7792C36.6619 43.6817 36.4383 48.0648 31.157 51.5817C30.6193 52.0314 30.0365 52.3865 29.4078 52.6121C30.0447 52.2797 30.6264 51.9351 31.157 51.5817Z" fill="url(#paint8_linear_321_360)"/>
    <path d="M36.7208 40.5285C37.3026 40.4786 38.1879 41.0776 37.075 43.8723L36.7208 40.5285Z" fill="url(#paint9_linear_321_360)"/>
    <path d="M25.8736 24.6877C25.9892 24.2221 24.0543 22.1768 20.9816 21.9023L25.8736 24.6877Z" fill="url(#paint10_linear_321_360)"/>
    <path d="M25.8752 25.7351C22.7311 24.4574 19.5872 23.3009 15.3983 23.6565C12.1165 23.935 21.3301 21.5526 25.8752 25.7351Z" fill="url(#paint11_linear_321_360)"/>
    <path d="M52.0795 10.3622C46.7698 8.41528 39.866 14.2214 39.5228 18.0623C39.1796 21.9032 40.9134 26.9239 45.473 27.8285C50.7115 28.8678 54.2703 25.6427 55.9378 22.5755C58.0275 18.732 57.3891 12.3091 52.0795 10.3622Z" fill="url(#paint12_linear_321_360)"/>
    <g filter="url(#filter0_d_321_360)">
        <path d="M49.5943 12.1152C52.0387 12.4606 52.7375 12.8086 53.7876 14.5527C50.2937 12.8125 47.1494 11.4208 41.5731 17.7136C41.9196 15.9675 45.7761 11.5758 49.5943 12.1152Z" fill="#E3C9AF"/>
    </g>
    <path d="M52.7565 24.9813C52.6394 24.516 52.7543 23.5848 54.1508 23.5827C54.1515 24.0482 53.8737 24.9796 52.7565 24.9813Z" fill="#DCAA78"/>
    <path d="M44.3785 25.6925C46.1241 25.6898 49.6158 26.0336 51.0113 25.3332C49.966 26.7313 46.825 27.4344 44.3785 25.6925Z" fill="#DCAA78"/>
    <path d="M66.3085 13.7022C67.4672 12.3967 70.0458 10.0173 70.4506 8.50937C70.7998 10.2197 68.4523 15.1818 66.3085 13.7022Z" fill="url(#paint13_linear_321_360)"/>
    <path d="M47.5344 34.4157C50.676 34.0617 57.6487 27.7668 61.1319 22.5246C57.3633 26.845 51.0219 31.9665 49.6264 32.6669C48.231 33.3673 47.5339 34.0666 47.5344 34.4157Z" fill="url(#paint14_linear_321_360)"/>
    <path d="M45.7904 35.4658C45.3247 35.3501 43.9747 35.3289 43.6967 36.1672C44.1624 36.2829 45.5124 36.3041 45.7904 35.4658Z" fill="url(#paint15_linear_321_360)"/>
    <defs>
        <filter id="filter0_d_321_360" x="37.5732" y="12.0696" width="20.2144" height="13.644" filterUnits="userSpaceOnUse" color-interpolation-filters="sRGB">
            <feFlood flood-opacity="0" result="BackgroundImageFix"/>
            <feColorMatrix in="SourceAlpha" type="matrix" values="0 0 0 0 0 0 0 0 0 0 0 0 0 0 0 0 0 0 127 0" result="hardAlpha"/>
            <feOffset dy="4"/>
            <feGaussianBlur stdDeviation="2"/>
            <feComposite in2="hardAlpha" operator="out"/>
            <feColorMatrix type="matrix" values="0 0 0 0 0 0 0 0 0 0 0 0 0 0 0 0 0 0 0.25 0"/>
            <feBlend mode="normal" in2="BackgroundImageFix" result="effect1_dropShadow_321_360"/>
            <feBlend mode="normal" in="SourceGraphic" in2="effect1_dropShadow_321_360" result="shape"/>
        </filter>
        <linearGradient id="paint0_linear_321_360" x1="0.448859" y1="64.5128" x2="77.5071" y2="0.853731" gradientUnits="userSpaceOnUse">
            <stop offset="0.0700402" stop-color="#883B40"/>
            <stop offset="0.216622" stop-color="#E55833"/>
            <stop offset="0.373272" stop-color="#FFE065"/>
            <stop offset="0.4457" stop-color="#241D64"/>
            <stop offset="0.711016" stop-color="#A39FBC"/>
            <stop offset="0.853586" stop-color="#EED3B3"/>
            <stop offset="1" stop-color="#2C256A"/>
        </linearGradient>
        <linearGradient id="paint1_linear_321_360" x1="0.448859" y1="64.5128" x2="77.5071" y2="0.853731" gradientUnits="userSpaceOnUse">
            <stop offset="0.0700402" stop-color="#883B40"/>
            <stop offset="0.216622" stop-color="#E55833"/>
            <stop offset="0.373272" stop-color="#FFE065"/>
            <stop offset="0.4457" stop-color="#241D64"/>
            <stop offset="0.711016" stop-color="#A39FBC"/>
            <stop offset="0.853586" stop-color="#EED3B3"/>
            <stop offset="1" stop-color="#2C256A"/>
        </linearGradient>
        <linearGradient id="paint2_linear_321_360" x1="0.448859" y1="64.5128" x2="77.5071" y2="0.853731" gradientUnits="userSpaceOnUse">
            <stop offset="0.0700402" stop-color="#883B40"/>
            <stop offset="0.216622" stop-color="#E55833"/>
            <stop offset="0.373272" stop-color="#FFE065"/>
            <stop offset="0.4457" stop-color="#241D64"/>
            <stop offset="0.711016" stop-color="#A39FBC"/>
            <stop offset="0.853586" stop-color="#EED3B3"/>
            <stop offset="1" stop-color="#2C256A"/>
        </linearGradient>
        <linearGradient id="paint3_linear_321_360" x1="0.448859" y1="64.5128" x2="77.5071" y2="0.853731" gradientUnits="userSpaceOnUse">
            <stop offset="0.0700402" stop-color="#883B40"/>
            <stop offset="0.216622" stop-color="#E55833"/>
            <stop offset="0.373272" stop-color="#FFE065"/>
            <stop offset="0.4457" stop-color="#241D64"/>
            <stop offset="0.711016" stop-color="#A39FBC"/>
            <stop offset="0.853586" stop-color="#EED3B3"/>
            <stop offset="1" stop-color="#2C256A"/>
        </linearGradient>
        <linearGradient id="paint4_linear_321_360" x1="0.448859" y1="64.5128" x2="77.5071" y2="0.853731" gradientUnits="userSpaceOnUse">
            <stop offset="0.0700402" stop-color="#883B40"/>
            <stop offset="0.216622" stop-color="#E55833"/>
            <stop offset="0.373272" stop-color="#FFE065"/>
            <stop offset="0.4457" stop-color="#241D64"/>
            <stop offset="0.711016" stop-color="#A39FBC"/>
            <stop offset="0.853586" stop-color="#EED3B3"/>
            <stop offset="1" stop-color="#2C256A"/>
        </linearGradient>
        <linearGradient id="paint5_linear_321_360" x1="0.448859" y1="64.5128" x2="77.5071" y2="0.853731" gradientUnits="userSpaceOnUse">
            <stop offset="0.0700402" stop-color="#883B40"/>
            <stop offset="0.216622" stop-color="#E55833"/>
            <stop offset="0.373272" stop-color="#FFE065"/>
            <stop offset="0.4457" stop-color="#241D64"/>
            <stop offset="0.711016" stop-color="#A39FBC"/>
            <stop offset="0.853586" stop-color="#EED3B3"/>
            <stop offset="1" stop-color="#2C256A"/>
        </linearGradient>
        <linearGradient id="paint6_linear_321_360" x1="0.448859" y1="64.5128" x2="77.5071" y2="0.853731" gradientUnits="userSpaceOnUse">
            <stop offset="0.0700402" stop-color="#883B40"/>
            <stop offset="0.216622" stop-color="#E55833"/>
            <stop offset="0.373272" stop-color="#FFE065"/>
            <stop offset="0.4457" stop-color="#241D64"/>
            <stop offset="0.711016" stop-color="#A39FBC"/>
            <stop offset="0.853586" stop-color="#EED3B3"/>
            <stop offset="1" stop-color="#2C256A"/>
        </linearGradient>
        <linearGradient id="paint7_linear_321_360" x1="0.448859" y1="64.5128" x2="77.5071" y2="0.853731" gradientUnits="userSpaceOnUse">
            <stop offset="0.0700402" stop-color="#883B40"/>
            <stop offset="0.216622" stop-color="#E55833"/>
            <stop offset="0.373272" stop-color="#FFE065"/>
            <stop offset="0.4457" stop-color="#241D64"/>
            <stop offset="0.711016" stop-color="#A39FBC"/>
            <stop offset="0.853586" stop-color="#EED3B3"/>
            <stop offset="1" stop-color="#2C256A"/>
        </linearGradient>
        <linearGradient id="paint8_linear_321_360" x1="0.448859" y1="64.5128" x2="77.5071" y2="0.853731" gradientUnits="userSpaceOnUse">
            <stop offset="0.0700402" stop-color="#883B40"/>
            <stop offset="0.216622" stop-color="#E55833"/>
            <stop offset="0.373272" stop-color="#FFE065"/>
            <stop offset="0.4457" stop-color="#241D64"/>
            <stop offset="0.711016" stop-color="#A39FBC"/>
            <stop offset="0.853586" stop-color="#EED3B3"/>
            <stop offset="1" stop-color="#2C256A"/>
        </linearGradient>
        <linearGradient id="paint9_linear_321_360" x1="0.448859" y1="64.5128" x2="77.5071" y2="0.853731" gradientUnits="userSpaceOnUse">
            <stop offset="0.0700402" stop-color="#883B40"/>
            <stop offset="0.216622" stop-color="#E55833"/>
            <stop offset="0.373272" stop-color="#FFE065"/>
            <stop offset="0.4457" stop-color="#241D64"/>
            <stop offset="0.711016" stop-color="#A39FBC"/>
            <stop offset="0.853586" stop-color="#EED3B3"/>
            <stop offset="1" stop-color="#2C256A"/>
        </linearGradient>
        <linearGradient id="paint10_linear_321_360" x1="0.448859" y1="64.5128" x2="77.5071" y2="0.853731" gradientUnits="userSpaceOnUse">
            <stop offset="0.0700402" stop-color="#883B40"/>
            <stop offset="0.216622" stop-color="#E55833"/>
            <stop offset="0.373272" stop-color="#FFE065"/>
            <stop offset="0.4457" stop-color="#241D64"/>
            <stop offset="0.711016" stop-color="#A39FBC"/>
            <stop offset="0.853586" stop-color="#EED3B3"/>
            <stop offset="1" stop-color="#2C256A"/>
        </linearGradient>
        <linearGradient id="paint11_linear_321_360" x1="0.448859" y1="64.5128" x2="77.5071" y2="0.853731" gradientUnits="userSpaceOnUse">
            <stop offset="0.0700402" stop-color="#883B40"/>
            <stop offset="0.216622" stop-color="#E55833"/>
            <stop offset="0.373272" stop-color="#FFE065"/>
            <stop offset="0.4457" stop-color="#241D64"/>
            <stop offset="0.711016" stop-color="#A39FBC"/>
            <stop offset="0.853586" stop-color="#EED3B3"/>
            <stop offset="1" stop-color="#2C256A"/>
        </linearGradient>
        <linearGradient id="paint12_linear_321_360" x1="45.7806" y1="29.1816" x2="51.6861" y2="9.9707" gradientUnits="userSpaceOnUse">
            <stop stop-color="#0D0934"/>
            <stop offset="1" stop-color="#261B9A"/>
        </linearGradient>
        <linearGradient id="paint13_linear_321_360" x1="71.1034" y1="9.08875" x2="66.7002" y2="14.0498" gradientUnits="userSpaceOnUse">
            <stop stop-color="#EBD1B3"/>
            <stop offset="1" stop-color="#DDC7B4"/>
        </linearGradient>
        <linearGradient id="paint14_linear_321_360" x1="52.4038" y1="22.538" x2="52.4249" y2="36.2128" gradientUnits="userSpaceOnUse">
            <stop stop-color="#E9CFB3"/>
            <stop offset="1" stop-color="#DFC9B4"/>
        </linearGradient>
        <linearGradient id="paint15_linear_321_360" x1="52.4038" y1="22.538" x2="52.4249" y2="36.2128" gradientUnits="userSpaceOnUse">
            <stop stop-color="#E9CFB3"/>
            <stop offset="1" stop-color="#DFC9B4"/>
        </linearGradient>
    </defs>
</svg>