<svg viewBox="0 0 99 79" fill="none" xmlns="http://www.w3.org/2000/svg">
    <g clip-path="url(#clip0_312_464)">
        <path d="M89.0192 39.3925C89.0192 38.0458 88.9491 36.7131 88.8089 35.3945C87.7762 25.0698 82.8838 16.4378 75.9166 10.345C69.4867 4.6215 61.1317 0.974196 51.8514 0.553354C43.5665 0.118483 34.9965 2.32558 27.3937 7.77783C27.3751 7.78718 27.3564 7.8012 27.3423 7.81523C27.3377 7.81991 27.333 7.82458 27.305 7.84329C27.2956 7.84796 27.2909 7.85265 27.2909 7.85265C20.8377 12.5053 16.3238 18.6262 13.735 25.3363C0.898718 25.5888 -7.6339 27.9502 -8.45632 32.2569C-9.33481 36.844 -1.26948 42.6236 11.9967 47.8888C12.0154 47.973 12.0341 48.0572 12.0528 48.1367C12.0575 48.1554 12.0621 48.1741 12.0668 48.1881C12.1416 48.5248 12.2257 48.8614 12.3098 49.1981C12.3192 49.2402 12.3285 49.2776 12.3425 49.3197C12.4266 49.6517 12.5201 49.9837 12.6135 50.311C12.6229 50.3391 12.6276 50.3671 12.6369 50.3952C12.8378 51.0825 13.0528 51.7606 13.2911 52.4292C13.2958 52.448 13.3051 52.462 13.3098 52.4807C13.4126 52.7706 13.5154 53.0605 13.6275 53.3457C16.1228 59.9857 20.4826 66.0459 26.6741 70.6845C26.833 70.8061 26.9966 70.9276 27.1601 71.0445C27.2676 71.124 27.3751 71.1988 27.4825 71.2783C27.7769 71.4888 28.0713 71.6945 28.3704 71.8909C35.9544 76.9831 44.3842 78.9657 52.4916 78.4093C53.9963 78.3158 55.4775 78.1381 56.9308 77.8809C60.7018 77.2122 64.2812 75.9965 67.5942 74.3224C67.94 74.1494 68.2811 73.9671 68.6223 73.78C68.6783 73.7473 68.7391 73.7192 68.7952 73.6865C69.1316 73.4994 69.468 73.3124 69.7998 73.116C69.8278 73.102 69.8559 73.0833 69.8792 73.0693C70.2063 72.8775 70.5288 72.6765 70.8512 72.4754C70.8792 72.4567 70.9073 72.4427 70.9306 72.424C71.2624 72.2135 71.5942 71.9938 71.9213 71.774C71.9353 71.7646 71.9493 71.7553 71.9633 71.7459C71.9914 71.7272 72.0147 71.7085 72.0428 71.6898C72.2531 71.5449 72.4587 71.4046 72.6643 71.255C72.7157 71.2176 72.7671 71.1848 72.8138 71.1474C73.0194 70.9978 73.2203 70.8481 73.4259 70.6985C73.468 70.6658 73.51 70.633 73.5521 70.605C74.0334 70.2402 74.5007 69.8708 74.9633 69.4827C75.0334 69.4266 75.0988 69.3658 75.1689 69.3097C75.3231 69.1788 75.4773 69.0479 75.6268 68.9169C75.7156 68.8421 75.8044 68.7626 75.8932 68.6831C76.024 68.5662 76.1549 68.4493 76.2857 68.3278C76.3745 68.2483 76.4633 68.1641 76.5521 68.0799C76.5614 68.0706 76.5708 68.0612 76.5801 68.0519C76.6268 68.0098 76.6736 67.963 76.725 67.9209C78.7343 66.0646 80.552 63.9884 82.1408 61.7205C97.5098 61.9824 108.014 59.5976 108.94 54.8C109.795 50.283 101.958 44.6016 89.0192 39.3925ZM12.6462 28.5581H12.6416C12.6836 28.4225 12.7257 28.2869 12.7677 28.1513C12.7257 28.2869 12.6883 28.4225 12.6462 28.5581ZM11.5388 33.5568C11.5341 33.5848 11.5294 33.6129 11.5248 33.641C11.4734 33.973 11.4266 34.3096 11.3893 34.6463C11.3846 34.7024 11.3752 34.7539 11.3706 34.81C11.3285 35.1466 11.2911 35.4833 11.2631 35.82C11.2631 35.834 11.2584 35.848 11.2584 35.8621C11.2304 36.1847 11.2023 36.512 11.1836 36.8347C11.179 36.8955 11.1743 36.9563 11.1696 37.0217C11.1509 37.349 11.1322 37.6717 11.1229 37.999C11.1182 38.0645 11.1182 38.1346 11.1182 38.2001C11.1136 38.345 11.1089 38.49 11.1042 38.635C5.09493 36.0678 1.70245 33.641 2.05758 31.7846C2.40805 29.9703 6.29585 28.979 12.5855 28.7872C12.1369 30.3444 11.7864 31.9342 11.5388 33.5568ZM88.8603 43.0398C95.7481 45.8267 99.7154 48.4827 99.3322 50.4793C98.9444 52.5087 94.1266 53.5094 86.4819 53.5141C87.7202 50.2596 88.5426 46.7572 88.8603 43.0398ZM-3.83487 32.2755C-3.04049 28.1419 5.66502 26.9589 13.2257 26.7204C13.1182 27.029 13.0201 27.3377 12.9219 27.651C3.34262 27.9876 -2.40966 29.7178 -2.93301 32.4486C-3.47974 35.3009 1.66506 39.2475 11.179 43.2876C11.2117 43.3016 11.2397 43.311 11.2724 43.325C11.2724 43.325 11.2724 43.325 11.2771 43.325C11.2911 43.4513 11.3005 43.5775 11.3145 43.7038C11.3379 43.9235 11.3659 44.148 11.3893 44.3678C11.1977 44.2883 11.0108 44.2088 10.8238 44.1293C3.67906 41.1039 -4.66197 36.5868 -3.83487 32.2755ZM106.145 53.4065C105.318 57.7178 95.8976 58.8214 88.1407 58.985C87.3791 58.9991 86.594 59.0084 85.8043 59.0084C85.1688 59.0084 84.5239 59.0037 83.8744 58.9944C84.0473 58.6951 84.2202 58.3865 84.3884 58.0826C85.6735 58.1013 86.9211 58.0966 88.1267 58.0685C98.463 57.8441 104.701 56.0812 105.248 53.2335C105.795 50.3811 100.65 46.4346 91.1313 42.3945C90.4304 42.0952 89.7061 41.8006 88.9678 41.506C88.9678 41.4593 88.9725 41.4078 88.9725 41.3611C88.9865 41.0852 88.9959 40.8046 89.0052 40.5287C89.8557 40.8654 90.6828 41.2068 91.4911 41.5481C98.6313 44.5782 106.972 49.0952 106.145 53.4065Z" fill="url(#paint0_radial_312_464)"/>
        <path d="M81.1404 39.5047C81.1404 64.5542 53.1407 78.9845 32.8045 65.3211C14.8561 53.271 14.3701 26.9543 31.9494 14.2822C31.9494 14.2822 31.954 14.2775 31.9634 14.2728C31.9867 14.2588 31.9867 14.2542 31.9914 14.2495C32.0054 14.2354 32.0195 14.2261 32.0335 14.2214C52.2575 -0.28363 81.1404 14.0063 81.1404 39.5047Z" fill="url(#paint1_radial_312_464)"/>
        <path d="M36.9356 39.5047C37.1178 41.3331 30.7254 39.5047 26.7067 39.5047C24.0245 39.5047 21.1741 39.9957 19.0386 39.285C19.0573 36.3344 19.4918 33.482 20.2769 30.7839C21.3656 30.6436 23.2114 30.9569 25.9777 33.1079C30.9076 36.9423 36.7533 37.6764 36.9356 39.5047Z" fill="url(#paint2_linear_312_464)"/>
        <path d="M58.3045 43.3391C53.7391 42.9744 48.6223 41.6931 47.7111 42.6096C46.7999 43.5215 55.0755 45.8548 62.6876 47.1781C71.0894 48.6417 76.3884 49.1888 74.5613 46.8134C72.7342 44.4379 69.8137 41.5108 65.2436 42.9744C60.6829 44.438 60.8558 43.5448 58.3045 43.3391Z" fill="url(#paint3_linear_312_464)"/>
        <path d="M57.94 56.1373C57.94 58.1153 39.8561 52.8454 33.8281 55.2255C29.3235 57.0024 27.8796 58.265 25.1506 58.0311C21.9357 53.7011 19.8142 48.5061 19.2114 42.8574C20.7862 43.456 23.4964 44.6156 27.8001 46.818C35.6598 50.8347 57.94 53.3925 57.94 56.1373Z" fill="url(#paint4_linear_312_464)"/>
        <path d="M72.2013 61.3137C69.8415 63.7125 67.0892 65.7279 64.0565 67.257C63.2434 66.5275 62.4444 65.7045 61.2294 65.2743C58.122 64.1755 49.9071 62.1695 51.5473 61.0706C53.1921 59.9717 58.4865 60.7059 64.6967 60.3411C68.4583 60.1167 70.8789 60.7666 72.2013 61.3137Z" fill="url(#paint5_linear_312_464)"/>
        <path d="M69.6314 56.3197C67.4445 53.9958 61.2296 54.4914 62.1408 56.6845C62.6408 57.8769 72.5519 59.4246 69.6314 56.3197Z" fill="url(#paint6_linear_312_464)"/>
        <path d="M43.1458 59.607C40.4308 59.0038 38.5804 60.1541 38.2159 61.0706C37.8514 61.9824 45.7065 63.2636 45.8887 62.3518C46.071 61.44 44.7906 59.9717 43.1458 59.607Z" fill="url(#paint7_linear_312_464)"/>
        <path d="M42.0525 43.8908C40.2441 43.4372 36.9404 44.2555 36.9404 45.3544C36.9404 46.4533 41.3236 47.7298 43.1506 47.1827C44.973 46.631 45.702 44.8026 42.0525 43.8908Z" fill="url(#paint8_linear_312_464)"/>
        <path d="M45.1552 47.3605C44.6131 47.2716 43.8748 47.9076 44.244 48.4593C44.6085 49.0064 47.3467 47.7299 45.1552 47.3605Z" fill="url(#paint9_linear_312_464)"/>
        <path d="M63.6036 52.4807C62.4307 52.13 61.5942 52.6631 62.141 53.7619C62.6924 54.8561 67.2577 53.5749 63.6036 52.4807Z" fill="url(#paint10_linear_312_464)"/>
        <path d="M72.1877 58.148C71.5428 57.5027 71.0895 58.6951 71.4587 59.0599C71.8232 59.4246 73.6503 59.607 72.1877 58.148Z" fill="url(#paint11_linear_312_464)"/>
        <path d="M55.5614 70.0906C53.7858 70.4086 51.954 70.5723 50.0895 70.5723C43.6924 70.5723 37.7439 68.6364 32.8047 65.3164C36.4635 64.2596 42.5476 65.1247 48.6316 68.0145C51.4634 69.3658 53.7858 69.9129 55.5614 70.0906Z" fill="url(#paint12_linear_312_464)"/>
        <path d="M56.8468 66.7379C55.9169 66.7379 55.9356 67.285 55.9356 67.8368C55.9356 68.3839 56.8468 68.5662 57.3982 67.8368C57.9402 67.1026 57.5757 66.7379 56.8468 66.7379Z" fill="url(#paint13_linear_312_464)"/>
        <path d="M54.4729 67.285C54.1131 67.2242 53.9262 68.1968 54.4729 68.3839C55.0196 68.5663 55.5663 67.4674 54.4729 67.285Z" fill="url(#paint14_linear_312_464)"/>
        <path d="M33.6507 57.2316C32.3843 57.4841 30.5432 58.3304 32.1881 59.4246C33.8329 60.5235 37.3002 56.5021 33.6507 57.2316Z" fill="url(#paint15_linear_312_464)"/>
        <path d="M27.6227 42.0625C26.9639 41.4032 26.5246 43.1614 26.8938 43.3438C27.2536 43.5261 28.3517 42.792 27.6227 42.0625Z" fill="url(#paint16_linear_312_464)"/>
        <path d="M32.9169 31.6443C31.3001 30.8353 29.0805 30.1807 28.716 30.9148C28.3515 31.6443 35.2907 36.5822 36.9355 35.4833C38.5804 34.3845 34.3795 32.3738 32.9169 31.6443Z" fill="url(#paint17_linear_312_464)"/>
        <path d="M59.767 39.5047C58.6128 38.9249 58.6689 41.5154 60.3137 42.2449C61.9586 42.9743 60.5007 39.8694 59.767 39.5047Z" fill="url(#paint18_linear_312_464)"/>
        <path d="M77.6687 42.6096C75.4631 42.5067 76.2061 46.0839 77.6687 46.4486C79.1313 46.8133 81.5051 42.792 77.6687 42.6096Z" fill="url(#paint19_linear_312_464)"/>
        <path opacity="0.45" d="M67.538 65.2042C66.4259 65.9617 65.267 66.6444 64.0568 67.257C61.4166 68.5896 58.5615 69.5576 55.5569 70.0906C53.7812 70.4086 51.9494 70.5723 50.085 70.5723C43.6878 70.5723 37.7393 68.6364 32.8001 65.3164C29.8515 63.3385 27.2675 60.8695 25.1553 58.0218C24.6974 57.4046 24.2581 56.7686 23.8469 56.114C21.3656 52.2001 19.7348 47.6878 19.2161 42.8481C19.0993 41.7492 19.0386 40.627 19.0386 39.5C19.0386 39.4252 19.0386 39.3504 19.0386 39.2803C19.0573 36.8487 19.3517 34.4827 19.8984 32.2148C23.7768 42.4646 31.188 54.2108 45.3233 60.5328C47.0803 61.3184 48.9401 62.0198 50.9074 62.623C56.7998 64.428 62.3652 65.1855 67.538 65.2042Z" fill="url(#paint20_linear_312_464)"/>
        <path opacity="0.55" d="M79.3694 49.8574C77.8367 54.1968 75.3695 58.0966 72.2013 61.3137C70.7807 62.7586 69.22 64.0632 67.5378 65.2042C66.4256 65.9617 65.2668 66.6444 64.0565 67.2569C61.4164 68.5896 58.5612 69.5575 55.5566 70.0906C53.7809 70.4086 51.9492 70.5722 50.0847 70.5722C43.6876 70.5722 37.739 68.6364 32.7999 65.3164C29.8513 63.3384 27.2672 60.8695 25.1551 58.0218C24.6971 57.4045 24.2579 56.7686 23.8467 56.114C31.7905 58.8962 38.9353 60.2335 45.3231 60.5281C60.9351 61.2482 72.0518 55.7352 79.3694 49.8574Z" fill="url(#paint21_linear_312_464)"/>
        <path d="M32.0333 14.2214C32.0102 14.2399 31.9917 14.2491 31.9824 14.2584C31.9917 14.2491 32.0148 14.2307 32.0333 14.2214Z" fill="url(#paint22_linear_312_464)"/>
        <path d="M80.9116 43.2736C81.0518 41.9035 82.1733 26.496 63.5146 16.1994C44.9214 5.94014 33.1365 13.4686 32.0337 14.2214C37.1224 10.5741 43.356 8.4278 50.0896 8.4278C68.7622 8.43247 83.1733 24.8079 80.9116 43.2736Z" fill="url(#paint23_linear_312_464)"/>
        <path d="M82.8227 41.81C82.262 41.5715 81.6872 41.333 81.0984 41.0992C81.0798 41.5107 81.047 41.9129 81.0143 42.3197C86.5049 44.5408 89.6684 46.659 89.3647 48.2489C89.0563 49.8715 85.1965 50.6664 79.0751 50.6664C71.706 50.6664 61.0566 49.5161 49.3605 47.2716C36.8046 44.8588 25.8374 41.7212 19.0477 38.8127C14.2628 36.7646 11.5525 34.8334 11.8375 33.3557C12.1132 31.9062 15.216 31.1206 20.2253 30.9663C20.244 30.9008 20.258 30.84 20.2767 30.7793C20.3468 30.5361 20.4216 30.2976 20.4963 30.0591C12.8656 30.3257 8.27684 31.7098 7.86096 33.8841C7.42638 36.1567 11.5245 39.3037 19.1085 42.5208C19.1319 42.5301 19.1599 42.5395 19.1833 42.5535C27.0243 45.8688 37.6971 48.9176 49.2483 51.1387C59.5006 53.1073 69.3509 54.2155 77.3929 54.3137C78.4396 54.3277 79.4536 54.3231 80.4302 54.3044C88.6638 54.1267 93.6404 52.7192 94.0749 50.4513C94.5095 48.1741 90.4114 45.0271 82.8227 41.81Z" fill="url(#paint24_linear_312_464)"/>
        <path d="M81.1406 39.4159V39.5047C81.1406 39.7806 81.1359 40.0518 81.1313 40.3277C81.8088 40.5942 82.4724 40.8655 83.1126 41.1414C88.8041 43.5542 95.4535 47.1547 94.7947 50.5869C94.1358 54.0191 86.6265 54.8982 80.449 55.0338C79.8416 55.0479 79.2201 55.0525 78.5846 55.0525C78.0612 55.0525 77.5285 55.0479 76.9865 55.0385C68.9772 54.9029 59.2343 53.7994 49.1083 51.8541C37.6925 49.6611 27.1272 46.6591 19.2768 43.3858C19.1226 43.3204 18.9731 43.2596 18.8236 43.1941C13.132 40.7813 6.48259 37.1807 7.14146 33.7485C7.7723 30.4519 14.7161 29.5121 20.7441 29.3203C20.8703 28.9509 21.0058 28.5815 21.1507 28.2168C10.9171 28.4179 4.11813 30.3023 3.45926 33.7298C2.75833 37.3865 9.18817 41.9924 19.7581 46.1868C27.3982 49.2169 37.2065 52.0318 48.0475 54.1173C58.1689 56.0626 67.6922 57.0773 75.6033 57.2175C87.8789 57.4326 96.276 55.5342 97.0096 51.7045C97.6965 48.0946 91.4536 43.5635 81.1406 39.4159Z" fill="url(#paint25_linear_312_464)"/>
    </g>
    <defs>
        <radialGradient id="paint0_radial_312_464" cx="0" cy="0" r="1" gradientUnits="userSpaceOnUse" gradientTransform="translate(50.2326 39.5047) scale(36.2048 36.2295)">
            <stop stop-color="#F9AB63"/>
            <stop offset="1" stop-color="#FFCC9C" stop-opacity="0"/>
        </radialGradient>
        <radialGradient id="paint1_radial_312_464" cx="0" cy="0" r="1" gradientUnits="userSpaceOnUse" gradientTransform="translate(52.2844 26.0664) scale(37.0269 37.0521)">
            <stop stop-color="#FBDFB6"/>
            <stop offset="1" stop-color="#4E3F8D"/>
        </radialGradient>
        <linearGradient id="paint2_linear_312_464" x1="22.3338" y1="78.0549" x2="33.8558" y2="-2.54406" gradientUnits="userSpaceOnUse">
            <stop stop-color="#201A61"/>
            <stop offset="1" stop-color="#17145A" stop-opacity="0"/>
        </linearGradient>
        <linearGradient id="paint3_linear_312_464" x1="55.9079" y1="82.8544" x2="67.4298" y2="2.25569" gradientUnits="userSpaceOnUse">
            <stop stop-color="#17145A"/>
            <stop offset="1" stop-color="#17145A" stop-opacity="0"/>
        </linearGradient>
        <linearGradient id="paint4_linear_312_464" x1="34.2592" y1="79.7598" x2="45.7812" y2="-0.83912" gradientUnits="userSpaceOnUse">
            <stop stop-color="#201A61"/>
            <stop offset="1" stop-color="#17145A" stop-opacity="0"/>
        </linearGradient>
        <linearGradient id="paint5_linear_312_464" x1="58.6409" y1="83.2452" x2="70.1629" y2="2.64609" gradientUnits="userSpaceOnUse">
            <stop stop-color="#201A61"/>
            <stop offset="1" stop-color="#E22B57" stop-opacity="0"/>
        </linearGradient>
        <linearGradient id="paint6_linear_312_464" x1="62.2565" y1="83.7621" x2="73.7785" y2="3.16318" gradientUnits="userSpaceOnUse">
            <stop stop-color="#201A61"/>
            <stop offset="1" stop-color="#17145A" stop-opacity="0"/>
        </linearGradient>
        <linearGradient id="paint7_linear_312_464" x1="39.3678" y1="80.4901" x2="50.8898" y2="-0.109173" gradientUnits="userSpaceOnUse">
            <stop stop-color="#17145A"/>
            <stop offset="1" stop-color="#E22B57" stop-opacity="0"/>
        </linearGradient>
        <linearGradient id="paint8_linear_312_464" x1="35.8803" y1="79.9916" x2="47.4024" y2="-0.607803" gradientUnits="userSpaceOnUse">
            <stop stop-color="#17145A"/>
            <stop offset="1" stop-color="#E22B57" stop-opacity="0"/>
        </linearGradient>
        <linearGradient id="paint9_linear_312_464" x1="40.4082" y1="80.6388" x2="51.9303" y2="0.0397896" gradientUnits="userSpaceOnUse">
            <stop stop-color="#201A61"/>
            <stop offset="1" stop-color="#E22B57" stop-opacity="0"/>
        </linearGradient>
        <linearGradient id="paint10_linear_312_464" x1="59.1946" y1="83.3246" x2="70.7167" y2="2.72516" gradientUnits="userSpaceOnUse">
            <stop stop-color="#201A61"/>
            <stop offset="1" stop-color="#17145A" stop-opacity="0"/>
        </linearGradient>
        <linearGradient id="paint11_linear_312_464" x1="68.3529" y1="84.633" x2="79.8746" y2="4.03554" gradientUnits="userSpaceOnUse">
            <stop stop-color="#17145A"/>
            <stop offset="1" stop-color="#E22B57" stop-opacity="0"/>
        </linearGradient>
        <linearGradient id="paint12_linear_312_464" x1="42.2954" y1="80.9085" x2="53.8174" y2="0.309789" gradientUnits="userSpaceOnUse">
            <stop stop-color="#17145A"/>
            <stop offset="1" stop-color="#E2992B" stop-opacity="0"/>
        </linearGradient>
        <linearGradient id="paint13_linear_312_464" x1="54.6126" y1="82.6691" x2="66.1345" y2="2.07113" gradientUnits="userSpaceOnUse">
            <stop stop-color="#17145A"/>
            <stop offset="1" stop-color="#E2782B" stop-opacity="0"/>
        </linearGradient>
        <linearGradient id="paint14_linear_312_464" x1="52.5377" y1="82.3727" x2="64.0598" y2="1.77347" gradientUnits="userSpaceOnUse">
            <stop stop-color="#17145A"/>
            <stop offset="1" stop-color="#E2992B" stop-opacity="0"/>
        </linearGradient>
        <linearGradient id="paint15_linear_312_464" x1="30.3886" y1="79.2061" x2="41.9104" y2="-1.39196" gradientUnits="userSpaceOnUse">
            <stop stop-color="#201A61"/>
            <stop offset="1" stop-color="#17145A" stop-opacity="0"/>
        </linearGradient>
        <linearGradient id="paint16_linear_312_464" x1="22.273" y1="78.0465" x2="33.7951" y2="-2.55292" gradientUnits="userSpaceOnUse">
            <stop stop-color="#201A61"/>
            <stop offset="1" stop-color="#17145A" stop-opacity="0"/>
        </linearGradient>
        <linearGradient id="paint17_linear_312_464" x1="26.4836" y1="78.648" x2="38.0057" y2="-1.95094" gradientUnits="userSpaceOnUse">
            <stop stop-color="#201A61"/>
            <stop offset="1" stop-color="#17145A" stop-opacity="0"/>
        </linearGradient>
        <linearGradient id="paint18_linear_312_464" x1="54.0897" y1="82.5948" x2="65.6117" y2="1.99548" gradientUnits="userSpaceOnUse">
            <stop stop-color="#201A61"/>
            <stop offset="1" stop-color="#17145A" stop-opacity="0"/>
        </linearGradient>
        <linearGradient id="paint19_linear_312_464" x1="72.148" y1="85.1763" x2="83.67" y2="4.57685" gradientUnits="userSpaceOnUse">
            <stop stop-color="#201A61"/>
            <stop offset="1" stop-color="#FFFADE" stop-opacity="0"/>
        </linearGradient>
        <linearGradient id="paint20_linear_312_464" x1="40.1913" y1="69.0122" x2="44.9465" y2="41.4138" gradientUnits="userSpaceOnUse">
            <stop stop-color="#17145A"/>
            <stop offset="1" stop-color="#17145A" stop-opacity="0"/>
        </linearGradient>
        <linearGradient id="paint21_linear_312_464" x1="56.3852" y1="71.9916" x2="50.8021" y2="49.8106" gradientUnits="userSpaceOnUse">
            <stop stop-color="#17145A"/>
            <stop offset="1" stop-color="#17145A" stop-opacity="0"/>
        </linearGradient>
        <linearGradient id="paint22_linear_312_464" x1="32.0324" y1="14.2042" x2="31.9809" y2="14.2764" gradientUnits="userSpaceOnUse">
            <stop stop-color="#FADBD1"/>
            <stop offset="1" stop-color="#F9F1DD" stop-opacity="0"/>
        </linearGradient>
        <linearGradient id="paint23_linear_312_464" x1="74.5831" y1="3.32751" x2="61.0184" y2="22.3392" gradientUnits="userSpaceOnUse">
            <stop stop-color="#FAEAD1"/>
            <stop offset="1" stop-color="#F9E4DD" stop-opacity="0"/>
        </linearGradient>
        <linearGradient id="paint24_linear_312_464" x1="46.3447" y1="58.5242" x2="53.843" y2="32.0241" gradientUnits="userSpaceOnUse">
            <stop stop-color="#F7EBFF"/>
            <stop offset="1" stop-color="#4E3F8D"/>
        </linearGradient>
        <linearGradient id="paint25_linear_312_464" x1="45.8085" y1="58.3726" x2="53.3067" y2="31.8725" gradientUnits="userSpaceOnUse">
            <stop stop-color="#17145A"/>
            <stop offset="1" stop-color="#F7EBFF"/>
        </linearGradient>
        <clipPath id="clip0_312_464">
            <rect width="99" height="78" fill="white" transform="translate(0 0.5)"/>
        </clipPath>
    </defs>
</svg>