<svg viewBox="0 0 92 106" fill="none" xmlns="http://www.w3.org/2000/svg">
    <g filter="url(#filter0_d_319_352)">
        <path d="M47.4789 8.02041C56.0695 7.62991 61.6337 12.9014 65.0505 18.7586C59.1932 14.3657 55.7765 13.8776 50.4074 14.3657C45.0383 14.8538 37.2287 19.2467 35.2763 26.0801C33.3239 32.9136 36.2713 37.3065 38.7118 39.747C40.9217 41.9569 47.503 44.1374 52.3598 43.6518C57.2408 43.1637 61.6337 42.1875 65.5386 35.3541C65.3759 36.1676 64.0743 40.3327 62.1218 42.6756C61.8275 43.0288 61.4408 43.3536 60.9824 43.6518L65.0505 48.0447L68.4672 47.0685C67.491 46.0923 66.2142 42.2416 69.6309 41.7534C71.4207 38.6621 74.9267 35.5821 78.9049 41.2653C82.3216 46.1463 78.88 51.7868 76.7649 52.4376C75.5934 54.7805 73.3482 56.017 72.372 56.3424C68.0767 59.8567 62.4851 59.2506 60.322 58.2744C60.3817 60.3509 60.2841 61.8961 59.6174 62.4655C63.4137 61.7499 68.9553 63.1023 68.9553 68.0568C68.9553 73.426 65.4564 75.1758 64.5624 76.3546C62.6757 78.8421 62.4703 78.4465 61.1456 79.7712C59.1932 81.7236 59.1932 87.5808 55.7765 86.6046C52.3598 85.6284 47.6314 80.727 52.8479 74.8902C53.5507 73.7483 54.7466 71.9614 55.9442 70.4973L52.3598 70.7894C51.5511 71.4353 50.0201 71.6024 49.2429 71.2915C48.4858 73.1757 47.5051 75.3316 46.3958 77.3307C45.2344 79.4236 43.9321 81.3445 42.5978 82.6019C40.6454 84.9081 38.2049 91.9737 32.8359 89.5332C28.5407 87.5808 31.0462 80.422 32.8359 77.3307C32.9385 76.4016 33.7976 75.12 34.3001 73.914L35.7644 68.0568C31.0786 67.6663 30.8834 59.3056 31.3715 55.1741C30.12 54.5797 29.312 53.4812 26.4906 50.9733C22.9763 47.8494 19.8198 43.6169 18.6809 41.8911C17.7499 41.7518 17.0206 41.5034 16.7285 41.2113C15.7523 40.2351 15.7523 39.2589 14.7761 37.3065C13.9951 35.7445 14.1253 34.3236 14.288 33.8084C13.4125 32.9455 12.7215 31.8237 12.3356 30.473C11.3594 27.0563 12.8237 25.2399 12.8237 24.1277C12.8237 23.0156 18.1928 19.2467 19.6571 18.7586C21.1214 18.2705 23.5619 19.2467 25.0262 20.711C26.1678 21.8527 25.8569 24.1003 25.5391 25.1595C26.0462 24.5784 27.1499 23.4385 27.9549 23.1515C30.3953 13.8777 35.7644 8.55292 47.4789 8.02041Z" fill="url(#paint0_linear_319_352)"/>
        <path d="M27.9549 23.1515C30.3953 13.8777 35.7644 8.55292 47.4789 8.02041C56.0695 7.62991 61.6337 12.9014 65.0505 18.7586C59.1932 14.3657 55.7765 13.8776 50.4074 14.3657C45.0383 14.8538 37.2287 19.2467 35.2763 26.0801C33.3239 32.9136 36.2713 37.3065 38.7118 39.747C40.9217 41.9569 47.503 44.1374 52.3598 43.6518C57.2408 43.1637 61.6337 42.1875 65.5386 35.3541C65.3759 36.1676 64.0743 40.3327 62.1218 42.6756C61.8275 43.0288 61.4408 43.3536 60.9824 43.6518M27.9549 23.1515C26.643 23.6192 24.538 26.3521 25.5143 25.2399M27.9549 23.1515C28.6057 22.8261 30.4526 22.5389 31.3715 23.1515C32.8357 24.1277 33.324 28.5206 32.8359 31.9373C32.3478 35.354 29.9073 36.8184 28.9311 35.8421M25.5143 25.2399C25.8794 25.2909 26.2116 25.406 26.4906 25.592C27.662 26.373 26.9787 29.8222 26.4906 31.4492M25.5143 25.2399C23.9634 25.0233 21.8187 25.9641 20.6334 27.5444C19.1691 29.4968 20.6334 30.9611 21.1215 30.9611C21.6096 30.9611 22.5857 30.9611 23.0738 30.473M25.5143 25.2399C25.8397 24.2184 26.1976 21.8825 25.0262 20.711C23.5619 19.2467 21.1214 18.2705 19.6571 18.7586C18.1928 19.2467 12.8237 23.0156 12.8237 24.1277C12.8237 25.2399 11.3594 27.0563 12.3356 30.473C12.7215 31.8237 13.4125 32.9455 14.288 33.8084M28.9311 35.8421C28.2803 34.5405 26.8811 31.8397 26.4906 31.4492M28.9311 35.8421C28.4431 37.3065 27.4667 37.7946 25.5143 40.2351C24.1462 41.9452 20.8607 42.2173 18.6809 41.8911M28.9311 35.8421C29.9073 37.3065 32.1525 40.4303 33.3239 41.2113M26.4906 31.4492C25.5145 32.9135 22.0976 35.8421 19.169 35.8421C17.3981 35.8421 15.6272 35.1283 14.288 33.8084M14.288 33.8084C14.1253 34.3236 13.9951 35.7445 14.7761 37.3065C15.7523 39.2589 15.7523 40.2351 16.7285 41.2113C17.0206 41.5034 17.7499 41.7518 18.6809 41.8911M33.3239 41.2113C33.8377 41.5538 34.7882 42.0445 36.7406 43.6518M33.3239 41.2113C33.324 44.4653 31.9574 50.9733 26.4906 50.9733M18.6809 41.8911C19.8198 43.6169 22.9763 47.8494 26.4906 50.9733M26.4906 50.9733C29.312 53.4812 30.12 54.5797 31.3715 55.1741M34.3001 55.8543C38.2049 56.3424 39.1123 45.6042 36.7406 43.6518M34.3001 55.8543C32.9033 55.6797 32.0686 55.5051 31.3715 55.1741M34.3001 55.8543L34.7882 59.7591M36.7406 43.6518C39.0626 45.5633 42.5978 46.5804 47.4789 46.5804C49.6996 46.5803 54.1884 46.168 57.7289 45.0752M31.3715 55.1741C30.8834 59.3056 31.0786 67.6663 35.7644 68.0568M35.7644 68.0568L34.3001 73.914M35.7644 68.0568L36.7406 64.6401M34.7882 59.7591C34.4628 61.5488 34.3977 65.0306 36.7406 64.6401M34.7882 59.7591L43.7265 58.2744M36.7406 64.6401C39.0835 64.2496 43.8994 63.5012 46.0145 63.1758M46.0145 63.1758C44.0621 63.1758 44.026 59.7591 43.7265 58.2744M46.0145 63.1758L55.2884 62.1996C62.1218 61.6911 59.8339 54.8577 59.6813 50.9733M43.7265 58.2744C43.2384 55.8543 42.5978 52.9053 44.7028 51.441M44.7028 51.441C45.3751 50.9733 58.7051 49.4886 59.6813 50.9733M44.7028 51.441C45.4146 52.2613 45.679 54.3696 46.0145 56.3424C46.4464 58.8817 45.679 60.2268 48.6076 59.7591C50.0473 59.5292 53.011 59.1441 55.7765 58.8058M59.6813 50.9733C60.0718 49.0209 58.5424 46.2277 57.7289 45.0752M59.6813 50.9733C60.0506 52.8196 60.2552 55.9516 60.322 58.2744M57.7289 45.0752C58.9787 44.6894 60.1103 44.2189 60.9824 43.6518M61.1456 79.7712C59.1932 81.7236 59.1932 87.5808 55.7765 86.6046C52.3598 85.6284 47.6314 80.727 52.8479 74.8902M61.1456 79.7712C58.0218 81.7236 54.1495 77.3307 52.8479 74.8902M61.1456 79.7712C62.4703 78.4465 62.6757 78.8421 64.5624 76.3546M52.8479 74.8902C53.5507 73.7483 54.7466 71.9614 55.9442 70.4973M58.7051 68.0568C57.9865 68.2365 56.9648 69.2496 55.9442 70.4973M55.9442 70.4973C57.3706 72.7751 59.1172 76.3546 64.5624 76.3546M55.9442 70.4973L52.3598 70.7894M64.5624 76.3546C65.4564 75.1758 68.9553 73.426 68.9553 68.0568C68.9553 62.6876 62.4472 61.5488 58.7051 62.6877C60.1978 62.9009 60.4024 61.0687 60.322 58.2744M52.3598 70.7894C53.5827 69.8128 54.7008 68.1579 55.2884 67.0806M52.3598 70.7894C51.5511 71.4353 50.0201 71.6024 49.2429 71.2915M49.2429 71.2915C49.4942 70.6662 49.7208 70.0709 49.9193 69.5211M49.2429 71.2915C48.4858 73.1757 47.5051 75.3316 46.3958 77.3307M34.3001 73.914C35.3678 76.3545 39.2816 80.4546 46.3958 77.3307M34.3001 73.914C33.7976 75.12 32.9385 76.4016 32.8359 77.3307M46.3958 77.3307C45.2344 79.4236 43.9321 81.3445 42.5978 82.6019M32.8359 77.3307C31.0462 80.422 28.5407 87.5808 32.8359 89.5332C38.2049 91.9737 40.6454 84.9081 42.5978 82.6019M32.8359 77.3307C32.4401 80.9139 35.1902 82.3123 36.7406 82.6999C38.3566 83.1039 41.1235 83.9912 42.5978 82.6019M60.9824 43.6518L65.0505 48.0447M65.0505 48.0447C63.5862 50.3225 61.6337 55.659 65.5386 58.7829M65.0505 48.0447L68.4672 47.0685M60.322 58.2744C62.4851 59.2506 68.0767 59.8567 72.372 56.3424M60.322 58.2744C59.1684 58.3998 57.5115 58.5936 55.7765 58.8058M72.372 56.3424C67.6862 53.609 68.1418 49.0209 68.4672 47.0685M72.372 56.3424C73.3482 56.017 75.5934 54.7805 76.7649 52.4376M68.4672 47.0685C70.4196 48.5328 72.372 48.5328 72.8601 46.0923M68.4672 47.0685C67.491 46.0923 66.2142 42.2416 69.6309 41.7534M76.7649 52.4376C73.2505 53.2185 71.0704 50.1598 70.4196 48.5328M76.7649 52.4376C78.88 51.7868 82.3216 46.1463 78.9049 41.2653C74.9267 35.5821 71.4207 38.6621 69.6309 41.7534M69.6309 41.7534C70.2591 42.1124 71.5045 42.2756 72.1602 43.1637M72.8601 46.0923C73.0352 45.2168 72.6933 43.8857 72.1602 43.1637M72.8601 46.0923L73.6141 46.5804M72.1602 43.1637C72.5562 42.5129 73.641 41.2113 74.8125 41.2113M77.253 44.628C76.0492 44.8468 74.2126 45.4778 73.6141 46.5804M78.7173 48.5328C77.7411 49.509 75.3982 50.8757 73.8363 48.5328C73.3249 47.7657 73.3228 47.1172 73.6141 46.5804M55.7765 58.8058L55.2884 53.8815H57.7289" stroke="url(#paint1_linear_319_352)" stroke-width="0.5"/>
        <path d="M58.7405 14.5394C49.6577 12.5211 41.5335 16.5637 38.497 20.1063C34.9544 23.6489 33.0497 33.5746 37.9907 39.3377C41.0281 42.8803 55.7603 46.4861 63.802 39.3377C68.3568 35.2889 70.8873 17.2384 58.7405 14.5394Z" fill="#0B1722" stroke="#13202E" stroke-width="0.5"/>
        <path d="M59.763 31.9975C56.2201 36.0464 46.6399 39.8105 36.012 35.7618C33.9876 30.1948 35.4887 24.6279 37.0066 22.0974C38.1191 20.243 40.3744 18.506 42.0674 17.3209C47.634 13.2723 59.5412 12.9141 61.8044 16.3089C65.8531 22.382 61.7061 29.777 59.763 31.9975Z" fill="#2D3F4D"/>
        <path d="M45.2066 21.3237C43.4849 22.6931 40.0406 27.714 39.1013 28.1705C35.8133 28.1705 37.2223 25.4318 38.005 24.0623C39.4889 21.4661 42.7015 19.0414 45.0498 18.1285C47.398 17.2156 50.3728 16.7592 51.1553 17.2157C51.6924 17.529 46.6158 19.9544 45.2066 21.3237Z" fill="#506573"/>
        <path d="M50.2961 55.8191C50.4285 56.8892 50.5599 57.7862 49.5669 57.8765C48.5739 57.9668 48.4908 57.1288 48.3585 56.0587C48.2262 54.9885 47.8795 54.1507 49.0877 54.0012C50.2961 53.8517 50.1638 54.7489 50.2961 55.8191Z" fill="#122431"/>
    </g>
    <defs>
        <filter id="filter0_d_319_352" x="0.75" y="0.75" width="90.8494" height="104.539" filterUnits="userSpaceOnUse" color-interpolation-filters="sRGB">
            <feFlood flood-opacity="0" result="BackgroundImageFix"/>
            <feColorMatrix in="SourceAlpha" type="matrix" values="0 0 0 0 0 0 0 0 0 0 0 0 0 0 0 0 0 0 127 0" result="hardAlpha"/>
            <feOffset dy="4"/>
            <feGaussianBlur stdDeviation="5.5"/>
            <feComposite in2="hardAlpha" operator="out"/>
            <feColorMatrix type="matrix" values="0 0 0 0 0.778846 0 0 0 0 1 0 0 0 0 0.98157 0 0 0 0.75 0"/>
            <feBlend mode="normal" in2="BackgroundImageFix" result="effect1_dropShadow_319_352"/>
            <feBlend mode="normal" in="SourceGraphic" in2="effect1_dropShadow_319_352" result="shape"/>
        </filter>
        <linearGradient id="paint0_linear_319_352" x1="46" y1="35" x2="31" y2="98.5" gradientUnits="userSpaceOnUse">
            <stop stop-color="white"/>
            <stop offset="0.302536" stop-color="#B4DDE9"/>
            <stop offset="0.58284" stop-color="white"/>
            <stop offset="1" stop-color="#3E95AF"/>
        </linearGradient>
        <linearGradient id="paint1_linear_319_352" x1="46.1747" y1="8" x2="28" y2="88" gradientUnits="userSpaceOnUse">
            <stop stop-color="#C3E4FD"/>
            <stop offset="0.236485" stop-color="#5D6973"/>
            <stop offset="0.590812" stop-color="#2D3F4D"/>
            <stop offset="1" stop-color="#0D1924"/>
        </linearGradient>
    </defs>
</svg>