<svg viewBox="0 0 81 88" fill="none" xmlns="http://www.w3.org/2000/svg">
    <circle cx="23.1914" cy="62.1914" r="21.6349" transform="rotate(4.28615 23.1914 62.1914)" fill="url(#paint0_radial_324_399)"/>
    <circle cx="46.7992" cy="42.7993" r="11.9403" transform="rotate(4.28615 46.7992 42.7993)" fill="url(#paint1_radial_324_399)"/>
    <circle cx="12.2983" cy="17.2981" r="5.87541" transform="rotate(4.28615 12.2983 17.2981)" fill="url(#paint2_radial_324_399)"/>
    <g filter="url(#filter0_g_324_399)">
        <path d="M13.0034 15.85L17.4642 13.0207M23.8032 9L21.925 10.1913M52.4462 42.8471L59.2255 38.4148M72.1677 29.953L68.8808 32.102M65.5939 34.251L60.8983 37.3211M8.77734 76.2913L10.6556 75.0825M30.377 62.1883L37.4204 57.353" stroke="url(#paint3_linear_324_399)" stroke-width="0.8"/>
    </g>
    <path d="M21.9893 32.7648L19.709 33.5249C19.6133 33.5568 19.5571 33.6587 19.5769 33.7576C23.5383 53.5539 24.9098 58.4663 39.8777 70.3682C39.9339 70.4129 40.0118 70.4257 40.0785 70.399L41.8766 69.6798C42.018 69.6232 42.0421 69.4318 41.9245 69.3351C27.5732 57.5354 25.7523 51.2831 22.2498 32.9212C22.2271 32.8023 22.1041 32.7265 21.9893 32.7648Z" fill="url(#paint4_linear_324_399)"/>
    <path d="M22.127 86.4777L20.3775 87.5274C20.228 87.6171 20.0435 87.485 20.0792 87.3143C21.826 78.9755 23.6555 71.7589 30.2002 70.8862C26.3138 71.9462 23.13 80.9992 22.2212 86.3408C22.2114 86.3986 22.1772 86.4475 22.127 86.4777Z" fill="url(#paint5_linear_324_399)"/>
    <g filter="url(#filter1_ii_324_399)">
        <path d="M13.3237 50.457C11.5211 53.4614 7.18034 54.3563 4.0847 54.4463C3.90011 54.4516 3.81291 54.6836 3.94948 54.8079C7.44994 57.9942 11.8984 63.5945 13.3237 66.4451C15.0419 69.8815 17.591 79.5497 19.7655 87.0113C19.8234 87.2101 20.1096 87.1968 20.1549 86.9947C22.3014 77.4166 24.1257 74.9144 26.203 72.6627C28.2278 70.4678 35.6219 70.4391 39.4032 70.4418C39.5922 70.4419 39.6732 70.204 39.5258 70.0856C35.1802 66.5941 30.1275 62.286 27.0912 57.5629C23.1693 51.4621 21.0908 41.7378 19.7503 34.6886C19.7086 34.4689 19.3862 34.4757 19.3456 34.6955C17.9971 41.9964 15.8619 46.2267 13.3237 50.457Z" fill="#FFE065"/>
    </g>
    <g filter="url(#filter2_ii_324_399)">
        <path d="M41.5996 37.0267C40.6262 38.649 38.342 39.1817 36.6159 39.2694C36.4314 39.2788 36.3434 39.5142 36.4783 39.6403C38.4259 41.461 40.818 44.489 41.5996 46.0523C42.5449 47.9429 43.9804 53.5699 45.1919 57.7791C45.2492 57.9781 45.5349 57.9653 45.5808 57.7633C46.756 52.5918 47.7218 50.807 48.8701 49.5622C49.9714 48.3684 54.1501 48.3158 56.3885 48.3154C56.5776 48.3154 56.6597 48.0782 56.5118 47.9604C54.0705 46.0166 51.0412 43.6353 49.3716 41.0381C47.2422 37.7258 45.9561 31.7335 45.176 27.6629C45.1339 27.4433 44.8107 27.4474 44.7695 27.6671C44.0252 31.6394 42.9777 34.7299 41.5996 37.0267Z" fill="#FFE065"/>
    </g>
    <path d="M46.3972 27.0707L45.2774 27.444C45.1817 27.4759 45.1254 27.5774 45.1452 27.6763C47.3662 38.7699 48.1572 41.5546 56.5496 48.2348C56.6058 48.2795 56.6836 48.2922 56.7502 48.2655L57.5813 47.9331C57.7227 47.8765 57.7478 47.6858 57.6303 47.5889C49.6597 41.01 48.6132 37.4666 46.6576 27.2266C46.6349 27.1077 46.512 27.0324 46.3972 27.0707Z" fill="url(#paint6_linear_324_399)"/>
    <path d="M46.5349 57.3817L45.7525 57.8511C45.6029 57.9409 45.4183 57.8096 45.4542 57.6389C46.4285 53.0142 47.4832 49.0452 51.1269 48.5594C48.9424 49.1551 47.1512 54.2242 46.6293 57.2445C46.6194 57.3023 46.5852 57.3515 46.5349 57.3817Z" fill="url(#paint7_linear_324_399)"/>
    <path d="M3.73075 73.632L3.10889 73.8097C3.89262 77.5166 4.33156 78.4098 7.29232 80.634L7.72772 80.4692C4.85405 78.2451 4.42739 77.0918 3.73075 73.632Z" fill="url(#paint8_linear_324_399)"/>
    <path d="M3.99721 83.5802L3.5531 84.0243C3.80908 82.1625 4.07032 81.1283 5.37653 80.9635C4.61022 81.1612 4.17138 82.5917 3.99721 83.5802Z" fill="url(#paint9_linear_324_399)"/>
    <g filter="url(#filter3_ii_324_399)">
        <path d="M2.02148 76.5969C1.7019 77.1295 0.996732 77.3417 0.398469 77.4032C0.260691 77.4174 0.193082 77.5989 0.291666 77.6962C0.974431 78.37 1.75443 79.3707 2.02148 79.9048C2.31868 80.4992 2.83617 82.3853 3.26627 83.9113C3.31327 84.0781 3.5774 84.0438 3.59123 83.871C3.70854 82.4057 4.07692 81.7544 4.44113 81.3596C4.81238 80.9572 6.22966 80.7874 7.10734 80.7437C7.24896 80.7367 7.31113 80.5539 7.20005 80.4657C6.32587 79.7723 5.26017 78.9198 4.68617 78.0269C3.94724 76.8775 3.63902 75.0951 3.28219 73.8871C3.23891 73.7406 3.04092 73.7576 3.01209 73.9077C2.76817 75.1773 2.50824 75.7856 2.02148 76.5969Z" fill="#FFF65D"/>
    </g>
    <path d="M12.0096 9.18216L11.3721 9.4554C12.4805 14.6982 13.1265 16.1343 17.314 19.2799L17.9298 19.0469C13.8655 15.9012 12.9949 14.0754 12.0096 9.18216Z" fill="url(#paint10_linear_324_399)"/>
    <path d="M12.465 24.0279L12.0096 24.4833C12.0096 21.7509 12.757 19.979 14.6044 19.7459C13.5206 20.0256 12.7113 22.6298 12.465 24.0279Z" fill="url(#paint11_linear_324_399)"/>
    <g filter="url(#filter4_ii_324_399)">
        <path d="M9.85953 13.5701C9.37778 14.373 8.27653 14.6611 7.39913 14.725C7.26099 14.7351 7.19443 14.9138 7.29444 15.0097C8.28654 15.9602 9.46627 17.4621 9.85953 18.2486C10.3073 19.1441 11.1087 22.1131 11.7376 24.3309C11.7848 24.4976 12.0422 24.4622 12.0513 24.2892C12.1759 21.9104 12.7322 20.9018 13.2817 20.3062C13.8326 19.709 16.0122 19.474 17.2301 19.4272C17.3718 19.4218 17.4336 19.2402 17.3226 19.1521C16.0622 18.1522 14.4707 16.9032 13.6283 15.5926C12.5378 13.8964 12.1105 11.2255 11.5764 9.51976C11.5307 9.37397 11.3301 9.39259 11.3026 9.54286C10.945 11.4929 10.576 12.3761 9.85953 13.5701Z" fill="#FFF65D"/>
    </g>
    <defs>
        <filter id="filter0_g_324_399" x="0.561035" y="0.662201" width="79.8257" height="83.9655" filterUnits="userSpaceOnUse" color-interpolation-filters="sRGB">
            <feFlood flood-opacity="0" result="BackgroundImageFix"/>
            <feBlend mode="normal" in="SourceGraphic" in2="BackgroundImageFix" result="shape"/>
            <feTurbulence type="fractalNoise" baseFrequency="1 1" numOctaves="3" seed="5589" />
            <feDisplacementMap in="shape" scale="16" xChannelSelector="R" yChannelSelector="G" result="displacedImage" width="100%" height="100%" />
            <feMerge result="effect1_texture_324_399">
                <feMergeNode in="displacedImage"/>
            </feMerge>
        </filter>
        <filter id="filter1_ii_324_399" x="3.88281" y="30.5272" width="36.7188" height="60.6263" filterUnits="userSpaceOnUse" color-interpolation-filters="sRGB">
            <feFlood flood-opacity="0" result="BackgroundImageFix"/>
            <feBlend mode="normal" in="SourceGraphic" in2="BackgroundImageFix" result="shape"/>
            <feColorMatrix in="SourceAlpha" type="matrix" values="0 0 0 0 0 0 0 0 0 0 0 0 0 0 0 0 0 0 127 0" result="hardAlpha"/>
            <feOffset dy="7"/>
            <feGaussianBlur stdDeviation="2"/>
            <feComposite in2="hardAlpha" operator="arithmetic" k2="-1" k3="1"/>
            <feColorMatrix type="matrix" values="0 0 0 0 0.964706 0 0 0 0 0.529412 0 0 0 0 0.188235 0 0 0 0.25 0"/>
            <feBlend mode="normal" in2="shape" result="effect1_innerShadow_324_399"/>
            <feColorMatrix in="SourceAlpha" type="matrix" values="0 0 0 0 0 0 0 0 0 0 0 0 0 0 0 0 0 0 127 0" result="hardAlpha"/>
            <feOffset dx="1" dy="-7"/>
            <feGaussianBlur stdDeviation="2"/>
            <feComposite in2="hardAlpha" operator="arithmetic" k2="-1" k3="1"/>
            <feColorMatrix type="matrix" values="0 0 0 0 0.964706 0 0 0 0 0.529412 0 0 0 0 0.188235 0 0 0 0.25 0"/>
            <feBlend mode="normal" in2="effect1_innerShadow_324_399" result="effect2_innerShadow_324_399"/>
        </filter>
        <filter id="filter2_ii_324_399" x="36.4131" y="23.5002" width="21.1748" height="38.4215" filterUnits="userSpaceOnUse" color-interpolation-filters="sRGB">
            <feFlood flood-opacity="0" result="BackgroundImageFix"/>
            <feBlend mode="normal" in="SourceGraphic" in2="BackgroundImageFix" result="shape"/>
            <feColorMatrix in="SourceAlpha" type="matrix" values="0 0 0 0 0 0 0 0 0 0 0 0 0 0 0 0 0 0 127 0" result="hardAlpha"/>
            <feOffset dy="7"/>
            <feGaussianBlur stdDeviation="2"/>
            <feComposite in2="hardAlpha" operator="arithmetic" k2="-1" k3="1"/>
            <feColorMatrix type="matrix" values="0 0 0 0 0.964706 0 0 0 0 0.529412 0 0 0 0 0.188235 0 0 0 0.25 0"/>
            <feBlend mode="normal" in2="shape" result="effect1_innerShadow_324_399"/>
            <feColorMatrix in="SourceAlpha" type="matrix" values="0 0 0 0 0 0 0 0 0 0 0 0 0 0 0 0 0 0 127 0" result="hardAlpha"/>
            <feOffset dx="1" dy="-7"/>
            <feGaussianBlur stdDeviation="2"/>
            <feComposite in2="hardAlpha" operator="arithmetic" k2="-1" k3="1"/>
            <feColorMatrix type="matrix" values="0 0 0 0 0.964706 0 0 0 0 0.529412 0 0 0 0 0.188235 0 0 0 0.25 0"/>
            <feBlend mode="normal" in2="effect1_innerShadow_324_399" result="effect2_innerShadow_324_399"/>
        </filter>
        <filter id="filter3_ii_324_399" x="0.245117" y="69.7857" width="8.01172" height="18.2343" filterUnits="userSpaceOnUse" color-interpolation-filters="sRGB">
            <feFlood flood-opacity="0" result="BackgroundImageFix"/>
            <feBlend mode="normal" in="SourceGraphic" in2="BackgroundImageFix" result="shape"/>
            <feColorMatrix in="SourceAlpha" type="matrix" values="0 0 0 0 0 0 0 0 0 0 0 0 0 0 0 0 0 0 127 0" result="hardAlpha"/>
            <feOffset dy="7"/>
            <feGaussianBlur stdDeviation="2"/>
            <feComposite in2="hardAlpha" operator="arithmetic" k2="-1" k3="1"/>
            <feColorMatrix type="matrix" values="0 0 0 0 0.964706 0 0 0 0 0.529412 0 0 0 0 0.188235 0 0 0 0.25 0"/>
            <feBlend mode="normal" in2="shape" result="effect1_innerShadow_324_399"/>
            <feColorMatrix in="SourceAlpha" type="matrix" values="0 0 0 0 0 0 0 0 0 0 0 0 0 0 0 0 0 0 127 0" result="hardAlpha"/>
            <feOffset dx="1" dy="-7"/>
            <feGaussianBlur stdDeviation="2"/>
            <feComposite in2="hardAlpha" operator="arithmetic" k2="-1" k3="1"/>
            <feColorMatrix type="matrix" values="0 0 0 0 0.964706 0 0 0 0 0.529412 0 0 0 0 0.188235 0 0 0 0.25 0"/>
            <feBlend mode="normal" in2="effect1_innerShadow_324_399" result="effect2_innerShadow_324_399"/>
        </filter>
        <filter id="filter4_ii_324_399" x="7.24658" y="5.41974" width="11.1333" height="23.0193" filterUnits="userSpaceOnUse" color-interpolation-filters="sRGB">
            <feFlood flood-opacity="0" result="BackgroundImageFix"/>
            <feBlend mode="normal" in="SourceGraphic" in2="BackgroundImageFix" result="shape"/>
            <feColorMatrix in="SourceAlpha" type="matrix" values="0 0 0 0 0 0 0 0 0 0 0 0 0 0 0 0 0 0 127 0" result="hardAlpha"/>
            <feOffset dy="7"/>
            <feGaussianBlur stdDeviation="2"/>
            <feComposite in2="hardAlpha" operator="arithmetic" k2="-1" k3="1"/>
            <feColorMatrix type="matrix" values="0 0 0 0 0.964706 0 0 0 0 0.529412 0 0 0 0 0.188235 0 0 0 0.25 0"/>
            <feBlend mode="normal" in2="shape" result="effect1_innerShadow_324_399"/>
            <feColorMatrix in="SourceAlpha" type="matrix" values="0 0 0 0 0 0 0 0 0 0 0 0 0 0 0 0 0 0 127 0" result="hardAlpha"/>
            <feOffset dx="1" dy="-7"/>
            <feGaussianBlur stdDeviation="2"/>
            <feComposite in2="hardAlpha" operator="arithmetic" k2="-1" k3="1"/>
            <feColorMatrix type="matrix" values="0 0 0 0 0.964706 0 0 0 0 0.529412 0 0 0 0 0.188235 0 0 0 0.25 0"/>
            <feBlend mode="normal" in2="effect1_innerShadow_324_399" result="effect2_innerShadow_324_399"/>
        </filter>
        <radialGradient id="paint0_radial_324_399" cx="0" cy="0" r="1" gradientUnits="userSpaceOnUse" gradientTransform="translate(23.1914 62.1914) rotate(90) scale(21.6349)">
            <stop stop-color="#FBBE4E"/>
            <stop offset="1" stop-color="#FFE065" stop-opacity="0"/>
        </radialGradient>
        <radialGradient id="paint1_radial_324_399" cx="0" cy="0" r="1" gradientUnits="userSpaceOnUse" gradientTransform="translate(46.7992 42.7993) rotate(90) scale(11.9403)">
            <stop stop-color="#FBBE4E"/>
            <stop offset="1" stop-color="#FFE065" stop-opacity="0"/>
        </radialGradient>
        <radialGradient id="paint2_radial_324_399" cx="0" cy="0" r="1" gradientUnits="userSpaceOnUse" gradientTransform="translate(12.2983 17.2981) rotate(90) scale(5.87541)">
            <stop stop-color="#FBBE4E"/>
            <stop offset="1" stop-color="#FFE065" stop-opacity="0"/>
        </radialGradient>
        <linearGradient id="paint3_linear_324_399" x1="33.6639" y1="2.14999" x2="34.7013" y2="100.875" gradientUnits="userSpaceOnUse">
            <stop offset="0.144231" stop-color="#FFE065"/>
            <stop offset="1" stop-color="#FBB94E"/>
        </linearGradient>
        <linearGradient id="paint4_linear_324_399" x1="30.8664" y1="32.6925" x2="30.8664" y2="87.7625" gradientUnits="userSpaceOnUse">
            <stop offset="0.20997" stop-color="#D49021"/>
            <stop offset="0.562157" stop-color="#FFE065"/>
            <stop offset="0.847428" stop-color="#D98A06"/>
        </linearGradient>
        <linearGradient id="paint5_linear_324_399" x1="30.8664" y1="32.6925" x2="30.8664" y2="87.7625" gradientUnits="userSpaceOnUse">
            <stop offset="0.20997" stop-color="#D49021"/>
            <stop offset="0.562157" stop-color="#FFE065"/>
            <stop offset="0.847428" stop-color="#D98A06"/>
        </linearGradient>
        <linearGradient id="paint6_linear_324_399" x1="51.5029" y1="26.9984" x2="51.5029" y2="58.0863" gradientUnits="userSpaceOnUse">
            <stop offset="0.20997" stop-color="#D49021"/>
            <stop offset="0.562157" stop-color="#FFE065"/>
            <stop offset="0.847428" stop-color="#D98A06"/>
        </linearGradient>
        <linearGradient id="paint7_linear_324_399" x1="51.5029" y1="26.9984" x2="51.5029" y2="58.0863" gradientUnits="userSpaceOnUse">
            <stop offset="0.20997" stop-color="#D49021"/>
            <stop offset="0.562157" stop-color="#FFE065"/>
            <stop offset="0.847428" stop-color="#D98A06"/>
        </linearGradient>
        <linearGradient id="paint8_linear_324_399" x1="5.50705" y1="73.632" x2="5.50705" y2="83.8466" gradientUnits="userSpaceOnUse">
            <stop offset="0.20997" stop-color="#D49021"/>
            <stop offset="0.562157" stop-color="#FFE065"/>
            <stop offset="0.847428" stop-color="#D98A06"/>
        </linearGradient>
        <linearGradient id="paint9_linear_324_399" x1="5.50705" y1="73.632" x2="5.50705" y2="83.8466" gradientUnits="userSpaceOnUse">
            <stop offset="0.20997" stop-color="#D49021"/>
            <stop offset="0.562157" stop-color="#FFE065"/>
            <stop offset="0.847428" stop-color="#D98A06"/>
        </linearGradient>
        <linearGradient id="paint10_linear_324_399" x1="14.7892" y1="9.37688" x2="14.7892" y2="23.8237" gradientUnits="userSpaceOnUse">
            <stop offset="0.20997" stop-color="#D49021"/>
            <stop offset="0.562157" stop-color="#FFE065"/>
            <stop offset="0.847428" stop-color="#D98A06"/>
        </linearGradient>
        <linearGradient id="paint11_linear_324_399" x1="14.7892" y1="9.37688" x2="14.7892" y2="23.8237" gradientUnits="userSpaceOnUse">
            <stop offset="0.20997" stop-color="#D49021"/>
            <stop offset="0.562157" stop-color="#FFE065"/>
            <stop offset="0.847428" stop-color="#D98A06"/>
        </linearGradient>
    </defs>
</svg>