<?xml version="1.0" encoding="UTF-8"?>
<svg id="suit2" xmlns="http://www.w3.org/2000/svg" xmlns:xlink="http://www.w3.org/1999/xlink" viewBox="0 0 1183.778 1285.927">
  <defs>
    <linearGradient id="_Безымянный_градиент_2628" data-name="Безымянный градиент 2628" x1="659.517" y1="390.368" x2="786.627" y2="390.368" gradientUnits="userSpaceOnUse">
      <stop offset=".245" stop-color="#18163a"/>
      <stop offset=".929" stop-color="#18163a"/>
    </linearGradient>
    <pattern id="Nueva_muestra_de_motivo_24" data-name="Nueva muestra de motivo 24" x="0" y="0" width="60" height="77.033" patternTransform="translate(-441.928 255.909)" patternUnits="userSpaceOnUse" viewBox="0 0 60 77.033">
      <g>
        <rect y="0" width="60" height="77.033" style="fill: none;"/>
        <path d="M58.091,6.032c-.001,3.326,1.902,6.023,1.909,6.032v26.39c0-1.12-2.968-2.028-6.627-2.028s-9.868,2.028-9.868,2.028c0,0,6.208,2.029,9.868,2.029s6.627-.908,6.627-2.029v26.515s-1.909,2.7-1.909,6.031c0,3.332,1.908,6.031,1.908,6.031,0,0-2.7-1.908-6.031-1.907-3.332,0-6.033,1.907-6.033,1.907l.002.002h-17.936c3.36-12.635,13.099-15.192,11.553-22.71-.654-3.185-2.255-4.591-4.126-5.699.251.752.452,1.639.592,2.713,1.074,8.232-5.687,11.035-8.019,24.871-2.332-13.836-9.091-16.639-8.019-24.871.139-1.074.342-1.961.592-2.713-1.869,1.108-3.472,2.514-4.127,5.699-1.544,7.518,8.195,10.075,11.554,22.71H12.065s-2.701-1.909-6.032-1.91C2.705,75.123.007,77.027,0,77.031c.006-.01,1.91-2.704,1.909-6.031,0-3.331-1.909-6.031-1.909-6.031v-26.515c0,1.121,2.968,2.029,6.627,2.029s9.868-2.029,9.868-2.029c0,0-6.208-2.028-9.868-2.028S0,37.334,0,38.454V12.064h0s1.909-2.699,1.909-6.03C1.911,2.709.01.014,0,0h0c.018.014,2.711,1.909,6.031,1.909,3.333.001,6.033-1.909,6.033-1.909h35.872c.018.014,2.711,1.91,6.031,1.909,3.32,0,6.011-1.896,6.029-1.909h0c-.009.014-1.907,2.708-1.907,6.032ZM16.493,37.347c.042-.008-1.405-.652-2.689-1.947-1.342-1.243-2.521-3.138-3.302-4.457-1.627-2.601-3.199-4.736-4.662-4.248-1.451.449-1.208,3.838,1.646,6.469,2.872,2.808,9.137,4.236,9.007,4.184ZM16.494,36.113c.04.015-.81-1.322-1.163-3.11-.43-1.779-.363-4.009-.284-5.54.084-3.066-.043-5.716-1.532-6.119-1.457-.43-3.131,2.53-2.209,6.3.838,3.929,5.265,8.585,5.188,8.47ZM10.502,45.966c.781-1.318,1.96-3.214,3.302-4.456,1.283-1.295,2.731-1.94,2.689-1.949.13-.053-6.135,1.378-9.007,4.185-2.854,2.63-3.097,6.021-1.646,6.47,1.463.488,3.035-1.647,4.662-4.249ZM16.494,40.796c.078-.115-4.349,4.541-5.188,8.469-.922,3.771.752,6.731,2.209,6.301,1.489-.403,1.616-3.053,1.532-6.12-.079-1.53-.146-3.761.284-5.539.352-1.79,1.202-3.127,1.163-3.11ZM43.507,39.56c-.043.01,1.405.654,2.689,1.949,1.342,1.242,2.522,3.138,3.303,4.456,1.627,2.602,3.199,4.737,4.662,4.249,1.451-.448,1.208-3.84-1.646-6.47-2.872-2.807-9.137-4.237-9.007-4.185ZM43.506,40.796c-.039-.017.811,1.32,1.163,3.11.43,1.778.363,4.009.284,5.539-.084,3.067.044,5.717,1.532,6.12,1.457.43,3.13-2.53,2.209-6.301-.839-3.928-5.265-8.584-5.188-8.469ZM18.447,22.711c.654,3.186,2.254,4.591,4.126,5.699-.25-.752-.452-1.64-.592-2.713-1.074-8.233,5.687-11.034,8.019-24.87,2.332,13.836,9.091,16.638,8.02,24.87-.14,1.073-.343,1.961-.593,2.713,1.87-1.108,3.472-2.514,4.127-5.699C43.098,15.193,33.358,12.636,29.999.002c-3.36,12.634-13.098,15.191-11.552,22.709ZM31.235,15.827l-1.235-2.257-1.234,2.257-2.259,1.236,2.259,1.235,1.234,2.258,1.235-2.258,2.258-1.235-2.258-1.236ZM33.494,59.846l-2.258-1.235-1.235-2.258-1.234,2.258-2.259,1.235,2.259,1.235,1.234,2.258,1.235-2.258,2.258-1.235ZM42.065,38.454s-2.701-1.908-6.032-1.91c-3.332,0-6.033,1.909-6.033,1.909,0,0,1.911-2.698,1.91-6.031,0-3.331-1.909-6.032-1.909-6.032,0,0-1.91,2.701-1.909,6.032-.001,3.331,1.908,6.031,1.908,6.031,0,0-2.7-1.909-6.031-1.907-3.332,0-6.033,1.907-6.033,1.907,0,0,2.701,1.911,6.033,1.909,3.332.001,6.031-1.909,6.031-1.909,0,0-1.908,2.701-1.908,6.033-.002,3.332,1.909,6.032,1.909,6.032,0,0,1.909-2.7,1.909-6.031,0-3.332-1.91-6.034-1.91-6.034,0,0,2.702,1.91,6.033,1.91,3.333.001,6.033-1.909,6.033-1.909ZM43.506,36.113c-.077.115,4.349-4.541,5.188-8.47.921-3.77-.752-6.729-2.209-6.3-1.489.403-1.616,3.053-1.532,6.119.079,1.531.146,3.761-.284,5.54-.352,1.788-1.202,3.125-1.163,3.11ZM54.16,26.694c-1.463-.488-3.035,1.648-4.662,4.248-.781,1.319-1.96,3.214-3.303,4.457-1.283,1.295-2.731,1.939-2.689,1.947-.13.053,6.135-1.376,9.007-4.184,2.854-2.631,3.097-6.02,1.646-6.469Z" style="fill: #ea5823;"/>
        <polygon points="0 77.033 .002 77.033 0 77.032 0 77.033" style="fill: #ea5823;"/>
        <polygon points="59.998 77.033 59.998 77.033 59.999 77.031 59.998 77.033" style="fill: #ea5823;"/>
        <path d="M29.999,38.453s2.702,1.91,6.033,1.91c3.333.001,6.033-1.909,6.033-1.909,0,0-2.701-1.908-6.032-1.91-3.332,0-6.033,1.909-6.033,1.909Z" style="fill: #f4ab91;"/>
        <path d="M30.001,26.39s-1.91,2.701-1.909,6.032c-.001,3.331,1.908,6.031,1.908,6.031,0,0,1.911-2.698,1.91-6.031,0-3.331-1.909-6.032-1.909-6.032Z" style="fill: #f4ab91;"/>
        <path d="M17.935,38.453s2.701,1.911,6.033,1.909c3.332.001,6.031-1.909,6.031-1.909,0,0-2.7-1.909-6.031-1.907-3.332,0-6.033,1.907-6.033,1.907Z" style="fill: #f4ab91;"/>
        <path d="M30.001,50.519s1.909-2.7,1.909-6.031c0-3.332-1.91-6.034-1.91-6.034,0,0-1.908,2.701-1.908,6.033-.002,3.332,1.909,6.032,1.909,6.032Z" style="fill: #f4ab91;"/>
        <path d="M59.998,0h-12.061c.018.014,2.711,1.91,6.031,1.909,3.32,0,6.011-1.896,6.029-1.909Z" style="fill: #f4ab91;"/>
        <path d="M59.998,0c-.009.014-1.907,2.708-1.907,6.032-.001,3.326,1.902,6.023,1.909,6.032V0h-.002Z" style="fill: #f4ab91;"/>
        <path d="M12.065,0H.002c.018.014,2.711,1.909,6.031,1.909,3.333.001,6.033-1.909,6.033-1.909Z" style="fill: #f4ab91;"/>
        <path d="M1.91,6.033C1.911,2.709.01.014,0,0H0v12.064h0s1.909-2.699,1.909-6.03Z" style="fill: #f4ab91;"/>
        <path d="M59.999,77.031v.002s0,0,0,0h0v-12.065s-1.909,2.7-1.909,6.031c0,3.332,1.908,6.031,1.908,6.031Z" style="fill: #f4ab91;"/>
        <path d="M53.968,75.124c-3.332,0-6.033,1.907-6.033,1.907l.002.002h12.061l.002-.002s-2.7-1.908-6.031-1.907Z" style="fill: #f4ab91;"/>
        <path d="M0,77.031h0,0s.001.002.001.002h12.063s-2.701-1.909-6.032-1.91C2.705,75.123.007,77.027,0,77.031Z" style="fill: #f4ab91;"/>
        <path d="M0,64.969v12.063c.006-.01,1.91-2.704,1.909-6.031,0-3.331-1.909-6.031-1.909-6.031Z" style="fill: #f4ab91;"/>
        <polygon points="0 77.033 0 77.033 0 77.032 0 77.033" style="fill: #f4ab91;"/>
        <path d="M6.627,40.483c3.66,0,9.868-2.029,9.868-2.029,0,0-6.208-2.028-9.868-2.028S0,37.334,0,38.454s2.968,2.029,6.627,2.029Z" style="fill: #f4ab91;"/>
        <path d="M10.502,30.942c-1.627-2.601-3.199-4.736-4.662-4.248-1.451.449-1.208,3.838,1.646,6.469,2.872,2.808,9.137,4.236,9.007,4.184.042-.008-1.405-.652-2.689-1.947-1.342-1.243-2.521-3.138-3.302-4.457Z" style="fill: #f4ab91;"/>
        <path d="M13.805,41.51c1.283-1.295,2.731-1.94,2.689-1.949.13-.053-6.135,1.378-9.007,4.185-2.854,2.63-3.097,6.021-1.646,6.47,1.463.488,3.035-1.647,4.662-4.249.781-1.318,1.96-3.214,3.302-4.456Z" style="fill: #f4ab91;"/>
        <path d="M11.307,49.265c-.922,3.771.752,6.731,2.209,6.301,1.489-.403,1.616-3.053,1.532-6.12-.079-1.53-.146-3.761.284-5.539.352-1.79,1.202-3.127,1.163-3.11.078-.115-4.349,4.541-5.188,8.469Z" style="fill: #f4ab91;"/>
        <path d="M15.047,27.463c.084-3.066-.043-5.716-1.532-6.119-1.457-.43-3.131,2.53-2.209,6.3.838,3.929,5.265,8.585,5.188,8.47.04.015-.81-1.322-1.163-3.11-.43-1.779-.363-4.009-.284-5.54Z" style="fill: #f4ab91;"/>
        <path d="M53.373,36.426c-3.66,0-9.868,2.028-9.868,2.028,0,0,6.208,2.029,9.868,2.029s6.627-.908,6.627-2.029-2.968-2.028-6.627-2.028Z" style="fill: #f4ab91;"/>
        <path d="M54.16,26.694c-1.463-.488-3.035,1.648-4.662,4.248-.781,1.319-1.96,3.214-3.303,4.457-1.283,1.295-2.731,1.939-2.689,1.947-.13.053,6.135-1.376,9.007-4.184,2.854-2.631,3.097-6.02,1.646-6.469Z" style="fill: #f4ab91;"/>
        <path d="M46.196,41.51c1.342,1.242,2.522,3.138,3.303,4.456,1.627,2.602,3.199,4.737,4.662,4.249,1.451-.448,1.208-3.84-1.646-6.47-2.872-2.807-9.137-4.237-9.007-4.185-.043.01,1.405.654,2.689,1.949Z" style="fill: #f4ab91;"/>
        <path d="M44.953,49.445c-.084,3.067.044,5.717,1.532,6.12,1.457.43,3.13-2.53,2.209-6.301-.839-3.928-5.265-8.584-5.188-8.469-.039-.017.811,1.32,1.163,3.11.43,1.778.363,4.009.284,5.539Z" style="fill: #f4ab91;"/>
        <path d="M48.694,27.644c.921-3.77-.752-6.729-2.209-6.3-1.489.403-1.616,3.053-1.532,6.119.079,1.531.146,3.761-.284,5.54-.352,1.788-1.202,3.125-1.163,3.11-.077.115,4.349-4.541,5.188-8.47Z" style="fill: #f4ab91;"/>
        <path d="M22.573,28.41c-.25-.752-.452-1.64-.592-2.713-1.074-8.233,5.687-11.034,8.019-24.87,2.332,13.836,9.091,16.638,8.02,24.87-.14,1.073-.343,1.961-.593,2.713,1.87-1.108,3.472-2.514,4.127-5.699C43.098,15.193,33.358,12.636,29.999.002c-3.36,12.634-13.098,15.191-11.552,22.709.654,3.186,2.254,4.591,4.126,5.699Z" style="fill: #f4ab91;"/>
        <path d="M41.554,54.323c-.654-3.185-2.255-4.591-4.126-5.699.251.752.452,1.639.592,2.713,1.074,8.232-5.687,11.035-8.019,24.871-2.332-13.836-9.091-16.639-8.019-24.871.139-1.074.342-1.961.592-2.713-1.869,1.108-3.472,2.514-4.127,5.699-1.544,7.518,8.195,10.075,11.554,22.71,3.36-12.635,13.099-15.192,11.553-22.71Z" style="fill: #f4ab91;"/>
        <polygon points="28.766 15.827 26.507 17.064 28.766 18.299 30.001 20.557 31.235 18.299 33.494 17.064 31.235 15.827 30.001 13.57 28.766 15.827" style="fill: #f4ab91;"/>
        <polygon points="30.001 56.352 28.766 58.61 26.507 59.846 28.766 61.081 30.001 63.339 31.235 61.081 33.494 59.846 31.235 58.61 30.001 56.352" style="fill: #f4ab91;"/>
      </g>
    </pattern>
    <mask id="mask" x="0" y="-13.659" width="859.99" height="768.2" maskUnits="userSpaceOnUse">
      <rect x="552.684" y="-13.534" width="307.181" height="767.95" style="fill: url(#Nueva_muestra_de_motivo_24); stroke: #000; stroke-miterlimit: 10; stroke-width: .25px;"/>
    </mask>
    <linearGradient id="_Безымянный_градиент_2848" data-name="Безымянный градиент 2848" x1="659.517" y1="390.368" x2="786.627" y2="390.368" gradientUnits="userSpaceOnUse">
      <stop offset=".245" stop-color="#929cc0"/>
      <stop offset=".929" stop-color="#929cc0"/>
    </linearGradient>
    <linearGradient id="_Безымянный_градиент_2192" data-name="Безымянный градиент 2192" x1="309.138" y1="479.099" x2="734.132" y2="554.036" gradientUnits="userSpaceOnUse">
      <stop offset=".245" stop-color="#165ea0"/>
      <stop offset=".929" stop-color="#18163a"/>
    </linearGradient>
    <mask id="mask-1" x="303.436" y="-27.716" width="422.957" height="1057.391" maskUnits="userSpaceOnUse">
      <g style="mix-blend-mode: hue;">
        <rect x="303.436" y="-27.716" width="422.957" height="1057.391" style="fill: url(#Nueva_muestra_de_motivo_24);"/>
      </g>
    </mask>
    <linearGradient id="_Безымянный_градиент_2623" data-name="Безымянный градиент 2623" x1="309.138" y1="479.099" x2="734.132" y2="554.036" gradientUnits="userSpaceOnUse">
      <stop offset=".245" stop-color="#fff"/>
      <stop offset=".929" stop-color="#929cc0"/>
    </linearGradient>
    <linearGradient id="_Безымянный_градиент_2628-2" data-name="Безымянный градиент 2628" x1="534.417" y1="860.46" x2="697.711" y2="860.46" xlink:href="#_Безымянный_градиент_2628"/>
    <linearGradient id="_Безымянный_градиент_2628-3" data-name="Безымянный градиент 2628" x1="535.492" y1="813.694" x2="697.711" y2="813.694" xlink:href="#_Безымянный_градиент_2628"/>
    <linearGradient id="_Безымянный_градиент_2628-4" data-name="Безымянный градиент 2628" x1="536.884" y1="849.465" x2="697.125" y2="849.465" xlink:href="#_Безымянный_градиент_2628"/>
    <mask id="mask-2" x="474.646" y="379.349" width="307.431" height="768.2" maskUnits="userSpaceOnUse">
      <rect x="474.771" y="379.474" width="307.181" height="767.95" style="fill: url(#Nueva_muestra_de_motivo_24); stroke: #000; stroke-miterlimit: 10; stroke-width: .25px;"/>
    </mask>
    <linearGradient id="_Безымянный_градиент_2848-2" data-name="Безымянный градиент 2848" x1="534.417" y1="860.46" x2="697.711" y2="860.46" xlink:href="#_Безымянный_градиент_2848"/>
    <linearGradient id="_Безымянный_градиент_2848-3" data-name="Безымянный градиент 2848" x1="535.492" y1="813.694" x2="697.711" y2="813.694" xlink:href="#_Безымянный_градиент_2848"/>
    <linearGradient id="_Безымянный_градиент_2848-4" data-name="Безымянный градиент 2848" x1="536.884" y1="849.465" x2="697.125" y2="849.465" xlink:href="#_Безымянный_градиент_2848"/>
    <linearGradient id="_Безымянный_градиент_2192-2" data-name="Безымянный градиент 2192" x1="322.802" y1="882.901" x2="496.82" y2="882.901" xlink:href="#_Безымянный_градиент_2192"/>
    <linearGradient id="_Безымянный_градиент_2192-3" data-name="Безымянный градиент 2192" x1="331.075" y1="837.277" x2="507.813" y2="837.277" xlink:href="#_Безымянный_градиент_2192"/>
    <mask id="mask-3" x="261.031" y="520.03" width="307.431" height="768.2" maskUnits="userSpaceOnUse">
      <rect x="261.156" y="520.155" width="307.181" height="767.95" style="fill: url(#Nueva_muestra_de_motivo_24); stroke: #000; stroke-miterlimit: 10; stroke-width: .25px;"/>
    </mask>
    <linearGradient id="_Безымянный_градиент_2623-2" data-name="Безымянный градиент 2623" x1="322.802" y1="882.901" x2="496.82" y2="882.901" xlink:href="#_Безымянный_градиент_2623"/>
    <linearGradient id="_Безымянный_градиент_2623-3" data-name="Безымянный градиент 2623" x1="331.075" y1="837.277" x2="507.813" y2="837.277" xlink:href="#_Безымянный_градиент_2623"/>
    <linearGradient id="_Безымянный_градиент_1262" data-name="Безымянный градиент 1262" x1="-53.752" y1="256.856" x2="169.666" y2="356.328" gradientTransform="translate(539.712)" gradientUnits="userSpaceOnUse">
      <stop offset=".089" stop-color="#5e7286"/>
      <stop offset=".416" stop-color="#53677a"/>
      <stop offset=".919" stop-color="#3c4f60"/>
    </linearGradient>
    <linearGradient id="_Безымянный_градиент_1260" data-name="Безымянный градиент 1260" x1="-78.339" y1="309.828" x2="-41.078" y2="309.828" gradientTransform="translate(539.712)" gradientUnits="userSpaceOnUse">
      <stop offset="0" stop-color="#b8d9f1"/>
      <stop offset=".197" stop-color="#b2d2ea"/>
      <stop offset=".465" stop-color="#a3c1d9"/>
      <stop offset=".774" stop-color="#8aa4bd"/>
      <stop offset="1" stop-color="#748ba4"/>
    </linearGradient>
    <linearGradient id="_Безымянный_градиент_1170" data-name="Безымянный градиент 1170" x1="30.7" y1="283.511" x2="74.685" y2="335.931" gradientTransform="translate(539.712)" gradientUnits="userSpaceOnUse">
      <stop offset="0" stop-color="#39d6ba"/>
      <stop offset=".159" stop-color="#37c5b1"/>
      <stop offset=".472" stop-color="#32999c"/>
      <stop offset=".908" stop-color="#2b5279"/>
      <stop offset="1" stop-color="#2a4372"/>
    </linearGradient>
    <linearGradient id="_Безымянный_градиент_2192-4" data-name="Безымянный градиент 2192" x1="181.833" y1="354.592" x2="384.817" y2="432.511" xlink:href="#_Безымянный_градиент_2192"/>
    <mask id="mask-4" x="112.215" y="116.884" width="309.674" height="768.2" maskUnits="userSpaceOnUse">
      <rect x="112.34" y="117.009" width="307.181" height="767.95" style="fill: url(#Nueva_muestra_de_motivo_24); stroke: #000; stroke-miterlimit: 10; stroke-width: .25px;"/>
    </mask>
    <linearGradient id="_Безымянный_градиент_2623-4" data-name="Безымянный градиент 2623" x1="181.833" y1="354.592" x2="384.817" y2="432.511" xlink:href="#_Безымянный_градиент_2623"/>
    <linearGradient id="_Безымянный_градиент_2770" data-name="Безымянный градиент 2770" x1="288.322" y1="566.576" x2="425.761" y2="608.595" gradientUnits="userSpaceOnUse">
      <stop offset=".245" stop-color="#fbe4bc"/>
      <stop offset=".929" stop-color="#666"/>
    </linearGradient>
    <linearGradient id="_Безымянный_градиент_175" data-name="Безымянный градиент 175" x1="276.544" y1="276.063" x2="297.117" y2="276.063" gradientUnits="userSpaceOnUse">
      <stop offset=".035" stop-color="#7ea8c0"/>
      <stop offset=".162" stop-color="#7ea8c0"/>
      <stop offset=".929" stop-color="#7ea8c0"/>
    </linearGradient>
    <linearGradient id="_Безымянный_градиент_175-2" data-name="Безымянный градиент 175" x1="271.713" y1="285.241" x2="295.402" y2="285.241" xlink:href="#_Безымянный_градиент_175"/>
    <linearGradient id="_Безымянный_градиент_175-3" data-name="Безымянный градиент 175" x1="266.757" y1="273.486" x2="287.615" y2="273.486" xlink:href="#_Безымянный_градиент_175"/>
    <linearGradient id="_Безымянный_градиент_175-4" data-name="Безымянный градиент 175" x1="264.702" y1="283.808" x2="280.875" y2="283.808" xlink:href="#_Безымянный_градиент_175"/>
  </defs>
  <g>
    <g>
      <path d="M498.464,686.714h-185.151c-47.582,0-86.156-36.994-86.156-82.629V218.689c0-39.218,0-63.091,54.68-76.732,16.174-4.035,32.854-5.897,49.567-5.897h167.059c86.156,3.034,86.156,36.994,86.156,82.629v385.395c0,45.635-38.573,82.629-86.156,82.629Z" style="fill: #464c50;"/>
      <path d="M513.246,672.303h-148.285c-64.256,0-69.001-6.068-69.001-76.565V238.625c4.745-71.468,12.654-76.565,83.49-76.565h133.795c69.001,2.811,69.001,34.28,69.001,76.565v357.112c0,42.286-30.893,76.565-69.001,76.565Z" style="fill: #0c0c0a;"/>
    </g>
    <path d="M469.947,1128.906c-66.431,12.136-158.169-9.102-175.568-59.161.316-4.9,2.278-12.879,2.705-17.855.648,2.124,24.152,75.438,175.678,63.424.3,3.868-1.645,10.482-2.815,13.592Z" style="fill: #a21450;"/>
    <path d="M743.58,1084.914c-71.176,36.407-210.365-25.788-210.365-25.788,0,0,.269-8.92.648-18.856,0,0,122.217,65.077,210.254,29.823,1.803,7.736-.538,14.821-.538,14.821Z" style="fill: #a21450;"/>
    <path d="M744.117,1070.093c-88.037,35.254-210.254-29.823-210.254-29.823.775-19.675,2.056-55.247,2.8-92.504,0,0,96.515,26.759,152.507-31.795-5.647,49.119-12.021,90.061-12.021,90.061,50.598,29.854,64.074,51.683,66.969,64.061Z" style="fill: #333;"/>
    <path d="M472.762,1115.314c-151.526,12.014-175.03-61.3-175.678-63.424-.016-.015-.016-.03,0-.045,2.278-27.078,5.931-54.914,9.965-80.793,0,0,85.016,48.315,165.081,2.215-14.077,51.243-25.908,88.893-25.908,88.893,11.578,13.577,25.275,36.21,26.541,53.154Z" style="fill: #4c483d;"/>
    <path d="M322.802,884.949l171.313,2.639c-7.07,29.96-14.821,59.586-21.986,85.677-80.065,46.1-165.081-2.215-165.081-2.215,5.33-34.192,11.341-64.986,15.754-86.102Z" style="fill: #fbe4bc;"/>
    <g>
      <path d="M703.072,223.635c16.717,14.817,42.22,73.686,62.186,113.162,22.696,44.875,27.846,75.794,12.885,128.884-14.226,50.482-42.56,103.78-62.755,97.41,0,0,2.233-57.653-40.938-59.928,0,0-20.618-25.985-9.866-46.211,8.512-16.012-12.633-200.015-2.008-220.83,9.977-19.544,26.888-24.548,40.496-12.487Z" style="fill: url(#_Безымянный_градиент_2628);"/>
      <g style="mask: url(#mask);">
        <path d="M703.072,223.635c16.717,14.817,42.22,73.686,62.186,113.162,22.696,44.875,27.846,75.794,12.885,128.884-14.226,50.482-42.56,103.78-62.755,97.41,0,0,2.233-57.653-40.938-59.928,0,0-20.618-25.985-9.866-46.211,8.512-16.012-12.633-200.015-2.008-220.83,9.977-19.544,26.888-24.548,40.496-12.487Z" style="fill: url(#_Безымянный_градиент_2848);"/>
      </g>
    </g>
    <path d="M718.365,563.611l-10.793,3.228s-16.375,49.613-55.824,27.127-6.699-79.595-6.699-79.595l20.097-11.207s50.242-19.876,53.219,60.448Z" style="fill: #666;"/>
    <path d="M718.359,563.614l-10.79,3.226s-8.801-58.305-46.512-61.406l4.087-2.276s50.24-19.877,53.215,60.456Z" style="fill: #2c2826;"/>
    <path d="M765.265,336.791c-19.967-39.468-45.472-98.347-62.195-113.152-13.604-12.063-30.524-7.062-40.489,12.475-7.653,15.002,1.183,114.711,3.549,175.257l111.915-45.508c-3.298-9.249-7.582-18.802-12.78-29.072ZM730.654,266.512l15.844,31.904s-33.23-1.613-47.623,15.88c0,0-5.27-26.939-14.715-35.112,0,0,17.673-19.59,46.494-12.672Z" style="fill: #d5c2a4;"/>
    <path d="M664.45,208.858s17.677-8.786,27.678,8.268l-20.892,67.154-6.786-75.422Z" style="fill: #2c2826;"/>
    <g>
      <path d="M534.417,813.455c-4.698-67.034-10.692-81.991-10.692-81.991l-15.912,92.276s-77.139,14.912-174.555,0c18.316-167.32,23.472-548.576,24.263-618.234.079-6.083,5.315-10.922,11.641-10.786l293.42,6.447c5.299.106,9.743,3.914,10.423,8.95,22.697,166.986.981,309.519.981,340.829,0,27.639,17.857,138.649,22.587,216.105-16.56,15.033-35.035,25.439-53.414,32.599-12.685,4.93-25.323,8.328-37.265,10.634-39.068,7.524-70.607,3.292-71.477,3.17Z" style="fill: url(#_Безымянный_градиент_2192);"/>
      <g style="mask: url(#mask-1);">
        <path d="M534.417,813.455c-4.698-67.034-10.692-81.991-10.692-81.991l-15.912,92.276s-77.139,14.912-174.555,0c18.316-167.32,23.472-548.576,24.263-618.234.079-6.083,5.315-10.922,11.641-10.786l293.42,6.447c5.299.106,9.743,3.914,10.423,8.95,22.697,166.986.981,309.519.981,340.829,0,27.639,17.857,138.649,22.587,216.105-16.56,15.033-35.035,25.439-53.414,32.599-12.685,4.93-25.323,8.328-37.265,10.634-39.068,7.524-70.607,3.292-71.477,3.17Z" style="fill: url(#_Безымянный_градиент_2623);"/>
      </g>
    </g>
    <path d="M696.097,842.156c-1.582,24.013-4.16,49.877-6.912,73.8l-.016.015c-55.992,58.554-152.507,31.795-152.507,31.795.522-26.365.791-53.564.427-76.545,75.067,16.884,159.007-29.065,159.007-29.065Z" style="fill: #c25f4e;"/>
    <g>
      <path d="M697.711,799.727c0,32.918-4.033,77.167-8.525,116.229l-.016.015c-55.992,58.554-152.507,31.795-152.507,31.795.728-36.543.965-74.68-.285-101.014-.617-12.318-1.281-23.376-1.961-33.297,1.534.212,96.705,12.97,162.155-46.404.728,11.817,1.139,22.845,1.139,32.675Z" style="fill: url(#_Безымянный_градиент_2628-2);"/>
      <path d="M697.711,799.727s-66.906,51.485-161.57,42.429c-.079-1.487-.158-2.958-.237-4.414-.127-2.503-.269-4.976-.411-7.372,12.574,2.7,25.687,3.049,38.799,1.775,22.017-2.124,43.955-8.829,63.094-16.58,34.607-13.986,60.025-31.401,60.025-31.401.095,2.73.174,5.385.221,7.979.016,1.016.032,2.017.047,3.019.016,1.547.032,3.064.032,4.566Z" style="fill: url(#_Безымянный_градиент_2628-3);"/>
      <path d="M697.125,823.983c-.269,5.886-.617,11.969-1.028,18.173,0,0-83.94,45.949-159.007,29.065-.047-3.701-.127-7.297-.206-10.755,15.896,2.457,30.859,3.155,44.746,2.609,23.789-.925,44.477-5.507,61.512-11.241,32.251-10.861,51.452-25.819,53.983-27.851Z" style="fill: url(#_Безымянный_градиент_2628-4);"/>
    </g>
    <g style="mask: url(#mask-2);">
      <g>
        <path d="M697.711,799.727c0,32.918-4.033,77.167-8.525,116.229l-.016.015c-55.992,58.554-152.507,31.795-152.507,31.795.728-36.543.965-74.68-.285-101.014-.617-12.318-1.281-23.376-1.961-33.297,1.534.212,96.705,12.97,162.155-46.404.728,11.817,1.139,22.845,1.139,32.675Z" style="fill: url(#_Безымянный_градиент_2848-2);"/>
        <path d="M697.711,799.727s-66.906,51.485-161.57,42.429c-.079-1.487-.158-2.958-.237-4.414-.127-2.503-.269-4.976-.411-7.372,12.574,2.7,25.687,3.049,38.799,1.775,22.017-2.124,43.955-8.829,63.094-16.58,34.607-13.986,60.025-31.401,60.025-31.401.095,2.73.174,5.385.221,7.979.016,1.016.032,2.017.047,3.019.016,1.547.032,3.064.032,4.566Z" style="fill: url(#_Безымянный_градиент_2848-3);"/>
        <path d="M697.125,823.983c-.269,5.886-.617,11.969-1.028,18.173,0,0-83.94,45.949-159.007,29.065-.047-3.701-.127-7.297-.206-10.755,15.896,2.457,30.859,3.155,44.746,2.609,23.789-.925,44.477-5.507,61.512-11.241,32.251-10.861,51.452-25.819,53.983-27.851Z" style="fill: url(#_Безымянный_градиент_2848-4);"/>
      </g>
    </g>
    <path d="M697.41,784.163s-25.418,17.415-60.025,31.401l-63.094,16.58c-13.112,1.274-26.224.925-38.799-1.775-.348-5.977-.712-11.605-1.076-16.914.87.121,32.409,4.354,71.477-3.17,11.942-2.306,24.579-5.704,37.265-10.634,18.379-7.16,36.853-17.566,53.414-32.599.095,1.471.174,2.943.253,4.399.047.789.095,1.578.127,2.366.063,1.123.126,2.245.174,3.352.111,2.366.206,4.703.285,6.993Z" style="fill: #d5c2a4;"/>
    <path d="M697.711,799.727c0,7.494-.206,15.594-.585,24.074v.182c-2.531,2.033-21.732,16.99-53.983,27.851l-61.512,11.241c-13.887.546-28.85-.152-44.746-2.609-.142-4.839-.301-9.435-.506-13.713-.079-1.547-.158-3.064-.237-4.566v-.03c94.664,9.056,161.57-42.429,161.57-42.429Z" style="fill: #464c50;"/>
    <path d="M696.097,842.156c-1.582,24.013-4.16,49.877-6.912,73.8l-.016.015c-55.992,58.554-152.507,31.795-152.507,31.795.522-26.365.791-53.564.427-76.545,75.067,16.884,159.007-29.065,159.007-29.065Z" style="fill: #d5c2a4;"/>
    <ellipse cx="469.156" cy="436.417" rx="18.189" ry="17.445"/>
    <ellipse cx="270.202" cy="418.972" rx="18.189" ry="17.445"/>
    <ellipse cx="617.835" cy="527.434" rx="19.771" ry="18.962"/>
    <path d="M442.689,523.13c6.384,9.195,4.289,21.292-4.679,27.02-8.968,5.728-21.414,2.918-27.799-6.277-6.384-9.195-4.289-21.292,4.679-27.02s21.414-2.918,27.799,6.277Z"/>
    <path d="M518.189,208.858c-8.161-.243-16.339-.501-24.437-.804l-3.337-25.606c8.13,8.874,17.351,17.703,27.775,26.41Z" style="fill: #a27450;"/>
    <path d="M680.375,172.861s-8.668,17.87-9.522,37.575c0,0-253.371,2.169-304.871-15.048,0,0,3.48-7.448-9.965-26.198l324.358,3.671Z" style="fill: #4e4a3b;"/>
    <ellipse cx="613.09" cy="439.45" rx="18.189" ry="17.445"/>
    <path d="M623.38,426.467c-9.499-1.428-26.67,4.997-22.153,18.293,12.654,24.271,55.359,18.203,77.503,48.542,14.235-7.585,46.234-51.567-55.35-66.835Z" style="fill: #4e4a3b;"/>
    <path d="M507.813,823.74l-1.487,7.843c-3.59,18.279-7.766,37.211-12.211,56.006-1.408.288-86.661,17.202-171.313-2.639,3.78-18.097,6.374-29.095,6.374-29.095,1.424-9.511,2.784-20.282,4.081-32.114,97.416,14.912,174.555,0,174.555,0Z" style="fill: #464c50;"/>
    <g>
      <path d="M496.82,875.984c-.886,3.868-1.787,7.737-2.705,11.605-1.408.288-86.661,17.202-171.313-2.639,1.076-5.188,2.072-9.8,2.926-13.728,48.748,21.435,171.092,4.763,171.092,4.763Z" style="fill: url(#_Безымянный_градиент_2192-2);"/>
      <path d="M507.813,823.74l-1.487,7.843c-.823,4.187-1.677,8.419-2.562,12.667,0,0-102.778,16.08-172.689-2.093.743-5.795,1.471-11.954,2.183-18.416,97.416,14.912,174.555,0,174.555,0Z" style="fill: url(#_Безымянный_градиент_2192-3);"/>
    </g>
    <g style="mask: url(#mask-3);">
      <g>
        <path d="M496.82,875.984c-.886,3.868-1.787,7.737-2.705,11.605-1.408.288-86.661,17.202-171.313-2.639,1.076-5.188,2.072-9.8,2.926-13.728,48.748,21.435,171.092,4.763,171.092,4.763Z" style="fill: url(#_Безымянный_градиент_2623-2);"/>
        <path d="M507.813,823.74l-1.487,7.843c-.823,4.187-1.677,8.419-2.562,12.667,0,0-102.778,16.08-172.689-2.093.743-5.795,1.471-11.954,2.183-18.416,97.416,14.912,174.555,0,174.555,0Z" style="fill: url(#_Безымянный_градиент_2623-3);"/>
      </g>
    </g>
    <path d="M503.764,844.249c-2.167,10.467-4.508,21.101-6.944,31.735,0,0-122.344,16.671-171.092-4.763,2.135-9.769,3.448-15.367,3.448-15.367.648-4.308,1.281-8.889,1.898-13.698,69.911,18.173,172.689,2.093,172.689,2.093Z" style="fill: #464c50;"/>
    <path d="M419.633,390.576c-14.471,14.754-35.742,28.31-66.141,31.43,2.879-108.675-6.778-180.598-1.94-213.147.895-6.023,9.676-14.702,16.003-14.566l4.991.504c14.283.865,65.656,9.402,78.42,89.421,2.326,14.532,1.135,29.62-1.064,44.451-3.425,23.09-13.607,44.92-30.269,61.907Z" style="fill: #2c2826;"/>
    <path d="M528.47,666.235l-1.759,36.269c-1.404,19.858-3.211,38.488-6.812,57.483l-12.086,63.753s-77.139,14.912-174.555,0c1.012-9.314,1.993-19.296,2.942-29.854l83.244-3.246,14.425-28.989,4.445-8.95,56.941-17.035,33.216-69.431Z" style="fill: #fbe4bc;"/>
    <path d="M520.387,623.76c-1.105.838-22.874-63.449-79.007-93.221-3.79-2.01-8.091-3.002-12.417-2.797-6.802.322-15.187,2.882-12.317,14.102,4.268,16.686,43.81,19.72,78.607,94.051,0,0,20.214,1.517,25.133-12.136Z" style="fill: #675a52;"/>
    <path d="M583.829,623.694s33.52-26.286,22.798-91.759c-.48-2.931.383-5.932,2.37-8.208.773-.885,1.69-1.786,2.748-2.581,6.541-4.918,16.231-.934,17.381,6.958,2.762,18.965,8.026,78.58-27.699,113.86l-17.598-18.27Z" style="fill: #675a52;"/>
    <g>
      <path d="M598.064,649.548c-12.654,15.17-69.594,25.788-69.594,16.686-5.33-13.653-33.216-30.339-33.216-30.339,4.745-10.619,17.399-12.136,23.725-13.653,18.98-4.551,64.849,1.517,64.849,1.517,0,0,26.889,10.619,14.235,25.788Z" style="fill: #2c2826;"/>
      <path d="M528.47,666.235l-1.813,37.353s58.754-34.319,71.408-54.039" style="fill: #2c2826;"/>
    </g>
    <ellipse cx="511.862" cy="505.438" rx="37.17" ry="36.407" style="fill: #675a52;"/>
    <path d="M537.737,494.893c5.43,11.896,1.013,25.242-9.865,29.809-10.878,4.567-24.098-1.374-29.528-13.27-5.43-11.896-1.013-25.242,9.865-29.809s24.098,1.374,29.528,13.27Z" style="fill: #0e0c0c;"/>
    <path d="M281.524,410.901c23.439,19.931,98.906,73.65,176.797,17.083,0,0,25.227-11.243,22.381,11.868-2.738,22.227-118.366,77.501-217.004-10.079-6.239-5.54-5.459-15.227,1.559-19.83h0c5.016-3.29,11.721-2.908,16.268.959Z" style="fill: #4e4a3b;"/>
    <g>
      <polygon points="461.372 277.279 493.037 240.964 699.787 255.174 696.062 386.224 666.26 400.434 472.213 378.685 461.372 277.279" style="fill: #232d3c;"/>
      <polygon points="699.787 255.174 696.067 386.224 498.634 359.382 493.035 240.964 699.787 255.174" style="fill: url(#_Безымянный_градиент_1262);"/>
      <polygon points="472.209 378.692 461.372 277.279 493.035 240.964 498.634 359.382 472.209 378.692" style="fill: url(#_Безымянный_градиент_1260);"/>
      <path d="M594.341,350.119l-7.846-.248c-4.319-.137-7.713-3.679-7.579-7.912l3.487-65.218c.134-4.233,3.744-7.554,8.063-7.418l7.846.248c4.319.137,7.713,3.679,7.579,7.912l-3.487,65.218c-.134,4.233-3.744,7.554-8.063,7.418Z" style="fill: url(#_Безымянный_градиент_1170);"/>
      <polygon points="650.841 305.699 625.579 302.542 627.158 280.437 652.42 282.016 650.841 305.699" style="fill: #101411;"/>
      <polygon points="676.104 354.645 654.466 352.067 655.578 324.646 677.683 327.804 676.104 354.645" style="fill: #77d8a4;"/>
      <ellipse cx="635.842" cy="334.12" rx="12.631" ry="10.263" transform="translate(245.459 937.056) rotate(-84.799)" style="fill: #101411;"/>
      <ellipse cx="665.813" cy="278.858" rx="2.86" ry="2.323" transform="translate(327.747 916.651) rotate(-84.799)" style="fill: #101411;"/>
      <ellipse cx="672.158" cy="278.858" rx="2.86" ry="2.323" transform="translate(333.517 922.97) rotate(-84.799)" style="fill: #101411;"/>
      <ellipse cx="678.503" cy="278.858" rx="2.86" ry="2.323" transform="translate(301.149 907.93) rotate(-81.384)" style="fill: #101411;"/>
      <polygon points="515.055 357.803 504.003 356.224 502.424 324.646 513.476 324.646 515.055 357.803" style="fill: #818bb5;"/>
      <ellipse cx="507.161" cy="312.804" rx="4.737" ry="5.526" transform="translate(-16.598 28.664) rotate(-3.185)" style="fill: #d67211;"/>
      <polygon points="515.055 261.49 515.41 275.257 523.191 275.965 523.675 265.307 515.055 261.49" style="fill: #101411;"/>
      <polygon points="527.687 263.069 527.715 276.377 535.496 277.085 535.979 266.427 527.687 263.069" style="fill: #101411;"/>
      <polygon points="540.403 263.263 540.02 277.497 547.801 278.205 548.284 267.547 540.403 263.263" style="fill: #101411;"/>
      <polygon points="552.708 264.383 552.324 278.617 560.105 279.325 560.589 268.667 552.708 264.383" style="fill: #101411;"/>
    </g>
    <g>
      <path d="M325.79,224.146c-31.246,15.98-79.607,45.156-116.924,87.73-42.422,48.398-51.353,116.06-23.39,173.317,26.59,54.445,67.558,121.618,105.305,114.747,0,0-6.997-55.94,59.816-78.285,0,0,8.756-22.264-11.341-44.077-15.91-17.269-21.557-61.58,14.819-77.877,35.483-15.897,61.045-47.067,66.372-84.279,3.816-26.655.893-55.36-18.968-77.809-18.648-21.079-50.257-26.475-75.69-13.467Z" style="fill: url(#_Безымянный_градиент_2192-4);"/>
      <g style="mask: url(#mask-4);">
        <path d="M325.79,224.146c-31.246,15.98-79.607,45.156-116.924,87.73-42.422,48.398-51.353,116.06-23.39,173.317,26.59,54.445,67.558,121.618,105.305,114.747,0,0-6.997-55.94,59.816-78.285,0,0,8.756-22.264-11.341-44.077-15.91-17.269-21.557-61.58,14.819-77.877,35.483-15.897,61.045-47.067,66.372-84.279,3.816-26.655.893-55.36-18.968-77.809-18.648-21.079-50.257-26.475-75.69-13.467Z" style="fill: url(#_Безымянный_градиент_2623-4);"/>
      </g>
    </g>
    <path d="M391.397,373.713c-10.396,10.736-23.068,19.608-37.317,25.989-8.567,3.836-14.805,9.231-19.124,15.45,0,0-67.016-81.517-155.953-53.108,6.596-17.995,16.579-35.023,29.861-50.168,5.861-6.703,11.991-13.048,18.3-19.071-6.076,11.65,66.622,15.343,66.622,15.343,14.93-6.506,26.061-17.135,33.499-26.258,40.973,30.488,63.629,90.55,64.095,91.805l.018.018Z" style="fill: #fbe4bc;"/>
    <path d="M283.635,600.38l12.347,2.691s35.092,69.232,84.757,53.243c44.168-14.219,52.418-53.281,39.699-83.264-12.719-29.982-60.652-39.549-60.652-39.549l-7.717-18.067s-73.409,18.546-68.434,84.945Z" style="fill: url(#_Безымянный_градиент_2770);"/>
    <path d="M359.78,533.502s-49.702,12.618-63.79,69.561l-12.349-2.689c-4.983-66.389,68.432-84.94,68.432-84.94l7.707,18.067Z" style="fill: #2c2826;"/>
    <path d="M338.863,264.505s-3.8,7.886-11.579,17.386c-7.438,9.123-18.569,19.752-33.499,26.258,0,0-72.698-3.692-66.622-15.343l.018-.018c9.302-8.908,18.963-17.081,28.642-24.555,11.023-8.514,22.046-16.113,32.567-22.745,0,0,41.834-4.266,50.473,19.017Z" style="fill: #fbe4bc;"/>
    <polygon points="666.13 411.371 666.13 411.389 666.112 411.389 666.13 411.371" style="fill: #942034;"/>
  </g>
  <g>
    <path d="M297.059,268.604c-.201-.904-1.307-1.079-2.073-1.171-1.061-.128-2.111-.203-3.179-.102-1.353.127-2.722.463-3.983.978-1.245.509-2.402,1.26-3.76,1.439-1.039.138-2.095.177-3.112.453-1.337.363-2.63.963-3.677,1.885v.002c-.511.45-.903.886-.654.98.158.06.315.12.473.18,4.273,1.624,7.218,6.402,7.27,10.891.004.383-.042.804.611.681,2.22-.422,3.566-2.334,4.446-4.243.541-1.173,1.26-1.869,2.269-2.635.698-.53,1.354-1.122,1.964-1.751,1.309-1.349,2.402-2.935,2.982-4.737.271-.845.62-1.96.421-2.85ZM291.605,273.583c-.256,1.151-1.375,1.87-2.559,1.642-1.177-.225-2.007-1.46-1.754-2.609.241-1.096,1.435-1.846,2.583-1.623,1.238.24,1.999,1.379,1.73,2.59Z" style="fill: url(#_Безымянный_градиент_175);"/>
    <path d="M291.874,281.912c-.516,1.199-.867,2.286-1.672,3.353-2.807,3.721-7.913,5.456-12.365,4.028-.185-.059-.415-.055-.485-.259-.101-.297.173-.389.357-.51.586-.381,1.177-.757,1.756-1.145,1.1-.738,2.194-1.175,2.529-2.599.115-.488.11-1.004-.011-1.49-.024-.095-.408-1.133-.381-1.151v-.002c-3.255,2.219-6.407,4.372-9.564,6.515-.518.352-.353.573.054.873.395.291.785.588,1.194.857,4.327,2.849,10.197,3.058,14.742.581,4.658-2.538,7.795-7.799,7.328-13.161-1.516,1.095-2.731,2.367-3.482,4.11Z" style="fill: url(#_Безымянный_градиент_175-2);"/>
    <path d="M268.193,282.465c.83-.576,1.698-1.1,2.543-1.654,1.171-.768,2.342-1.537,3.513-2.307,1.109-.729,2.337-1.394,3.367-2.227-1.374-1.063-2.903-1.683-4.507-.611-1.077.719-1.952,1.839-3.304,2.035-.133-1.654.791-3.61,1.611-4.992,1.847-3.11,5.171-5.28,8.803-5.462.937-.047,1.831.168,2.755.183.83.015,1.622-.286,2.369-.618.375-.167.744-.347,1.122-.51.192-.082.962-.51,1.148-.421-3.699-1.768-7.168-2.019-10.748-.981-3.278.95-5.754,3.005-7.784,5.676-1.243,2.306-2.365,4.647-2.324,7.365.021,1.407.127,2.792.488,4.16.17.646.404.741.947.364Z" style="fill: url(#_Безымянный_градиент_175-3);"/>
    <path d="M280.757,279.287c-.317-.67-1.336-1.564-2.106-1.04-1.803,1.225-3.65,2.383-5.481,3.564-2.55,1.645-5.099,3.29-7.652,4.932-.616.396-.934.922-.777,1.673.138.66.601.966.978,1.056.832.187,1.277-.15,1.735-.446,3.708-2.391,7.409-4.792,11.132-7.162.825-.525,2.789-1.276,2.172-2.577Z" style="fill: url(#_Безымянный_градиент_175-4);"/>
  </g>
</svg>