<?xml version="1.0" encoding="UTF-8"?>
<svg xmlns="http://www.w3.org/2000/svg" xmlns:xlink="http://www.w3.org/1999/xlink" viewBox="0 0 1183.778 1285.927">
  <defs>
    <clipPath id="clippath">
      <path d="M714.084,239.349c16.771,14.864,42.355,73.922,62.385,113.524,22.769,45.019,27.935,76.037,12.926,129.296-14.272,50.643-42.696,104.113-62.955,97.722,0,0,2.24-57.837-41.069-60.12,0,0-20.684-26.068-9.898-46.359,8.539-16.063-12.673-200.655-2.014-221.536,10.009-19.607,26.974-24.626,40.625-12.527Z" style="fill: #942034;"/>
    </clipPath>
    <pattern id="Nueva_muestra_de_motivo_18" data-name="Nueva muestra de motivo 18" x="0" y="0" width="100" height="100" patternTransform="translate(-341.928 132.942)" patternUnits="userSpaceOnUse" viewBox="0 0 100 100">
      <g>
        <rect width="100" height="100" style="fill: none;"/>
        <path d="M28.887,11.391H12.018l12.722,12.721c.217-4.684,1.712-9.037,4.147-12.721Z" style="fill: #894682;"/>
        <path d="M11.391,32.914c3.796-3.096,8.637-4.955,13.905-4.955h2.035l-2.07-2.07c-5.163.008-9.946,1.65-13.87,4.431v2.595Z" style="fill: #894682;"/>
        <path d="M11.391,28.887c3.684-2.435,8.037-3.93,12.721-4.147l-12.721-12.721v16.868Z" style="fill: #894682;"/>
        <path d="M32.913,88.609c-3.095-3.796-4.955-8.637-4.955-13.905v-2.035l-2.07,2.07c.008,5.162,1.65,9.946,4.432,13.87h2.594Z" style="fill: #894682;"/>
        <path d="M24.739,75.888l-12.722,12.722h16.869c-2.435-3.684-3.931-8.037-4.147-12.722Z" style="fill: #894682;"/>
        <path d="M27.958,25.296c0-5.269,1.86-10.109,4.955-13.905h-2.594c-2.781,3.924-4.424,8.707-4.432,13.87l2.07,2.07v-2.035Z" style="fill: #894682;"/>
        <polygon points="71.58 29.663 71.58 70.338 91.917 50.001 71.58 29.663" style="fill: #894682;"/>
        <polygon points="70.336 71.581 29.663 71.581 50 91.917 70.336 71.581" style="fill: #894682;"/>
        <polygon points="29.664 28.42 70.337 28.421 50 8.084 29.664 28.42" style="fill: #894682;"/>
        <polygon points="28.42 70.338 28.419 29.665 8.083 50.001 28.42 70.338" style="fill: #894682;"/>
        <path d="M27.331,72.041h-2.035c-5.269,0-10.109-1.859-13.905-4.955v2.595c3.924,2.78,8.707,4.423,13.87,4.431l2.07-2.07Z" style="fill: #894682;"/>
        <path d="M87.981,11.391h-16.868c2.435,3.684,3.929,8.037,4.147,12.722l12.721-12.722Z" style="fill: #894682;"/>
        <path d="M88.869,10.503l2.959-2.958h-23.834c.908.92,1.745,1.908,2.505,2.958h18.37Z" style="fill: #894682;"/>
        <path d="M89.497,33.675c1.092.99,2.082,2.09,2.958,3.278v-3.251c-.907-.988-1.899-1.897-2.958-2.723v2.695Z" style="fill: #894682;"/>
        <path d="M93.343,93.343h-26.269c-4.503,4.13-10.497,6.657-17.074,6.657h50v-50c0,6.577-2.528,12.571-6.657,17.075v26.268Z" style="fill: #894682;"/>
        <path d="M11.391,87.981l12.721-12.721c-4.684-.218-9.037-1.713-12.721-4.147v16.868Z" style="fill: #894682;"/>
        <path d="M6.656,6.657h26.269C37.428,2.527,43.423,0,50,0H0v50c0-6.577,2.527-12.571,6.656-17.075V6.657Z" style="fill: #894682;"/>
        <path d="M6.656,93.343v-26.268C2.527,62.571,0,56.577,0,50v50h50c-6.577,0-12.572-2.527-17.075-6.657H6.656Z" style="fill: #894682;"/>
        <path d="M92.455,8.172l-2.958,2.959v18.369c1.049.76,2.038,1.598,2.958,2.505V8.172Z" style="fill: #894682;"/>
        <path d="M72.041,74.704c0,5.269-1.86,10.109-4.955,13.905h2.594c2.781-3.924,4.424-8.708,4.432-13.87l-2.07-2.07v2.035Z" style="fill: #894682;"/>
        <path d="M88.609,67.086c-3.796,3.096-8.638,4.955-13.905,4.955h-2.035l2.069,2.07c5.163-.008,9.946-1.65,13.871-4.432v-2.594Z" style="fill: #894682;"/>
        <path d="M74.111,25.261c-.008-5.163-1.65-9.946-4.432-13.87h-2.594c3.095,3.796,4.955,8.637,4.955,13.905v2.035l2.07-2.07Z" style="fill: #894682;"/>
        <path d="M71.113,88.609h16.868l-12.721-12.722c-.219,4.685-1.713,9.038-4.147,12.722Z" style="fill: #894682;"/>
        <path d="M88.609,71.113c-3.685,2.435-8.037,3.93-12.722,4.147l12.722,12.721v-16.868Z" style="fill: #894682;"/>
        <rect x="29.269" y="29.27" width="41.461" height="41.461" style="fill: #894682;"/>
        <path d="M50.443,96.734v2.07c5.621-.102,10.779-2.131,14.835-5.462h-3.536c-3.285,2.077-7.152,3.309-11.299,3.392Z" style="fill: #894682;"/>
        <path d="M66.325,89.497c-.99,1.092-2.09,2.082-3.279,2.958h3.252c.987-.907,1.896-1.898,2.723-2.958h-2.695Z" style="fill: #894682;"/>
        <path d="M71.153,74.704v-2.738l-21.153,21.152-21.154-21.153v2.739c0,11.664,9.489,21.153,21.154,21.153s21.153-9.489,21.153-21.153Z" style="fill: #894682;"/>
        <path d="M88.609,32.914v-2.595c-3.925-2.78-8.708-4.423-13.871-4.431l-2.069,2.07h2.035c5.268,0,10.109,1.859,13.905,4.955Z" style="fill: #894682;"/>
        <path d="M11.13,89.497l-2.958,2.958h23.833c-.908-.92-1.745-1.908-2.505-2.958H11.13Z" style="fill: #894682;"/>
        <path d="M70.499,89.497c-.76,1.05-1.597,2.038-2.505,2.958h23.834l-2.959-2.958h-18.37Z" style="fill: #894682;"/>
        <path d="M34.721,93.343c4.056,3.331,9.214,5.36,14.835,5.462v-2.07c-4.146-.083-8.014-1.314-11.299-3.392h-3.536Z" style="fill: #894682;"/>
        <path d="M89.497,69.02c1.059-.825,2.051-1.734,2.958-2.723v-3.252c-.876,1.189-1.866,2.289-2.958,3.279v2.695Z" style="fill: #894682;"/>
        <path d="M89.497,88.869l2.958,2.959v-23.833c-.92.907-1.909,1.745-2.958,2.505v18.369Z" style="fill: #894682;"/>
        <path d="M93.343,61.742v3.536c3.33-4.056,5.359-9.214,5.462-14.835h-2.071c-.082,4.146-1.314,8.015-3.391,11.299Z" style="fill: #894682;"/>
        <path d="M50,0c6.577,0,12.571,2.527,17.074,6.657h26.269v26.268c4.129,4.504,6.657,10.498,6.657,17.075V0h-50Z" style="fill: #894682;"/>
        <path d="M93.343,38.258c2.077,3.284,3.309,7.152,3.391,11.299h2.071c-.103-5.621-2.132-10.779-5.462-14.835v3.536Z" style="fill: #894682;"/>
        <path d="M74.704,28.846h-2.741l21.156,21.155-21.154,21.153h2.739c11.663,0,21.153-9.49,21.153-21.154s-9.49-21.154-21.153-21.154Z" style="fill: #894682;"/>
        <path d="M10.503,70.5c-1.05-.76-2.039-1.598-2.959-2.505v23.833l2.959-2.959v-18.369Z" style="fill: #894682;"/>
        <path d="M33.674,89.497h-2.695c.826,1.06,1.735,2.051,2.723,2.958h3.252c-1.189-.876-2.289-1.866-3.279-2.958Z" style="fill: #894682;"/>
        <path d="M88.609,12.019l-12.722,12.721c4.685.218,9.037,1.713,12.722,4.147V12.019Z" style="fill: #894682;"/>
        <path d="M49.556,3.266V1.195c-5.621.102-10.779,2.131-14.835,5.462h3.536c3.285-2.077,7.152-3.309,11.299-3.392Z" style="fill: #894682;"/>
        <path d="M28.846,25.296v2.74L50,6.883l21.153,21.153v-2.74c0-11.664-9.49-21.153-21.153-21.153s-21.154,9.489-21.154,21.153Z" style="fill: #894682;"/>
        <path d="M65.278,6.657c-4.056-3.331-9.214-5.36-14.835-5.462v2.07c4.146.083,8.014,1.315,11.299,3.392h3.536Z" style="fill: #894682;"/>
        <path d="M1.194,50.443c.103,5.621,2.132,10.779,5.462,14.835v-3.535c-2.077-3.285-3.309-7.153-3.391-11.3H1.194Z" style="fill: #894682;"/>
        <path d="M66.325,10.503h2.695c-.826-1.06-1.735-2.051-2.723-2.958h-3.252c1.189.876,2.289,1.866,3.279,2.958Z" style="fill: #894682;"/>
        <path d="M33.674,10.503c.99-1.092,2.09-2.082,3.279-2.958h-3.252c-.987.907-1.897,1.899-2.723,2.958h2.695Z" style="fill: #894682;"/>
        <path d="M7.544,66.298c.908.988,1.899,1.897,2.959,2.724v-2.696c-1.093-.99-2.083-2.09-2.959-3.279v3.252Z" style="fill: #894682;"/>
        <path d="M25.296,71.154h2.739L6.88,50.001l21.156-21.155h-2.74c-11.665,0-21.154,9.49-21.154,21.154s9.489,21.154,21.154,21.154Z" style="fill: #894682;"/>
        <path d="M6.656,38.257v-3.535c-3.33,4.056-5.359,9.214-5.462,14.835h2.071c.082-4.146,1.313-8.015,3.391-11.3Z" style="fill: #894682;"/>
        <path d="M29.5,10.503c.76-1.05,1.597-2.038,2.505-2.958H8.172l2.958,2.958h18.37Z" style="fill: #894682;"/>
        <path d="M10.503,11.131l-2.959-2.959v23.833c.92-.907,1.909-1.745,2.959-2.505V11.131Z" style="fill: #894682;"/>
        <path d="M10.503,30.979c-1.06.826-2.051,1.735-2.959,2.724v3.251c.876-1.188,1.866-2.288,2.959-3.279v-2.695Z" style="fill: #894682;"/>
        <path d="M93.343,32.925c4.129,4.504,6.657,10.498,6.657,17.075s-2.528,12.571-6.657,17.075v26.268h-26.269c-4.503,4.13-10.497,6.657-17.074,6.657s-12.572-2.527-17.075-6.657H6.656v-26.268C2.527,62.571,0,56.577,0,50s2.527-12.571,6.656-17.075V6.657h26.269C37.428,2.527,43.423,0,50,0s12.571,2.527,17.074,6.657h26.269v26.268ZM92.455,32.005V8.172l-2.958,2.959v18.369c1.049.76,2.038,1.598,2.958,2.505ZM89.497,30.98v2.695c1.092.99,2.082,2.09,2.958,3.278v-3.251c-.907-.988-1.899-1.897-2.958-2.723ZM67.994,7.545c.908.92,1.745,1.908,2.505,2.958h18.37l2.959-2.958h-23.834ZM72.041,25.296v2.035l2.07-2.07c-.008-5.163-1.65-9.946-4.432-13.87h-2.594c3.095,3.796,4.955,8.637,4.955,13.905ZM88.609,87.981v-16.868c-3.685,2.435-8.037,3.93-12.722,4.147l12.722,12.721ZM75.261,75.888c-.219,4.685-1.713,9.038-4.147,12.722h16.868l-12.721-12.722ZM88.609,69.68v-2.594c-3.796,3.096-8.638,4.955-13.905,4.955h-2.035l2.069,2.07c5.163-.008,9.946-1.65,13.871-4.432ZM72.041,72.669v2.035c0,5.269-1.86,10.109-4.955,13.905h2.594c2.781-3.924,4.424-8.708,4.432-13.87l-2.07-2.07ZM11.391,71.113v16.868l12.721-12.721c-4.684-.218-9.037-1.713-12.721-4.147ZM25.261,74.111l2.07-2.07h-2.035c-5.269,0-10.109-1.859-13.905-4.955v2.595c3.924,2.78,8.707,4.423,13.87,4.431ZM12.018,88.609h16.869c-2.435-3.684-3.931-8.037-4.147-12.722l-12.722,12.722ZM30.319,88.609h2.594c-3.095-3.796-4.955-8.637-4.955-13.905v-2.035l-2.07,2.07c.008,5.162,1.65,9.946,4.432,13.87ZM11.391,12.019v16.868c3.684-2.435,8.037-3.93,12.721-4.147l-12.721-12.721ZM24.739,24.111c.217-4.684,1.712-9.037,4.147-12.721H12.018l12.722,12.721ZM11.391,30.319v2.595c3.796-3.096,8.637-4.955,13.905-4.955h2.035l-2.07-2.07c-5.163.008-9.946,1.65-13.87,4.431ZM27.958,27.331v-2.035c0-5.269,1.86-10.109,4.955-13.905h-2.594c-2.781,3.924-4.424,8.707-4.432,13.87l2.07,2.07ZM70.73,29.27H29.269s0,41.461,0,41.461h41.46V29.27ZM70.337,28.421l-20.337-20.337-20.336,20.336h40.673ZM28.419,29.665l-20.336,20.336,20.337,20.337V29.665ZM29.663,71.581l20.337,20.336,20.336-20.336H29.663ZM71.58,70.338l20.337-20.337-20.337-20.338v40.675ZM75.261,24.112l12.721-12.722h-16.868c2.435,3.684,3.929,8.037,4.147,12.722ZM72.669,27.959h2.035c5.268,0,10.109,1.859,13.905,4.955v-2.595c-3.925-2.78-8.708-4.423-13.871-4.431l-2.069,2.07ZM88.609,28.887V12.019l-12.722,12.721c4.685.218,9.037,1.713,12.722,4.147ZM66.298,7.545h-3.252c1.189.876,2.289,1.866,3.279,2.958h2.695c-.826-1.06-1.735-2.051-2.723-2.958ZM50.443,3.266c4.146.083,8.014,1.315,11.299,3.392h3.536c-4.056-3.331-9.214-5.36-14.835-5.462v2.07ZM50,4.143c-11.665,0-21.154,9.489-21.154,21.153v2.74L50,6.883l21.153,21.153v-2.74c0-11.664-9.49-21.153-21.153-21.153ZM34.721,6.657h3.536c3.285-2.077,7.152-3.309,11.299-3.392V1.195c-5.621.102-10.779,2.131-14.835,5.462ZM30.979,10.503h2.695c.99-1.092,2.09-2.082,3.279-2.958h-3.252c-.987.907-1.897,1.899-2.723,2.958ZM8.172,7.545l2.958,2.958h18.37c.76-1.05,1.597-2.038,2.505-2.958H8.172ZM7.544,32.005c.92-.907,1.909-1.745,2.959-2.505V11.131l-2.959-2.959v23.833ZM7.544,36.953c.876-1.188,1.866-2.288,2.959-3.279v-2.695c-1.06.826-2.051,1.735-2.959,2.724v3.251ZM4.142,50c0,11.664,9.489,21.154,21.154,21.154h2.739L6.88,50.001l21.156-21.155h-2.74c-11.665,0-21.154,9.49-21.154,21.154ZM7.544,63.046v3.252c.908.988,1.899,1.897,2.959,2.724v-2.696c-1.093-.99-2.083-2.09-2.959-3.279ZM1.194,49.557h2.071c.082-4.146,1.313-8.015,3.391-11.3v-3.535c-3.33,4.056-5.359,9.214-5.462,14.835ZM6.656,61.743c-2.077-3.285-3.309-7.153-3.391-11.3H1.194c.103,5.621,2.132,10.779,5.462,14.835v-3.535ZM7.544,91.828l2.959-2.959v-18.369c-1.05-.76-2.039-1.598-2.959-2.505v23.833ZM32.005,92.455c-.908-.92-1.745-1.908-2.505-2.958H11.13l-2.958,2.958h23.833ZM33.701,92.455h3.252c-1.189-.876-2.289-1.866-3.279-2.958h-2.695c.826,1.06,1.735,2.051,2.723,2.958ZM49.556,96.734c-4.146-.083-8.014-1.314-11.299-3.392h-3.536c4.056,3.331,9.214,5.36,14.835,5.462v-2.07ZM50,95.857c11.663,0,21.153-9.489,21.153-21.153v-2.738l-21.153,21.152-21.154-21.153v2.739c0,11.664,9.489,21.153,21.154,21.153ZM65.278,93.343h-3.536c-3.285,2.077-7.152,3.309-11.299,3.392v2.07c5.621-.102,10.779-2.131,14.835-5.462ZM69.02,89.497h-2.695c-.99,1.092-2.09,2.082-3.279,2.958h3.252c.987-.907,1.896-1.898,2.723-2.958ZM91.828,92.455l-2.959-2.958h-18.37c-.76,1.05-1.597,2.038-2.505,2.958h23.834ZM92.455,67.995c-.92.907-1.909,1.745-2.958,2.505v18.369l2.958,2.959v-23.833ZM92.455,63.046c-.876,1.189-1.866,2.289-2.958,3.279v2.695c1.059-.825,2.051-1.734,2.958-2.723v-3.252ZM95.857,50c0-11.664-9.49-21.154-21.153-21.154h-2.741l21.156,21.155-21.154,21.153h2.739c11.663,0,21.153-9.49,21.153-21.154ZM98.805,50.443h-2.071c-.082,4.146-1.314,8.015-3.391,11.299v3.536c3.33-4.056,5.359-9.214,5.462-14.835ZM93.343,34.722v3.536c2.077,3.284,3.309,7.152,3.391,11.299h2.071c-.103-5.621-2.132-10.779-5.462-14.835Z" style="fill: #c4a2c0;"/>
      </g>
    </pattern>
    <linearGradient id="_Безымянный_градиент_146" data-name="Безымянный градиент 146" x1="-761.491" y1="495.63" x2="-335.137" y2="570.807" gradientTransform="translate(1080.38)" gradientUnits="userSpaceOnUse">
      <stop offset=".245" stop-color="#dc7544"/>
      <stop offset=".929" stop-color="#942034"/>
    </linearGradient>
    <clipPath id="clippath-1">
      <path d="M544.889,831.056c-4.713-67.249-10.726-82.254-10.726-82.254l-15.963,92.571s-77.386,14.959-175.114,0c18.375-167.855,23.547-550.331,24.341-620.213.079-6.102,5.332-10.957,11.679-10.82l294.359,6.468c5.316.107,9.774,3.926,10.457,8.979,22.77,167.521.984,310.51.984,341.92,0,27.727,17.914,139.093,22.659,216.797-16.613,15.081-35.147,25.521-53.585,32.704-12.726,4.946-25.404,8.355-37.384,10.668-39.193,7.548-70.833,3.302-71.705,3.181Z" style="fill: url(#_Безымянный_градиент_146);"/>
    </clipPath>
    <clipPath id="clippath-2">
      <path d="M708.705,817.284s-67.12,51.65-162.087,42.565c-.079-1.491-.159-2.968-.238-4.428-.127-2.511-.27-4.992-.413-7.396,12.615,2.709,25.769,3.059,38.923,1.78,22.088-2.131,44.096-8.857,63.296-16.633,34.718-14.031,60.217-31.501,60.217-31.501.095,2.739.175,5.402.222,8.005.016,1.02.032,2.024.048,3.028.016,1.552.032,3.074.032,4.581Z" style="fill: #942034;"/>
    </clipPath>
    <clipPath id="clippath-3">
      <path d="M708.118,841.618c-.27,5.905-.619,12.007-1.031,18.231,0,0-84.209,46.096-159.516,29.158-.048-3.713-.127-7.32-.206-10.79,15.947,2.465,30.958,3.165,44.889,2.618,23.865-.928,44.62-5.524,61.709-11.277,32.354-10.896,51.617-25.901,54.156-27.94Z" style="fill: #942034;"/>
    </clipPath>
    <linearGradient id="_Безымянный_градиент_146-2" data-name="Безымянный градиент 146" x1="-747.783" y1="900.725" x2="-573.209" y2="900.725" xlink:href="#_Безымянный_градиент_146"/>
    <linearGradient id="_Безымянный_градиент_146-3" data-name="Безымянный градиент 146" x1="-747.783" y1="900.725" x2="-573.209" y2="900.725" xlink:href="#_Безымянный_градиент_146"/>
    <clipPath id="clippath-4">
      <path d="M507.172,893.785c-.889,3.881-1.793,7.761-2.713,11.642-1.412.289-86.938,17.257-171.861-2.648,1.079-5.205,2.079-9.831,2.936-13.772,48.904,21.503,171.639,4.778,171.639,4.778Z" style="fill: url(#_Безымянный_градиент_146-3);"/>
    </clipPath>
    <linearGradient id="_Безымянный_градиент_146-4" data-name="Безымянный градиент 146" x1="-739.485" y1="854.954" x2="-562.181" y2="854.954" xlink:href="#_Безымянный_градиент_146"/>
    <linearGradient id="_Безымянный_градиент_146-5" data-name="Безымянный градиент 146" x1="-739.485" y1="854.954" x2="-562.181" y2="854.954" xlink:href="#_Безымянный_градиент_146"/>
    <clipPath id="clippath-5">
      <path d="M518.2,841.374l-1.492,7.868c-.825,4.2-1.682,8.446-2.571,12.707,0,0-103.107,16.131-173.242-2.1.746-5.813,1.476-11.992,2.19-18.475,97.728,14.959,175.114,0,175.114,0Z" style="fill: url(#_Безымянный_градиент_146-5);"/>
    </clipPath>
    <linearGradient id="_Безымянный_градиент_1262" data-name="Безымянный градиент 1262" x1="-41.46" y1="273.311" x2="181.958" y2="372.783" gradientTransform="translate(539.712)" gradientUnits="userSpaceOnUse">
      <stop offset=".089" stop-color="#5e7286"/>
      <stop offset=".416" stop-color="#53677a"/>
      <stop offset=".919" stop-color="#3c4f60"/>
    </linearGradient>
    <linearGradient id="_Безымянный_градиент_1260" data-name="Безымянный градиент 1260" x1="-66.047" y1="326.284" x2="-28.786" y2="326.284" gradientTransform="translate(539.712)" gradientUnits="userSpaceOnUse">
      <stop offset="0" stop-color="#b8d9f1"/>
      <stop offset=".197" stop-color="#b2d2ea"/>
      <stop offset=".465" stop-color="#a3c1d9"/>
      <stop offset=".774" stop-color="#8aa4bd"/>
      <stop offset="1" stop-color="#748ba4"/>
    </linearGradient>
    <linearGradient id="_Безымянный_градиент_1170" data-name="Безымянный градиент 1170" x1="42.992" y1="299.967" x2="86.977" y2="352.386" gradientTransform="translate(539.712)" gradientUnits="userSpaceOnUse">
      <stop offset="0" stop-color="#39d6ba"/>
      <stop offset=".159" stop-color="#37c5b1"/>
      <stop offset=".472" stop-color="#32999c"/>
      <stop offset=".908" stop-color="#2b5279"/>
      <stop offset="1" stop-color="#2a4372"/>
    </linearGradient>
    <linearGradient id="_Безымянный_градиент_160" data-name="Безымянный градиент 160" x1="-889.203" y1="370.725" x2="-685.57" y2="448.893" gradientTransform="translate(1080.38)" gradientUnits="userSpaceOnUse">
      <stop offset=".037" stop-color="#d87043"/>
      <stop offset=".817" stop-color="#d87043"/>
      <stop offset="1" stop-color="#942034"/>
    </linearGradient>
    <clipPath id="clippath-6">
      <path d="M335.594,239.861c-31.346,16.031-79.861,45.3-117.298,88.011-42.557,48.553-51.518,116.431-23.465,173.872,26.675,54.619,67.775,122.007,105.642,115.114,0,0-7.019-56.119,60.008-78.536,0,0,8.784-22.335-11.377-44.218-15.961-17.324-21.626-61.777,14.867-78.126,35.597-15.947,61.24-47.218,66.584-84.549,3.828-26.74.895-55.538-19.028-78.058-18.708-21.146-50.418-26.559-75.933-13.51Z" style="fill: url(#_Безымянный_градиент_160);"/>
    </clipPath>
    <linearGradient id="_Безымянный_градиент_146-6" data-name="Безымянный градиент 146" x1="-787.318" y1="603.95" x2="-644.393" y2="603.95" xlink:href="#_Безымянный_градиент_146"/>
  </defs>
  <g style="isolation: isolate;">
    <g id="_Слой_9" data-name="Слой 9">
      <g id="sout01_1">
        <g>
          <path d="M508.821,703.909h-185.743c-47.735,0-86.431-37.113-86.431-82.894V234.387c0-39.343,0-63.293,54.855-76.978,16.226-4.048,32.96-5.916,49.726-5.916h167.594c86.431,3.044,86.431,37.113,86.431,82.894v386.629c0,45.781-38.697,82.894-86.431,82.894Z" style="fill: #464c50;"/>
          <path d="M523.651,689.452h-148.759c-64.461,0-69.222-6.087-69.222-76.81V254.386c4.76-71.696,12.694-76.81,83.757-76.81h134.223c69.222,2.82,69.222,34.389,69.222,76.81v358.255c0,42.421-30.992,76.81-69.222,76.81Z" style="fill: #0c0c0a;"/>
        </g>
        <path d="M480.213,1147.516c-66.644,12.174-158.675-9.131-176.13-59.35.317-4.916,2.285-12.92,2.713-17.912.651,2.131,24.23,75.679,176.241,63.627.301,3.88-1.65,10.516-2.824,13.635Z" style="fill: #a21450;"/>
        <path d="M754.721,1103.384c-71.404,36.523-211.038-25.871-211.038-25.871,0,0,.27-8.948.651-18.916,0,0,122.608,65.285,210.927,29.919,1.809,7.761-.54,14.868-.54,14.868Z" style="fill: #a21450;"/>
        <path d="M755.261,1088.516c-88.319,35.367-210.927-29.919-210.927-29.919.778-19.738,2.063-55.424,2.809-92.8,0,0,96.824,26.845,152.995-31.897-5.665,49.276-12.059,90.35-12.059,90.35,50.76,29.949,64.279,51.848,67.183,64.266Z" style="fill: #333;"/>
        <path d="M483.037,1133.881c-152.011,12.053-175.59-61.496-176.241-63.627-.016-.015-.016-.03,0-.046,2.285-27.164,5.95-55.089,9.997-81.051,0,0,85.288,48.47,165.609,2.222-14.122,51.407-25.991,89.178-25.991,89.178,11.615,13.62,25.356,36.326,26.626,53.324Z" style="fill: #4c483d;"/>
        <path d="M332.597,902.779l171.861,2.648c-7.093,30.056-14.868,59.777-22.056,85.952-80.321,46.248-165.609-2.222-165.609-2.222,5.347-34.302,11.377-65.194,15.804-86.378Z" style="fill: #fbe4bc;"/>
        <g>
          <path d="M714.084,239.349c16.771,14.864,42.355,73.922,62.385,113.524,22.769,45.019,27.935,76.037,12.926,129.296-14.272,50.643-42.696,104.113-62.955,97.722,0,0,2.24-57.837-41.069-60.12,0,0-20.684-26.068-9.898-46.359,8.539-16.063-12.673-200.655-2.014-221.536,10.009-19.607,26.974-24.626,40.625-12.527Z" style="fill: #942034;"/>
          <g style="clip-path: url(#clippath);">
            <g style="mix-blend-mode: soft-light;">
              <rect x="580.067" y="21.413" width="308.162" height="770.405" style="fill: url(#Nueva_muestra_de_motivo_18);"/>
            </g>
          </g>
        </g>
        <path d="M729.426,580.412l-10.827,3.238s-16.428,49.772-56.003,27.214c-39.575-22.559-6.72-79.85-6.72-79.85l20.161-11.243s50.403-19.94,53.39,60.642Z" style="fill: #942034;"/>
        <path d="M729.419,580.415l-10.825,3.237s-8.829-58.492-46.661-61.603l4.1-2.284s50.401-19.941,53.385,60.65Z" style="fill: #2c2826;"/>
        <path d="M789.296,382.031l-112.273,45.654c-2.373-60.74-11.238-160.768-3.56-175.818,9.997-19.599,26.971-24.616,40.619-12.515,16.776,14.852,42.363,73.92,62.394,113.514,5.214,10.303,9.512,19.887,12.82,29.165ZM695.112,295.076c9.476,8.199,14.762,35.225,14.762,35.225,14.439-17.549,47.775-15.931,47.775-15.931l-15.895-32.006c-28.913-6.941-46.643,12.713-46.643,12.713Z" style="fill: #d5c2a4;"/>
        <path d="M675.338,224.525s17.733-8.814,27.767,8.294l-20.959,67.369-6.807-75.663Z" style="fill: #2c2826;"/>
        <g>
          <path d="M544.889,831.056c-4.713-67.249-10.726-82.254-10.726-82.254l-15.963,92.571s-77.386,14.959-175.114,0c18.375-167.855,23.547-550.331,24.341-620.213.079-6.102,5.332-10.957,11.679-10.82l294.359,6.468c5.316.107,9.774,3.926,10.457,8.979,22.77,167.521.984,310.51.984,341.92,0,27.727,17.914,139.093,22.659,216.797-16.613,15.081-35.147,25.521-53.585,32.704-12.726,4.946-25.404,8.355-37.384,10.668-39.193,7.548-70.833,3.302-71.705,3.181Z" style="fill: url(#_Безымянный_градиент_146);"/>
          <g style="clip-path: url(#clippath-1);">
            <g style="mix-blend-mode: soft-light;">
              <rect x="313.652" width="423.344" height="1058.361" style="fill: url(#Nueva_muestra_de_motivo_18);"/>
            </g>
          </g>
        </g>
        <path d="M708.705,817.284c0,33.023-4.046,77.414-8.553,116.601l-.016.015c-56.171,58.742-152.995,31.897-152.995,31.897.73-36.66.968-74.919-.286-101.337-.619-12.357-1.285-23.451-1.968-33.404,1.539.213,97.014,13.011,162.674-46.552.73,11.855,1.142,22.918,1.142,32.78Z" style="fill: #942034;"/>
        <path d="M708.404,801.67s-25.499,17.47-60.217,31.501l-63.296,16.633c-13.154,1.278-26.308.928-38.923-1.78-.349-5.996-.714-11.642-1.079-16.968.873.122,32.513,4.368,71.705-3.181,11.98-2.313,24.658-5.722,37.384-10.668,18.438-7.183,36.971-17.623,53.585-32.704.095,1.476.175,2.952.254,4.413.048.791.095,1.583.127,2.374.063,1.126.127,2.252.175,3.363.111,2.374.206,4.718.286,7.016Z" style="fill: #d5c2a4;"/>
        <g>
          <path d="M708.705,817.284s-67.12,51.65-162.087,42.565c-.079-1.491-.159-2.968-.238-4.428-.127-2.511-.27-4.992-.413-7.396,12.615,2.709,25.769,3.059,38.923,1.78,22.088-2.131,44.096-8.857,63.296-16.633,34.718-14.031,60.217-31.501,60.217-31.501.095,2.739.175,5.402.222,8.005.016,1.02.032,2.024.048,3.028.016,1.552.032,3.074.032,4.581Z" style="fill: #942034;"/>
          <g style="clip-path: url(#clippath-2);">
            <g style="mix-blend-mode: soft-light;">
              <rect x="473.256" y="446.093" width="308.162" height="770.405" style="fill: url(#Nueva_muestra_de_motivo_18);"/>
            </g>
          </g>
        </g>
        <path d="M708.705,817.284c0,7.518-.206,15.644-.587,24.151v.183c-2.539,2.039-21.802,17.044-54.156,27.94l-61.709,11.277c-13.932.548-28.942-.152-44.889-2.618-.143-4.855-.301-9.466-.508-13.757-.079-1.552-.159-3.074-.238-4.581v-.03c94.967,9.085,162.087-42.565,162.087-42.565Z" style="fill: #464c50;"/>
        <g>
          <path d="M708.118,841.618c-.27,5.905-.619,12.007-1.031,18.231,0,0-84.209,46.096-159.516,29.158-.048-3.713-.127-7.32-.206-10.79,15.947,2.465,30.958,3.165,44.889,2.618,23.865-.928,44.62-5.524,61.709-11.277,32.354-10.896,51.617-25.901,54.156-27.94Z" style="fill: #942034;"/>
          <g style="clip-path: url(#clippath-3);">
            <g style="mix-blend-mode: soft-light;">
              <rect x="473.66" y="481.979" width="308.162" height="770.405" style="fill: url(#Nueva_muestra_de_motivo_18);"/>
            </g>
          </g>
        </g>
        <path d="M707.087,859.849c-1.587,24.09-4.173,50.037-6.934,74.036l-.016.015c-56.171,58.742-152.995,31.897-152.995,31.897.524-26.449.793-53.735.428-76.79,75.307,16.938,159.516-29.158,159.516-29.158Z" style="fill: #d5c2a4;"/>
        <ellipse cx="479.419" cy="452.811" rx="18.248" ry="17.501"/>
        <ellipse cx="279.829" cy="435.31" rx="18.248" ry="17.501"/>
        <ellipse cx="628.574" cy="544.119" rx="19.834" ry="19.023"/>
        <path d="M452.868,539.802c6.405,9.224,4.303,21.36-4.694,27.106-8.997,5.746-21.483,2.927-27.888-6.297-6.405-9.224-4.303-21.36,4.694-27.106,8.997-5.746,21.483-2.927,27.888,6.297Z"/>
        <path d="M528.609,224.525c-8.188-.244-16.391-.502-24.515-.807l-3.348-25.688c8.156,8.903,17.407,17.76,27.863,26.495Z" style="fill: #a27450;"/>
        <path d="M691.314,188.412s-8.695,17.927-9.552,37.695c0,0-254.182,2.176-305.847-15.096,0,0,3.491-7.472-9.997-26.282l325.396,3.683Z" style="fill: #4e4a3b;"/>
        <ellipse cx="623.814" cy="455.855" rx="18.248" ry="17.501"/>
        <path d="M634.137,442.83c-9.53-1.432-26.755,5.013-22.224,18.351,12.694,24.349,55.536,18.262,77.751,48.698,14.281-7.609,46.382-51.732-55.527-67.049Z" style="fill: #4e4a3b;"/>
        <path d="M518.2,841.374l-1.492,7.868c-3.602,18.338-7.791,37.33-12.25,56.185-1.412.289-86.938,17.257-171.861-2.648,3.792-18.155,6.395-29.188,6.395-29.188,1.428-9.542,2.793-20.347,4.094-32.217,97.728,14.959,175.114,0,175.114,0Z" style="fill: #464c50;"/>
        <g>
          <path d="M507.172,893.785c-.889,3.881-1.793,7.761-2.713,11.642-1.412.289-86.938,17.257-171.861-2.648,1.079-5.205,2.079-9.831,2.936-13.772,48.904,21.503,171.639,4.778,171.639,4.778Z" style="fill: url(#_Безымянный_градиент_146-2);"/>
          <g style="clip-path: url(#clippath-4);">
            <g style="mix-blend-mode: soft-light;">
              <rect x="265.803" y="515.522" width="308.162" height="770.405" style="fill: url(#Nueva_muestra_de_motivo_18);"/>
            </g>
          </g>
        </g>
        <g>
          <path d="M518.2,841.374l-1.492,7.868c-.825,4.2-1.682,8.446-2.571,12.707,0,0-103.107,16.131-173.242-2.1.746-5.813,1.476-11.992,2.19-18.475,97.728,14.959,175.114,0,175.114,0Z" style="fill: url(#_Безымянный_градиент_146-4);"/>
          <g style="clip-path: url(#clippath-5);">
            <g style="mix-blend-mode: soft-light;">
              <rect x="275.467" y="469.752" width="308.162" height="770.405" style="fill: url(#Nueva_muestra_de_motivo_18);"/>
            </g>
          </g>
        </g>
        <path d="M514.137,861.949c-2.174,10.501-4.522,21.168-6.966,31.836,0,0-122.735,16.725-171.639-4.778,2.142-9.8,3.459-15.416,3.459-15.416.651-4.322,1.285-8.918,1.904-13.742,70.135,18.231,173.242,2.1,173.242,2.1Z" style="fill: #464c50;"/>
        <path d="M429.738,406.823c-14.518,14.801-35.856,28.401-66.353,31.531,2.888-109.022-6.799-181.176-1.946-213.829.898-6.042,9.707-14.749,16.054-14.612l5.007.505c14.328.867,65.866,9.432,78.671,89.707,2.333,14.579,1.139,29.715-1.068,44.593-3.436,23.164-13.651,45.063-30.366,62.105Z" style="fill: #2c2826;"/>
        <path d="M538.923,683.365l-1.765,36.386c-1.409,19.921-3.221,38.612-6.834,57.667l-12.125,63.957s-77.386,14.959-175.114,0c1.015-9.344,1.999-19.357,2.951-29.949l83.511-3.257,14.471-29.082,4.459-8.979,57.123-17.09,33.322-69.653Z" style="fill: #fbe4bc;"/>
        <path d="M530.814,640.754c-1.109.84-22.948-63.652-79.259-93.519-3.802-2.017-8.117-3.011-12.456-2.806-6.824.323-15.235,2.891-12.357,14.147,4.281,16.74,43.95,19.783,78.859,94.352,0,0,20.279,1.522,25.214-12.174Z" style="fill: #675a52;"/>
        <path d="M594.459,640.688s33.627-26.371,22.871-92.053c-.482-2.941.384-5.951,2.377-8.234.775-.888,1.696-1.792,2.756-2.589,6.562-4.933,16.283-.937,17.436,6.98,2.771,19.025,8.052,78.832-27.787,114.225l-17.654-18.328Z" style="fill: #675a52;"/>
        <g>
          <path d="M608.74,666.625c-12.694,15.218-69.817,25.871-69.817,16.74-5.347-13.696-33.322-30.436-33.322-30.436,4.76-10.653,17.454-12.174,23.801-13.696,19.041-4.565,65.057,1.522,65.057,1.522,0,0,26.975,10.653,14.281,25.871Z" style="fill: #2c2826;"/>
          <path d="M538.923,683.365l-1.819,37.472s58.942-34.429,71.636-54.212" style="fill: #2c2826;"/>
        </g>
        <ellipse cx="522.262" cy="522.053" rx="37.289" ry="36.523" style="fill: #675a52;"/>
        <path d="M548.22,511.475c5.447,11.934,1.016,25.322-9.897,29.904s-24.175-1.379-29.622-13.313c-5.447-11.934-1.016-25.322,9.897-29.904,10.913-4.582,24.175,1.379,29.622,13.313Z" style="fill: #0e0c0c;"/>
        <path d="M291.187,427.214c23.514,19.995,99.223,73.885,177.363,17.138,0,0,25.308-11.279,22.452,11.906-2.746,22.298-118.745,77.749-217.699-10.112-6.259-5.557-5.477-15.276,1.564-19.894h0c5.032-3.301,11.759-2.917,16.32.962Z" style="fill: #4e4a3b;"/>
        <g>
          <polygon points="473.665 293.735 505.329 257.42 712.08 271.63 708.354 402.679 678.553 416.889 484.505 395.14 473.665 293.735" style="fill: #232d3c;"/>
          <polygon points="712.08 271.63 708.359 402.679 510.926 375.838 505.327 257.42 712.08 271.63" style="fill: url(#_Безымянный_градиент_1262);"/>
          <polygon points="484.502 395.148 473.665 293.735 505.327 257.42 510.926 375.838 484.502 395.148" style="fill: url(#_Безымянный_градиент_1260);"/>
          <path d="M606.633,366.575l-7.846-.248c-4.319-.137-7.713-3.679-7.579-7.912l3.487-65.218c.134-4.233,3.744-7.554,8.063-7.418l7.846.248c4.319.137,7.713,3.679,7.579,7.912l-3.487,65.218c-.134,4.233-3.744,7.554-8.063,7.418Z" style="fill: url(#_Безымянный_градиент_1170);"/>
          <polygon points="663.134 322.155 637.871 318.997 639.45 296.892 664.712 298.471 663.134 322.155" style="fill: #101411;"/>
          <polygon points="688.396 371.101 666.758 368.523 667.87 341.102 689.975 344.26 688.396 371.101" style="fill: #77d8a4;"/>
          <ellipse cx="648.134" cy="350.575" rx="12.631" ry="10.263" transform="translate(240.249 964.261) rotate(-84.799)" style="fill: #101411;"/>
          <ellipse cx="678.105" cy="295.314" rx="2.86" ry="2.323" transform="translate(322.537 943.856) rotate(-84.799)" style="fill: #101411;"/>
          <ellipse cx="684.45" cy="295.314" rx="2.86" ry="2.323" transform="translate(328.307 950.176) rotate(-84.799)" style="fill: #101411;"/>
          <ellipse cx="690.796" cy="295.314" rx="2.86" ry="2.323" transform="translate(295.33 934.074) rotate(-81.384)" style="fill: #101411;"/>
          <polygon points="527.348 374.259 516.295 372.68 514.716 341.102 525.769 341.102 527.348 374.259" style="fill: #818bb5;"/>
          <ellipse cx="519.453" cy="329.26" rx="4.737" ry="5.526" transform="translate(-17.493 29.372) rotate(-3.185)" style="fill: #d67211;"/>
          <polygon points="527.348 277.946 527.702 291.712 535.483 292.421 535.967 281.763 527.348 277.946" style="fill: #101411;"/>
          <polygon points="539.979 279.524 540.007 292.832 547.788 293.541 548.272 282.883 539.979 279.524" style="fill: #101411;"/>
          <polygon points="552.695 279.718 552.312 293.952 560.093 294.661 560.576 284.003 552.695 279.718" style="fill: #101411;"/>
          <polygon points="565 280.838 564.617 295.072 572.397 295.781 572.881 285.123 565 280.838" style="fill: #101411;"/>
        </g>
        <g>
          <path d="M335.594,239.861c-31.346,16.031-79.861,45.3-117.298,88.011-42.557,48.553-51.518,116.431-23.465,173.872,26.675,54.619,67.775,122.007,105.642,115.114,0,0-7.019-56.119,60.008-78.536,0,0,8.784-22.335-11.377-44.218-15.961-17.324-21.626-61.777,14.867-78.126,35.597-15.947,61.24-47.218,66.584-84.549,3.828-26.74.895-55.538-19.028-78.058-18.708-21.146-50.418-26.559-75.933-13.51Z" style="fill: url(#_Безымянный_градиент_160);"/>
          <g style="clip-path: url(#clippath-6);">
            <g style="mix-blend-mode: soft-light;">
              <rect x="151.267" y="39.88" width="308.162" height="770.405" style="fill: url(#Nueva_muestra_de_motivo_18);"/>
            </g>
          </g>
        </g>
        <path d="M401.411,389.907c-10.429,10.771-23.141,19.671-37.436,26.072-8.595,3.848-14.852,9.26-19.186,15.5,0,0-67.231-81.777-156.452-53.278,6.617-18.053,16.632-35.135,29.956-50.329,5.88-6.725,12.029-13.09,18.358-19.132-6.095,11.688,66.835,15.392,66.835,15.392,14.978-6.527,26.144-17.19,33.606-26.342,41.104,30.586,63.832,90.84,64.3,92.098l.018.018Z" style="fill: #fbe4bc;"/>
        <path d="M293.305,617.299l12.387,2.7s35.204,69.453,85.028,53.414c44.309-14.264,52.586-53.452,39.826-83.53-12.76-30.078-60.846-39.676-60.846-39.676l-7.742-18.124s-73.644,18.605-68.653,85.217Z" style="fill: url(#_Безымянный_градиент_146-6);"/>
        <path d="M369.693,550.207s-49.861,12.659-63.994,69.784l-12.389-2.697c-4.999-66.601,68.651-85.212,68.651-85.212l7.732,18.125Z" style="fill: #2c2826;"/>
        <path d="M348.709,280.349s-3.812,7.912-11.616,17.442c-7.462,9.152-18.628,19.815-33.606,26.342,0,0-72.931-3.704-66.835-15.392l.018-.018c9.332-8.937,19.024-17.136,28.734-24.634,11.058-8.541,22.117-16.165,32.671-22.818,0,0,41.967-4.279,50.634,19.078Z" style="fill: #fbe4bc;"/>
        <polygon points="677.023 427.685 677.023 427.703 677.005 427.703 677.023 427.685" style="fill: #942034;"/>
      </g>
    </g>
  </g>
</svg>